<svg width="150" height="150" viewBox="0 0 150 150" fill="none" xmlns="http://www.w3.org/2000/svg">
<mask id="path-1-inside-1_427_30" fill="white">
<path d="M67.2363 137.769C66.748 139.624 66.3818 141.504 66.1377 143.408C65.8936 145.312 65.7227 147.266 65.625 149.268C59.375 148.535 53.418 147.07 47.7539 144.873C42.0898 142.676 36.8408 139.868 32.0068 136.45C27.1729 133.032 22.7783 129.077 18.8232 124.585C14.8682 120.093 11.499 115.21 8.71582 109.937C5.93262 104.663 3.78418 99.0967 2.27051 93.2373C0.756836 87.3779 0 81.2988 0 75C0 68.1152 0.878906 61.4746 2.63672 55.0781C4.39453 48.6816 6.90918 42.7002 10.1807 37.1338C13.4521 31.5674 17.3584 26.5137 21.8994 21.9727C26.4404 17.4316 31.5186 13.5254 37.1338 10.2539C42.749 6.98242 48.7061 4.46777 55.0049 2.70996C61.3037 0.952148 67.9688 0.0488281 75 0C81.8848 0 88.501 0.878906 94.8486 2.63672C101.196 4.39453 107.178 6.93359 112.793 10.2539C118.408 13.5742 123.462 17.4805 127.954 21.9727C132.446 26.4648 136.377 31.543 139.746 37.207C143.115 42.8711 145.63 48.8281 147.29 55.0781C148.95 61.3281 149.854 67.9688 150 75H144.8C144.116 73.877 143.408 72.7783 142.676 71.7041C141.943 70.6299 141.089 69.6045 140.112 68.6279C139.819 64.3799 139.062 60.2539 137.842 56.25H48.1201C47.7295 59.375 47.4365 62.4756 47.2412 65.5518C47.0459 68.6279 46.9238 71.7773 46.875 75C46.875 78.1738 46.9727 81.2988 47.168 84.375C47.3633 87.4512 47.6807 90.5762 48.1201 93.75H75C75 95.3125 75.1221 96.875 75.3662 98.4375C75.6104 100 75.9277 101.562 76.3184 103.125H49.7314C50.3174 105.908 51.0986 108.96 52.0752 112.28C53.0518 115.601 54.2725 118.848 55.7373 122.021C57.2021 125.195 58.8867 128.174 60.791 130.957C62.6953 133.74 64.8438 136.011 67.2363 137.769ZM134.253 46.875C132.349 42.9199 130.103 39.209 127.515 35.7422C124.927 32.2754 121.997 29.1016 118.726 26.2207C115.454 23.3398 111.987 20.7764 108.325 18.5303C104.663 16.2842 100.708 14.4531 96.46 13.0371C98.2178 15.4785 99.7803 18.0664 101.147 20.8008C102.515 23.5352 103.76 26.3428 104.883 29.2236C106.006 32.1045 106.958 35.0342 107.739 38.0127C108.521 40.9912 109.204 43.9453 109.79 46.875H134.253ZM75 9.375C72.5586 9.375 70.3125 10.0342 68.2617 11.3525C66.2109 12.6709 64.3066 14.4043 62.5488 16.5527C60.791 18.7012 59.2285 21.1182 57.8613 23.8037C56.4941 26.4893 55.249 29.248 54.126 32.0801C53.0029 34.9121 52.0996 37.5977 51.416 40.1367C50.7324 42.6758 50.1709 44.9219 49.7314 46.875H100.269C99.8779 44.9707 99.3164 42.7246 98.584 40.1367C97.8516 37.5488 96.9482 34.8633 95.874 32.0801C94.7998 29.2969 93.5791 26.5625 92.2119 23.877C90.8447 21.1914 89.2822 18.75 87.5244 16.5527C85.7666 14.3555 83.8379 12.6221 81.7383 11.3525C79.6387 10.083 77.3926 9.42383 75 9.375ZM53.6133 12.9639C49.4629 14.3799 45.5078 16.1865 41.748 18.3838C37.9883 20.5811 34.4971 23.1445 31.2744 26.0742C28.0518 29.0039 25.1221 32.2021 22.4854 35.6689C19.8486 39.1357 17.6025 42.8711 15.7471 46.875H40.21C40.7471 44.1895 41.4062 41.333 42.1875 38.3057C42.9688 35.2783 43.9453 32.251 45.1172 29.2236C46.2891 26.1963 47.5586 23.291 48.9258 20.5078C50.293 17.7246 51.8555 15.21 53.6133 12.9639ZM9.375 75C9.375 81.4941 10.2783 87.7441 12.085 93.75H38.6719C38.2812 90.625 37.9883 87.5244 37.793 84.4482C37.5977 81.3721 37.5 78.2227 37.5 75C37.5 71.8262 37.5977 68.7012 37.793 65.625C37.9883 62.5488 38.2812 59.4238 38.6719 56.25H12.085C10.2783 62.2559 9.375 68.5059 9.375 75ZM15.6006 103.125C17.5049 107.08 19.751 110.791 22.3389 114.258C24.9268 117.725 27.8564 120.923 31.1279 123.853C34.3994 126.782 37.915 129.321 41.6748 131.47C45.4346 133.618 49.3896 135.449 53.54 136.963C51.7822 134.521 50.2197 131.934 48.8525 129.199C47.4854 126.465 46.2402 123.657 45.1172 120.776C43.9941 117.896 43.042 114.966 42.2607 111.987C41.4795 109.009 40.7715 106.055 40.1367 103.125H15.6006ZM129.053 116.382C132.227 117.993 135.107 119.971 137.695 122.314C140.283 124.658 142.48 127.295 144.287 130.225C146.094 133.154 147.51 136.279 148.535 139.6C149.561 142.92 150.049 146.387 150 150H140.625C140.625 146.143 139.893 142.505 138.428 139.087C136.963 135.669 134.961 132.69 132.422 130.151C129.883 127.612 126.88 125.586 123.413 124.072C119.946 122.559 116.309 121.826 112.5 121.875C108.594 121.875 104.956 122.607 101.587 124.072C98.2178 125.537 95.2393 127.539 92.6514 130.078C90.0635 132.617 88.0371 135.62 86.5723 139.087C85.1074 142.554 84.375 146.191 84.375 150H75C75 146.436 75.4883 142.993 76.4648 139.673C77.4414 136.353 78.833 133.203 80.6396 130.225C82.4463 127.246 84.6436 124.609 87.2314 122.314C89.8193 120.02 92.7002 118.042 95.874 116.382C92.2119 113.745 89.3799 110.449 87.3779 106.494C85.376 102.539 84.375 98.291 84.375 93.75C84.375 89.8926 85.1074 86.2549 86.5723 82.8369C88.0371 79.4189 90.0391 76.4404 92.5781 73.9014C95.1172 71.3623 98.0957 69.3359 101.514 67.8223C104.932 66.3086 108.594 65.5762 112.5 65.625C116.357 65.625 119.995 66.3574 123.413 67.8223C126.831 69.2871 129.81 71.2891 132.349 73.8281C134.888 76.3672 136.914 79.3701 138.428 82.8369C139.941 86.3037 140.674 89.9414 140.625 93.75C140.625 98.2422 139.624 102.466 137.622 106.421C135.62 110.376 132.764 113.696 129.053 116.382ZM112.5 112.5C115.088 112.5 117.505 112.012 119.751 111.035C121.997 110.059 123.999 108.716 125.757 107.007C127.515 105.298 128.857 103.32 129.785 101.074C130.713 98.8281 131.201 96.3867 131.25 93.75C131.25 91.1621 130.762 88.7451 129.785 86.499C128.809 84.2529 127.466 82.251 125.757 80.4932C124.048 78.7354 122.07 77.3926 119.824 76.4648C117.578 75.5371 115.137 75.0488 112.5 75C109.912 75 107.495 75.4883 105.249 76.4648C103.003 77.4414 101.001 78.7842 99.2432 80.4932C97.4854 82.2021 96.1426 84.1797 95.2148 86.4258C94.2871 88.6719 93.7988 91.1133 93.75 93.75C93.75 96.3379 94.2383 98.7549 95.2148 101.001C96.1914 103.247 97.5342 105.249 99.2432 107.007C100.952 108.765 102.93 110.107 105.176 111.035C107.422 111.963 109.863 112.451 112.5 112.5Z"/>
</mask>
<path d="M67.2363 137.769C66.748 139.624 66.3818 141.504 66.1377 143.408C65.8936 145.312 65.7227 147.266 65.625 149.268C59.375 148.535 53.418 147.07 47.7539 144.873C42.0898 142.676 36.8408 139.868 32.0068 136.45C27.1729 133.032 22.7783 129.077 18.8232 124.585C14.8682 120.093 11.499 115.21 8.71582 109.937C5.93262 104.663 3.78418 99.0967 2.27051 93.2373C0.756836 87.3779 0 81.2988 0 75C0 68.1152 0.878906 61.4746 2.63672 55.0781C4.39453 48.6816 6.90918 42.7002 10.1807 37.1338C13.4521 31.5674 17.3584 26.5137 21.8994 21.9727C26.4404 17.4316 31.5186 13.5254 37.1338 10.2539C42.749 6.98242 48.7061 4.46777 55.0049 2.70996C61.3037 0.952148 67.9688 0.0488281 75 0C81.8848 0 88.501 0.878906 94.8486 2.63672C101.196 4.39453 107.178 6.93359 112.793 10.2539C118.408 13.5742 123.462 17.4805 127.954 21.9727C132.446 26.4648 136.377 31.543 139.746 37.207C143.115 42.8711 145.63 48.8281 147.29 55.0781C148.95 61.3281 149.854 67.9688 150 75H144.8C144.116 73.877 143.408 72.7783 142.676 71.7041C141.943 70.6299 141.089 69.6045 140.112 68.6279C139.819 64.3799 139.062 60.2539 137.842 56.25H48.1201C47.7295 59.375 47.4365 62.4756 47.2412 65.5518C47.0459 68.6279 46.9238 71.7773 46.875 75C46.875 78.1738 46.9727 81.2988 47.168 84.375C47.3633 87.4512 47.6807 90.5762 48.1201 93.75H75C75 95.3125 75.1221 96.875 75.3662 98.4375C75.6104 100 75.9277 101.562 76.3184 103.125H49.7314C50.3174 105.908 51.0986 108.96 52.0752 112.28C53.0518 115.601 54.2725 118.848 55.7373 122.021C57.2021 125.195 58.8867 128.174 60.791 130.957C62.6953 133.74 64.8438 136.011 67.2363 137.769ZM134.253 46.875C132.349 42.9199 130.103 39.209 127.515 35.7422C124.927 32.2754 121.997 29.1016 118.726 26.2207C115.454 23.3398 111.987 20.7764 108.325 18.5303C104.663 16.2842 100.708 14.4531 96.46 13.0371C98.2178 15.4785 99.7803 18.0664 101.147 20.8008C102.515 23.5352 103.76 26.3428 104.883 29.2236C106.006 32.1045 106.958 35.0342 107.739 38.0127C108.521 40.9912 109.204 43.9453 109.79 46.875H134.253ZM75 9.375C72.5586 9.375 70.3125 10.0342 68.2617 11.3525C66.2109 12.6709 64.3066 14.4043 62.5488 16.5527C60.791 18.7012 59.2285 21.1182 57.8613 23.8037C56.4941 26.4893 55.249 29.248 54.126 32.0801C53.0029 34.9121 52.0996 37.5977 51.416 40.1367C50.7324 42.6758 50.1709 44.9219 49.7314 46.875H100.269C99.8779 44.9707 99.3164 42.7246 98.584 40.1367C97.8516 37.5488 96.9482 34.8633 95.874 32.0801C94.7998 29.2969 93.5791 26.5625 92.2119 23.877C90.8447 21.1914 89.2822 18.75 87.5244 16.5527C85.7666 14.3555 83.8379 12.6221 81.7383 11.3525C79.6387 10.083 77.3926 9.42383 75 9.375ZM53.6133 12.9639C49.4629 14.3799 45.5078 16.1865 41.748 18.3838C37.9883 20.5811 34.4971 23.1445 31.2744 26.0742C28.0518 29.0039 25.1221 32.2021 22.4854 35.6689C19.8486 39.1357 17.6025 42.8711 15.7471 46.875H40.21C40.7471 44.1895 41.4062 41.333 42.1875 38.3057C42.9688 35.2783 43.9453 32.251 45.1172 29.2236C46.2891 26.1963 47.5586 23.291 48.9258 20.5078C50.293 17.7246 51.8555 15.21 53.6133 12.9639ZM9.375 75C9.375 81.4941 10.2783 87.7441 12.085 93.75H38.6719C38.2812 90.625 37.9883 87.5244 37.793 84.4482C37.5977 81.3721 37.5 78.2227 37.5 75C37.5 71.8262 37.5977 68.7012 37.793 65.625C37.9883 62.5488 38.2812 59.4238 38.6719 56.25H12.085C10.2783 62.2559 9.375 68.5059 9.375 75ZM15.6006 103.125C17.5049 107.08 19.751 110.791 22.3389 114.258C24.9268 117.725 27.8564 120.923 31.1279 123.853C34.3994 126.782 37.915 129.321 41.6748 131.47C45.4346 133.618 49.3896 135.449 53.54 136.963C51.7822 134.521 50.2197 131.934 48.8525 129.199C47.4854 126.465 46.2402 123.657 45.1172 120.776C43.9941 117.896 43.042 114.966 42.2607 111.987C41.4795 109.009 40.7715 106.055 40.1367 103.125H15.6006ZM129.053 116.382C132.227 117.993 135.107 119.971 137.695 122.314C140.283 124.658 142.48 127.295 144.287 130.225C146.094 133.154 147.51 136.279 148.535 139.6C149.561 142.92 150.049 146.387 150 150H140.625C140.625 146.143 139.893 142.505 138.428 139.087C136.963 135.669 134.961 132.69 132.422 130.151C129.883 127.612 126.88 125.586 123.413 124.072C119.946 122.559 116.309 121.826 112.5 121.875C108.594 121.875 104.956 122.607 101.587 124.072C98.2178 125.537 95.2393 127.539 92.6514 130.078C90.0635 132.617 88.0371 135.62 86.5723 139.087C85.1074 142.554 84.375 146.191 84.375 150H75C75 146.436 75.4883 142.993 76.4648 139.673C77.4414 136.353 78.833 133.203 80.6396 130.225C82.4463 127.246 84.6436 124.609 87.2314 122.314C89.8193 120.02 92.7002 118.042 95.874 116.382C92.2119 113.745 89.3799 110.449 87.3779 106.494C85.376 102.539 84.375 98.291 84.375 93.75C84.375 89.8926 85.1074 86.2549 86.5723 82.8369C88.0371 79.4189 90.0391 76.4404 92.5781 73.9014C95.1172 71.3623 98.0957 69.3359 101.514 67.8223C104.932 66.3086 108.594 65.5762 112.5 65.625C116.357 65.625 119.995 66.3574 123.413 67.8223C126.831 69.2871 129.81 71.2891 132.349 73.8281C134.888 76.3672 136.914 79.3701 138.428 82.8369C139.941 86.3037 140.674 89.9414 140.625 93.75C140.625 98.2422 139.624 102.466 137.622 106.421C135.62 110.376 132.764 113.696 129.053 116.382ZM112.5 112.5C115.088 112.5 117.505 112.012 119.751 111.035C121.997 110.059 123.999 108.716 125.757 107.007C127.515 105.298 128.857 103.32 129.785 101.074C130.713 98.8281 131.201 96.3867 131.25 93.75C131.25 91.1621 130.762 88.7451 129.785 86.499C128.809 84.2529 127.466 82.251 125.757 80.4932C124.048 78.7354 122.07 77.3926 119.824 76.4648C117.578 75.5371 115.137 75.0488 112.5 75C109.912 75 107.495 75.4883 105.249 76.4648C103.003 77.4414 101.001 78.7842 99.2432 80.4932C97.4854 82.2021 96.1426 84.1797 95.2148 86.4258C94.2871 88.6719 93.7988 91.1133 93.75 93.75C93.75 96.3379 94.2383 98.7549 95.2148 101.001C96.1914 103.247 97.5342 105.249 99.2432 107.007C100.952 108.765 102.93 110.107 105.176 111.035C107.422 111.963 109.863 112.451 112.5 112.5Z" stroke="#0071E9" stroke-width="26" mask="url(#path-1-inside-1_427_30)"/>
</svg>
