<svg width="2229" height="1949" viewBox="0 0 2229 1949" fill="none" xmlns="http://www.w3.org/2000/svg">
<circle cx="300" cy="181" r="64" fill="#80D9FF"/>
<circle cx="300" cy="181" r="64" stroke="black"/>
<path d="M346 1806C346 1835.82 321.823 1860 292 1860C262.177 1860 238 1835.82 238 1806C238 1776.18 262.177 1752 292 1752C321.823 1752 346 1776.18 346 1806Z" fill="#3990F5"/>
<path d="M346 1806C346 1835.82 321.823 1860 292 1860C262.177 1860 238 1835.82 238 1806C238 1776.18 262.177 1752 292 1752C321.823 1752 346 1776.18 346 1806Z" stroke="black"/>
<path d="M2229 1212.5C2229 1230.45 2214.45 1245 2196.5 1245C2178.55 1245 2164 1230.45 2164 1212.5C2164 1194.55 2178.55 1180 2196.5 1180C2214.45 1180 2229 1194.55 2229 1212.5Z" fill="#02CBFF"/>
<path d="M2229 1212.5C2229 1230.45 2214.45 1245 2196.5 1245C2178.55 1245 2164 1230.45 2164 1212.5C2164 1194.55 2178.55 1180 2196.5 1180C2214.45 1180 2229 1194.55 2229 1212.5Z" stroke="black"/>
<circle cx="1586.5" cy="48.5" r="48.5" fill="#39C0F9"/>
<circle cx="1586.5" cy="48.5" r="48.5" stroke="black"/>
<circle cx="1857.5" cy="1810.5" r="47.5" fill="#4693FF"/>
<circle cx="1857.5" cy="1810.5" r="47.5" stroke="black"/>
<path d="M583 49.5C583 66.897 568.897 81 551.5 81C534.103 81 520 66.897 520 49.5C520 32.103 534.103 18 551.5 18C568.897 18 583 32.103 583 49.5Z" fill="#0091FF"/>
<path d="M583 49.5C583 66.897 568.897 81 551.5 81C534.103 81 520 66.897 520 49.5C520 32.103 534.103 18 551.5 18C568.897 18 583 32.103 583 49.5Z" stroke="black"/>
<path d="M2125 1706C2125 1724.78 2109.55 1740 2090.5 1740C2071.45 1740 2056 1724.78 2056 1706C2056 1687.22 2071.45 1672 2090.5 1672C2109.55 1672 2125 1687.22 2125 1706Z" fill="#38B1E5"/>
<path d="M2125 1706C2125 1724.78 2109.55 1740 2090.5 1740C2071.45 1740 2056 1724.78 2056 1706C2056 1687.22 2071.45 1672 2090.5 1672C2109.55 1672 2125 1687.22 2125 1706Z" stroke="black"/>
<circle cx="1935" cy="348" r="33" fill="#3E8DFB"/>
<circle cx="1935" cy="348" r="33" stroke="black"/>
<path d="M50 1484C50 1497.81 38.8071 1509 25 1509C11.1929 1509 0 1497.81 0 1484C0 1470.19 11.1929 1459 25 1459C38.8071 1459 50 1470.19 50 1484Z" fill="#3E8DFB"/>
<path d="M50 1484C50 1497.81 38.8071 1509 25 1509C11.1929 1509 0 1497.81 0 1484C0 1470.19 11.1929 1459 25 1459C38.8071 1459 50 1470.19 50 1484Z" stroke="black"/>
<path d="M80 679.383C80 700.37 63.2107 717.383 42.5 717.383C21.7893 717.383 5 700.37 5 679.383C5 658.396 21.7893 641.383 42.5 641.383C63.2107 641.383 80 658.396 80 679.383Z" fill="#39BCF5"/>
<path d="M80 679.383C80 700.37 63.2107 717.383 42.5 717.383C21.7893 717.383 5 700.37 5 679.383C5 658.396 21.7893 641.383 42.5 641.383C63.2107 641.383 80 658.396 80 679.383Z" stroke="black"/>
<circle cx="491.5" cy="1921.5" r="27.5" fill="#02CBFF"/>
<circle cx="491.5" cy="1921.5" r="27.5" stroke="black"/>
<g filter="url(#filter0_d_245_2081)">
<path d="M884.627 75.8933C731.156 60.6726 702.406 245.007 702.406 245.007L781.044 460.205L1027.11 264.033C1027.11 264.033 1038.1 91.1139 884.627 75.8933Z" fill="#01CCFF"/>
<path d="M781.044 460.205L702.406 245.007C702.406 245.007 567.538 153.263 456.768 264.033C345.998 374.803 431.823 503.752 431.823 503.752L781.044 460.205Z" fill="#01BEF7"/>
<path d="M1027.11 264.033L781.044 460.205L620.386 750.611L1027.11 605.221V264.033Z" fill="#00ACEB"/>
<path d="M781.044 460.205L431.823 503.752L620.386 750.611L781.044 460.205Z" fill="#008ED9"/>
<path d="M620.386 750.611L431.823 503.752C431.823 503.752 320.631 446.676 227.617 539.689C134.604 632.702 227.618 779.831 227.618 779.831L620.386 750.611Z" fill="#01CCFF"/>
<path d="M205.633 1167.1C205.633 1167.1 68.6506 1289.71 164.2 1480.39C259.75 1671.06 462.264 1617.37 462.264 1617.37L669.852 1395.78L431.823 1167.1H205.633Z" fill="#00ACEB"/>
<path d="M462.264 1617.37C462.264 1617.37 462.264 1874 744.685 1874C1027.11 1874 1027.11 1579.32 1027.11 1579.32L669.852 1395.78L462.264 1617.37Z" fill="#0170C3"/>
<path d="M1027.11 1579.32V1094.81L669.852 1395.78L1027.11 1579.32Z" fill="#008FD7"/>
<path d="M1027.11 1094.81L702.406 919.303L431.823 1167.1L669.852 1395.78L1027.11 1094.81Z" fill="#02CBFF"/>
<path d="M620.386 750.611L702.406 919.303L1027.11 1094.81V605.221L620.386 750.611Z" fill="#0171C1"/>
<path d="M227.618 779.831C227.618 779.831 64 792.937 64 973.467C64 1154 205.633 1167.1 205.633 1167.1H431.823L227.618 779.831Z" fill="#0170C3"/>
<path d="M620.386 750.611L227.618 779.831L431.823 1167.1L702.406 919.303L620.386 750.611Z" fill="#018ED5"/>
</g>
<g filter="url(#filter1_d_245_2081)">
<path d="M1237.4 75.8933C1390.87 60.6726 1419.62 245.007 1419.62 245.007L1377.34 343.892L1094.92 264.033C1094.92 264.033 1083.93 91.1139 1237.4 75.8933Z" fill="#018ED5"/>
<path d="M1377.34 343.892L1419.62 245.007C1419.62 245.007 1554.49 153.263 1665.26 264.033C1776.03 374.803 1690.21 503.752 1690.21 503.752L1377.34 343.892Z" fill="#01CCFF"/>
<path d="M1094.92 264.033L1377.34 343.892L1481.18 660.135L1094.92 779.831V264.033Z" fill="#0171C1"/>
<path d="M1377.34 343.892L1690.21 503.752L1481.18 660.135L1377.34 343.892Z" fill="#01BEF7"/>
<path d="M1481.18 660.135L1690.21 503.752C1690.21 503.752 1801.4 446.676 1894.41 539.689C1987.43 632.702 1894.41 779.831 1894.41 779.831L1481.18 660.135Z" fill="#0171C1"/>
<path d="M1916.4 1167.1C1916.4 1167.1 2053.38 1289.71 1957.83 1480.39C1862.28 1671.06 1659.77 1617.37 1659.77 1617.37L1377.34 1480.39L1596.6 1167.1H1916.4Z" fill="#0170C3"/>
<path d="M1659.77 1617.37C1659.77 1617.37 1659.77 1874 1377.34 1874C1094.92 1874 1094.92 1579.32 1094.92 1579.32L1377.34 1480.39L1659.77 1617.37Z" fill="#00ACEB"/>
<path d="M1094.92 1579.32V1094.81L1377.34 1480.39L1094.92 1579.32Z" fill="#02CBFF"/>
<path d="M1094.92 1094.81H1419.62L1596.6 1167.1L1377.34 1480.39L1094.92 1094.81Z" fill="#00ACEB"/>
<path d="M1481.18 660.135L1419.62 1094.81H1094.92V779.831L1481.18 660.135Z" fill="#008FD7"/>
<path d="M1894.41 779.831C1894.41 779.831 2058.03 792.937 2058.03 973.467C2058.03 1154 1916.4 1167.1 1916.4 1167.1H1596.6L1894.41 779.831Z" fill="#018ED5"/>
<path d="M1481.18 660.135L1894.41 779.831L1596.6 1167.1L1419.62 1094.81L1481.18 660.135Z" fill="#02CBFF"/>
</g>
<defs>
<filter id="filter0_d_245_2081" x="60" y="75" width="971.278" height="1807" filterUnits="userSpaceOnUse" color-interpolation-filters="sRGB">
<feFlood flood-opacity="0" result="BackgroundImageFix"/>
<feColorMatrix in="SourceAlpha" type="matrix" values="0 0 0 0 0 0 0 0 0 0 0 0 0 0 0 0 0 0 127 0" result="hardAlpha"/>
<feOffset dy="4"/>
<feGaussianBlur stdDeviation="2"/>
<feComposite in2="hardAlpha" operator="out"/>
<feColorMatrix type="matrix" values="0 0 0 0 0 0 0 0 0 0 0 0 0 0 0 0 0 0 0.25 0"/>
<feBlend mode="normal" in2="BackgroundImageFix" result="effect1_dropShadow_245_2081"/>
<feBlend mode="normal" in="SourceGraphic" in2="effect1_dropShadow_245_2081" result="shape"/>
</filter>
<filter id="filter1_d_245_2081" x="1090.75" y="75" width="971.278" height="1807" filterUnits="userSpaceOnUse" color-interpolation-filters="sRGB">
<feFlood flood-opacity="0" result="BackgroundImageFix"/>
<feColorMatrix in="SourceAlpha" type="matrix" values="0 0 0 0 0 0 0 0 0 0 0 0 0 0 0 0 0 0 127 0" result="hardAlpha"/>
<feOffset dy="4"/>
<feGaussianBlur stdDeviation="2"/>
<feComposite in2="hardAlpha" operator="out"/>
<feColorMatrix type="matrix" values="0 0 0 0 0 0 0 0 0 0 0 0 0 0 0 0 0 0 0.25 0"/>
<feBlend mode="normal" in2="BackgroundImageFix" result="effect1_dropShadow_245_2081"/>
<feBlend mode="normal" in="SourceGraphic" in2="effect1_dropShadow_245_2081" result="shape"/>
</filter>
</defs>
</svg>
