<svg width="3469" height="563" viewBox="0 0 3469 563" fill="none" xmlns="http://www.w3.org/2000/svg">
<path fill-rule="evenodd" clip-rule="evenodd" d="M1202.5 123C1236.47 123 1264 95.4655 1264 61.5C1264 27.5345 1236.47 0 1202.5 0C1168.53 0 1141 27.5345 1141 61.5C1141 95.4655 1168.53 123 1202.5 123ZM0 554.5V143.774C0 139.9 4.21544 137.497 7.54846 139.472L103.048 196.048C104.568 196.948 105.5 198.583 105.5 200.349V251H220C220 251 265.5 251 265.5 186C265.5 121 220 121 220 121H152.86C151.97 121 151.095 120.762 150.327 120.311L30.3458 49.8109C25.9528 47.2296 27.7836 40.5 32.8789 40.5H294C294 40.5 380.5 40.5 380.5 160.75C380.5 281 294 281 294 281C294 281 345 289.5 378 338.5C405.898 379.925 388.413 450.653 382.34 471.531C381.444 474.61 377.898 475.908 375.163 474.234L280 416C280 416 286 382.5 267.75 357C249.5 331.5 226.5 327 226.5 327H105.5V472H205L303.787 532.501C306.638 534.247 306.927 538.163 304.151 540.026C299.715 543.004 292.73 546.966 284 549.5C268.5 554 252 554.5 252 554.5H0ZM464 168V555.001H566.5V339.257C566.5 322.362 570.52 305.535 580.57 291.955C589.921 279.318 602.938 264.738 616.5 259C642.5 248 691.5 256.5 691.5 256.5V168H628.5C628.5 168 610.5 168 592.5 185.5C574.5 203 566.5 220.5 566.5 220.5V168H464ZM734.5 280H834C834 280 833.5 237 895 237C956.5 237 956.5 280 956.5 280V321.5H853.5C853.5 321.5 717 311.501 717 437.001C717 562.501 853.5 562.501 853.5 562.501C853.5 562.501 891 562.501 914 548C937 533.5 956.5 511.001 956.5 511.001V555.001H1062.5V280C1062.5 280 1058.5 222 1007.5 195C956.5 168 900 168 900 168C900 168 850 168 795.5 189C741 210 734.5 280 734.5 280ZM873.5 389H957.5V430C957.5 430 957.5 457 927 471.5C896.5 486 873.5 487 873.5 487C873.5 487 821.5 487 821.5 438C821.5 389 873.5 389 873.5 389ZM1151.5 555.001V168H1254V555.001H1151.5ZM1340.5 168V555.001H1442V297.5C1442 297.5 1442 246.5 1512.75 246C1583.5 245.5 1583.5 297.5 1583.5 297.5V555.001H1693V298.919C1693 298.466 1693 298.022 1693.01 297.579V297.578V297.577C1693.01 297.096 1693.01 296.616 1693.01 296.124C1693 286.149 1691.16 224.566 1648.5 197.5C1602 168 1557.5 168 1557.5 168C1557.5 168 1512.75 168.001 1485 178C1457.25 188 1442 222.5 1442 222.5V168H1340.5Z" fill="#0170C3"/>
<path fill-rule="evenodd" clip-rule="evenodd" d="M2977.5 123C3011.47 123 3039 95.4655 3039 61.5C3039 27.5345 3011.47 0 2977.5 0C2943.53 0 2916 27.5345 2916 61.5C2916 95.4655 2943.53 123 2977.5 123ZM1775 554.5V143.774C1775 139.9 1779.22 137.497 1782.55 139.472L1878.05 196.048C1879.57 196.948 1880.5 198.583 1880.5 200.349V251H1995C1995 251 2040.5 251 2040.5 186C2040.5 121 1995 121 1995 121H1927.86C1926.97 121 1926.1 120.762 1925.33 120.311L1805.35 49.8109C1800.95 47.2296 1802.78 40.5 1807.88 40.5H2069C2069 40.5 2155.5 40.5 2155.5 160.75C2155.5 281 2069 281 2069 281C2069 281 2120 289.5 2153 338.5C2180.9 379.925 2163.41 450.653 2157.34 471.531C2156.44 474.61 2152.9 475.908 2150.16 474.234L2055 416C2055 416 2061 382.5 2042.75 357C2024.5 331.5 2001.5 327 2001.5 327H1880.5V472H1980L2078.79 532.501C2081.64 534.247 2081.93 538.163 2079.15 540.026C2074.71 543.004 2067.73 546.966 2059 549.5C2043.5 554 2027 554.5 2027 554.5H1775ZM2239 168V555.001H2341.5V339.257C2341.5 322.362 2345.52 305.535 2355.57 291.955C2364.92 279.318 2377.94 264.738 2391.5 259C2417.5 248 2466.5 256.5 2466.5 256.5V168H2403.5C2403.5 168 2385.5 168 2367.5 185.5C2349.5 203 2341.5 220.5 2341.5 220.5V168H2239ZM2509.5 280H2609C2609 280 2608.5 237 2670 237C2731.5 237 2731.5 280 2731.5 280V321.5H2628.5C2628.5 321.5 2492 311.501 2492 437.001C2492 562.501 2628.5 562.501 2628.5 562.501C2628.5 562.501 2666 562.501 2689 548C2712 533.5 2731.5 511.001 2731.5 511.001V555.001H2837.5V280C2837.5 280 2833.5 222 2782.5 195C2731.5 168 2675 168 2675 168C2675 168 2625 168 2570.5 189C2516 210 2509.5 280 2509.5 280ZM2648.5 389H2732.5V430C2732.5 430 2732.5 457 2702 471.5C2671.5 486 2648.5 487 2648.5 487C2648.5 487 2596.5 487 2596.5 438C2596.5 389 2648.5 389 2648.5 389ZM2926.5 555.001V168H3029V555.001H2926.5ZM3115.5 168V555.001H3217V297.5C3217 297.5 3217 246.5 3287.75 246C3358.5 245.5 3358.5 297.5 3358.5 297.5V555.001H3468V298.919C3468 298.466 3468 298.022 3468.01 297.579V297.578V297.577C3468.01 297.096 3468.01 296.616 3468.01 296.124C3468 286.149 3466.16 224.566 3423.5 197.5C3377 168 3332.5 168 3332.5 168C3332.5 168 3287.75 168.001 3260 178C3232.25 188 3217 222.5 3217 222.5V168H3115.5Z" fill="#39BCF5"/>
</svg>
