<svg width="400" height="400" viewBox="0 0 400 400" fill="none" xmlns="http://www.w3.org/2000/svg">
<rect x="2.5" y="2.5" width="395" height="395" stroke="black" stroke-width="5"/>
<circle cx="37" cy="37" r="15" fill="black"/>
<circle cx="37" cy="363" r="15" fill="black"/>
<circle cx="363" cy="363" r="15" fill="black"/>
<circle cx="363" cy="37" r="15" fill="black"/>
<g clip-path="url(#clip0_1556_558)">
<rect x="75" y="75" width="250" height="250" rx="125" fill="#C8D700"/>
<circle cx="200" cy="200" r="122.5" fill="white" stroke="black" stroke-width="5"/>
<path d="M59.7969 164.398L343.427 5.00085" stroke="black" stroke-width="5" stroke-linecap="round"/>
<path d="M63.7422 187.797L347.372 28.3993" stroke="black" stroke-width="5" stroke-linecap="round"/>
<path d="M67.6875 211.195L351.317 51.7977" stroke="black" stroke-width="5" stroke-linecap="round"/>
<path d="M71.6328 234.594L355.263 75.1962" stroke="black" stroke-width="5" stroke-linecap="round"/>
<path d="M75.5781 257.992L359.208 98.5946" stroke="black" stroke-width="5" stroke-linecap="round"/>
<path d="M79.5234 281.391L363.153 121.993" stroke="black" stroke-width="5" stroke-linecap="round"/>
<path d="M83.4766 304.789L367.106 145.391" stroke="black" stroke-width="5" stroke-linecap="round"/>
<path d="M87.4219 328.18L371.052 168.782" stroke="black" stroke-width="5" stroke-linecap="round"/>
<path d="M91.3672 351.578L374.997 192.181" stroke="black" stroke-width="5" stroke-linecap="round"/>
<path d="M95.3125 374.977L378.942 215.579" stroke="black" stroke-width="5" stroke-linecap="round"/>
<path d="M99.2578 398.375L382.888 238.977" stroke="black" stroke-width="5" stroke-linecap="round"/>
<path d="M103.203 421.773L386.833 262.376" stroke="black" stroke-width="5" stroke-linecap="round"/>
<path d="M107.148 445.172L390.778 285.774" stroke="black" stroke-width="5" stroke-linecap="round"/>
</g>
<defs>
<clipPath id="clip0_1556_558">
<rect x="75" y="75" width="250" height="250" rx="125" fill="white"/>
</clipPath>
</defs>
</svg>
