<svg width="406" height="406" viewBox="0 0 406 406" fill="none" xmlns="http://www.w3.org/2000/svg">
<path d="M244.667 328H328V244.667H244.667V328Z" fill="#CACACA" stroke="white" stroke-width="10"/>
<path d="M161.335 328H244.668V244.667H161.335V328Z" fill="#CACACA" stroke="white" stroke-width="10"/>
<path d="M77.9987 328H161.332V244.667H77.9987V328Z" fill="#0170C3" stroke="white" stroke-width="10"/>
<path d="M244.667 244.664H328V161.331H244.667V244.664Z" fill="#0170C3" stroke="white" stroke-width="10"/>
<path d="M161.335 244.664H244.668V161.331H161.335V244.664Z" fill="#0170C3" stroke="white" stroke-width="10"/>
<path d="M77.9987 244.664H161.332V161.331H77.9987V244.664Z" fill="#0170C3" stroke="white" stroke-width="10"/>
<path d="M244.667 161.336H328V78.0026H244.667V161.336Z" fill="#CACACA" stroke="white" stroke-width="10"/>
<path d="M161.335 161.336H244.668V78.0026H161.335V161.336Z" fill="#CACACA" stroke="white" stroke-width="10"/>
<path d="M77.9987 161.336H161.332V78.0026H77.9987V161.336Z" fill="#0170C3" stroke="white" stroke-width="10"/>
<path d="M403 3H3V403H403V3Z" stroke="black" stroke-width="5"/>
</svg>
