<svg width="406" height="406" viewBox="0 0 406 406" fill="none" xmlns="http://www.w3.org/2000/svg">
<path d="M78 244.667V328H161.333V244.667H78Z" fill="#0170C3" stroke="white" stroke-width="10"/>
<path d="M78 161.331V244.664H161.333V161.331H78Z" fill="#CACACA" stroke="white" stroke-width="10"/>
<path d="M78 78.0026V161.336H161.333V78.0026H78Z" fill="#CACACA" stroke="white" stroke-width="10"/>
<path d="M161.332 244.667V328H244.665V244.667H161.332Z" fill="#0170C3" stroke="white" stroke-width="10"/>
<path d="M161.332 161.331V244.664H244.665V161.331H161.332Z" fill="#CACACA" stroke="white" stroke-width="10"/>
<path d="M161.332 78.0026V161.336H244.665V78.0026H161.332Z" fill="#CACACA" stroke="white" stroke-width="10"/>
<path d="M244.668 244.667V328H328.001V244.667H244.668Z" fill="#0170C3" stroke="white" stroke-width="10"/>
<path d="M244.668 161.331V244.664H328.001V161.331H244.668Z" fill="#CACACA" stroke="white" stroke-width="10"/>
<path d="M244.668 78.0026V161.336H328.001V78.0026H244.668Z" fill="#CACACA" stroke="white" stroke-width="10"/>
<path d="M403 3H3V403H403V3Z" stroke="black" stroke-width="5"/>
</svg>
