<svg width="406" height="406" viewBox="0 0 406 406" fill="none" xmlns="http://www.w3.org/2000/svg">
<path d="M161.333 71H78V154.333H161.333V71Z" fill="#CACACA" stroke="white" stroke-width="10"/>
<path d="M244.665 71H161.332V154.333H244.665V71Z" fill="#CACACA" stroke="white" stroke-width="10"/>
<path d="M328.001 71H244.668V154.333H328.001V71Z" fill="#CACACA" stroke="white" stroke-width="10"/>
<path d="M161.333 154.336H78V237.669H161.333V154.336Z" fill="#CACACA" stroke="white" stroke-width="10"/>
<path d="M244.665 154.336H161.332V237.669H244.665V154.336Z" fill="#0170C3" stroke="white" stroke-width="10"/>
<path d="M328.001 154.336H244.668V237.669H328.001V154.336Z" fill="#0170C3" stroke="white" stroke-width="10"/>
<path d="M161.333 237.664H78V320.997H161.333V237.664Z" fill="#0170C3" stroke="white" stroke-width="10"/>
<path d="M244.665 237.664H161.332V320.997H244.665V237.664Z" fill="#0170C3" stroke="white" stroke-width="10"/>
<path d="M328.001 237.664H244.668V320.997H328.001V237.664Z" fill="#CACACA" stroke="white" stroke-width="10"/>
<path d="M403 3H3V403H403V3Z" stroke="black" stroke-width="5"/>
</svg>
