<svg width="406" height="406" viewBox="0 0 406 406" fill="none" xmlns="http://www.w3.org/2000/svg">
<path d="M328 154.333V71H244.667V154.333H328Z" fill="#0170C3" stroke="white" stroke-width="10"/>
<path d="M328 237.669V154.336H244.667V237.669H328Z" fill="#CACACA" stroke="white" stroke-width="10"/>
<path d="M328 320.997V237.664H244.667V320.997H328Z" fill="#CACACA" stroke="white" stroke-width="10"/>
<path d="M244.668 154.333V71H161.335V154.333H244.668Z" fill="#0170C3" stroke="white" stroke-width="10"/>
<path d="M244.668 237.669V154.336H161.335V237.669H244.668Z" fill="#CACACA" stroke="white" stroke-width="10"/>
<path d="M244.668 320.997V237.664H161.335V320.997H244.668Z" fill="#CACACA" stroke="white" stroke-width="10"/>
<path d="M161.332 154.333V71H77.9987V154.333H161.332Z" fill="#0170C3" stroke="white" stroke-width="10"/>
<path d="M161.332 237.669V154.336H77.9987V237.669H161.332Z" fill="#CACACA" stroke="white" stroke-width="10"/>
<path d="M161.332 320.997V237.664H77.9987V320.997H161.332Z" fill="#CACACA" stroke="white" stroke-width="10"/>
<path d="M403 3H3V403H403V3Z" stroke="black" stroke-width="5"/>
</svg>
