<svg width="406" height="406" viewBox="0 0 406 406" fill="none" xmlns="http://www.w3.org/2000/svg">
<path d="M78 154.333V71H161.333V154.333H78Z" fill="#CACACA" stroke="white" stroke-width="10"/>
<path d="M78 237.669V154.336H161.333V237.669H78Z" fill="#CACACA" stroke="white" stroke-width="10"/>
<path d="M78 320.997V237.664H161.333V320.997H78Z" fill="#CACACA" stroke="white" stroke-width="10"/>
<path d="M161.332 154.333V71H244.665V154.333H161.332Z" fill="#CACACA" stroke="white" stroke-width="10"/>
<path d="M161.332 237.669V154.336H244.665V237.669H161.332Z" fill="#CACACA" stroke="white" stroke-width="10"/>
<path d="M161.332 320.997V237.664H244.665V320.997H161.332Z" fill="#0170C3" stroke="white" stroke-width="10"/>
<path d="M244.668 154.333V71H328.001V154.333H244.668Z" fill="#0170C3" stroke="white" stroke-width="10"/>
<path d="M244.668 237.669V154.336H328.001V237.669H244.668Z" fill="#0170C3" stroke="white" stroke-width="10"/>
<path d="M244.668 320.997V237.664H328.001V320.997H244.668Z" fill="#0170C3" stroke="white" stroke-width="10"/>
<path d="M403 3H3V403H403V3Z" stroke="black" stroke-width="5"/>
</svg>
