<svg width="400" height="400" viewBox="0 0 400 400" fill="none" xmlns="http://www.w3.org/2000/svg" xmlns:xlink="http://www.w3.org/1999/xlink">
<rect x="2.5" y="2.5" width="395" height="395" stroke="black" stroke-width="5"/>
<circle cx="200" cy="191" r="21.5" fill="url(#pattern0_1556_804)" stroke="black" stroke-width="7"/>
<defs>
<pattern id="pattern0_1556_804" patternUnits="userSpaceOnUse" patternTransform="matrix(142.532 0 0 159.16 133.516 110.444)" preserveAspectRatio="none" viewBox="4.78174 -0.975835 142.532 159.16" width="1" height="1">
<use xlink:href="#pattern0_1556_804_inner" transform="translate(0 -159.16)"/>
<g id="pattern0_1556_804_inner">
<path d="M6.55933 60.7898L119.462 0.17836" stroke="black" stroke-width="3" stroke-linecap="round"/>
<path d="M7.93408 68.9695L120.837 8.35805" stroke="black" stroke-width="3" stroke-linecap="round"/>
<path d="M9.3103 77.157L122.213 16.5455" stroke="black" stroke-width="3" stroke-linecap="round"/>
<path d="M10.687 85.3367L123.59 24.7252" stroke="black" stroke-width="3" stroke-linecap="round"/>
<path d="M12.0625 93.5164L124.965 32.9049" stroke="black" stroke-width="3" stroke-linecap="round"/>
<path d="M13.4385 101.704L126.341 41.0924" stroke="black" stroke-width="3" stroke-linecap="round"/>
<path d="M14.8145 109.884L127.717 49.2721" stroke="black" stroke-width="3" stroke-linecap="round"/>
<path d="M16.1902 118.071L129.093 57.4596" stroke="black" stroke-width="3" stroke-linecap="round"/>
<path d="M17.5657 126.251L130.468 65.6393" stroke="black" stroke-width="3" stroke-linecap="round"/>
<path d="M18.9417 134.438L131.844 73.8268" stroke="black" stroke-width="3" stroke-linecap="round"/>
<path d="M20.3174 142.618L133.22 82.0065" stroke="black" stroke-width="3" stroke-linecap="round"/>
<path d="M21.6936 150.805L134.596 90.194" stroke="black" stroke-width="3" stroke-linecap="round"/>
<path d="M23.0696 158.985L135.972 98.3737" stroke="black" stroke-width="3" stroke-linecap="round"/>
</g>
</pattern></defs>
</svg>
