<svg width="400" height="400" viewBox="0 0 400 400" fill="none" xmlns="http://www.w3.org/2000/svg" xmlns:xlink="http://www.w3.org/1999/xlink">
<rect x="2.5" y="2.5" width="395" height="395" stroke="black" stroke-width="5"/>
<mask id="path-2-inside-1_1556_812" fill="white">
<path d="M199.5 60L332 289H67L199.5 60Z"/>
</mask>
<path d="M199.5 60L332 289H67L199.5 60Z" fill="url(#pattern0_1556_812)" stroke="black" stroke-width="14" mask="url(#path-2-inside-1_1556_812)"/>
<rect x="178.5" y="178.5" width="43" height="43" fill="white" stroke="black" stroke-width="7"/>
<defs>
<pattern id="pattern0_1556_812" patternUnits="userSpaceOnUse" patternTransform="matrix(359.263 0 0 401.177 34.6243 -26.8116)" preserveAspectRatio="none" viewBox="14.7556 -0.723098 359.263 401.177" width="1" height="1">
<use xlink:href="#pattern0_1556_812_inner" transform="translate(0 -401.177)"/>
<g id="pattern0_1556_812_inner">
<path d="M16.5332 153.214L301.113 0.438268" stroke="black" stroke-width="3" stroke-linecap="round"/>
<path d="M19.999 173.847L304.579 21.0711" stroke="black" stroke-width="3" stroke-linecap="round"/>
<path d="M23.4675 194.472L308.048 41.6961" stroke="black" stroke-width="3" stroke-linecap="round"/>
<path d="M26.9377 215.097L311.518 62.3211" stroke="black" stroke-width="3" stroke-linecap="round"/>
<path d="M30.4048 235.722L314.985 82.9461" stroke="black" stroke-width="3" stroke-linecap="round"/>
<path d="M33.8728 256.347L318.453 103.571" stroke="black" stroke-width="3" stroke-linecap="round"/>
<path d="M37.3413 276.972L321.921 124.196" stroke="black" stroke-width="3" stroke-linecap="round"/>
<path d="M40.8091 297.605L325.389 144.829" stroke="black" stroke-width="3" stroke-linecap="round"/>
<path d="M44.2759 318.23L328.856 165.454" stroke="black" stroke-width="3" stroke-linecap="round"/>
<path d="M47.7441 338.855L332.324 186.079" stroke="black" stroke-width="3" stroke-linecap="round"/>
<path d="M51.2119 359.48L335.792 206.704" stroke="black" stroke-width="3" stroke-linecap="round"/>
<path d="M54.6804 380.105L339.261 227.329" stroke="black" stroke-width="3" stroke-linecap="round"/>
<path d="M58.1494 400.738L342.73 247.962" stroke="black" stroke-width="3" stroke-linecap="round"/>
</g>
</pattern></defs>
</svg>
