<svg width="400" height="400" viewBox="0 0 400 400" fill="none" xmlns="http://www.w3.org/2000/svg">
<rect x="2.5" y="2.5" width="395" height="395" stroke="black" stroke-width="5"/>
<mask id="path-2-inside-1_1556_4162" fill="white">
<path d="M200 350V200H50L200 50V200H350L200 350Z"/>
</mask>
<path d="M200 350H193V366.9L204.95 354.95L200 350ZM50 200L45.0503 195.05L33.1005 207H50V200ZM350 200L354.95 204.95L366.9 193H350V200ZM200 50H207V33.1005L195.05 45.0503L200 50ZM200 200H193V350H200H207V200H200ZM50 200V207H200V200V193H50V200ZM200 200V207H350V200V193H200V200ZM200 200H207V50H200H193V200H200ZM50 200L54.9497 204.95L204.95 54.9497L200 50L195.05 45.0503L45.0503 195.05L50 200ZM200 350L204.95 354.95L354.95 204.95L350 200L345.05 195.05L195.05 345.05L200 350Z" fill="black" mask="url(#path-2-inside-1_1556_4162)"/>
</svg>
