<svg width="400" height="400" viewBox="0 0 400 400" fill="none" xmlns="http://www.w3.org/2000/svg">
<rect x="2.5" y="2.5" width="395" height="395" stroke="black" stroke-width="5"/>
<path d="M200 350V50" stroke="black" stroke-width="7"/>
<mask id="path-3-inside-1_1556_4168" fill="white">
<path d="M50 350L50 200H200L350 200V350H200H50Z"/>
</mask>
<path d="M200 350H203.5V200H200H196.5V350H200ZM200 200H203.5L203.5 50H200H196.5L196.5 200H200ZM50 350H43V357H50V350ZM50 200V193H43V200H50ZM350 350V357H357V350H350ZM350 200H357V193H350V200ZM50 350H57L57 200H50H43L43 350H50ZM50 350V357H200V350V343H50V350ZM200 350V357H350V350V343H200V350ZM350 350H357V200H350H343V350H350ZM50 200V207H200V200V193H50V200ZM200 200V207L350 207V200V193L200 193V200Z" fill="black" mask="url(#path-3-inside-1_1556_4168)"/>
</svg>
