<svg width="406" height="406" viewBox="0 0 406 406" fill="none" xmlns="http://www.w3.org/2000/svg">
<path d="M89 111C89 123.703 99.2975 134 112 134C124.703 134 135 123.703 135 111C135 98.2975 124.703 88 112 88C99.2975 88 89 98.2975 89 111Z" fill="black" stroke="black" stroke-width="3"/>
<path d="M181 202.5C181 214.926 191.074 225 203.5 225C215.926 225 226 214.926 226 202.5C226 190.074 215.926 180 203.5 180C191.074 180 181 190.074 181 202.5Z" fill="black" stroke="black" stroke-width="3"/>
<path d="M295.5 89H294.5C282.074 89 272 99.0736 272 111.5C272 123.926 282.074 134 294.5 134H295.5C307.926 134 318 123.926 318 111.5C318 99.0736 307.926 89 295.5 89Z" fill="black" stroke="black" stroke-width="3"/>
<path d="M89 294C89 306.703 99.2975 317 112 317C124.703 317 135 306.703 135 294C135 281.297 124.703 271 112 271C99.2975 271 89 281.297 89 294Z" fill="black" stroke="black" stroke-width="3"/>
<path d="M272 294C272 306.703 282.297 317 295 317C307.703 317 318 306.703 318 294C318 281.297 307.703 271 295 271C282.297 271 272 281.297 272 294Z" fill="black" stroke="black" stroke-width="3"/>
<path d="M403 3H3V403H403V3Z" stroke="black" stroke-width="5"/>
</svg>
