<svg width="406" height="406" viewBox="0 0 406 406" fill="none" xmlns="http://www.w3.org/2000/svg">
<path d="M226 111.5V110.5C226 98.0736 215.926 88 203.5 88C191.074 88 181 98.0736 181 110.5V111.5C181 123.926 191.074 134 203.5 134C215.926 134 226 123.926 226 111.5Z" fill="black" stroke="black" stroke-width="3"/>
<path d="M112.5 180H111.5C99.0736 180 89 190.074 89 202.5C89 214.926 99.0736 225 111.5 225H112.5C124.926 225 135 214.926 135 202.5C135 190.074 124.926 180 112.5 180Z" fill="black" stroke="black" stroke-width="3"/>
<path d="M181 202.5C181 214.926 191.074 225 203.5 225C215.926 225 226 214.926 226 202.5C226 190.074 215.926 180 203.5 180C191.074 180 181 190.074 181 202.5Z" fill="black" stroke="black" stroke-width="3"/>
<path d="M295.5 180H294.5C282.074 180 272 190.074 272 202.5C272 214.926 282.074 225 294.5 225H295.5C307.926 225 318 214.926 318 202.5C318 190.074 307.926 180 295.5 180Z" fill="black" stroke="black" stroke-width="3"/>
<path d="M89 294C89 306.703 99.2975 317 112 317C124.703 317 135 306.703 135 294C135 281.297 124.703 271 112 271C99.2975 271 89 281.297 89 294Z" fill="black" stroke="black" stroke-width="3"/>
<path d="M226 294.5V293.5C226 281.074 215.926 271 203.5 271C191.074 271 181 281.074 181 293.5V294.5C181 306.926 191.074 317 203.5 317C215.926 317 226 306.926 226 294.5Z" fill="black" stroke="black" stroke-width="3"/>
<path d="M272 294C272 306.703 282.297 317 295 317C307.703 317 318 306.703 318 294C318 281.297 307.703 271 295 271C282.297 271 272 281.297 272 294Z" fill="black" stroke="black" stroke-width="3"/>
<path d="M403 3H3V403H403V3Z" stroke="black" stroke-width="5"/>
</svg>
