<svg width="406" height="406" viewBox="0 0 406 406" fill="none" xmlns="http://www.w3.org/2000/svg">
<path d="M403 3H3V403H403V3Z" stroke="black" stroke-width="5"/>
<path d="M203 323C269.274 323 323 269.274 323 203C323 136.726 269.274 83 203 83C136.726 83 83 136.726 83 203C83 269.274 136.726 323 203 323Z" stroke="black" stroke-width="7"/>
<path d="M81.9424 196.135L50.8796 208.789L53.1822 178.877L81.9424 196.135Z" fill="black"/>
<path d="M233.353 320.568L255.367 345.875L226.316 353.363L233.353 320.568Z" fill="black"/>
<path d="M142 94C150.284 94 157 87.2843 157 79C157 70.7157 150.284 64 142 64C133.716 64 127 70.7157 127 79C127 87.2843 133.716 94 142 94Z" fill="black"/>
<path d="M233 83C241.284 83 248 76.2843 248 68C248 59.7157 241.284 53 233 53C224.716 53 218 59.7157 218 68C218 76.2843 224.716 83 233 83Z" fill="black"/>
</svg>
