<svg width="406" height="406" viewBox="0 0 406 406" fill="none" xmlns="http://www.w3.org/2000/svg">
<path d="M403 3H3V403H403V3Z" stroke="black" stroke-width="5"/>
<path d="M203 323C269.274 323 323 269.274 323 203C323 136.726 269.274 83 203 83C136.726 83 83 136.726 83 203C83 269.274 136.726 323 203 323Z" stroke="black" stroke-width="7"/>
<path d="M118.988 219.984L133.988 249.984H103.988L118.988 219.984Z" fill="black"/>
<path d="M263.098 175.094L278.098 205.094H248.098L263.098 175.094Z" fill="black"/>
<path d="M183 218C191.284 218 198 211.284 198 203C198 194.716 191.284 188 183 188C174.716 188 168 194.716 168 203C168 211.284 174.716 218 183 218Z" fill="black"/>
<path d="M242 265C250.284 265 257 258.284 257 250C257 241.716 250.284 235 242 235C233.716 235 227 241.716 227 250C227 258.284 233.716 265 242 265Z" fill="black"/>
</svg>
