<svg width="406" height="406" viewBox="0 0 406 406" fill="none" xmlns="http://www.w3.org/2000/svg">
<path d="M403 3H3V403H403V3Z" stroke="black" stroke-width="5"/>
<path d="M203 323C269.274 323 323 269.274 323 203C323 136.726 269.274 83 203 83C136.726 83 83 136.726 83 203C83 269.274 136.726 323 203 323Z" stroke="black" stroke-width="7"/>
<path d="M167.098 171.094L182.098 201.094H152.098L167.098 171.094Z" fill="black"/>
<path d="M203 250C211.284 250 218 243.284 218 235C218 226.716 211.284 220 203 220C194.716 220 188 226.716 188 235C188 243.284 194.716 250 203 250Z" fill="black"/>
<path d="M283 188C291.284 188 298 181.284 298 173C298 164.716 291.284 158 283 158C274.716 158 268 164.716 268 173C268 181.284 274.716 188 283 188Z" fill="black"/>
</svg>
