<svg width="406" height="406" viewBox="0 0 406 406" fill="none" xmlns="http://www.w3.org/2000/svg">
<path d="M403 3H3V403H403V3Z" stroke="black" stroke-width="5"/>
<path d="M203 323C269.274 323 323 269.274 323 203C323 136.726 269.274 83 203 83C136.726 83 83 136.726 83 203C83 269.274 136.726 323 203 323Z" stroke="black" stroke-width="7"/>
<path d="M155.27 91.6033L129.083 70.6449L156.325 58.0789L155.27 91.6033Z" fill="black"/>
<path d="M204 173C212.284 173 219 166.284 219 158C219 149.716 212.284 143 204 143C195.716 143 189 149.716 189 158C189 166.284 195.716 173 204 173Z" fill="black"/>
</svg>
