<svg width="406" height="406" viewBox="0 0 406 406" fill="none" xmlns="http://www.w3.org/2000/svg">
<path d="M403 3H3V403H403V3Z" stroke="black" stroke-width="5"/>
<path d="M203 323C269.274 323 323 269.274 323 203C323 136.726 269.274 83 203 83C136.726 83 83 136.726 83 203C83 269.274 136.726 323 203 323Z" stroke="black" stroke-width="7"/>
<path d="M164.533 202.548L143.876 228.973L130.998 201.878L164.533 202.548Z" fill="black"/>
<path d="M287.098 201.094L302.098 231.094H272.098L287.098 201.094Z" fill="black"/>
<path d="M228 262C236.284 262 243 255.284 243 247C243 238.716 236.284 232 228 232C219.716 232 213 238.716 213 247C213 255.284 219.716 262 228 262Z" fill="black"/>
</svg>
