<svg width="406" height="406" viewBox="0 0 406 406" fill="none" xmlns="http://www.w3.org/2000/svg">
<path d="M403 3H3V403H403V3Z" stroke="black" stroke-width="5"/>
<path d="M203 323C269.274 323 323 269.274 323 203C323 136.726 269.274 83 203 83C136.726 83 83 136.726 83 203C83 269.274 136.726 323 203 323Z" stroke="black" stroke-width="7"/>
<path d="M189.533 255.548L168.876 281.973L155.998 254.878L189.533 255.548Z" fill="black"/>
<path d="M249.653 155.445L280.196 169.305L256.891 188.196L249.653 155.445Z" fill="black"/>
<path d="M198 146C206.284 146 213 139.284 213 131C213 122.716 206.284 116 198 116C189.716 116 183 122.716 183 131C183 139.284 189.716 146 198 146Z" fill="black"/>
<path d="M258 91C266.284 91 273 84.2843 273 76C273 67.7157 266.284 61 258 61C249.716 61 243 67.7157 243 76C243 84.2843 249.716 91 258 91Z" fill="black"/>
</svg>
