<svg width="406" height="406" viewBox="0 0 406 406" fill="none" xmlns="http://www.w3.org/2000/svg">
<path d="M403 3H3V403H403V3Z" stroke="black" stroke-width="5"/>
<mask id="path-2-inside-1_1556_4066" fill="white">
<path d="M157.5 106C169.926 106 180 95.9264 180 83.5C180 71.0736 169.926 61 157.5 61C145.074 61 135 71.0736 135 83.5C135 95.9264 145.074 106 157.5 106Z"/>
</mask>
<path d="M157.5 106C169.926 106 180 95.9264 180 83.5C180 71.0736 169.926 61 157.5 61C145.074 61 135 71.0736 135 83.5C135 95.9264 145.074 106 157.5 106Z" stroke="black" stroke-width="10" mask="url(#path-2-inside-1_1556_4066)"/>
<mask id="path-3-inside-2_1556_4066" fill="white">
<path d="M272.5 205C284.926 205 295 194.926 295 182.5C295 170.074 284.926 160 272.5 160C260.074 160 250 170.074 250 182.5C250 194.926 260.074 205 272.5 205Z"/>
</mask>
<path d="M272.5 205C284.926 205 295 194.926 295 182.5C295 170.074 284.926 160 272.5 160C260.074 160 250 170.074 250 182.5C250 194.926 260.074 205 272.5 205Z" stroke="black" stroke-width="10" mask="url(#path-3-inside-2_1556_4066)"/>
<path d="M127.5 235C139.926 235 150 224.926 150 212.5C150 200.074 139.926 190 127.5 190C115.074 190 105 200.074 105 212.5C105 224.926 115.074 235 127.5 235Z" fill="black"/>
</svg>
