<svg width="406" height="406" viewBox="0 0 406 406" fill="none" xmlns="http://www.w3.org/2000/svg">
<path d="M403 3H3V403H403V3Z" stroke="black" stroke-width="5"/>
<path d="M269.5 241C281.926 241 292 230.926 292 218.5C292 206.074 281.926 196 269.5 196C257.074 196 247 206.074 247 218.5C247 230.926 257.074 241 269.5 241Z" fill="black"/>
<path d="M285.5 136C297.926 136 308 125.926 308 113.5C308 101.074 297.926 91 285.5 91C273.074 91 263 101.074 263 113.5C263 125.926 273.074 136 285.5 136Z" fill="black"/>
<mask id="path-4-inside-1_1556_4071" fill="white">
<path d="M157.5 295C169.926 295 180 284.926 180 272.5C180 260.074 169.926 250 157.5 250C145.074 250 135 260.074 135 272.5C135 284.926 145.074 295 157.5 295Z"/>
</mask>
<path d="M157.5 295C169.926 295 180 284.926 180 272.5C180 260.074 169.926 250 157.5 250C145.074 250 135 260.074 135 272.5C135 284.926 145.074 295 157.5 295Z" stroke="black" stroke-width="10" mask="url(#path-4-inside-1_1556_4071)"/>
<path d="M127.5 235C139.926 235 150 224.926 150 212.5C150 200.074 139.926 190 127.5 190C115.074 190 105 200.074 105 212.5C105 224.926 115.074 235 127.5 235Z" fill="black"/>
</svg>
