<svg width="406" height="406" viewBox="0 0 406 406" fill="none" xmlns="http://www.w3.org/2000/svg">
<path d="M403 3H3V403H403V3Z" stroke="black" stroke-width="5"/>
<path d="M127.5 250C139.926 250 150 239.926 150 227.5C150 215.074 139.926 205 127.5 205C115.074 205 105 215.074 105 227.5C105 239.926 115.074 250 127.5 250Z" fill="black"/>
<mask id="path-3-inside-1_1556_4077" fill="white">
<path d="M269.5 175C281.926 175 292 164.926 292 152.5C292 140.074 281.926 130 269.5 130C257.074 130 247 140.074 247 152.5C247 164.926 257.074 175 269.5 175Z"/>
</mask>
<path d="M269.5 175C281.926 175 292 164.926 292 152.5C292 140.074 281.926 130 269.5 130C257.074 130 247 140.074 247 152.5C247 164.926 257.074 175 269.5 175Z" stroke="black" stroke-width="10" mask="url(#path-3-inside-1_1556_4077)"/>
</svg>
