<svg width="406" height="406" viewBox="0 0 406 406" fill="none" xmlns="http://www.w3.org/2000/svg">
<path d="M403 3H3V403H403V3Z" stroke="black" stroke-width="5"/>
<mask id="path-2-inside-1_1556_4081" fill="white">
<path d="M112.5 170C124.926 170 135 159.926 135 147.5C135 135.074 124.926 125 112.5 125C100.074 125 90 135.074 90 147.5C90 159.926 100.074 170 112.5 170Z"/>
</mask>
<path d="M112.5 170C124.926 170 135 159.926 135 147.5C135 135.074 124.926 125 112.5 125C100.074 125 90 135.074 90 147.5C90 159.926 100.074 170 112.5 170Z" stroke="black" stroke-width="10" mask="url(#path-2-inside-1_1556_4081)"/>
<mask id="path-3-inside-2_1556_4081" fill="white">
<path d="M189.5 200C201.926 200 212 189.926 212 177.5C212 165.074 201.926 155 189.5 155C177.074 155 167 165.074 167 177.5C167 189.926 177.074 200 189.5 200Z"/>
</mask>
<path d="M189.5 200C201.926 200 212 189.926 212 177.5C212 165.074 201.926 155 189.5 155C177.074 155 167 165.074 167 177.5C167 189.926 177.074 200 189.5 200Z" stroke="black" stroke-width="10" mask="url(#path-3-inside-2_1556_4081)"/>
<path d="M279.5 280C291.926 280 302 269.926 302 257.5C302 245.074 291.926 235 279.5 235C267.074 235 257 245.074 257 257.5C257 269.926 267.074 280 279.5 280Z" fill="black"/>
<path d="M204.5 91C216.926 91 227 80.9264 227 68.5C227 56.0736 216.926 46 204.5 46C192.074 46 182 56.0736 182 68.5C182 80.9264 192.074 91 204.5 91Z" fill="black"/>
</svg>
