<svg width="406" height="406" viewBox="0 0 406 406" fill="none" xmlns="http://www.w3.org/2000/svg">
<path d="M403 3H3V403H403V3Z" stroke="black" stroke-width="5"/>
<mask id="path-2-inside-1_1556_4087" fill="white">
<path d="M157.5 185C169.926 185 180 174.926 180 162.5C180 150.074 169.926 140 157.5 140C145.074 140 135 150.074 135 162.5C135 174.926 145.074 185 157.5 185Z"/>
</mask>
<path d="M157.5 185C169.926 185 180 174.926 180 162.5C180 150.074 169.926 140 157.5 140C145.074 140 135 150.074 135 162.5C135 174.926 145.074 185 157.5 185Z" stroke="black" stroke-width="10" mask="url(#path-2-inside-1_1556_4087)"/>
</svg>
