<svg width="406" height="406" viewBox="0 0 406 406" fill="none" xmlns="http://www.w3.org/2000/svg">
<path d="M403 3H3V403H403V3Z" stroke="black" stroke-width="5"/>
<path d="M105.5 104C117.926 104 128 93.9264 128 81.5C128 69.0736 117.926 59 105.5 59C93.0736 59 83 69.0736 83 81.5C83 93.9264 93.0736 104 105.5 104Z" fill="black"/>
<mask id="path-3-inside-1_1556_4090" fill="white">
<path d="M239.5 265C251.926 265 262 254.926 262 242.5C262 230.074 251.926 220 239.5 220C227.074 220 217 230.074 217 242.5C217 254.926 227.074 265 239.5 265Z"/>
</mask>
<path d="M239.5 265C251.926 265 262 254.926 262 242.5C262 230.074 251.926 220 239.5 220C227.074 220 217 230.074 217 242.5C217 254.926 227.074 265 239.5 265Z" stroke="black" stroke-width="10" mask="url(#path-3-inside-1_1556_4090)"/>
</svg>
