<svg width="406" height="406" viewBox="0 0 406 406" fill="none" xmlns="http://www.w3.org/2000/svg">
<path d="M403 3H3V403H403V3Z" stroke="black" stroke-width="5"/>
<path d="M209.5 310C221.926 310 232 299.926 232 287.5C232 275.074 221.926 265 209.5 265C197.074 265 187 275.074 187 287.5C187 299.926 197.074 310 209.5 310Z" fill="black"/>
<path d="M284.5 170C296.926 170 307 159.926 307 147.5C307 135.074 296.926 125 284.5 125C272.074 125 262 135.074 262 147.5C262 159.926 272.074 170 284.5 170Z" fill="black"/>
<path d="M157.5 106C169.926 106 180 95.9264 180 83.5C180 71.0736 169.926 61 157.5 61C145.074 61 135 71.0736 135 83.5C135 95.9264 145.074 106 157.5 106Z" fill="black"/>
<path d="M127.5 235C139.926 235 150 224.926 150 212.5C150 200.074 139.926 190 127.5 190C115.074 190 105 200.074 105 212.5C105 224.926 115.074 235 127.5 235Z" fill="black"/>
</svg>
