<svg width="406" height="406" viewBox="0 0 406 406" fill="none" xmlns="http://www.w3.org/2000/svg">
<path d="M403 3H3V403H403V3Z" stroke="black" stroke-width="5"/>
<mask id="path-2-inside-1_1556_4100" fill="white">
<path d="M264.5 265C276.926 265 287 254.926 287 242.5C287 230.074 276.926 220 264.5 220C252.074 220 242 230.074 242 242.5C242 254.926 252.074 265 264.5 265Z"/>
</mask>
<path d="M264.5 265C276.926 265 287 254.926 287 242.5C287 230.074 276.926 220 264.5 220C252.074 220 242 230.074 242 242.5C242 254.926 252.074 265 264.5 265Z" stroke="black" stroke-width="10" mask="url(#path-2-inside-1_1556_4100)"/>
<mask id="path-3-inside-2_1556_4100" fill="white">
<path d="M157.5 106C169.926 106 180 95.9264 180 83.5C180 71.0736 169.926 61 157.5 61C145.074 61 135 71.0736 135 83.5C135 95.9264 145.074 106 157.5 106Z"/>
</mask>
<path d="M157.5 106C169.926 106 180 95.9264 180 83.5C180 71.0736 169.926 61 157.5 61C145.074 61 135 71.0736 135 83.5C135 95.9264 145.074 106 157.5 106Z" stroke="black" stroke-width="10" mask="url(#path-3-inside-2_1556_4100)"/>
<mask id="path-4-inside-3_1556_4100" fill="white">
<path d="M97.5 200C109.926 200 120 189.926 120 177.5C120 165.074 109.926 155 97.5 155C85.0736 155 75 165.074 75 177.5C75 189.926 85.0736 200 97.5 200Z"/>
</mask>
<path d="M97.5 200C109.926 200 120 189.926 120 177.5C120 165.074 109.926 155 97.5 155C85.0736 155 75 165.074 75 177.5C75 189.926 85.0736 200 97.5 200Z" stroke="black" stroke-width="10" mask="url(#path-4-inside-3_1556_4100)"/>
<path d="M157.5 280C169.926 280 180 269.926 180 257.5C180 245.074 169.926 235 157.5 235C145.074 235 135 245.074 135 257.5C135 269.926 145.074 280 157.5 280Z" fill="black"/>
</svg>
