<svg width="406" height="406" viewBox="0 0 406 406" fill="none" xmlns="http://www.w3.org/2000/svg">
<path d="M161.333 78H78V161.333H161.333V78Z" fill="#CACACA" stroke="white" stroke-width="10"/>
<path d="M244.665 78H161.332V161.333H244.665V78Z" fill="#0170C3" stroke="white" stroke-width="10"/>
<path d="M328.001 78H244.668V161.333H328.001V78Z" fill="#0170C3" stroke="white" stroke-width="10"/>
<path d="M161.333 161.336H78V244.669H161.333V161.336Z" fill="#CACACA" stroke="white" stroke-width="10"/>
<path d="M244.665 161.336H161.332V244.669H244.665V161.336Z" fill="#CACACA" stroke="white" stroke-width="10"/>
<path d="M328.001 161.336H244.668V244.669H328.001V161.336Z" fill="#CACACA" stroke="white" stroke-width="10"/>
<path d="M161.333 244.664H78V327.997H161.333V244.664Z" fill="#CACACA" stroke="white" stroke-width="10"/>
<path d="M244.665 244.664H161.332V327.997H244.665V244.664Z" fill="#CACACA" stroke="white" stroke-width="10"/>
<path d="M328.001 244.664H244.668V327.997H328.001V244.664Z" fill="#CACACA" stroke="white" stroke-width="10"/>
<path d="M403 3H3V403H403V3Z" stroke="black" stroke-width="5"/>
</svg>
