<svg width="400" height="400" viewBox="0 0 400 400" fill="none" xmlns="http://www.w3.org/2000/svg">
<rect x="2.5" y="2.5" width="395" height="395" stroke="black" stroke-width="5"/>
<path d="M72.9849 140.476V140.476C63.9986 193.513 108.398 240.349 161.839 234.205L166.211 233.702L167.537 233.5C221.811 225.227 268.283 272.475 259.114 326.605V326.605" stroke="black" stroke-width="7"/>
<path d="M107.805 105.718V105.718C98.8189 158.756 143.218 205.591 196.66 199.447L201.031 198.945L202.357 198.742C256.632 190.47 303.104 237.717 293.934 291.847V291.847" stroke="black" stroke-width="7"/>
<path d="M143.204 70.2573V70.2573C134.217 123.295 178.617 170.13 232.058 163.986L236.43 163.484L237.755 163.282C292.03 155.009 338.502 202.256 329.332 256.386V256.386" stroke="black" stroke-width="7"/>
</svg>
