<svg width="400" height="400" viewBox="0 0 400 400" fill="none" xmlns="http://www.w3.org/2000/svg">
<rect x="2.5" y="2.5" width="395" height="395" stroke="black" stroke-width="5"/>
<path d="M198.744 56V56C150.842 90.0212 148.961 160.483 194.979 197.012L198.744 200L199.923 200.868C248.23 236.396 247.631 308.776 198.744 343.5V343.5" stroke="black" stroke-width="7"/>
<path d="M142.744 56V56C94.842 90.0212 92.9608 160.483 138.979 197.012L142.744 200L143.923 200.868C192.23 236.396 191.631 308.776 142.744 343.5V343.5" stroke="black" stroke-width="7"/>
<path d="M253.744 56V56C205.842 90.0212 203.961 160.483 249.979 197.012L253.744 200L254.923 200.868C303.23 236.396 302.631 308.776 253.744 343.5V343.5" stroke="black" stroke-width="7"/>
</svg>
