<svg width="406" height="406" viewBox="0 0 406 406" fill="none" xmlns="http://www.w3.org/2000/svg" xmlns:xlink="http://www.w3.org/1999/xlink">
<path d="M313 244C290.909 244 273 226.091 273 204C273 181.909 290.909 164 313 164C335.091 164 353 181.909 353 204C353 226.091 335.091 244 313 244Z" fill="url(#pattern0_1556_3933)" stroke="black" stroke-width="10"/>
<path d="M203 354C180.909 354 163 336.091 163 314C163 291.909 180.909 274 203 274C225.091 274 243 291.909 243 314C243 336.091 225.091 354 203 354Z" stroke="black" stroke-width="10"/>
<path d="M162 204C162 181.909 179.909 164 202 164C224.091 164 242 181.909 242 204C242 226.091 224.091 244 202 244C179.909 244 162 226.091 162 204Z" stroke="black" stroke-width="10"/>
<path d="M203 134C180.909 134 163 116.091 163 94C163 71.9086 180.909 54 203 54C225.091 54 243 71.9086 243 94C243 116.091 225.091 134 203 134Z" stroke="black" stroke-width="10"/>
<path d="M92 165C114.091 165 132 182.909 132 205C132 227.091 114.091 245 92 245C69.9086 245 52 227.091 52 205C52 182.909 69.9086 165 92 165Z" fill="url(#pattern1_1556_3933)" stroke="black" stroke-width="10"/>
<path d="M3 403H403V3H3V403Z" stroke="black" stroke-width="5"/>
<defs>
<pattern id="pattern0_1556_3933" patternUnits="userSpaceOnUse" patternTransform="matrix(0 -445.373 -463.779 0 547.52 379.011)" preserveAspectRatio="none" viewBox="47.6758 -2.63044 445.373 463.779" width="1" height="1">
<use xlink:href="#pattern0_1556_3933_inner" transform="translate(0 -463.779)"/>
<g id="pattern0_1556_3933_inner">
<path d="M53.4727 246.424L263.946 1.41901" stroke="#0170C3" stroke-width="10" stroke-linecap="round"/>
<path d="M64.1328 264.424L274.606 19.419" stroke="#0170C3" stroke-width="10" stroke-linecap="round"/>
<path d="M74.7969 282.416L285.27 37.4112" stroke="#0170C3" stroke-width="10" stroke-linecap="round"/>
<path d="M85.4629 300.409L295.936 55.4034" stroke="#0170C3" stroke-width="10" stroke-linecap="round"/>
<path d="M96.123 318.401L306.596 73.3956" stroke="#0170C3" stroke-width="10" stroke-linecap="round"/>
<path d="M106.787 336.393L317.26 91.3878" stroke="#0170C3" stroke-width="10" stroke-linecap="round"/>
<path d="M117.449 354.393L327.922 109.388" stroke="#0170C3" stroke-width="10" stroke-linecap="round"/>
<path d="M128.113 372.385L338.586 127.38" stroke="#0170C3" stroke-width="10" stroke-linecap="round"/>
<path d="M138.775 390.377L349.248 145.372" stroke="#0170C3" stroke-width="10" stroke-linecap="round"/>
<path d="M149.439 408.377L359.912 163.372" stroke="#0170C3" stroke-width="10" stroke-linecap="round"/>
<path d="M160.1 426.362L370.572 181.357" stroke="#0170C3" stroke-width="10" stroke-linecap="round"/>
<path d="M170.764 444.362L381.237 199.357" stroke="#0170C3" stroke-width="10" stroke-linecap="round"/>
<path d="M181.428 462.354L391.901 217.349" stroke="#0170C3" stroke-width="10" stroke-linecap="round"/>
</g>
</pattern><pattern id="pattern1_1556_3933" patternUnits="userSpaceOnUse" patternTransform="matrix(0 445.373 463.779 0 -142.52 29.9892)" preserveAspectRatio="none" viewBox="47.6758 -2.63044 445.373 463.779" width="1" height="1">
<use xlink:href="#pattern1_1556_3933_inner" transform="translate(0 -463.779)"/>
<g id="pattern1_1556_3933_inner">
<path d="M53.4727 246.424L263.946 1.41901" stroke="#0170C3" stroke-width="10" stroke-linecap="round"/>
<path d="M64.1328 264.424L274.606 19.419" stroke="#0170C3" stroke-width="10" stroke-linecap="round"/>
<path d="M74.7969 282.416L285.27 37.4112" stroke="#0170C3" stroke-width="10" stroke-linecap="round"/>
<path d="M85.4629 300.409L295.936 55.4034" stroke="#0170C3" stroke-width="10" stroke-linecap="round"/>
<path d="M96.123 318.401L306.596 73.3956" stroke="#0170C3" stroke-width="10" stroke-linecap="round"/>
<path d="M106.787 336.393L317.26 91.3878" stroke="#0170C3" stroke-width="10" stroke-linecap="round"/>
<path d="M117.449 354.393L327.922 109.388" stroke="#0170C3" stroke-width="10" stroke-linecap="round"/>
<path d="M128.113 372.385L338.586 127.38" stroke="#0170C3" stroke-width="10" stroke-linecap="round"/>
<path d="M138.775 390.377L349.248 145.372" stroke="#0170C3" stroke-width="10" stroke-linecap="round"/>
<path d="M149.439 408.377L359.912 163.372" stroke="#0170C3" stroke-width="10" stroke-linecap="round"/>
<path d="M160.1 426.362L370.572 181.357" stroke="#0170C3" stroke-width="10" stroke-linecap="round"/>
<path d="M170.764 444.362L381.237 199.357" stroke="#0170C3" stroke-width="10" stroke-linecap="round"/>
<path d="M181.428 462.354L391.901 217.349" stroke="#0170C3" stroke-width="10" stroke-linecap="round"/>
</g>
</pattern></defs>
</svg>
