<svg width="406" height="406" viewBox="0 0 406 406" fill="none" xmlns="http://www.w3.org/2000/svg">
<path d="M164 93C164 115.091 181.909 133 204 133C226.091 133 244 115.091 244 93C244 70.9086 226.091 53 204 53C181.909 53 164 70.9086 164 93Z" fill="#0170C3" stroke="black" stroke-width="10"/>
<path d="M54 203C54 225.091 71.9086 243 94 243C116.091 243 134 225.091 134 203C134 180.909 116.091 163 94 163C71.9086 163 54 180.909 54 203Z" fill="#0170C3" stroke="black" stroke-width="10"/>
<path d="M164 203C164 225.091 181.909 243 204 243C226.091 243 244 225.091 244 203C244 180.909 226.091 163 204 163C181.909 163 164 180.909 164 203Z" stroke="black" stroke-width="10"/>
<path d="M274 203C274 225.091 291.909 243 314 243C336.091 243 354 225.091 354 203C354 180.909 336.091 163 314 163C291.909 163 274 180.909 274 203Z" fill="#0170C3" stroke="black" stroke-width="10"/>
<path d="M163 313C163 335.091 180.909 353 203 353C225.091 353 243 335.091 243 313C243 290.909 225.091 273 203 273C180.909 273 163 290.909 163 313Z" fill="#0170C3" stroke="black" stroke-width="10"/>
<path d="M403 3H3V403H403V3Z" stroke="black" stroke-width="5"/>
</svg>
