<svg width="406" height="406" viewBox="0 0 406 406" fill="none" xmlns="http://www.w3.org/2000/svg" xmlns:xlink="http://www.w3.org/1999/xlink">
<path d="M53 202C53 224.091 70.9086 242 93 242C115.091 242 133 224.091 133 202C133 179.909 115.091 162 93 162C70.9086 162 53 179.909 53 202Z" fill="url(#pattern0_1556_3949)" stroke="black" stroke-width="10"/>
<path d="M203 352C225.091 352 243 334.091 243 312C243 289.909 225.091 272 203 272C180.909 272 163 289.909 163 312C163 334.091 180.909 352 203 352Z" fill="#0170C3" stroke="black" stroke-width="10"/>
<path d="M203 242C225.091 242 243 224.091 243 202C243 179.909 225.091 162 203 162C180.909 162 163 179.909 163 202C163 224.091 180.909 242 203 242Z" stroke="black" stroke-width="10"/>
<path d="M163 92C163 114.091 180.909 132 203 132C225.091 132 243 114.091 243 92C243 69.9086 225.091 52 203 52C180.909 52 163 69.9086 163 92Z" fill="url(#pattern1_1556_3949)" stroke="black" stroke-width="10"/>
<path d="M313 243C335.091 243 353 225.091 353 203C353 180.909 335.091 163 313 163C290.909 163 273 180.909 273 203C273 225.091 290.909 243 313 243Z" fill="#0170C3" stroke="black" stroke-width="10"/>
<path d="M3 3V403H403V3H3Z" stroke="black" stroke-width="5"/>
<defs>
<pattern id="pattern0_1556_3949" patternUnits="userSpaceOnUse" patternTransform="matrix(445.373 0 0 463.779 -82.0108 -32.5201)" preserveAspectRatio="none" viewBox="47.6758 -2.63044 445.373 463.779" width="1" height="1">
<use xlink:href="#pattern0_1556_3949_inner" transform="translate(0 -463.779)"/>
<g id="pattern0_1556_3949_inner">
<path d="M53.4727 246.424L263.946 1.41901" stroke="#0170C3" stroke-width="10" stroke-linecap="round"/>
<path d="M64.1328 264.424L274.606 19.419" stroke="#0170C3" stroke-width="10" stroke-linecap="round"/>
<path d="M74.7969 282.416L285.27 37.4112" stroke="#0170C3" stroke-width="10" stroke-linecap="round"/>
<path d="M85.4629 300.409L295.936 55.4034" stroke="#0170C3" stroke-width="10" stroke-linecap="round"/>
<path d="M96.123 318.401L306.596 73.3956" stroke="#0170C3" stroke-width="10" stroke-linecap="round"/>
<path d="M106.787 336.393L317.26 91.3878" stroke="#0170C3" stroke-width="10" stroke-linecap="round"/>
<path d="M117.449 354.393L327.922 109.388" stroke="#0170C3" stroke-width="10" stroke-linecap="round"/>
<path d="M128.113 372.385L338.586 127.38" stroke="#0170C3" stroke-width="10" stroke-linecap="round"/>
<path d="M138.775 390.377L349.248 145.372" stroke="#0170C3" stroke-width="10" stroke-linecap="round"/>
<path d="M149.439 408.377L359.912 163.372" stroke="#0170C3" stroke-width="10" stroke-linecap="round"/>
<path d="M160.1 426.362L370.572 181.357" stroke="#0170C3" stroke-width="10" stroke-linecap="round"/>
<path d="M170.764 444.362L381.237 199.357" stroke="#0170C3" stroke-width="10" stroke-linecap="round"/>
<path d="M181.428 462.354L391.901 217.349" stroke="#0170C3" stroke-width="10" stroke-linecap="round"/>
</g>
</pattern><pattern id="pattern1_1556_3949" patternUnits="userSpaceOnUse" patternTransform="matrix(445.373 0 0 463.779 27.9892 -142.52)" preserveAspectRatio="none" viewBox="47.6758 -2.63044 445.373 463.779" width="1" height="1">
<use xlink:href="#pattern1_1556_3949_inner" transform="translate(0 -463.779)"/>
<g id="pattern1_1556_3949_inner">
<path d="M53.4727 246.424L263.946 1.41901" stroke="#0170C3" stroke-width="10" stroke-linecap="round"/>
<path d="M64.1328 264.424L274.606 19.419" stroke="#0170C3" stroke-width="10" stroke-linecap="round"/>
<path d="M74.7969 282.416L285.27 37.4112" stroke="#0170C3" stroke-width="10" stroke-linecap="round"/>
<path d="M85.4629 300.409L295.936 55.4034" stroke="#0170C3" stroke-width="10" stroke-linecap="round"/>
<path d="M96.123 318.401L306.596 73.3956" stroke="#0170C3" stroke-width="10" stroke-linecap="round"/>
<path d="M106.787 336.393L317.26 91.3878" stroke="#0170C3" stroke-width="10" stroke-linecap="round"/>
<path d="M117.449 354.393L327.922 109.388" stroke="#0170C3" stroke-width="10" stroke-linecap="round"/>
<path d="M128.113 372.385L338.586 127.38" stroke="#0170C3" stroke-width="10" stroke-linecap="round"/>
<path d="M138.775 390.377L349.248 145.372" stroke="#0170C3" stroke-width="10" stroke-linecap="round"/>
<path d="M149.439 408.377L359.912 163.372" stroke="#0170C3" stroke-width="10" stroke-linecap="round"/>
<path d="M160.1 426.362L370.572 181.357" stroke="#0170C3" stroke-width="10" stroke-linecap="round"/>
<path d="M170.764 444.362L381.237 199.357" stroke="#0170C3" stroke-width="10" stroke-linecap="round"/>
<path d="M181.428 462.354L391.901 217.349" stroke="#0170C3" stroke-width="10" stroke-linecap="round"/>
</g>
</pattern></defs>
</svg>
