<svg width="406" height="406" viewBox="0 0 406 406" fill="none" xmlns="http://www.w3.org/2000/svg" xmlns:xlink="http://www.w3.org/1999/xlink">
<path d="M313 242C290.909 242 273 224.091 273 202C273 179.909 290.909 162 313 162C335.091 162 353 179.909 353 202C353 224.091 335.091 242 313 242Z" stroke="black" stroke-width="10"/>
<path d="M203 352C180.909 352 163 334.091 163 312C163 289.909 180.909 272 203 272C225.091 272 243 289.909 243 312C243 334.091 225.091 352 203 352Z" fill="#0170C3" stroke="black" stroke-width="10"/>
<path d="M203 242C180.909 242 163 224.091 163 202C163 179.909 180.909 162 203 162C225.091 162 243 179.909 243 202C243 224.091 225.091 242 203 242Z" fill="#0170C3" stroke="black" stroke-width="10"/>
<path d="M203 52C180.909 52 163 69.9086 163 92C163 114.091 180.909 132 203 132C225.091 132 243 114.091 243 92C243 69.9086 225.091 52 203 52Z" stroke="black" stroke-width="10"/>
<path d="M133 203C133 180.909 115.091 163 93 163C70.9086 163 53 180.909 53 203C53 225.091 70.9086 243 93 243C115.091 243 133 225.091 133 203Z" fill="url(#pattern0_1556_3973)" stroke="black" stroke-width="10"/>
<path d="M403 3V403H3V3H403Z" stroke="black" stroke-width="5"/>
<defs>
<pattern id="pattern0_1556_3973" patternUnits="userSpaceOnUse" patternTransform="matrix(-445.373 0 0 -463.779 268.011 437.52)" preserveAspectRatio="none" viewBox="47.6758 -2.63044 445.373 463.779" width="1" height="1">
<use xlink:href="#pattern0_1556_3973_inner" transform="translate(0 -463.779)"/>
<g id="pattern0_1556_3973_inner">
<path d="M53.4727 246.424L263.946 1.41901" stroke="#0170C3" stroke-width="10" stroke-linecap="round"/>
<path d="M64.1328 264.424L274.606 19.419" stroke="#0170C3" stroke-width="10" stroke-linecap="round"/>
<path d="M74.7969 282.416L285.27 37.4112" stroke="#0170C3" stroke-width="10" stroke-linecap="round"/>
<path d="M85.4629 300.409L295.936 55.4034" stroke="#0170C3" stroke-width="10" stroke-linecap="round"/>
<path d="M96.123 318.401L306.596 73.3956" stroke="#0170C3" stroke-width="10" stroke-linecap="round"/>
<path d="M106.787 336.393L317.26 91.3878" stroke="#0170C3" stroke-width="10" stroke-linecap="round"/>
<path d="M117.449 354.393L327.922 109.388" stroke="#0170C3" stroke-width="10" stroke-linecap="round"/>
<path d="M128.113 372.385L338.586 127.38" stroke="#0170C3" stroke-width="10" stroke-linecap="round"/>
<path d="M138.775 390.377L349.248 145.372" stroke="#0170C3" stroke-width="10" stroke-linecap="round"/>
<path d="M149.439 408.377L359.912 163.372" stroke="#0170C3" stroke-width="10" stroke-linecap="round"/>
<path d="M160.1 426.362L370.572 181.357" stroke="#0170C3" stroke-width="10" stroke-linecap="round"/>
<path d="M170.764 444.362L381.237 199.357" stroke="#0170C3" stroke-width="10" stroke-linecap="round"/>
<path d="M181.428 462.354L391.901 217.349" stroke="#0170C3" stroke-width="10" stroke-linecap="round"/>
</g>
</pattern></defs>
</svg>
