<svg width="400" height="400" viewBox="0 0 400 400" fill="none" xmlns="http://www.w3.org/2000/svg">
<rect x="2.5" y="2.5" width="395" height="395" stroke="black" stroke-width="5"/>
<mask id="path-2-inside-1_1556_4536" fill="white">
<path d="M85 137.5V200V262.5L200 335L315 262.5V200V137.5L200 65L85 137.5Z"/>
</mask>
<path d="M85 137.5V200V262.5L200 335L315 262.5V200V137.5L200 65L85 137.5Z" stroke="black" stroke-width="10" mask="url(#path-2-inside-1_1556_4536)"/>
<path d="M118 264C126.284 264 133 257.284 133 249C133 240.716 126.284 234 118 234C109.716 234 103 240.716 103 249C103 257.284 109.716 264 118 264Z" fill="black"/>
</svg>
