<svg width="400" height="400" viewBox="0 0 400 400" fill="none" xmlns="http://www.w3.org/2000/svg">
<rect x="2.5" y="2.5" width="395" height="395" stroke="black" stroke-width="5"/>
<mask id="path-2-inside-1_1556_4540" fill="white">
<path d="M85 137.5V200V262.5L200 335L315 262.5V200V137.5L200 65L85 137.5Z"/>
</mask>
<path d="M85 137.5V200V262.5L200 335L315 262.5V200V137.5L200 65L85 137.5Z" stroke="black" stroke-width="10" mask="url(#path-2-inside-1_1556_4540)"/>
<path d="M281 170C289.284 170 296 163.284 296 155C296 146.716 289.284 140 281 140C272.716 140 266 146.716 266 155C266 163.284 272.716 170 281 170Z" fill="black"/>
</svg>
