<svg width="400" height="400" viewBox="0 0 400 400" fill="none" xmlns="http://www.w3.org/2000/svg">
<rect x="2.5" y="2.5" width="395" height="395" stroke="black" stroke-width="5"/>
<mask id="path-2-inside-1_1556_4544" fill="white">
<path d="M85 137.5V200V262.5L200 335L315 262.5V200V137.5L200 65L85 137.5Z"/>
</mask>
<path d="M85 137.5V200V262.5L200 335L315 262.5V200V137.5L200 65L85 137.5Z" stroke="black" stroke-width="10" mask="url(#path-2-inside-1_1556_4544)"/>
<path d="M284 264C292.284 264 299 257.284 299 249C299 240.716 292.284 234 284 234C275.716 234 269 240.716 269 249C269 257.284 275.716 264 284 264Z" fill="black"/>
<mask id="path-4-inside-2_1556_4544" fill="white">
<path d="M118 170C126.284 170 133 163.284 133 155C133 146.716 126.284 140 118 140C109.716 140 103 146.716 103 155C103 163.284 109.716 170 118 170Z"/>
</mask>
<path d="M118 170C126.284 170 133 163.284 133 155C133 146.716 126.284 140 118 140C109.716 140 103 146.716 103 155C103 163.284 109.716 170 118 170Z" stroke="black" stroke-width="10" mask="url(#path-4-inside-2_1556_4544)"/>
</svg>
