<svg width="400" height="400" viewBox="0 0 400 400" fill="none" xmlns="http://www.w3.org/2000/svg">
<rect x="2.5" y="2.5" width="395" height="395" stroke="black" stroke-width="5"/>
<mask id="path-2-inside-1_1556_4554" fill="white">
<path d="M85 137.5V200V262.5L200 335L315 262.5V200V137.5L200 65L85 137.5Z"/>
</mask>
<path d="M85 137.5V200V262.5L200 335L315 262.5V200V137.5L200 65L85 137.5Z" stroke="black" stroke-width="10" mask="url(#path-2-inside-1_1556_4554)"/>
<path d="M200 315C208.284 315 215 308.284 215 300C215 291.716 208.284 285 200 285C191.716 285 185 291.716 185 300C185 308.284 191.716 315 200 315Z" fill="black"/>
<mask id="path-4-inside-2_1556_4554" fill="white">
<path d="M200 115C208.284 115 215 108.284 215 100C215 91.7157 208.284 85 200 85C191.716 85 185 91.7157 185 100C185 108.284 191.716 115 200 115Z"/>
</mask>
<path d="M200 115C208.284 115 215 108.284 215 100C215 91.7157 208.284 85 200 85C191.716 85 185 91.7157 185 100C185 108.284 191.716 115 200 115Z" stroke="black" stroke-width="10" mask="url(#path-4-inside-2_1556_4554)"/>
</svg>
