<svg width="406" height="406" viewBox="0 0 406 406" fill="none" xmlns="http://www.w3.org/2000/svg">
<path d="M233 293H293V233H233V293Z" fill="#D9D9D9" stroke="white" stroke-width="3"/>
<path d="M173 293H233V233H173V293Z" fill="#D9D9D9" stroke="white" stroke-width="3"/>
<path d="M113 293H173V233H113V293Z" fill="#D9D9D9" stroke="white" stroke-width="3"/>
<path d="M233 233H293V173H233V233Z" fill="#D9D9D9" stroke="white" stroke-width="3"/>
<path d="M173 233H233V173H173V233Z" fill="#0170C3" stroke="white" stroke-width="3"/>
<path d="M113 233H173V173H113V233Z" fill="#D9D9D9" stroke="white" stroke-width="3"/>
<path d="M233 173H293V113H233V173Z" fill="#D9D9D9" stroke="white" stroke-width="3"/>
<path d="M173 173H233V113H173V173Z" fill="#D9D9D9" stroke="white" stroke-width="3"/>
<path d="M113 173H173V113H113V173Z" fill="#D9D9D9" stroke="white" stroke-width="3"/>
<path d="M3 403L403 403L403 3L3 3L3 403Z" stroke="black" stroke-width="5"/>
</svg>
