<svg width="406" height="406" viewBox="0 0 406 406" fill="none" xmlns="http://www.w3.org/2000/svg">
<path d="M173 113H113V173H173V113Z" fill="#0170C3" stroke="white" stroke-width="3"/>
<path d="M233 113H173V173H233V113Z" fill="#D9D9D9" stroke="white" stroke-width="3"/>
<path d="M293 113H233V173H293V113Z" fill="#0170C3" stroke="white" stroke-width="3"/>
<path d="M173 173H113V233H173V173Z" fill="#D9D9D9" stroke="white" stroke-width="3"/>
<path d="M233 173H173V233H233V173Z" fill="#D9D9D9" stroke="white" stroke-width="3"/>
<path d="M293 173H233V233H293V173Z" fill="#D9D9D9" stroke="white" stroke-width="3"/>
<path d="M173 233H113V293H173V233Z" fill="#0170C3" stroke="white" stroke-width="3"/>
<path d="M233 233H173V293H233V233Z" fill="#D9D9D9" stroke="white" stroke-width="3"/>
<path d="M293 233H233V293H293V233Z" fill="#0170C3" stroke="white" stroke-width="3"/>
<path d="M403 3H3V403H403V3Z" stroke="black" stroke-width="5"/>
</svg>
