<svg width="406" height="406" viewBox="0 0 406 406" fill="none" xmlns="http://www.w3.org/2000/svg">
<path d="M113 233V293H173V233H113Z" fill="#0170C3" stroke="white" stroke-width="3"/>
<path d="M113 173V233H173V173H113Z" fill="#D9D9D9" stroke="white" stroke-width="3"/>
<path d="M113 113V173H173V113H113Z" fill="#0170C3" stroke="white" stroke-width="3"/>
<path d="M173 233V293H233V233H173Z" fill="#0170C3" stroke="white" stroke-width="3"/>
<path d="M173 173V233H233V173H173Z" fill="#0170C3" stroke="white" stroke-width="3"/>
<path d="M173 113V173H233V113H173Z" fill="#0170C3" stroke="white" stroke-width="3"/>
<path d="M233 233V293H293V233H233Z" fill="#0170C3" stroke="white" stroke-width="3"/>
<path d="M233 173V233H293V173H233Z" fill="#D9D9D9" stroke="white" stroke-width="3"/>
<path d="M233 113V173H293V113H233Z" fill="#0170C3" stroke="white" stroke-width="3"/>
<path d="M3 3L3 403H403V3H3Z" stroke="black" stroke-width="5"/>
</svg>
