<svg width="1320" height="1320" viewBox="0 0 1320 1320" fill="none" xmlns="http://www.w3.org/2000/svg">
<rect x="2.5" y="2.5" width="395" height="395" stroke="black" stroke-width="5"/>
<rect x="77.5" y="77.5" width="245" height="245" stroke="black" stroke-width="5"/>
<path d="M138 81V325" stroke="#0170C3" stroke-width="7"/>
<path d="M322 138L78 138" stroke="#0170C3" stroke-width="7"/>
<rect x="462.5" y="2.5" width="395" height="395" stroke="black" stroke-width="5"/>
<rect x="537.5" y="77.5" width="245" height="245" stroke="black" stroke-width="5"/>
<path d="M598 81V325" stroke="#0170C3" stroke-width="7"/>
<path d="M779 200L535 200" stroke="#0170C3" stroke-width="7"/>
<rect x="922.5" y="2.5" width="395" height="395" stroke="black" stroke-width="5"/>
<rect x="997.5" y="77.5" width="245" height="245" stroke="black" stroke-width="5"/>
<path d="M1058 81V325" stroke="#0170C3" stroke-width="7"/>
<path d="M1239 262L995 262" stroke="#0170C3" stroke-width="7"/>
<rect x="2.5" y="462.5" width="395" height="395" stroke="black" stroke-width="5"/>
<rect x="77.5" y="537.5" width="245" height="245" stroke="black" stroke-width="5"/>
<path d="M200 541V785" stroke="#0170C3" stroke-width="7"/>
<path d="M319 598L75 598" stroke="#0170C3" stroke-width="7"/>
<rect x="462.5" y="462.5" width="395" height="395" stroke="black" stroke-width="5"/>
<rect x="537.5" y="537.5" width="245" height="245" stroke="black" stroke-width="5"/>
<path d="M660 541V785" stroke="#0170C3" stroke-width="7"/>
<path d="M779 660L535 660" stroke="#0170C3" stroke-width="7"/>
<rect x="922.5" y="462.5" width="395" height="395" stroke="black" stroke-width="5"/>
<rect x="997.5" y="537.5" width="245" height="245" stroke="black" stroke-width="5"/>
<path d="M1120 541V785" stroke="#0170C3" stroke-width="7"/>
<path d="M1239 722L995 722" stroke="#0170C3" stroke-width="7"/>
<rect x="2.5" y="922.5" width="395" height="395" stroke="black" stroke-width="5"/>
<rect x="77.5" y="997.5" width="245" height="245" stroke="black" stroke-width="5"/>
<path d="M262 1001V1245" stroke="#0170C3" stroke-width="7"/>
<path d="M319 1058L75 1058" stroke="#0170C3" stroke-width="7"/>
<rect x="462.5" y="922.5" width="395" height="395" stroke="black" stroke-width="5"/>
<rect x="537.5" y="997.5" width="245" height="245" stroke="black" stroke-width="5"/>
<path d="M722 998V1242" stroke="#0170C3" stroke-width="7"/>
<path d="M779 1120L535 1120" stroke="#0170C3" stroke-width="7"/>
<path d="M1119.5 1186V1147.1C1119.5 1128.88 1132.04 1113.05 1149.77 1108.88V1108.88C1157.73 1107.01 1164.9 1102.7 1170.29 1096.56L1170.75 1096.03C1176.75 1089.2 1180.34 1080.59 1180.96 1071.52L1181.21 1067.92C1182.34 1051.6 1175.74 1035.69 1163.39 1024.96L1161.97 1023.73C1144.76 1008.78 1120.21 1005.78 1099.9 1016.13L1095.45 1018.4C1072.6 1030.05 1060.04 1055.25 1064.5 1080.5V1080.5" stroke="black" stroke-width="30"/>
<rect x="1112.5" y="1218.5" width="15" height="15" fill="black" stroke="black" stroke-width="15"/>
</svg>
