<svg width="1460" height="1460" viewBox="0 0 1460 1460" fill="none" xmlns="http://www.w3.org/2000/svg">
<rect x="2.5" y="2.5" width="395" height="395" stroke="black" stroke-width="5"/>
<rect x="77.5" y="77.5" width="245" height="245" stroke="black" stroke-width="5"/>
<path d="M138 81V325" stroke="#0170C3" stroke-width="7"/>
<path d="M322 138L78 138" stroke="#0170C3" stroke-width="7"/>
<rect x="532.5" y="2.5" width="395" height="395" stroke="black" stroke-width="5"/>
<rect x="607.5" y="77.5" width="245" height="245" stroke="black" stroke-width="5"/>
<path d="M668 81V325" stroke="#0170C3" stroke-width="7"/>
<path d="M849 200L605 200" stroke="#0170C3" stroke-width="7"/>
<rect x="1062.5" y="2.5" width="395" height="395" stroke="black" stroke-width="5"/>
<rect x="1137.5" y="77.5" width="245" height="245" stroke="black" stroke-width="5"/>
<path d="M1198 81V325" stroke="#0170C3" stroke-width="7"/>
<path d="M1379 262L1135 262" stroke="#0170C3" stroke-width="7"/>
<rect x="2.5" y="532.5" width="395" height="395" stroke="black" stroke-width="5"/>
<rect x="77.5" y="607.5" width="245" height="245" stroke="black" stroke-width="5"/>
<path d="M200 611V855" stroke="#0170C3" stroke-width="7"/>
<path d="M319 668L75 668" stroke="#0170C3" stroke-width="7"/>
<rect x="532.5" y="532.5" width="395" height="395" stroke="black" stroke-width="5"/>
<rect x="607.5" y="607.5" width="245" height="245" stroke="black" stroke-width="5"/>
<path d="M730 611V855" stroke="#0170C3" stroke-width="7"/>
<path d="M849 730L605 730" stroke="#0170C3" stroke-width="7"/>
<rect x="1062.5" y="532.5" width="395" height="395" stroke="black" stroke-width="5"/>
<rect x="1137.5" y="607.5" width="245" height="245" stroke="black" stroke-width="5"/>
<path d="M1260 611V855" stroke="#0170C3" stroke-width="7"/>
<path d="M1379 792L1135 792" stroke="#0170C3" stroke-width="7"/>
<rect x="2.5" y="1062.5" width="395" height="395" stroke="black" stroke-width="5"/>
<rect x="77.5" y="1137.5" width="245" height="245" stroke="black" stroke-width="5"/>
<path d="M262 1141V1385" stroke="#0170C3" stroke-width="7"/>
<path d="M319 1198L75 1198" stroke="#0170C3" stroke-width="7"/>
<rect x="532.5" y="1062.5" width="395" height="395" stroke="black" stroke-width="5"/>
<rect x="607.5" y="1137.5" width="245" height="245" stroke="black" stroke-width="5"/>
<path d="M792 1138V1382" stroke="#0170C3" stroke-width="7"/>
<path d="M849 1260L605 1260" stroke="#0170C3" stroke-width="7"/>
<path d="M1259.5 1326V1287.1C1259.5 1268.88 1272.04 1253.05 1289.77 1248.88V1248.88C1297.73 1247.01 1304.9 1242.7 1310.29 1236.56L1310.75 1236.03C1316.75 1229.2 1320.34 1220.59 1320.96 1211.52L1321.21 1207.92C1322.34 1191.6 1315.74 1175.69 1303.39 1164.96L1301.97 1163.73C1284.76 1148.78 1260.21 1145.78 1239.9 1156.13L1235.45 1158.4C1212.6 1170.05 1200.04 1195.25 1204.5 1220.5V1220.5" stroke="black" stroke-width="30"/>
<rect x="1252.5" y="1358.5" width="15" height="15" fill="black" stroke="black" stroke-width="15"/>
</svg>
