<svg width="1320" height="1320" viewBox="0 0 1320 1320" fill="none" xmlns="http://www.w3.org/2000/svg">
<rect x="2.5" y="2.5" width="395" height="395" stroke="black" stroke-width="5"/>
<path d="M200 128.5C239.488 128.5 271.5 160.512 271.5 200C271.5 239.488 239.488 271.5 200 271.5C160.512 271.5 128.5 239.488 128.5 200C128.5 160.512 160.512 128.5 200 128.5Z" stroke="black" stroke-width="7"/>
<rect x="462.5" y="2.5" width="395" height="395" stroke="black" stroke-width="5"/>
<line x1="560" y1="196.5" x2="760" y2="196.5" stroke="black" stroke-width="7"/>
<rect x="922.5" y="2.5" width="395" height="395" stroke="black" stroke-width="5"/>
<path d="M1120 153.5C1154.19 153.5 1184.98 159.049 1207.09 167.895C1218.15 172.321 1226.88 177.505 1232.77 183.081C1238.66 188.651 1241.5 194.369 1241.5 200C1241.5 205.631 1238.66 211.349 1232.77 216.919C1226.88 222.495 1218.15 227.679 1207.09 232.105C1184.98 240.951 1154.19 246.5 1120 246.5C1085.81 246.5 1055.02 240.951 1032.91 232.105C1021.85 227.679 1013.12 222.495 1007.23 216.919C1001.34 211.349 998.5 205.631 998.5 200C998.5 194.369 1001.34 188.651 1007.23 183.081C1013.12 177.505 1021.85 172.321 1032.91 167.895C1055.02 159.049 1085.81 153.5 1120 153.5Z" stroke="black" stroke-width="7"/>
<rect x="2.5" y="462.5" width="395" height="395" stroke="black" stroke-width="5"/>
<path d="M258.89 694H141.11L200 592L258.89 694Z" stroke="black" stroke-width="7"/>
<rect x="462.5" y="462.5" width="395" height="395" stroke="black" stroke-width="5"/>
<line x1="663.5" y1="560" x2="663.5" y2="760" stroke="black" stroke-width="7"/>
<rect x="922.5" y="462.5" width="395" height="395" stroke="black" stroke-width="5"/>
<path d="M1166.51 744H1073.49L1120 573.312L1166.51 744Z" stroke="black" stroke-width="7"/>
<rect x="2.5" y="922.5" width="395" height="395" stroke="black" stroke-width="5"/>
<rect x="143.5" y="1063.5" width="113" height="113" stroke="black" stroke-width="7"/>
<path d="M857.5 922.5V1317.5H462.5V922.5H857.5Z" stroke="black" stroke-width="5"/>
<path d="M857.5 922.5V1317.5H462.5V922.5H857.5Z" stroke="black" stroke-width="5"/>
<line x1="560" y1="1116.5" x2="760" y2="1116.5" stroke="black" stroke-width="7"/>
<line x1="663.5" y1="1020" x2="663.5" y2="1220" stroke="black" stroke-width="7"/>
<path d="M1119.5 1186V1147.1C1119.5 1128.88 1132.04 1113.05 1149.77 1108.88V1108.88C1157.73 1107.01 1164.9 1102.7 1170.29 1096.56L1170.75 1096.03C1176.75 1089.2 1180.34 1080.59 1180.96 1071.52L1181.21 1067.92C1182.34 1051.6 1175.74 1035.69 1163.39 1024.96L1161.97 1023.73C1144.76 1008.78 1120.21 1005.78 1099.9 1016.13L1095.45 1018.4C1072.6 1030.05 1060.04 1055.25 1064.5 1080.5V1080.5" stroke="black" stroke-width="30"/>
<rect x="1112.5" y="1218.5" width="15" height="15" fill="black" stroke="black" stroke-width="15"/>
</svg>
