<svg width="1460" height="1460" viewBox="0 0 1460 1460" fill="none" xmlns="http://www.w3.org/2000/svg">
<rect x="2.5" y="2.5" width="395" height="395" stroke="black" stroke-width="5"/>
<circle cx="200.5" cy="199.5" r="78" stroke="black" stroke-width="7"/>
<rect x="532.5" y="2.5" width="395" height="395" stroke="black" stroke-width="5"/>
<path d="M786.222 119.701V280.377L655.715 200.039L786.222 119.701Z" stroke="black" stroke-width="7"/>
<rect x="1062.5" y="2.5" width="395" height="395" stroke="black" stroke-width="5"/>
<circle cx="1188.5" cy="200.5" r="78" stroke="black" stroke-width="7"/>
<path d="M1406.22 120.701V281.377L1275.71 201.039L1406.22 120.701Z" stroke="black" stroke-width="7"/>
<rect x="2.5" y="532.5" width="395" height="395" stroke="black" stroke-width="5"/>
<path d="M256.222 649.701V810.377L125.715 730.039L256.222 649.701Z" stroke="black" stroke-width="7"/>
<rect x="532.5" y="532.5" width="395" height="395" stroke="black" stroke-width="5"/>
<circle cx="730.5" cy="729.5" r="78" stroke="black" stroke-width="7"/>
<rect x="1457.5" y="927.5" width="395" height="395" transform="rotate(-180 1457.5 927.5)" stroke="black" stroke-width="5"/>
<circle cx="1336.5" cy="729.461" r="78" transform="rotate(-180 1336.5 729.461)" stroke="black" stroke-width="7"/>
<path d="M1117.4 810.338V649.662L1247.9 730L1117.4 810.338Z" stroke="black" stroke-width="7"/>
<rect x="2.5" y="1062.5" width="395" height="395" stroke="black" stroke-width="5"/>
<path d="M138.396 1340.38L138.396 1179.7L268.902 1260.04L138.396 1340.38Z" stroke="black" stroke-width="7"/>
<rect x="532.5" y="1062.5" width="395" height="395" stroke="black" stroke-width="5"/>
<path d="M786.222 1179.66V1340.34L655.715 1260L786.222 1179.66Z" stroke="black" stroke-width="7"/>
<path d="M1259.5 1326V1287.1C1259.5 1268.88 1272.04 1253.05 1289.77 1248.88V1248.88C1297.73 1247.01 1304.9 1242.7 1310.29 1236.56L1310.75 1236.03C1316.75 1229.2 1320.34 1220.59 1320.96 1211.52L1321.21 1207.92C1322.34 1191.6 1315.74 1175.69 1303.39 1164.96L1301.97 1163.73C1284.76 1148.78 1260.21 1145.78 1239.9 1156.13L1235.45 1158.4C1212.6 1170.05 1200.04 1195.25 1204.5 1220.5V1220.5" stroke="black" stroke-width="30"/>
<rect x="1252.5" y="1358.5" width="15" height="15" fill="black" stroke="black" stroke-width="15"/>
</svg>
