<svg width="1320" height="1320" viewBox="0 0 1320 1320" fill="none" xmlns="http://www.w3.org/2000/svg">
<rect x="2.5" y="2.5" width="395" height="395" stroke="black" stroke-width="5"/>
<circle cx="200.5" cy="199.5" r="78" stroke="black" stroke-width="7"/>
<rect x="462.5" y="2.5" width="395" height="395" stroke="black" stroke-width="5"/>
<path d="M716.222 119.701V280.377L585.715 200.039L716.222 119.701Z" stroke="black" stroke-width="7"/>
<rect x="922.5" y="2.5" width="395" height="395" stroke="black" stroke-width="5"/>
<circle cx="1048.5" cy="200.5" r="78" stroke="black" stroke-width="7"/>
<path d="M1266.22 120.701V281.377L1135.71 201.039L1266.22 120.701Z" stroke="black" stroke-width="7"/>
<rect x="2.5" y="462.5" width="395" height="395" stroke="black" stroke-width="5"/>
<path d="M256.222 579.701V740.377L125.715 660.039L256.222 579.701Z" stroke="black" stroke-width="7"/>
<rect x="462.5" y="462.5" width="395" height="395" stroke="black" stroke-width="5"/>
<circle cx="660.5" cy="659.5" r="78" stroke="black" stroke-width="7"/>
<rect x="1317.5" y="857.5" width="395" height="395" transform="rotate(-180 1317.5 857.5)" stroke="black" stroke-width="5"/>
<circle cx="1196.5" cy="659.461" r="78" transform="rotate(-180 1196.5 659.461)" stroke="black" stroke-width="7"/>
<path d="M977.396 740.338V579.662L1107.9 660L977.396 740.338Z" stroke="black" stroke-width="7"/>
<rect x="2.5" y="922.5" width="395" height="395" stroke="black" stroke-width="5"/>
<path d="M138.396 1200.38L138.396 1039.7L268.902 1120.04L138.396 1200.38Z" stroke="black" stroke-width="7"/>
<rect x="462.5" y="922.5" width="395" height="395" stroke="black" stroke-width="5"/>
<path d="M716.222 1039.66V1200.34L585.715 1120L716.222 1039.66Z" stroke="black" stroke-width="7"/>
<path d="M1119.5 1186V1147.1C1119.5 1128.88 1132.04 1113.05 1149.77 1108.88V1108.88C1157.73 1107.01 1164.9 1102.7 1170.29 1096.56L1170.75 1096.03C1176.75 1089.2 1180.34 1080.59 1180.96 1071.52L1181.21 1067.92C1182.34 1051.6 1175.74 1035.69 1163.39 1024.96L1161.97 1023.73C1144.76 1008.78 1120.21 1005.78 1099.9 1016.13L1095.45 1018.4C1072.6 1030.05 1060.04 1055.25 1064.5 1080.5V1080.5" stroke="black" stroke-width="30"/>
<rect x="1112.5" y="1218.5" width="15" height="15" fill="black" stroke="black" stroke-width="15"/>
</svg>
