<svg width="1460" height="1460" viewBox="0 0 1460 1460" fill="none" xmlns="http://www.w3.org/2000/svg">
<rect x="2.5" y="2.5" width="395" height="395" stroke="black" stroke-width="5"/>
<path d="M75 116.621V116.621C103.868 159.768 166.722 161.416 197.81 119.841L200.217 116.621L200.914 115.616C231.06 72.1042 295.563 72.627 325 116.621V116.621" stroke="black" stroke-width="7"/>
<path d="M75 201.621V201.621C103.868 244.768 166.722 246.416 197.81 204.841L200.217 201.621L200.914 200.616C231.06 157.104 295.563 157.627 325 201.621V201.621" stroke="black" stroke-width="7"/>
<path d="M75 286.621V286.621C103.868 329.768 166.722 331.416 197.81 289.841L200.217 286.621L200.914 285.616C231.06 242.104 295.563 242.627 325 286.621V286.621" stroke="black" stroke-width="7"/>
<path d="M258.379 75V75C215.232 103.868 213.584 166.722 255.159 197.81L258.379 200.217L259.384 200.914C302.896 231.06 302.373 295.563 258.379 325V325" stroke="black" stroke-width="7"/>
<path d="M138.379 75V75C95.232 103.868 93.5844 166.722 135.159 197.81L138.379 200.217L139.384 200.914C182.896 231.06 182.373 295.563 138.379 325V325" stroke="black" stroke-width="7"/>
<rect x="532.5" y="2.5" width="395" height="395" stroke="black" stroke-width="5"/>
<path d="M880 50H580V350" stroke="black" stroke-width="7"/>
<path d="M605 258.379V258.379C633.868 215.232 696.722 213.584 727.81 255.159L730.217 258.379L730.914 259.384C761.06 302.896 825.563 302.373 855 258.379V258.379" stroke="black" stroke-width="7"/>
<path d="M605 138.379V138.379C633.868 95.232 696.722 93.5844 727.81 135.159L730.217 138.379L730.914 139.384C761.06 182.896 825.563 182.373 855 138.379V138.379" stroke="black" stroke-width="7"/>
<rect x="1062.5" y="2.5" width="395" height="395" stroke="black" stroke-width="5"/>
<path d="M1261.62 75V75C1304.77 103.868 1306.42 166.722 1264.84 197.81L1261.62 200.217L1260.62 200.914C1217.1 231.06 1217.63 295.563 1261.62 325V325" stroke="black" stroke-width="7"/>
<circle cx="1260" cy="200" r="171.5" stroke="black" stroke-width="7"/>
<rect x="2.5" y="532.5" width="395" height="395" stroke="black" stroke-width="5"/>
<path d="M325 731.621V731.621C296.132 774.768 233.278 776.416 202.19 734.841L199.783 731.621L199.086 730.616C168.94 687.104 104.437 687.627 75 731.621V731.621" stroke="black" stroke-width="7"/>
<path d="M175 905C271.65 905 350 826.65 350 730C350 633.35 271.65 555 175 555" stroke="black" stroke-width="7"/>
<rect x="532.5" y="532.5" width="395" height="395" stroke="black" stroke-width="5"/>
<path d="M813.379 855V855C770.232 826.132 768.584 763.278 810.159 732.19L813.379 729.783L814.384 729.086C857.896 698.94 857.373 634.437 813.379 605V605" stroke="black" stroke-width="7"/>
<path d="M728.379 855V855C685.232 826.132 683.584 763.278 725.159 732.19L728.379 729.783L729.384 729.086C772.896 698.94 772.373 634.437 728.379 605V605" stroke="black" stroke-width="7"/>
<path d="M643.379 855V855C600.232 826.132 598.584 763.278 640.159 732.19L643.379 729.783L644.384 729.086C687.896 698.94 687.373 634.437 643.379 605V605" stroke="black" stroke-width="7"/>
<path d="M731.621 855V855C774.768 826.132 776.416 763.278 734.841 732.19L731.621 729.783L730.616 729.086C687.104 698.94 687.627 634.437 731.621 605V605" stroke="black" stroke-width="7"/>
<rect x="1062.5" y="532.5" width="395" height="395" stroke="black" stroke-width="5"/>
<path d="M1135 671.621V671.621C1163.87 714.768 1226.72 716.416 1257.81 674.841L1260.22 671.621L1260.91 670.616C1291.06 627.104 1355.56 627.627 1385 671.621V671.621" stroke="black" stroke-width="7"/>
<path d="M1135 791.621V791.621C1163.87 834.768 1226.72 836.416 1257.81 794.841L1260.22 791.621L1260.91 790.616C1291.06 747.104 1355.56 747.627 1385 791.621V791.621" stroke="black" stroke-width="7"/>
<path d="M1406.5 583.5V876.5H1113.5V583.5H1406.5Z" stroke="black" stroke-width="7"/>
<rect x="2.5" y="1062.5" width="395" height="395" stroke="black" stroke-width="5"/>
<path d="M50 1410H350V1110" stroke="black" stroke-width="7"/>
<path d="M258.379 1385V1385C215.232 1356.13 213.584 1293.28 255.159 1262.19L258.379 1259.78L259.384 1259.09C302.896 1228.94 302.373 1164.44 258.379 1135V1135" stroke="black" stroke-width="7"/>
<path d="M138.379 1385V1385C95.232 1356.13 93.5844 1293.28 135.159 1262.19L138.379 1259.78L139.384 1259.09C182.896 1228.94 182.373 1164.44 138.379 1135V1135" stroke="black" stroke-width="7"/>
<rect x="532.5" y="1062.5" width="395" height="395" stroke="black" stroke-width="5"/>
<path d="M605 1261.62V1261.62C633.868 1304.77 696.722 1306.42 727.81 1264.84L730.217 1261.62L730.914 1260.62C761.06 1217.1 825.563 1217.63 855 1261.62V1261.62" stroke="black" stroke-width="7"/>
<path d="M735 1435C638.35 1435 560 1356.65 560 1260C560 1163.35 638.35 1085 735 1085" stroke="black" stroke-width="7"/>
<path d="M1259.5 1326V1287.1C1259.5 1268.88 1272.04 1253.05 1289.77 1248.88V1248.88C1297.73 1247.01 1304.9 1242.7 1310.29 1236.56L1310.75 1236.03C1316.75 1229.2 1320.34 1220.59 1320.96 1211.52L1321.21 1207.92C1322.34 1191.6 1315.74 1175.69 1303.39 1164.96L1301.97 1163.73C1284.76 1148.78 1260.21 1145.78 1239.9 1156.13L1235.45 1158.4C1212.6 1170.05 1200.04 1195.25 1204.5 1220.5V1220.5" stroke="black" stroke-width="30"/>
<rect x="1252.5" y="1358.5" width="15" height="15" fill="black" stroke="black" stroke-width="15"/>
</svg>
