<svg width="1320" height="1320" viewBox="0 0 1320 1320" fill="none" xmlns="http://www.w3.org/2000/svg">
<rect x="2.5" y="2.5" width="395" height="395" stroke="black" stroke-width="5"/>
<path d="M75 116.621V116.621C103.868 159.768 166.722 161.416 197.81 119.841L200.217 116.621L200.914 115.616C231.06 72.1042 295.563 72.627 325 116.621V116.621" stroke="black" stroke-width="7"/>
<path d="M75 201.621V201.621C103.868 244.768 166.722 246.416 197.81 204.841L200.217 201.621L200.914 200.616C231.06 157.104 295.563 157.627 325 201.621V201.621" stroke="black" stroke-width="7"/>
<path d="M75 286.621V286.621C103.868 329.768 166.722 331.416 197.81 289.841L200.217 286.621L200.914 285.616C231.06 242.104 295.563 242.627 325 286.621V286.621" stroke="black" stroke-width="7"/>
<path d="M258.379 75V75C215.232 103.868 213.584 166.722 255.159 197.81L258.379 200.217L259.384 200.914C302.896 231.06 302.373 295.563 258.379 325V325" stroke="black" stroke-width="7"/>
<path d="M138.379 75V75C95.232 103.868 93.5844 166.722 135.159 197.81L138.379 200.217L139.384 200.914C182.896 231.06 182.373 295.563 138.379 325V325" stroke="black" stroke-width="7"/>
<rect x="462.5" y="2.5" width="395" height="395" stroke="black" stroke-width="5"/>
<path d="M810 50H510V350" stroke="black" stroke-width="7"/>
<path d="M535 258.379V258.379C563.868 215.232 626.722 213.584 657.81 255.159L660.217 258.379L660.914 259.384C691.06 302.896 755.563 302.373 785 258.379V258.379" stroke="black" stroke-width="7"/>
<path d="M535 138.379V138.379C563.868 95.232 626.722 93.5844 657.81 135.159L660.217 138.379L660.914 139.384C691.06 182.896 755.563 182.373 785 138.379V138.379" stroke="black" stroke-width="7"/>
<rect x="922.5" y="2.5" width="395" height="395" stroke="black" stroke-width="5"/>
<path d="M1121.62 75V75C1164.77 103.868 1166.42 166.722 1124.84 197.81L1121.62 200.217L1120.62 200.914C1077.1 231.06 1077.63 295.563 1121.62 325V325" stroke="black" stroke-width="7"/>
<circle cx="1120" cy="200" r="171.5" stroke="black" stroke-width="7"/>
<rect x="2.5" y="462.5" width="395" height="395" stroke="black" stroke-width="5"/>
<path d="M325 661.621V661.621C296.132 704.768 233.278 706.416 202.19 664.841L199.783 661.621L199.086 660.616C168.94 617.104 104.437 617.627 75 661.621V661.621" stroke="black" stroke-width="7"/>
<path d="M175 835C271.65 835 350 756.65 350 660C350 563.35 271.65 485 175 485" stroke="black" stroke-width="7"/>
<rect x="462.5" y="462.5" width="395" height="395" stroke="black" stroke-width="5"/>
<path d="M743.379 785V785C700.232 756.132 698.584 693.278 740.159 662.19L743.379 659.783L744.384 659.086C787.896 628.94 787.373 564.437 743.379 535V535" stroke="black" stroke-width="7"/>
<path d="M658.379 785V785C615.232 756.132 613.584 693.278 655.159 662.19L658.379 659.783L659.384 659.086C702.896 628.94 702.373 564.437 658.379 535V535" stroke="black" stroke-width="7"/>
<path d="M573.379 785V785C530.232 756.132 528.584 693.278 570.159 662.19L573.379 659.783L574.384 659.086C617.896 628.94 617.373 564.437 573.379 535V535" stroke="black" stroke-width="7"/>
<path d="M661.621 785V785C704.768 756.132 706.416 693.278 664.841 662.19L661.621 659.783L660.616 659.086C617.104 628.94 617.627 564.437 661.621 535V535" stroke="black" stroke-width="7"/>
<rect x="922.5" y="462.5" width="395" height="395" stroke="black" stroke-width="5"/>
<path d="M995 601.621V601.621C1023.87 644.768 1086.72 646.416 1117.81 604.841L1120.22 601.621L1120.91 600.616C1151.06 557.104 1215.56 557.627 1245 601.621V601.621" stroke="black" stroke-width="7"/>
<path d="M995 721.621V721.621C1023.87 764.768 1086.72 766.416 1117.81 724.841L1120.22 721.621L1120.91 720.616C1151.06 677.104 1215.56 677.627 1245 721.621V721.621" stroke="black" stroke-width="7"/>
<path d="M1266.5 513.5V806.5H973.5V513.5H1266.5Z" stroke="black" stroke-width="7"/>
<rect x="2.5" y="922.5" width="395" height="395" stroke="black" stroke-width="5"/>
<path d="M50 1270H350V970" stroke="black" stroke-width="7"/>
<path d="M258.379 1245V1245C215.232 1216.13 213.584 1153.28 255.159 1122.19L258.379 1119.78L259.384 1119.09C302.896 1088.94 302.373 1024.44 258.379 995V995" stroke="black" stroke-width="7"/>
<path d="M138.379 1245V1245C95.232 1216.13 93.5844 1153.28 135.159 1122.19L138.379 1119.78L139.384 1119.09C182.896 1088.94 182.373 1024.44 138.379 995V995" stroke="black" stroke-width="7"/>
<rect x="462.5" y="922.5" width="395" height="395" stroke="black" stroke-width="5"/>
<path d="M535 1121.62V1121.62C563.868 1164.77 626.722 1166.42 657.81 1124.84L660.217 1121.62L660.914 1120.62C691.06 1077.1 755.563 1077.63 785 1121.62V1121.62" stroke="black" stroke-width="7"/>
<path d="M665 1295C568.35 1295 490 1216.65 490 1120C490 1023.35 568.35 945 665 945" stroke="black" stroke-width="7"/>
<path d="M1119.5 1186V1147.1C1119.5 1128.88 1132.04 1113.05 1149.77 1108.88V1108.88C1157.73 1107.01 1164.9 1102.7 1170.29 1096.56L1170.75 1096.03C1176.75 1089.2 1180.34 1080.59 1180.96 1071.52L1181.21 1067.92C1182.34 1051.6 1175.74 1035.69 1163.39 1024.96L1161.97 1023.73C1144.76 1008.78 1120.21 1005.78 1099.9 1016.13L1095.45 1018.4C1072.6 1030.05 1060.04 1055.25 1064.5 1080.5V1080.5" stroke="black" stroke-width="30"/>
<rect x="1112.5" y="1218.5" width="15" height="15" fill="black" stroke="black" stroke-width="15"/>
</svg>
