<svg width="1466" height="1466" viewBox="0 0 1466 1466" fill="none" xmlns="http://www.w3.org/2000/svg" xmlns:xlink="http://www.w3.org/1999/xlink">
<path d="M156.333 78H73V161.333H156.333V78Z" fill="url(#pattern0_1556_1281)" stroke="white" stroke-width="10"/>
<path d="M239.665 78H156.332V161.333H239.665V78Z" fill="#0170C3" stroke="white" stroke-width="10"/>
<path d="M323.001 78H239.668V161.333H323.001V78Z" fill="#CACACA" stroke="white" stroke-width="10"/>
<path d="M156.333 161.336H73V244.669H156.333V161.336Z" fill="#CACACA" stroke="white" stroke-width="10"/>
<path d="M239.665 161.336H156.332V244.669H239.665V161.336Z" fill="#CACACA" stroke="white" stroke-width="10"/>
<path d="M323.001 161.336H239.668V244.669H323.001V161.336Z" fill="#CACACA" stroke="white" stroke-width="10"/>
<path d="M156.333 244.664H73V327.997H156.333V244.664Z" fill="#CACACA" stroke="white" stroke-width="10"/>
<path d="M239.665 244.664H156.332V327.997H239.665V244.664Z" fill="#CACACA" stroke="white" stroke-width="10"/>
<path d="M323.001 244.664H239.668V327.997H323.001V244.664Z" fill="#CACACA" stroke="white" stroke-width="10"/>
<path d="M403 3H3V403H403V3Z" stroke="black" stroke-width="5"/>
<path d="M686.333 78H603V161.333H686.333V78Z" fill="#D9D9D9" stroke="white" stroke-width="10"/>
<path d="M769.665 78H686.332V161.333H769.665V78Z" fill="#D9D9D9" stroke="white" stroke-width="10"/>
<path d="M853.001 78H769.668V161.333H853.001V78Z" fill="#D9D9D9" stroke="white" stroke-width="10"/>
<path d="M686.333 161.336H603V244.669H686.333V161.336Z" fill="#D9D9D9" stroke="white" stroke-width="10"/>
<path d="M769.665 161.336H686.332V244.669H769.665V161.336Z" fill="#D9D9D9" stroke="white" stroke-width="10"/>
<path d="M853.001 161.336H769.668V244.669H853.001V161.336Z" fill="#0170C3" stroke="white" stroke-width="10"/>
<path d="M686.333 244.664H603V327.997H686.333V244.664Z" fill="url(#pattern1_1556_1281)" stroke="white" stroke-width="10"/>
<path d="M769.665 244.664H686.332V327.997H769.665V244.664Z" fill="#D9D9D9" stroke="white" stroke-width="10"/>
<path d="M853.001 244.664H769.668V327.997H853.001V244.664Z" fill="#D9D9D9" stroke="white" stroke-width="10"/>
<path d="M933 3H533V403H933V3Z" stroke="black" stroke-width="5"/>
<path d="M1226.33 78H1143V161.333H1226.33V78Z" fill="#D9D9D9" stroke="white" stroke-width="10"/>
<path d="M1309.67 78H1226.33V161.333H1309.67V78Z" fill="#D9D9D9" stroke="white" stroke-width="10"/>
<path d="M1393 78H1309.67V161.333H1393V78Z" fill="#D9D9D9" stroke="white" stroke-width="10"/>
<path d="M1226.33 161.336H1143V244.669H1226.33V161.336Z" fill="#D9D9D9" stroke="white" stroke-width="10"/>
<path d="M1309.67 161.336H1226.33V244.669H1309.67V161.336Z" fill="#D9D9D9" stroke="white" stroke-width="10"/>
<path d="M1393 161.336H1309.67V244.669H1393V161.336Z" fill="#D9D9D9" stroke="white" stroke-width="10"/>
<path d="M1226.33 244.664H1143V327.997H1226.33V244.664Z" fill="#D9D9D9" stroke="white" stroke-width="10"/>
<path d="M1309.67 244.664H1226.33V327.997H1309.67V244.664Z" fill="#0170C3" stroke="white" stroke-width="10"/>
<path d="M1393 244.664H1309.67V327.997H1393V244.664Z" fill="url(#pattern2_1556_1281)" stroke="white" stroke-width="10"/>
<path d="M1463 3H1063V403H1463V3Z" stroke="black" stroke-width="5"/>
<path d="M156.333 608H73V691.333H156.333V608Z" fill="#D9D9D9" stroke="white" stroke-width="10"/>
<path d="M239.665 608H156.332V691.333H239.665V608Z" fill="#D9D9D9" stroke="white" stroke-width="10"/>
<path d="M323.001 608H239.668V691.333H323.001V608Z" fill="url(#pattern3_1556_1281)" stroke="white" stroke-width="10"/>
<path d="M156.333 691.336H73V774.669H156.333V691.336Z" fill="#D9D9D9" stroke="white" stroke-width="10"/>
<path d="M239.665 691.336H156.332V774.669H239.665V691.336Z" fill="#D9D9D9" stroke="white" stroke-width="10"/>
<path d="M323.001 691.336H239.668V774.669H323.001V691.336Z" fill="#D9D9D9" stroke="white" stroke-width="10"/>
<path d="M156.333 774.664H73V857.997H156.333V774.664Z" fill="#D9D9D9" stroke="white" stroke-width="10"/>
<path d="M239.665 774.664H156.332V857.997H239.665V774.664Z" fill="#0170C3" stroke="white" stroke-width="10"/>
<path d="M323.001 774.664H239.668V857.997H323.001V774.664Z" fill="#D9D9D9" stroke="white" stroke-width="10"/>
<path d="M403 533H3V933H403V533Z" stroke="black" stroke-width="5"/>
<path d="M686.333 608H603V691.333H686.333V608Z" fill="url(#pattern4_1556_1281)" stroke="white" stroke-width="10"/>
<path d="M769.665 608H686.332V691.333H769.665V608Z" fill="#D9D9D9" stroke="white" stroke-width="10"/>
<path d="M853.001 608H769.668V691.333H853.001V608Z" fill="#D9D9D9" stroke="white" stroke-width="10"/>
<path d="M686.333 691.336H603V774.669H686.333V691.336Z" fill="#0170C3" stroke="white" stroke-width="10"/>
<path d="M769.665 691.336H686.332V774.669H769.665V691.336Z" fill="#D9D9D9" stroke="white" stroke-width="10"/>
<path d="M853.001 691.336H769.668V774.669H853.001V691.336Z" fill="#D9D9D9" stroke="white" stroke-width="10"/>
<path d="M686.333 774.664H603V857.997H686.333V774.664Z" fill="#D9D9D9" stroke="white" stroke-width="10"/>
<path d="M769.665 774.664H686.332V857.997H769.665V774.664Z" fill="#D9D9D9" stroke="white" stroke-width="10"/>
<path d="M853.001 774.664H769.668V857.997H853.001V774.664Z" fill="#D9D9D9" stroke="white" stroke-width="10"/>
<path d="M933 533H533V933H933V533Z" stroke="black" stroke-width="5"/>
<path d="M1216.33 608H1133V691.333H1216.33V608Z" fill="#D9D9D9" stroke="white" stroke-width="10"/>
<path d="M1299.67 608H1216.33V691.333H1299.67V608Z" fill="#0170C3" stroke="white" stroke-width="10"/>
<path d="M1383 608H1299.67V691.333H1383V608Z" fill="#D9D9D9" stroke="white" stroke-width="10"/>
<path d="M1216.33 691.336H1133V774.669H1216.33V691.336Z" fill="#D9D9D9" stroke="white" stroke-width="10"/>
<path d="M1299.67 691.336H1216.33V774.669H1299.67V691.336Z" fill="#D9D9D9" stroke="white" stroke-width="10"/>
<path d="M1383 691.336H1299.67V774.669H1383V691.336Z" fill="#D9D9D9" stroke="white" stroke-width="10"/>
<path d="M1216.33 774.664H1133V857.997H1216.33V774.664Z" fill="url(#pattern5_1556_1281)" stroke="white" stroke-width="10"/>
<path d="M1299.67 774.664H1216.33V857.997H1299.67V774.664Z" fill="#D9D9D9" stroke="white" stroke-width="10"/>
<path d="M1383 774.664H1299.67V857.997H1383V774.664Z" fill="#D9D9D9" stroke="white" stroke-width="10"/>
<path d="M1463 533H1063V933H1463V533Z" stroke="black" stroke-width="5"/>
<path d="M156.333 1138H73V1221.33H156.333V1138Z" fill="#D9D9D9" stroke="white" stroke-width="10"/>
<path d="M239.665 1138H156.332V1221.33H239.665V1138Z" fill="#D9D9D9" stroke="white" stroke-width="10"/>
<path d="M323.001 1138H239.668V1221.33H323.001V1138Z" fill="#D9D9D9" stroke="white" stroke-width="10"/>
<path d="M156.333 1221.34H73V1304.67H156.333V1221.34Z" fill="#0170C3" stroke="white" stroke-width="10"/>
<path d="M239.665 1221.34H156.332V1304.67H239.665V1221.34Z" fill="#D9D9D9" stroke="white" stroke-width="10"/>
<path d="M323.001 1221.34H239.668V1304.67H323.001V1221.34Z" fill="#D9D9D9" stroke="white" stroke-width="10"/>
<path d="M156.333 1304.66H73V1388H156.333V1304.66Z" fill="#D9D9D9" stroke="white" stroke-width="10"/>
<path d="M239.665 1304.66H156.332V1388H239.665V1304.66Z" fill="#D9D9D9" stroke="white" stroke-width="10"/>
<path d="M323.001 1304.66H239.668V1388H323.001V1304.66Z" fill="url(#pattern6_1556_1281)" stroke="white" stroke-width="10"/>
<path d="M403 1063H3V1463H403V1063Z" stroke="black" stroke-width="5"/>
<path d="M686.333 1138H603V1221.33H686.333V1138Z" fill="#D9D9D9" stroke="white" stroke-width="10"/>
<path d="M769.665 1138H686.332V1221.33H769.665V1138Z" fill="#0170C3" stroke="white" stroke-width="10"/>
<path d="M853.001 1138H769.668V1221.33H853.001V1138Z" fill="url(#pattern7_1556_1281)" stroke="white" stroke-width="10"/>
<path d="M686.333 1221.34H603V1304.67H686.333V1221.34Z" fill="#D9D9D9" stroke="white" stroke-width="10"/>
<path d="M769.665 1221.34H686.332V1304.67H769.665V1221.34Z" fill="#D9D9D9" stroke="white" stroke-width="10"/>
<path d="M853.001 1221.34H769.668V1304.67H853.001V1221.34Z" fill="#D9D9D9" stroke="white" stroke-width="10"/>
<path d="M686.333 1304.66H603V1388H686.333V1304.66Z" fill="#D9D9D9" stroke="white" stroke-width="10"/>
<path d="M769.665 1304.66H686.332V1388H769.665V1304.66Z" fill="#D9D9D9" stroke="white" stroke-width="10"/>
<path d="M853.001 1304.66H769.668V1388H853.001V1304.66Z" fill="#D9D9D9" stroke="white" stroke-width="10"/>
<path d="M933 1063H533V1463H933V1063Z" stroke="black" stroke-width="5"/>
<path d="M1262.5 1329V1290.1C1262.5 1271.88 1275.04 1256.05 1292.77 1251.88V1251.88C1300.73 1250.01 1307.9 1245.7 1313.29 1239.56L1313.75 1239.03C1319.75 1232.2 1323.34 1223.59 1323.96 1214.52L1324.21 1210.92C1325.34 1194.6 1318.74 1178.69 1306.39 1167.96L1304.97 1166.73C1287.76 1151.78 1263.21 1148.78 1242.9 1159.13L1238.45 1161.4C1215.6 1173.05 1203.04 1198.25 1207.5 1223.5V1223.5" stroke="black" stroke-width="30"/>
<rect x="1255.5" y="1361.5" width="15" height="15" fill="black" stroke="black" stroke-width="15"/>
<defs>
<pattern id="pattern0_1556_1281" patternUnits="userSpaceOnUse" patternTransform="matrix(118.736 0 0 246.196 52.792 -5.92366)" preserveAspectRatio="none" viewBox="-2.50684 -2.49219 118.736 246.196" width="1" height="1">
<use xlink:href="#pattern0_1556_1281_inner" transform="translate(-118.736 -246.196)"/>
<use xlink:href="#pattern0_1556_1281_inner" transform="translate(0 -246.196)"/>
<use xlink:href="#pattern0_1556_1281_inner" transform="translate(-118.736 0)"/>
<g id="pattern0_1556_1281_inner">
<path d="M0.816406 67.5781L118.736 -0.000977498" stroke="#0170C3" stroke-width="5" stroke-linecap="round"/>
<path d="M0.748535 82.4531L118.668 14.874" stroke="#0170C3" stroke-width="5" stroke-linecap="round"/>
<path d="M0.679688 97.3516L118.599 29.7725" stroke="#0170C3" stroke-width="5" stroke-linecap="round"/>
<path d="M0.612305 112.234L118.531 44.6553" stroke="#0170C3" stroke-width="5" stroke-linecap="round"/>
<path d="M0.546875 127.109L118.466 59.5303" stroke="#0170C3" stroke-width="5" stroke-linecap="round"/>
<path d="M0.479004 141.992L118.398 74.4131" stroke="#0170C3" stroke-width="5" stroke-linecap="round"/>
<path d="M0.410156 156.883L118.329 89.3037" stroke="#0170C3" stroke-width="5" stroke-linecap="round"/>
<path d="M0.34082 171.766L118.26 104.187" stroke="#0170C3" stroke-width="5" stroke-linecap="round"/>
<path d="M0.273438 186.648L118.193 119.069" stroke="#0170C3" stroke-width="5" stroke-linecap="round"/>
<path d="M0.206055 201.531L118.125 133.952" stroke="#0170C3" stroke-width="5" stroke-linecap="round"/>
<path d="M0.135742 216.43L118.055 148.851" stroke="#0170C3" stroke-width="5" stroke-linecap="round"/>
<path d="M0.0678711 231.312L117.987 163.733" stroke="#0170C3" stroke-width="5" stroke-linecap="round"/>
<path d="M0.000488281 246.195L117.92 178.616" stroke="#0170C3" stroke-width="5" stroke-linecap="round"/>
</g>
</pattern><pattern id="pattern1_1556_1281" patternUnits="userSpaceOnUse" patternTransform="matrix(118.736 0 0 246.196 582.792 160.74)" preserveAspectRatio="none" viewBox="-2.50684 -2.49219 118.736 246.196" width="1" height="1">
<use xlink:href="#pattern1_1556_1281_inner" transform="translate(-118.736 -246.196)"/>
<use xlink:href="#pattern1_1556_1281_inner" transform="translate(0 -246.196)"/>
<use xlink:href="#pattern1_1556_1281_inner" transform="translate(-118.736 0)"/>
<g id="pattern1_1556_1281_inner">
<path d="M0.816406 67.5781L118.736 -0.000977498" stroke="#0170C3" stroke-width="5" stroke-linecap="round"/>
<path d="M0.748535 82.4531L118.668 14.874" stroke="#0170C3" stroke-width="5" stroke-linecap="round"/>
<path d="M0.679688 97.3516L118.599 29.7725" stroke="#0170C3" stroke-width="5" stroke-linecap="round"/>
<path d="M0.612305 112.234L118.531 44.6553" stroke="#0170C3" stroke-width="5" stroke-linecap="round"/>
<path d="M0.546875 127.109L118.466 59.5303" stroke="#0170C3" stroke-width="5" stroke-linecap="round"/>
<path d="M0.479004 141.992L118.398 74.4131" stroke="#0170C3" stroke-width="5" stroke-linecap="round"/>
<path d="M0.410156 156.883L118.329 89.3037" stroke="#0170C3" stroke-width="5" stroke-linecap="round"/>
<path d="M0.34082 171.766L118.26 104.187" stroke="#0170C3" stroke-width="5" stroke-linecap="round"/>
<path d="M0.273438 186.648L118.193 119.069" stroke="#0170C3" stroke-width="5" stroke-linecap="round"/>
<path d="M0.206055 201.531L118.125 133.952" stroke="#0170C3" stroke-width="5" stroke-linecap="round"/>
<path d="M0.135742 216.43L118.055 148.851" stroke="#0170C3" stroke-width="5" stroke-linecap="round"/>
<path d="M0.0678711 231.312L117.987 163.733" stroke="#0170C3" stroke-width="5" stroke-linecap="round"/>
<path d="M0.000488281 246.195L117.92 178.616" stroke="#0170C3" stroke-width="5" stroke-linecap="round"/>
</g>
</pattern><pattern id="pattern2_1556_1281" patternUnits="userSpaceOnUse" patternTransform="matrix(118.736 0 0 246.196 1289.46 160.74)" preserveAspectRatio="none" viewBox="-2.50684 -2.49219 118.736 246.196" width="1" height="1">
<use xlink:href="#pattern2_1556_1281_inner" transform="translate(-118.736 -246.196)"/>
<use xlink:href="#pattern2_1556_1281_inner" transform="translate(0 -246.196)"/>
<use xlink:href="#pattern2_1556_1281_inner" transform="translate(-118.736 0)"/>
<g id="pattern2_1556_1281_inner">
<path d="M0.816406 67.5781L118.736 -0.000977498" stroke="#0170C3" stroke-width="5" stroke-linecap="round"/>
<path d="M0.748535 82.4531L118.668 14.874" stroke="#0170C3" stroke-width="5" stroke-linecap="round"/>
<path d="M0.679688 97.3516L118.599 29.7725" stroke="#0170C3" stroke-width="5" stroke-linecap="round"/>
<path d="M0.612305 112.234L118.531 44.6553" stroke="#0170C3" stroke-width="5" stroke-linecap="round"/>
<path d="M0.546875 127.109L118.466 59.5303" stroke="#0170C3" stroke-width="5" stroke-linecap="round"/>
<path d="M0.479004 141.992L118.398 74.4131" stroke="#0170C3" stroke-width="5" stroke-linecap="round"/>
<path d="M0.410156 156.883L118.329 89.3037" stroke="#0170C3" stroke-width="5" stroke-linecap="round"/>
<path d="M0.34082 171.766L118.26 104.187" stroke="#0170C3" stroke-width="5" stroke-linecap="round"/>
<path d="M0.273438 186.648L118.193 119.069" stroke="#0170C3" stroke-width="5" stroke-linecap="round"/>
<path d="M0.206055 201.531L118.125 133.952" stroke="#0170C3" stroke-width="5" stroke-linecap="round"/>
<path d="M0.135742 216.43L118.055 148.851" stroke="#0170C3" stroke-width="5" stroke-linecap="round"/>
<path d="M0.0678711 231.312L117.987 163.733" stroke="#0170C3" stroke-width="5" stroke-linecap="round"/>
<path d="M0.000488281 246.195L117.92 178.616" stroke="#0170C3" stroke-width="5" stroke-linecap="round"/>
</g>
</pattern><pattern id="pattern3_1556_1281" patternUnits="userSpaceOnUse" patternTransform="matrix(118.736 0 0 246.196 219.46 524.076)" preserveAspectRatio="none" viewBox="-2.50684 -2.49219 118.736 246.196" width="1" height="1">
<use xlink:href="#pattern3_1556_1281_inner" transform="translate(-118.736 -246.196)"/>
<use xlink:href="#pattern3_1556_1281_inner" transform="translate(0 -246.196)"/>
<use xlink:href="#pattern3_1556_1281_inner" transform="translate(-118.736 0)"/>
<g id="pattern3_1556_1281_inner">
<path d="M0.816406 67.5781L118.736 -0.000977498" stroke="#0170C3" stroke-width="5" stroke-linecap="round"/>
<path d="M0.748535 82.4531L118.668 14.874" stroke="#0170C3" stroke-width="5" stroke-linecap="round"/>
<path d="M0.679688 97.3516L118.599 29.7725" stroke="#0170C3" stroke-width="5" stroke-linecap="round"/>
<path d="M0.612305 112.234L118.531 44.6553" stroke="#0170C3" stroke-width="5" stroke-linecap="round"/>
<path d="M0.546875 127.109L118.466 59.5303" stroke="#0170C3" stroke-width="5" stroke-linecap="round"/>
<path d="M0.479004 141.992L118.398 74.4131" stroke="#0170C3" stroke-width="5" stroke-linecap="round"/>
<path d="M0.410156 156.883L118.329 89.3037" stroke="#0170C3" stroke-width="5" stroke-linecap="round"/>
<path d="M0.34082 171.766L118.26 104.187" stroke="#0170C3" stroke-width="5" stroke-linecap="round"/>
<path d="M0.273438 186.648L118.193 119.069" stroke="#0170C3" stroke-width="5" stroke-linecap="round"/>
<path d="M0.206055 201.531L118.125 133.952" stroke="#0170C3" stroke-width="5" stroke-linecap="round"/>
<path d="M0.135742 216.43L118.055 148.851" stroke="#0170C3" stroke-width="5" stroke-linecap="round"/>
<path d="M0.0678711 231.312L117.987 163.733" stroke="#0170C3" stroke-width="5" stroke-linecap="round"/>
<path d="M0.000488281 246.195L117.92 178.616" stroke="#0170C3" stroke-width="5" stroke-linecap="round"/>
</g>
</pattern><pattern id="pattern4_1556_1281" patternUnits="userSpaceOnUse" patternTransform="matrix(118.736 0 0 246.196 582.792 524.076)" preserveAspectRatio="none" viewBox="-2.50684 -2.49219 118.736 246.196" width="1" height="1">
<use xlink:href="#pattern4_1556_1281_inner" transform="translate(-118.736 -246.196)"/>
<use xlink:href="#pattern4_1556_1281_inner" transform="translate(0 -246.196)"/>
<use xlink:href="#pattern4_1556_1281_inner" transform="translate(-118.736 0)"/>
<g id="pattern4_1556_1281_inner">
<path d="M0.816406 67.5781L118.736 -0.000977498" stroke="#0170C3" stroke-width="5" stroke-linecap="round"/>
<path d="M0.748535 82.4531L118.668 14.874" stroke="#0170C3" stroke-width="5" stroke-linecap="round"/>
<path d="M0.679688 97.3516L118.599 29.7725" stroke="#0170C3" stroke-width="5" stroke-linecap="round"/>
<path d="M0.612305 112.234L118.531 44.6553" stroke="#0170C3" stroke-width="5" stroke-linecap="round"/>
<path d="M0.546875 127.109L118.466 59.5303" stroke="#0170C3" stroke-width="5" stroke-linecap="round"/>
<path d="M0.479004 141.992L118.398 74.4131" stroke="#0170C3" stroke-width="5" stroke-linecap="round"/>
<path d="M0.410156 156.883L118.329 89.3037" stroke="#0170C3" stroke-width="5" stroke-linecap="round"/>
<path d="M0.34082 171.766L118.26 104.187" stroke="#0170C3" stroke-width="5" stroke-linecap="round"/>
<path d="M0.273438 186.648L118.193 119.069" stroke="#0170C3" stroke-width="5" stroke-linecap="round"/>
<path d="M0.206055 201.531L118.125 133.952" stroke="#0170C3" stroke-width="5" stroke-linecap="round"/>
<path d="M0.135742 216.43L118.055 148.851" stroke="#0170C3" stroke-width="5" stroke-linecap="round"/>
<path d="M0.0678711 231.312L117.987 163.733" stroke="#0170C3" stroke-width="5" stroke-linecap="round"/>
<path d="M0.000488281 246.195L117.92 178.616" stroke="#0170C3" stroke-width="5" stroke-linecap="round"/>
</g>
</pattern><pattern id="pattern5_1556_1281" patternUnits="userSpaceOnUse" patternTransform="matrix(118.736 0 0 246.196 1112.79 690.74)" preserveAspectRatio="none" viewBox="-2.50684 -2.49219 118.736 246.196" width="1" height="1">
<use xlink:href="#pattern5_1556_1281_inner" transform="translate(-118.736 -246.196)"/>
<use xlink:href="#pattern5_1556_1281_inner" transform="translate(0 -246.196)"/>
<use xlink:href="#pattern5_1556_1281_inner" transform="translate(-118.736 0)"/>
<g id="pattern5_1556_1281_inner">
<path d="M0.816406 67.5781L118.736 -0.000977498" stroke="#0170C3" stroke-width="5" stroke-linecap="round"/>
<path d="M0.748535 82.4531L118.668 14.874" stroke="#0170C3" stroke-width="5" stroke-linecap="round"/>
<path d="M0.679688 97.3516L118.599 29.7725" stroke="#0170C3" stroke-width="5" stroke-linecap="round"/>
<path d="M0.612305 112.234L118.531 44.6553" stroke="#0170C3" stroke-width="5" stroke-linecap="round"/>
<path d="M0.546875 127.109L118.466 59.5303" stroke="#0170C3" stroke-width="5" stroke-linecap="round"/>
<path d="M0.479004 141.992L118.398 74.4131" stroke="#0170C3" stroke-width="5" stroke-linecap="round"/>
<path d="M0.410156 156.883L118.329 89.3037" stroke="#0170C3" stroke-width="5" stroke-linecap="round"/>
<path d="M0.34082 171.766L118.26 104.187" stroke="#0170C3" stroke-width="5" stroke-linecap="round"/>
<path d="M0.273438 186.648L118.193 119.069" stroke="#0170C3" stroke-width="5" stroke-linecap="round"/>
<path d="M0.206055 201.531L118.125 133.952" stroke="#0170C3" stroke-width="5" stroke-linecap="round"/>
<path d="M0.135742 216.43L118.055 148.851" stroke="#0170C3" stroke-width="5" stroke-linecap="round"/>
<path d="M0.0678711 231.312L117.987 163.733" stroke="#0170C3" stroke-width="5" stroke-linecap="round"/>
<path d="M0.000488281 246.195L117.92 178.616" stroke="#0170C3" stroke-width="5" stroke-linecap="round"/>
</g>
</pattern><pattern id="pattern6_1556_1281" patternUnits="userSpaceOnUse" patternTransform="matrix(118.736 0 0 246.196 219.46 1220.74)" preserveAspectRatio="none" viewBox="-2.50684 -2.49219 118.736 246.196" width="1" height="1">
<use xlink:href="#pattern6_1556_1281_inner" transform="translate(-118.736 -246.196)"/>
<use xlink:href="#pattern6_1556_1281_inner" transform="translate(0 -246.196)"/>
<use xlink:href="#pattern6_1556_1281_inner" transform="translate(-118.736 0)"/>
<g id="pattern6_1556_1281_inner">
<path d="M0.816406 67.5781L118.736 -0.000977498" stroke="#0170C3" stroke-width="5" stroke-linecap="round"/>
<path d="M0.748535 82.4531L118.668 14.874" stroke="#0170C3" stroke-width="5" stroke-linecap="round"/>
<path d="M0.679688 97.3516L118.599 29.7725" stroke="#0170C3" stroke-width="5" stroke-linecap="round"/>
<path d="M0.612305 112.234L118.531 44.6553" stroke="#0170C3" stroke-width="5" stroke-linecap="round"/>
<path d="M0.546875 127.109L118.466 59.5303" stroke="#0170C3" stroke-width="5" stroke-linecap="round"/>
<path d="M0.479004 141.992L118.398 74.4131" stroke="#0170C3" stroke-width="5" stroke-linecap="round"/>
<path d="M0.410156 156.883L118.329 89.3037" stroke="#0170C3" stroke-width="5" stroke-linecap="round"/>
<path d="M0.34082 171.766L118.26 104.187" stroke="#0170C3" stroke-width="5" stroke-linecap="round"/>
<path d="M0.273438 186.648L118.193 119.069" stroke="#0170C3" stroke-width="5" stroke-linecap="round"/>
<path d="M0.206055 201.531L118.125 133.952" stroke="#0170C3" stroke-width="5" stroke-linecap="round"/>
<path d="M0.135742 216.43L118.055 148.851" stroke="#0170C3" stroke-width="5" stroke-linecap="round"/>
<path d="M0.0678711 231.312L117.987 163.733" stroke="#0170C3" stroke-width="5" stroke-linecap="round"/>
<path d="M0.000488281 246.195L117.92 178.616" stroke="#0170C3" stroke-width="5" stroke-linecap="round"/>
</g>
</pattern><pattern id="pattern7_1556_1281" patternUnits="userSpaceOnUse" patternTransform="matrix(118.736 0 0 246.196 749.46 1054.08)" preserveAspectRatio="none" viewBox="-2.50684 -2.49219 118.736 246.196" width="1" height="1">
<use xlink:href="#pattern7_1556_1281_inner" transform="translate(-118.736 -246.196)"/>
<use xlink:href="#pattern7_1556_1281_inner" transform="translate(0 -246.196)"/>
<use xlink:href="#pattern7_1556_1281_inner" transform="translate(-118.736 0)"/>
<g id="pattern7_1556_1281_inner">
<path d="M0.816406 67.5781L118.736 -0.000977498" stroke="#0170C3" stroke-width="5" stroke-linecap="round"/>
<path d="M0.748535 82.4531L118.668 14.874" stroke="#0170C3" stroke-width="5" stroke-linecap="round"/>
<path d="M0.679688 97.3516L118.599 29.7725" stroke="#0170C3" stroke-width="5" stroke-linecap="round"/>
<path d="M0.612305 112.234L118.531 44.6553" stroke="#0170C3" stroke-width="5" stroke-linecap="round"/>
<path d="M0.546875 127.109L118.466 59.5303" stroke="#0170C3" stroke-width="5" stroke-linecap="round"/>
<path d="M0.479004 141.992L118.398 74.4131" stroke="#0170C3" stroke-width="5" stroke-linecap="round"/>
<path d="M0.410156 156.883L118.329 89.3037" stroke="#0170C3" stroke-width="5" stroke-linecap="round"/>
<path d="M0.34082 171.766L118.26 104.187" stroke="#0170C3" stroke-width="5" stroke-linecap="round"/>
<path d="M0.273438 186.648L118.193 119.069" stroke="#0170C3" stroke-width="5" stroke-linecap="round"/>
<path d="M0.206055 201.531L118.125 133.952" stroke="#0170C3" stroke-width="5" stroke-linecap="round"/>
<path d="M0.135742 216.43L118.055 148.851" stroke="#0170C3" stroke-width="5" stroke-linecap="round"/>
<path d="M0.0678711 231.312L117.987 163.733" stroke="#0170C3" stroke-width="5" stroke-linecap="round"/>
<path d="M0.000488281 246.195L117.92 178.616" stroke="#0170C3" stroke-width="5" stroke-linecap="round"/>
</g>
</pattern></defs>
</svg>
