<svg width="1320" height="1320" viewBox="0 0 1320 1320" fill="none" xmlns="http://www.w3.org/2000/svg">
<path d="M200 75V325M75 199.031H325" stroke="black" stroke-width="7"/>
<circle cx="200" cy="200" r="121.5" stroke="black" stroke-width="7"/>
<rect x="2.5" y="2.5" width="395" height="395" stroke="black" stroke-width="5"/>
<circle cx="151" cy="151" r="20.5" stroke="black" stroke-width="7"/>
<circle cx="249" cy="249" r="9" fill="black"/>
<rect x="462.5" y="2.5" width="395" height="395" stroke="black" stroke-width="5"/>
<circle cx="709" cy="151" r="20.5" stroke="black" stroke-width="7"/>
<circle cx="709" cy="249" r="9" fill="black"/>
<path d="M660 75V325M535 199.031H785" stroke="black" stroke-width="7"/>
<circle cx="660" cy="200" r="121.5" stroke="black" stroke-width="7"/>
<rect x="922.5" y="2.5" width="395" height="395" stroke="black" stroke-width="5"/>
<circle cx="1169" cy="249" r="20.5" stroke="black" stroke-width="7"/>
<circle cx="1169" cy="249" r="9" fill="black"/>
<path d="M1120 75V325M995 199.031H1245" stroke="black" stroke-width="7"/>
<circle cx="1120" cy="200" r="121.5" stroke="black" stroke-width="7"/>
<rect x="2.5" y="462.5" width="395" height="395" stroke="black" stroke-width="5"/>
<circle cx="151" cy="709" r="20.5" stroke="black" stroke-width="7"/>
<circle cx="151" cy="709" r="9" fill="black"/>
<path d="M200 535V785M75 659.031H325" stroke="black" stroke-width="7"/>
<circle cx="200" cy="660" r="121.5" stroke="black" stroke-width="7"/>
<rect x="462.5" y="462.5" width="395" height="395" stroke="black" stroke-width="5"/>
<circle cx="611" cy="611" r="20.5" stroke="black" stroke-width="7"/>
<circle cx="611" cy="709" r="9" fill="black"/>
<path d="M660 535V785M535 659.031H785" stroke="black" stroke-width="7"/>
<circle cx="660" cy="660" r="121.5" stroke="black" stroke-width="7"/>
<rect x="922.5" y="462.5" width="395" height="395" stroke="black" stroke-width="5"/>
<circle cx="1169" cy="611" r="20.5" stroke="black" stroke-width="7"/>
<circle cx="1071" cy="709" r="9" fill="black"/>
<path d="M1120 535V785M995 659.031H1245" stroke="black" stroke-width="7"/>
<circle cx="1120" cy="660" r="121.5" stroke="black" stroke-width="7"/>
<rect x="2.5" y="922.5" width="395" height="395" stroke="black" stroke-width="5"/>
<circle cx="249" cy="1071" r="20.5" stroke="black" stroke-width="7"/>
<circle cx="151" cy="1071" r="9" fill="black"/>
<path d="M200 995V1245M75 1119.03H325" stroke="black" stroke-width="7"/>
<circle cx="200" cy="1120" r="121.5" stroke="black" stroke-width="7"/>
<rect x="462.5" y="922.5" width="395" height="395" stroke="black" stroke-width="5"/>
<circle cx="611" cy="1071" r="20.5" stroke="black" stroke-width="7"/>
<circle cx="611" cy="1071" r="9" fill="black"/>
<path d="M660 995V1245M535 1119.03H785" stroke="black" stroke-width="7"/>
<circle cx="660" cy="1120" r="121.5" stroke="black" stroke-width="7"/>
<path d="M1119.5 1186V1147.1C1119.5 1128.88 1132.04 1113.05 1149.77 1108.88V1108.88C1157.73 1107.01 1164.9 1102.7 1170.29 1096.56L1170.75 1096.03C1176.75 1089.2 1180.34 1080.59 1180.96 1071.52L1181.21 1067.92C1182.34 1051.6 1175.74 1035.69 1163.39 1024.96L1161.97 1023.73C1144.76 1008.78 1120.21 1005.78 1099.9 1016.13L1095.45 1018.4C1072.6 1030.05 1060.04 1055.25 1064.5 1080.5V1080.5" stroke="black" stroke-width="30"/>
<rect x="1112.5" y="1218.5" width="15" height="15" fill="black" stroke="black" stroke-width="15"/>
</svg>
