<svg width="1320" height="1320" viewBox="0 0 1320 1320" fill="none" xmlns="http://www.w3.org/2000/svg">
<rect x="2.5" y="2.5" width="395" height="395" stroke="black" stroke-width="5"/>
<line x1="69" y1="66.5" x2="339" y2="66.5" stroke="black" stroke-width="7"/>
<line x1="72.5" y1="65" x2="72.5" y2="335" stroke="black" stroke-width="7"/>
<line x1="71.5251" y1="332.525" x2="336.525" y2="67.5251" stroke="black" stroke-width="7"/>
<line x1="73.4749" y1="67.5251" x2="206.051" y2="200.102" stroke="black" stroke-width="7"/>
<rect x="462.5" y="2.5" width="395" height="395" stroke="black" stroke-width="5"/>
<line y1="-3.5" x2="270" y2="-3.5" transform="matrix(-1 0 0 1 799 75)" stroke="black" stroke-width="7"/>
<line y1="-3.5" x2="270" y2="-3.5" transform="matrix(0 1 1 0 799 70)" stroke="black" stroke-width="7"/>
<line y1="-3.5" x2="374.767" y2="-3.5" transform="matrix(-0.707107 -0.707107 -0.707107 0.707107 794 340)" stroke="black" stroke-width="7"/>
<line x1="528.525" y1="339.525" x2="793.525" y2="74.5251" stroke="black" stroke-width="7"/>
<rect x="922.5" y="2.5" width="395" height="395" stroke="black" stroke-width="5"/>
<line x1="992.5" y1="65" x2="992.5" y2="335" stroke="black" stroke-width="7"/>
<line x1="1257.5" y1="65" x2="1257.5" y2="335" stroke="black" stroke-width="7"/>
<line x1="1123.47" y1="199.525" x2="1256.47" y2="332.525" stroke="black" stroke-width="7"/>
<line x1="69" y1="656.5" x2="339" y2="656.5" stroke="black" stroke-width="7"/>
<rect x="2.5" y="462.5" width="395" height="395" stroke="black" stroke-width="5"/>
<line x1="69" y1="526.5" x2="339" y2="526.5" stroke="black" stroke-width="7"/>
<line x1="69" y1="791.5" x2="339" y2="791.5" stroke="black" stroke-width="7"/>
<line x1="202.5" y1="792.016" x2="202.5" y2="526.999" stroke="black" stroke-width="7"/>
<line x1="70.5" y1="660" x2="70.5" y2="525" stroke="black" stroke-width="7"/>
<line x1="335.5" y1="660" x2="335.5" y2="525" stroke="black" stroke-width="7"/>
<rect x="462.5" y="462.5" width="395" height="395" stroke="black" stroke-width="5"/>
<line x1="529" y1="526.5" x2="799" y2="526.5" stroke="black" stroke-width="7"/>
<line x1="529" y1="791.5" x2="799" y2="791.5" stroke="black" stroke-width="7"/>
<line x1="532.5" y1="525" x2="532.5" y2="795" stroke="black" stroke-width="7"/>
<line x1="797.5" y1="525" x2="797.5" y2="795" stroke="black" stroke-width="7"/>
<line x1="662.5" y1="795" x2="662.5" y2="525" stroke="black" stroke-width="7"/>
<rect x="922.5" y="462.5" width="395" height="395" stroke="black" stroke-width="5"/>
<line y1="-3.5" x2="270" y2="-3.5" transform="matrix(1 0 0 -1 985 657.016)" stroke="black" stroke-width="7"/>
<line y1="-3.5" x2="135.015" y2="-3.5" transform="matrix(0 1 1 0 990 657)" stroke="black" stroke-width="7"/>
<line y1="-3.5" x2="135.015" y2="-3.5" transform="matrix(0 1 1 0 1255 657)" stroke="black" stroke-width="7"/>
<rect x="2.5" y="922.5" width="395" height="395" stroke="black" stroke-width="5"/>
<line x1="199.5" y1="1127.02" x2="199.5" y2="992.001" stroke="black" stroke-width="7"/>
<line x1="200" y1="1123.5" x2="335.015" y2="1123.5" stroke="black" stroke-width="7"/>
<line x1="333.5" y1="990" x2="333.5" y2="1260" stroke="black" stroke-width="7"/>
<line x1="335" y1="993.5" x2="65" y2="993.5" stroke="black" stroke-width="7"/>
<line x1="67.4749" y1="992.525" x2="332.475" y2="1257.53" stroke="black" stroke-width="7"/>
<rect x="462.5" y="922.5" width="395" height="395" stroke="black" stroke-width="5"/>
<line x1="531.525" y1="1251.53" x2="796.525" y2="986.525" stroke="black" stroke-width="7"/>
<line y1="-3.5" x2="374.767" y2="-3.5" transform="matrix(-0.707107 -0.707107 -0.707107 0.707107 796 1255)" stroke="black" stroke-width="7"/>
<line x1="666" y1="1251.5" x2="801" y2="1251.5" stroke="black" stroke-width="7"/>
<line x1="799.5" y1="1119" x2="799.5" y2="1254" stroke="black" stroke-width="7"/>
<path d="M1119.5 1186V1147.1C1119.5 1128.88 1132.04 1113.05 1149.77 1108.88V1108.88C1157.73 1107.01 1164.9 1102.7 1170.29 1096.56L1170.75 1096.03C1176.75 1089.2 1180.34 1080.59 1180.96 1071.52L1181.21 1067.92C1182.34 1051.6 1175.74 1035.69 1163.39 1024.96L1161.97 1023.73C1144.76 1008.78 1120.21 1005.78 1099.9 1016.13L1095.45 1018.4C1072.6 1030.05 1060.04 1055.25 1064.5 1080.5V1080.5" stroke="black" stroke-width="30"/>
<rect x="1112.5" y="1218.5" width="15" height="15" fill="black" stroke="black" stroke-width="15"/>
</svg>
