<svg width="1320" height="1320" viewBox="0 0 1320 1320" fill="none" xmlns="http://www.w3.org/2000/svg">
<rect x="2.5" y="2.5" width="395" height="395" stroke="black" stroke-width="5"/>
<rect x="78.5" y="78.5" width="243" height="243" stroke="black" stroke-width="7" stroke-dasharray="10 10"/>
<rect x="462.5" y="2.5" width="395" height="395" stroke="black" stroke-width="5"/>
<path d="M613.75 85.6153L612.228 82.4636L613.75 85.6153ZM701.25 79.1261L700.312 82.4982L701.25 79.1261ZM736.25 83.6764L735.969 87.1651L736.25 83.6764ZM771.25 78.0267L770.426 74.625L771.25 78.0267ZM778.884 83.1812L775.425 82.6505L778.884 83.1812ZM776.653 97.7271L780.113 98.2577L776.653 97.7271ZM778.619 113.75L775.318 114.913L778.619 113.75ZM784.782 131.25L788.083 130.087L784.782 131.25ZM783.189 148.75L780.102 147.101L783.189 148.75ZM794.255 201.25L796.785 198.832L794.255 201.25ZM794.328 218.75L791.787 216.343L794.328 218.75ZM777.748 236.25L780.289 238.657L777.748 236.25ZM771.269 253.75L767.841 254.459L771.269 253.75ZM774.891 271.25L778.318 270.541L774.891 271.25ZM782.653 288.75L785.547 286.782L782.653 288.75ZM794.557 306.25L791.663 308.218L794.557 306.25ZM790.382 318.705L791.584 321.992L790.382 318.705ZM770.127 326.115L768.925 322.828L770.127 326.115ZM751.25 325.219L752.879 322.121L751.25 325.219ZM733.75 316.017L732.121 319.115L733.75 316.017ZM716.25 316.692L714.443 313.694L716.25 316.692ZM698.75 327.244L700.557 330.241L698.75 327.244ZM681.25 334.89L682.165 338.268L681.25 334.89ZM663.75 339.629L662.835 336.251L663.75 339.629ZM611.25 332.415L612.845 329.3L611.25 332.415ZM602.5 327.935L600.905 331.05L602.5 327.935ZM576.25 317.819L575.792 321.289L576.25 317.819ZM558.75 315.512L559.208 312.042L558.75 315.512ZM549.174 307.339L545.698 307.748L549.174 307.339ZM551.744 243.75L548.261 243.412L551.744 243.75ZM527.074 191.25L523.757 192.365L527.074 191.25ZM519.726 138.75L516.231 138.554L519.726 138.75ZM524.074 121.25L520.871 119.838L524.074 121.25ZM552.5 71.7966L553.13 75.2394L561.88 73.6378L561.25 70.195L560.62 66.7522L551.87 68.3538L552.5 71.7966ZM561.25 70.195L561.88 73.6378C566.744 72.7474 571.715 73.7292 576.934 76.8971L578.75 73.9052L580.566 70.9134C574.118 66.9987 567.423 65.5069 560.62 66.7522L561.25 70.195ZM578.75 73.9052L576.934 76.8971L585.684 82.209L587.5 79.2172L589.316 76.2254L580.566 70.9134L578.75 73.9052ZM587.5 79.2172L585.684 82.209L594.434 87.521L596.25 84.5292L598.066 81.5373L589.316 76.2254L587.5 79.2172ZM596.25 84.5292L594.434 87.521C601.216 91.6383 608.304 92.1322 615.272 88.767L613.75 85.6153L612.228 82.4636C607.529 84.7328 602.951 84.5026 598.066 81.5373L596.25 84.5292ZM613.75 85.6153L615.272 88.767L624.022 84.5412L622.5 81.3895L620.978 78.2378L612.228 82.4636L613.75 85.6153ZM622.5 81.3895L624.022 84.5412L632.772 80.3154L631.25 77.1637L629.728 74.012L620.978 78.2378L622.5 81.3895ZM631.25 77.1637L632.772 80.3154C638.213 77.6877 643.568 76.3265 648.861 76.1587L648.75 72.6604L648.639 69.1622C642.265 69.3644 635.953 71.0054 629.728 74.012L631.25 77.1637ZM648.75 72.6604L648.861 76.1587L657.611 75.8811L657.5 72.3829L657.389 68.8847L648.639 69.1622L648.75 72.6604ZM657.5 72.3829L657.611 75.8811L666.361 75.6036L666.25 72.1054L666.139 68.6071L657.389 68.8847L657.5 72.3829ZM666.25 72.1054L666.361 75.6036C671.827 75.4302 677.307 76.1021 682.812 77.6327L683.75 74.2606L684.688 70.8885C678.526 69.1754 672.339 68.4105 666.139 68.6071L666.25 72.1054ZM683.75 74.2606L682.812 77.6327L691.562 80.0654L692.5 76.6933L693.438 73.3212L684.688 70.8885L683.75 74.2606ZM692.5 76.6933L691.562 80.0654L700.312 82.4982L701.25 79.1261L702.188 75.754L693.438 73.3212L692.5 76.6933ZM701.25 79.1261L700.312 82.4982C706.353 84.1776 712.406 85.2643 718.469 85.7533L718.75 82.2647L719.031 78.776C713.428 78.3239 707.814 77.3182 702.188 75.754L701.25 79.1261ZM718.75 82.2647L718.469 85.7533L727.219 86.4592L727.5 82.9705L727.781 79.4819L719.031 78.776L718.75 82.2647ZM727.5 82.9705L727.219 86.4592L735.969 87.1651L736.25 83.6764L736.531 80.1877L727.781 79.4819L727.5 82.9705ZM736.25 83.6764L735.969 87.1651C742.182 87.6663 748.388 87.163 754.574 85.6655L753.75 82.2638L752.926 78.862C747.445 80.1891 741.985 80.6276 736.531 80.1877L736.25 83.6764ZM753.75 82.2638L754.574 85.6655L763.324 83.547L762.5 80.1452L761.676 76.7435L752.926 78.862L753.75 82.2638ZM762.5 80.1452L763.324 83.547L772.074 81.4284L771.25 78.0267L770.426 74.625L761.676 76.7435L762.5 80.1452ZM771.25 78.0267L772.074 81.4284C773.343 81.1212 774.258 81.0294 774.881 81.0521C775.505 81.0749 775.645 81.2042 775.575 81.1568C775.442 81.0666 775.421 80.949 775.45 81.0574C775.501 81.2431 775.567 81.7266 775.425 82.6505L778.884 83.1812L782.344 83.7118C782.786 80.8269 782.471 77.3664 779.492 75.3553C776.903 73.6073 773.487 73.884 770.426 74.625L771.25 78.0267ZM778.884 83.1812L775.425 82.6505L774.309 89.9234L777.769 90.4541L781.228 90.9848L782.344 83.7118L778.884 83.1812ZM777.769 90.4541L774.309 89.9234L773.194 97.1964L776.653 97.7271L780.113 98.2577L781.228 90.9848L777.769 90.4541ZM776.653 97.7271L773.194 97.1964C772.343 102.743 773.121 108.675 775.318 114.913L778.619 113.75L781.92 112.587C780.008 107.158 779.476 102.408 780.113 98.2577L776.653 97.7271ZM778.619 113.75L775.318 114.913L778.399 123.663L781.701 122.5L785.002 121.337L781.92 112.587L778.619 113.75ZM781.701 122.5L778.399 123.663L781.481 132.413L784.782 131.25L788.083 130.087L785.002 121.337L781.701 122.5ZM784.782 131.25L781.481 132.413C783.184 137.25 782.792 142.066 780.102 147.101L783.189 148.75L786.276 150.399C789.819 143.768 790.488 136.916 788.083 130.087L784.782 131.25ZM783.189 148.75L780.102 147.101L775.427 155.851L778.514 157.5L781.601 159.149L786.276 150.399L783.189 148.75ZM778.514 157.5L775.427 155.851L770.753 164.601L773.84 166.25L776.927 167.899L781.601 159.149L778.514 157.5ZM773.84 166.25L770.753 164.601C768.852 168.159 768.197 171.91 769 175.722C769.789 179.464 771.914 182.942 774.998 186.168L777.528 183.75L780.059 181.332C777.567 178.725 776.29 176.369 775.849 174.278C775.423 172.256 775.711 170.175 776.927 167.899L773.84 166.25ZM777.528 183.75L774.998 186.168L783.361 194.918L785.892 192.5L788.422 190.082L780.059 181.332L777.528 183.75ZM785.892 192.5L783.361 194.918L791.725 203.668L794.255 201.25L796.785 198.832L788.422 190.082L785.892 192.5ZM794.255 201.25L791.725 203.668C794.133 206.188 794.947 208.289 794.955 210.015C794.962 211.737 794.168 213.83 791.787 216.343L794.328 218.75L796.869 221.157C800.014 217.837 801.972 214.097 801.955 209.985C801.937 205.877 799.952 202.145 796.785 198.832L794.255 201.25ZM794.328 218.75L791.787 216.343L783.497 225.093L786.038 227.5L788.579 229.907L796.869 221.157L794.328 218.75ZM786.038 227.5L783.497 225.093L775.207 233.843L777.748 236.25L780.289 238.657L788.579 229.907L786.038 227.5ZM777.748 236.25L775.207 233.843C769.194 240.19 766.326 247.136 767.841 254.459L771.269 253.75L774.696 253.041C773.797 248.698 775.249 243.977 780.289 238.657L777.748 236.25ZM771.269 253.75L767.841 254.459L769.652 263.209L773.08 262.5L776.507 261.791L774.696 253.041L771.269 253.75ZM773.08 262.5L769.652 263.209L771.463 271.959L774.891 271.25L778.318 270.541L776.507 261.791L773.08 262.5ZM774.891 271.25L771.463 271.959C772.779 278.318 775.58 284.574 779.759 290.718L782.653 288.75L785.547 286.782C781.792 281.26 779.417 275.848 778.318 270.541L774.891 271.25ZM782.653 288.75L779.759 290.718L785.711 299.468L788.605 297.5L791.499 295.532L785.547 286.782L782.653 288.75ZM788.605 297.5L785.711 299.468L791.663 308.218L794.557 306.25L797.451 304.282L791.499 295.532L788.605 297.5ZM794.557 306.25L791.663 308.218C793.409 310.785 793.35 312.09 793.171 312.626C792.981 313.193 792.188 314.317 789.179 315.418L790.382 318.705L791.584 321.992C795.326 320.623 798.605 318.437 799.807 314.851C801.02 311.235 799.673 307.548 797.451 304.282L794.557 306.25ZM790.382 318.705L789.179 315.418L779.052 319.123L780.254 322.41L781.457 325.697L791.584 321.992L790.382 318.705ZM780.254 322.41L779.052 319.123L768.925 322.828L770.127 326.115L771.33 329.402L781.457 325.697L780.254 322.41ZM770.127 326.115L768.925 322.828C763.007 324.993 757.752 324.684 752.879 322.121L751.25 325.219L749.621 328.317C756.414 331.889 763.744 332.177 771.33 329.402L770.127 326.115ZM751.25 325.219L752.879 322.121L744.129 317.52L742.5 320.618L740.871 323.716L749.621 328.317L751.25 325.219ZM742.5 320.618L744.129 317.52L735.379 312.919L733.75 316.017L732.121 319.115L740.871 323.716L742.5 320.618ZM733.75 316.017L735.379 312.919C728.418 309.258 721.282 309.571 714.443 313.694L716.25 316.692L718.057 319.689C722.885 316.778 727.416 316.64 732.121 319.115L733.75 316.017ZM716.25 316.692L714.443 313.694L705.693 318.97L707.5 321.968L709.307 324.965L718.057 319.689L716.25 316.692ZM707.5 321.968L705.693 318.97L696.943 324.247L698.75 327.244L700.557 330.241L709.307 324.965L707.5 321.968ZM698.75 327.244L696.943 324.247C691.353 327.617 685.818 330.026 680.335 331.511L681.25 334.89L682.165 338.268C688.349 336.593 694.48 333.905 700.557 330.241L698.75 327.244ZM681.25 334.89L680.335 331.511L671.585 333.881L672.5 337.259L673.415 340.638L682.165 338.268L681.25 334.89ZM672.5 337.259L671.585 333.881L662.835 336.251L663.75 339.629L664.665 343.007L673.415 340.638L672.5 337.259ZM663.75 339.629L662.835 336.251C657.452 337.708 652.102 338.039 646.755 337.26L646.25 340.723L645.745 344.186C652.065 345.108 658.381 344.709 664.665 343.007L663.75 339.629ZM646.25 340.723L646.755 337.26L638.005 335.984L637.5 339.447L636.995 342.911L645.745 344.186L646.25 340.723ZM637.5 339.447L638.005 335.984L629.255 334.708L628.75 338.172L628.245 341.635L636.995 342.911L637.5 339.447ZM628.75 338.172L629.255 334.708C623.842 333.919 618.375 332.132 612.845 329.3L611.25 332.415L609.655 335.531C615.792 338.674 621.992 340.724 628.245 341.635L628.75 338.172ZM611.25 332.415L612.845 329.3L604.095 324.819L602.5 327.935L600.905 331.05L609.655 335.531L611.25 332.415ZM602.5 327.935L604.095 324.819L595.345 320.339L593.75 323.454L592.155 326.569L600.905 331.05L602.5 327.935ZM593.75 323.454L595.345 320.339C589.196 317.19 582.98 315.176 576.708 314.349L576.25 317.819L575.792 321.289C581.187 322 586.637 323.744 592.155 326.569L593.75 323.454ZM576.25 317.819L576.708 314.349L567.958 313.195L567.5 316.665L567.042 320.135L575.792 321.289L576.25 317.819ZM567.5 316.665L567.958 313.195L559.208 312.042L558.75 315.512L558.292 318.982L567.042 320.135L567.5 316.665ZM558.75 315.512L559.208 312.042C556.38 311.669 554.496 311.229 553.382 310.797C552.822 310.58 552.647 310.437 552.664 310.452C552.706 310.487 553.113 310.863 553.201 311.609L549.725 312.018L546.249 312.427C546.428 313.953 547.28 315.059 548.12 315.776C548.935 316.472 549.911 316.96 550.855 317.325C552.75 318.059 555.286 318.585 558.292 318.982L558.75 315.512ZM549.725 312.018L553.201 311.609L552.926 309.27L549.45 309.679L545.974 310.088L546.249 312.427L549.725 312.018ZM549.45 309.679L552.926 309.27L552.65 306.931L549.174 307.339L545.698 307.748L545.974 310.088L549.45 309.679ZM549.174 307.339L552.65 306.931C552.498 305.636 552.423 302.185 552.474 296.28L548.974 296.25L545.474 296.22C545.425 301.982 545.484 305.923 545.698 307.748L549.174 307.339ZM548.974 296.25L552.474 296.28L552.549 287.53L549.049 287.5L545.549 287.47L545.474 296.22L548.974 296.25ZM549.049 287.5L552.549 287.53L552.623 278.78L549.123 278.75L545.624 278.72L545.549 287.47L549.049 287.5ZM549.123 278.75L552.623 278.78C552.672 273.05 552.975 267.319 553.53 261.588L550.047 261.25L546.563 260.912C545.987 266.847 545.674 272.783 545.624 278.72L549.123 278.75ZM550.047 261.25L553.53 261.588L554.379 252.838L550.896 252.5L547.412 252.162L546.563 260.912L550.047 261.25ZM550.896 252.5L554.379 252.838L555.228 244.088L551.744 243.75L548.261 243.412L547.412 252.162L550.896 252.5ZM551.744 243.75L555.228 244.088C555.883 237.331 553.998 230.722 549.89 224.353L546.949 226.25L544.007 228.147C547.425 233.445 548.737 238.502 548.261 243.412L551.744 243.75ZM546.949 226.25L549.89 224.353L544.245 215.603L541.304 217.5L538.363 219.397L544.007 228.147L546.949 226.25ZM541.304 217.5L544.245 215.603L538.601 206.853L535.659 208.75L532.718 210.647L538.363 219.397L541.304 217.5ZM535.659 208.75L538.601 206.853C534.975 201.233 532.249 195.66 530.392 190.135L527.074 191.25L523.757 192.365C525.821 198.506 528.818 204.6 532.718 210.647L535.659 208.75ZM527.074 191.25L530.392 190.135L527.451 181.385L524.134 182.5L520.816 183.615L523.757 192.365L527.074 191.25ZM524.134 182.5L527.451 181.385L524.511 172.635L521.193 173.75L517.876 174.865L520.816 183.615L524.134 182.5ZM521.193 173.75L524.511 172.635C522.685 167.201 521.937 161.812 522.238 156.446L518.744 156.25L515.249 156.054C514.896 162.355 515.781 168.633 517.876 174.865L521.193 173.75ZM518.744 156.25L522.238 156.446L522.729 147.696L519.235 147.5L515.74 147.304L515.249 156.054L518.744 156.25ZM519.235 147.5L522.729 147.696L523.22 138.946L519.726 138.75L516.231 138.554L515.74 147.304L519.235 147.5ZM519.726 138.75L523.22 138.946C523.522 133.569 524.859 128.146 527.276 122.662L524.074 121.25L520.871 119.838C518.146 126.021 516.584 132.265 516.231 138.554L519.726 138.75ZM524.074 121.25L527.276 122.662L531.133 113.912L527.93 112.5L524.728 111.088L520.871 119.838L524.074 121.25ZM527.93 112.5L531.133 113.912L534.99 105.162L531.787 103.75L528.585 102.338L524.728 111.088L527.93 112.5ZM531.787 103.75L534.99 105.162C537.714 98.9823 538.568 93.061 535.846 88.2707L532.803 90L529.76 91.7292C530.826 93.6057 531.003 96.851 528.585 102.338L531.787 103.75ZM532.803 90L535.846 88.2707L533.004 83.2707L529.961 85L526.918 86.7292L529.76 91.7292L532.803 90ZM529.961 85L533.004 83.2707L530.163 78.2707L527.12 80L524.077 81.7293L526.918 86.7292L529.961 85ZM527.12 80L530.163 78.2707C529.741 77.5279 529.468 76.9579 529.306 76.542C529.129 76.0899 529.152 75.9904 529.157 76.1373C529.163 76.3144 529.131 77.1226 528.39 77.8354C527.697 78.5011 526.983 78.5 526.959 78.5V75V71.5C526.041 71.5 524.664 71.7072 523.538 72.7896C522.363 73.9191 522.128 75.3522 522.161 76.3627C522.218 78.1378 523.124 80.053 524.077 81.7293L527.12 80ZM526.959 75V78.5H529.639V75V71.5H526.959V75ZM529.639 75V78.5H532.32V75V71.5H529.639V75ZM532.32 75V78.5C534.485 78.5 538.624 77.8949 544.38 76.8411L543.75 73.3983L543.12 69.9555C537.21 71.0373 533.728 71.5 532.32 71.5V75ZM543.75 73.3983L544.38 76.8411L553.13 75.2394L552.5 71.7966L551.87 68.3538L543.12 69.9555L543.75 73.3983Z" fill="black"/>
<rect x="922.5" y="2.5" width="395" height="395" stroke="black" stroke-width="5"/>
<rect x="998.5" y="78.5" width="243" height="243" stroke="black" stroke-width="7"/>
<rect x="2.5" y="462.5" width="395" height="395" stroke="black" stroke-width="5"/>
<circle cx="200" cy="660" r="121.5" stroke="black" stroke-width="7"/>
<rect x="462.5" y="462.5" width="395" height="395" stroke="black" stroke-width="5"/>
<circle cx="660" cy="660" r="121.5" stroke="black" stroke-width="7" stroke-dasharray="10 10"/>
<rect x="922.5" y="462.5" width="395" height="395" stroke="black" stroke-width="5"/>
<path d="M1235.01 675.105L1237.93 677.036L1235.01 675.105ZM1230.01 682.658L1227.1 680.727L1230.01 682.658ZM1225.51 699.424L1229 699.239L1225.51 699.424ZM1226.49 717.851L1222.99 718.036L1226.49 717.851ZM1222.35 734.975L1225.37 736.741L1222.35 734.975ZM1184.24 771.679L1182.59 768.593L1184.24 771.679ZM1157.08 770.06L1158.12 766.719L1157.08 770.06ZM1147.53 767.089L1148.58 763.747L1147.53 767.089ZM1121.6 779.625L1124 782.168L1121.6 779.625ZM1113.4 787.379L1110.99 784.836L1113.4 787.379ZM1095.52 793.971L1095.11 797.446L1095.52 793.971ZM1085.84 792.809L1086.26 789.334L1085.84 792.809ZM1076.17 791.648L1075.75 795.123L1076.17 791.648ZM1058.16 753.918L1054.75 754.695L1058.16 753.918ZM1050.37 736.455L1052.91 734.044L1050.37 736.455ZM1040.35 725.908L1037.81 728.319L1040.35 725.908ZM1016.38 688.525L1019.56 687.07L1016.38 688.525ZM1013.1 681.359L1016.28 679.904L1013.1 681.359ZM1009.82 674.193L1006.64 675.648L1009.82 674.193ZM1007.68 625.519L1004.26 626.234L1007.68 625.519ZM1028 582.399L1026.45 579.258L1028 582.399ZM1041.06 569.068L1037.89 567.583L1041.06 569.068ZM1045.27 560.095L1042.1 558.61L1045.27 560.095ZM1049.47 551.122L1052.64 552.607L1049.47 551.122ZM1062.74 539.888L1061.89 536.492L1062.74 539.888ZM1108.34 525.436L1106.99 522.206L1108.34 525.436ZM1117.54 521.602L1116.19 518.371L1117.54 521.602ZM1135.21 523.44L1133.26 526.348L1135.21 523.44ZM1152.14 534.785L1154.09 531.878L1152.14 534.785ZM1174.95 550.375L1172.96 553.254L1174.95 550.375ZM1199.06 573.984L1196.21 576.016L1199.06 573.984ZM1213.53 594.274L1210.67 596.304L1213.53 594.274ZM1222.92 607.471L1220.07 609.501L1222.92 607.471ZM1228.33 622.12L1231.81 621.813L1228.33 622.12ZM1229.74 638.221L1226.26 638.528L1229.74 638.221ZM1234.09 649.704L1231.69 652.25L1234.09 649.704ZM1237.73 653.136L1240.13 650.591L1237.73 653.136ZM1241.36 656.568L1243.76 654.022L1241.36 656.568ZM1240 667.553L1237.09 665.622L1240 667.553ZM1235.01 675.105L1232.09 673.174L1227.1 680.727L1230.01 682.658L1232.93 684.589L1237.93 677.036L1235.01 675.105ZM1230.01 682.658L1227.1 680.727C1223.34 686.4 1221.65 692.733 1222.01 699.609L1225.51 699.424L1229 699.239C1228.72 693.83 1230.03 688.986 1232.93 684.589L1230.01 682.658ZM1225.51 699.424L1222.01 699.609L1222.5 708.823L1226 708.637L1229.49 708.452L1229 699.239L1225.51 699.424ZM1226 708.637L1222.5 708.823L1222.99 718.036L1226.49 717.851L1229.98 717.665L1229.49 708.452L1226 708.637ZM1226.49 717.851L1222.99 718.036C1223.28 723.501 1222.06 728.53 1219.33 733.209L1222.35 734.975L1225.37 736.741C1228.8 730.872 1230.34 724.485 1229.98 717.665L1226.49 717.851ZM1222.35 734.975L1219.33 733.209L1214.71 741.12L1217.73 742.886L1220.75 744.652L1225.37 736.741L1222.35 734.975ZM1217.73 742.886L1214.71 741.12L1210.09 749.031L1213.11 750.796L1216.13 752.562L1220.75 744.652L1217.73 742.886ZM1213.11 750.796L1210.09 749.031C1207.33 753.746 1203.57 757.367 1198.75 759.945L1200.4 763.031L1202.05 766.117C1208.01 762.93 1212.72 758.395 1216.13 752.562L1213.11 750.796ZM1200.4 763.031L1198.75 759.945L1190.67 764.269L1192.32 767.355L1193.97 770.441L1202.05 766.117L1200.4 763.031ZM1192.32 767.355L1190.67 764.269L1182.59 768.593L1184.24 771.679L1185.89 774.765L1193.97 770.441L1192.32 767.355ZM1184.24 771.679L1182.59 768.593C1178.11 770.991 1173.21 771.42 1167.66 769.69L1166.62 773.031L1165.58 776.373C1172.74 778.605 1179.6 778.132 1185.89 774.765L1184.24 771.679ZM1166.62 773.031L1167.66 769.69L1158.12 766.719L1157.08 770.06L1156.03 773.402L1165.58 776.373L1166.62 773.031ZM1157.08 770.06L1158.12 766.719L1148.58 763.747L1147.53 767.089L1146.49 770.431L1156.03 773.402L1157.08 770.06ZM1147.53 767.089L1148.58 763.747C1140.83 761.335 1133.63 763.426 1127.39 769.329L1129.8 771.871L1132.2 774.414C1136.89 769.979 1141.52 768.882 1146.49 770.431L1147.53 767.089ZM1129.8 771.871L1127.39 769.329L1119.19 777.082L1121.6 779.625L1124 782.168L1132.2 774.414L1129.8 771.871ZM1121.6 779.625L1119.19 777.082L1110.99 784.836L1113.4 787.379L1115.8 789.922L1124 782.168L1121.6 779.625ZM1113.4 787.379L1110.99 784.836C1106.15 789.416 1101.19 791.126 1095.94 790.496L1095.52 793.971L1095.11 797.446C1102.76 798.365 1109.72 795.68 1115.8 789.922L1113.4 787.379ZM1095.52 793.971L1095.94 790.496L1086.26 789.334L1085.84 792.809L1085.43 796.284L1095.11 797.446L1095.52 793.971ZM1085.84 792.809L1086.26 789.334L1076.58 788.173L1076.17 791.648L1075.75 795.123L1085.43 796.284L1085.84 792.809ZM1076.17 791.648L1076.58 788.173C1074.12 787.877 1072.25 786.92 1070.77 785.342C1069.25 783.706 1067.96 781.194 1067.13 777.52L1063.71 778.297L1060.3 779.074C1061.31 783.526 1063.03 787.303 1065.65 790.117C1068.33 792.989 1071.76 794.644 1075.75 795.123L1076.17 791.648ZM1063.71 778.297L1067.13 777.52L1064.35 765.33L1060.94 766.107L1057.52 766.884L1060.3 779.074L1063.71 778.297ZM1060.94 766.107L1064.35 765.33L1061.57 753.141L1058.16 753.918L1054.75 754.695L1057.52 766.884L1060.94 766.107ZM1058.16 753.918L1061.57 753.141C1059.67 744.788 1056.9 738.236 1052.91 734.044L1050.37 736.455L1047.84 738.866C1050.54 741.705 1052.95 746.795 1054.75 754.695L1058.16 753.918ZM1050.37 736.455L1052.91 734.044L1047.9 728.77L1045.36 731.182L1042.83 733.593L1047.84 738.866L1050.37 736.455ZM1045.36 731.182L1047.9 728.77L1042.89 723.497L1040.35 725.908L1037.81 728.319L1042.83 733.593L1045.36 731.182ZM1040.35 725.908L1042.89 723.497C1039.71 720.152 1036.87 716.499 1034.38 712.536L1031.42 714.399L1028.45 716.262C1031.19 720.613 1034.31 724.634 1037.81 728.319L1040.35 725.908ZM1031.42 714.399L1034.38 712.536L1030.46 706.3L1027.5 708.163L1024.53 710.026L1028.45 716.262L1031.42 714.399ZM1027.5 708.163L1030.46 706.3L1026.54 700.064L1023.57 701.927L1020.61 703.79L1024.53 710.026L1027.5 708.163ZM1023.57 701.927L1026.54 700.064C1024.01 696.046 1021.68 691.716 1019.56 687.07L1016.38 688.525L1013.19 689.98C1015.44 694.888 1017.91 699.493 1020.61 703.79L1023.57 701.927ZM1016.38 688.525L1019.56 687.07L1016.28 679.904L1013.1 681.359L1009.92 682.814L1013.19 689.98L1016.38 688.525ZM1013.1 681.359L1016.28 679.904L1013.01 672.738L1009.82 674.193L1006.64 675.648L1009.92 682.814L1013.1 681.359ZM1009.82 674.193L1013.01 672.738C1011.08 668.53 1010.36 664.142 1010.84 659.51L1007.36 659.154L1003.87 658.797C1003.27 664.663 1004.2 670.302 1006.64 675.648L1009.82 674.193ZM1007.36 659.154L1010.84 659.51L1011.64 651.637L1008.16 651.28L1004.68 650.924L1003.87 658.797L1007.36 659.154ZM1008.16 651.28L1011.64 651.637L1012.45 643.764L1008.97 643.407L1005.49 643.05L1004.68 650.924L1008.16 651.28ZM1008.97 643.407L1012.45 643.764C1013.03 638.07 1012.56 631.735 1011.11 624.804L1007.68 625.519L1004.26 626.234C1005.6 632.656 1005.98 638.247 1005.49 643.05L1008.97 643.407ZM1007.68 625.519L1011.11 624.804L1009.02 614.789L1005.59 615.504L1002.17 616.219L1004.26 626.234L1007.68 625.519ZM1005.59 615.504L1009.02 614.789L1006.93 604.774L1003.5 605.489L1000.08 606.204L1002.17 616.219L1005.59 615.504ZM1003.5 605.489L1006.93 604.774C1006.34 601.964 1006.59 599.912 1007.32 598.38C1008.03 596.862 1009.4 595.447 1011.82 594.257L1010.27 591.116L1008.73 587.975C1005.24 589.691 1002.53 592.123 1000.98 595.397C999.448 598.656 999.268 602.337 1000.08 606.204L1003.5 605.489ZM1010.27 591.116L1011.82 594.257L1020.68 589.898L1019.14 586.757L1017.59 583.617L1008.73 587.975L1010.27 591.116ZM1019.14 586.757L1020.68 589.898L1029.54 585.54L1028 582.399L1026.45 579.258L1017.59 583.617L1019.14 586.757ZM1028 582.399L1029.54 585.54C1036.17 582.281 1041.09 577.252 1044.23 570.552L1041.06 569.068L1037.89 567.583C1035.43 572.847 1031.64 576.705 1026.45 579.258L1028 582.399ZM1041.06 569.068L1044.23 570.552L1048.44 561.58L1045.27 560.095L1042.1 558.61L1037.89 567.583L1041.06 569.068ZM1045.27 560.095L1048.44 561.58L1052.64 552.607L1049.47 551.122L1046.3 549.638L1042.1 558.61L1045.27 560.095ZM1049.47 551.122L1052.64 552.607C1055.03 547.513 1058.63 544.52 1063.59 543.284L1062.74 539.888L1061.89 536.492C1054.76 538.272 1049.52 542.768 1046.3 549.638L1049.47 551.122ZM1062.74 539.888L1063.59 543.284L1072.65 541.023L1071.81 537.627L1070.96 534.231L1061.89 536.492L1062.74 539.888ZM1071.81 537.627L1072.65 541.023L1081.72 538.762L1080.88 535.366L1080.03 531.97L1070.96 534.231L1071.81 537.627ZM1080.88 535.366L1081.72 538.762C1087.95 537.209 1094.2 535.121 1100.49 532.501L1099.14 529.271L1097.8 526.04C1091.81 528.533 1085.89 530.508 1080.03 531.97L1080.88 535.366ZM1099.14 529.271L1100.49 532.501L1109.69 528.667L1108.34 525.436L1106.99 522.206L1097.8 526.04L1099.14 529.271ZM1108.34 525.436L1109.69 528.667L1118.89 524.832L1117.54 521.602L1116.19 518.371L1106.99 522.206L1108.34 525.436ZM1117.54 521.602L1118.89 524.832C1123.91 522.74 1128.56 523.201 1133.26 526.348L1135.21 523.44L1137.15 520.532C1130.56 516.115 1123.44 515.351 1116.19 518.371L1117.54 521.602ZM1135.21 523.44L1133.26 526.348L1141.72 532.02L1143.67 529.113L1145.62 526.205L1137.15 520.532L1135.21 523.44ZM1143.67 529.113L1141.72 532.02L1150.19 537.693L1152.14 534.785L1154.09 531.878L1145.62 526.205L1143.67 529.113ZM1152.14 534.785L1150.19 537.693C1155.82 541.467 1161.02 545.001 1165.79 548.296L1167.78 545.416L1169.77 542.537C1164.97 539.221 1159.74 535.667 1154.09 531.878L1152.14 534.785ZM1167.78 545.416L1165.79 548.296L1172.96 553.254L1174.95 550.375L1176.94 547.496L1169.77 542.537L1167.78 545.416ZM1174.95 550.375L1172.96 553.254L1180.13 558.213L1182.12 555.333L1184.11 552.454L1176.94 547.496L1174.95 550.375ZM1182.12 555.333L1180.13 558.213C1184.6 561.296 1188.32 564.948 1191.33 569.17L1194.18 567.138L1197.03 565.106C1193.53 560.2 1189.22 555.982 1184.11 552.454L1182.12 555.333ZM1194.18 567.138L1191.33 569.17L1196.21 576.016L1199.06 573.984L1201.91 571.952L1197.03 565.106L1194.18 567.138ZM1199.06 573.984L1196.21 576.016L1201.1 582.862L1203.95 580.83L1206.79 578.798L1201.91 571.952L1199.06 573.984ZM1203.95 580.83L1201.1 582.862C1204.35 587.425 1207.54 591.906 1210.67 596.304L1213.53 594.274L1216.38 592.244C1213.24 587.844 1210.05 583.362 1206.79 578.798L1203.95 580.83ZM1213.53 594.274L1210.67 596.304L1215.37 602.903L1218.22 600.872L1221.08 598.842L1216.38 592.244L1213.53 594.274ZM1218.22 600.872L1215.37 602.903L1220.07 609.501L1222.92 607.471L1225.77 605.441L1221.08 598.842L1218.22 600.872ZM1222.92 607.471L1220.07 609.501C1222.84 613.393 1224.42 617.682 1224.84 622.426L1228.33 622.12L1231.81 621.813C1231.29 615.824 1229.27 610.346 1225.77 605.441L1222.92 607.471ZM1228.33 622.12L1224.84 622.426L1225.55 630.477L1229.04 630.171L1232.52 629.864L1231.81 621.813L1228.33 622.12ZM1229.04 630.171L1225.55 630.477L1226.26 638.528L1229.74 638.221L1233.23 637.915L1232.52 629.864L1229.04 630.171ZM1229.74 638.221L1226.26 638.528C1226.76 644.253 1228.35 649.104 1231.69 652.25L1234.09 649.704L1236.49 647.159C1234.98 645.729 1233.67 642.924 1233.23 637.915L1229.74 638.221ZM1234.09 649.704L1231.69 652.25L1235.32 655.682L1237.73 653.136L1240.13 650.591L1236.49 647.159L1234.09 649.704ZM1237.73 653.136L1235.32 655.682L1238.96 659.114L1241.36 656.568L1243.76 654.022L1240.13 650.591L1237.73 653.136ZM1241.36 656.568L1238.96 659.114C1239.27 659.403 1239.47 659.739 1239.37 660.601C1239.24 661.658 1238.62 663.302 1237.09 665.622L1240 667.553L1242.92 669.483C1244.72 666.768 1245.99 664.064 1246.32 661.46C1246.66 658.66 1245.88 656.021 1243.76 654.022L1241.36 656.568ZM1240 667.553L1237.09 665.622L1232.09 673.174L1235.01 675.105L1237.93 677.036L1242.92 669.483L1240 667.553Z" fill="black"/>
<rect x="2.5" y="922.5" width="395" height="395" stroke="black" stroke-width="5"/>
<path d="M206.046 1023.82L202.632 1024.59L206.046 1023.82ZM210.428 1041.5L213.806 1040.58L210.428 1041.5ZM215.16 1058.97L211.782 1059.89L215.16 1058.97ZM222.101 1075.17L219.118 1077L222.101 1075.17ZM231.252 1090.1L234.236 1088.27L231.252 1090.1ZM265.987 1130.66L268.48 1128.21L265.987 1130.66ZM272.335 1137.1L269.842 1139.56L272.335 1137.1ZM307.902 1167.09L305.806 1169.89L307.902 1167.09ZM317.946 1181.49L321.318 1180.56L317.946 1181.49ZM320.365 1190.2L316.993 1191.14L320.365 1190.2ZM322.784 1198.91L319.412 1199.85L322.784 1198.91ZM318.082 1214.09L320.436 1216.68L318.082 1214.09ZM310.962 1220.56L308.608 1217.97L310.962 1220.56ZM303.842 1227.03L306.195 1229.62L303.842 1227.03ZM287.971 1229.57L289.406 1226.37L287.971 1229.57ZM270.471 1221.7L269.036 1224.89L270.471 1221.7ZM252.971 1218.79L253.379 1222.27L252.971 1218.79ZM244.221 1219.82L243.813 1216.35L244.221 1219.82ZM235.471 1220.85L235.063 1217.37L235.471 1220.85ZM217.971 1217.36L219.577 1214.25L217.971 1217.36ZM200.471 1208.31L202.077 1205.2L200.471 1208.31ZM182.971 1205.14L182.439 1201.68L182.971 1205.14ZM174.221 1206.48L174.753 1209.94L174.221 1206.48ZM165.471 1207.83L166.003 1211.29L165.471 1207.83ZM147.971 1212.05L146.876 1208.73L147.971 1212.05ZM130.471 1217.82L131.566 1221.14L130.471 1217.82ZM89.309 1226.02L85.9705 1224.97L89.309 1226.02ZM91.4803 1177.92L88.0759 1178.73L91.4803 1177.92ZM92.8872 1148.42L95.1785 1151.07L92.8872 1148.42ZM106.887 1136.3L104.595 1133.65L106.887 1136.3ZM122.599 1125.16L120.838 1122.14L122.599 1125.16ZM146.85 1098.75L143.399 1099.33L146.85 1098.75ZM143.077 1076.36L146.528 1075.78L143.077 1076.36ZM150.138 1060.23L148.447 1057.17L150.138 1060.23ZM168.032 1050.36L169.723 1053.42L168.032 1050.36ZM181.568 1037.96L184.549 1039.8L181.568 1037.96ZM186.157 1030.51L183.176 1028.68L186.157 1030.51ZM190.745 1023.06L193.726 1024.89L190.745 1023.06ZM204.69 1010.36L202.979 1007.3L204.69 1010.36ZM209.369 1007.73L211.08 1010.79L209.369 1007.73ZM210.535 1003.08L208.785 1006.11L210.535 1003.08ZM207.024 1001.06L208.774 998.024L207.024 1001.06ZM202.015 1005.94L205.43 1005.17L202.015 1005.94ZM204.031 1014.88L200.617 1015.65L202.632 1024.59L206.046 1023.82L209.461 1023.05L207.445 1014.11L204.031 1014.88ZM206.046 1023.82L202.632 1024.59C203.986 1030.6 205.459 1036.54 207.05 1042.41L210.428 1041.5L213.806 1040.58C212.242 1034.81 210.793 1028.96 209.461 1023.05L206.046 1023.82ZM210.428 1041.5L207.05 1042.41L209.416 1051.15L212.794 1050.24L216.172 1049.32L213.806 1040.58L210.428 1041.5ZM212.794 1050.24L209.416 1051.15L211.782 1059.89L215.16 1058.97L218.538 1058.06L216.172 1049.32L212.794 1050.24ZM215.16 1058.97L211.782 1059.89C213.443 1066.02 215.887 1071.73 219.118 1077L222.101 1075.17L225.085 1073.34C222.215 1068.66 220.032 1063.57 218.538 1058.06L215.16 1058.97ZM222.101 1075.17L219.118 1077L223.693 1084.46L226.677 1082.63L229.66 1080.81L225.085 1073.34L222.101 1075.17ZM226.677 1082.63L223.693 1084.46L228.268 1091.93L231.252 1090.1L234.236 1088.27L229.66 1080.81L226.677 1082.63ZM231.252 1090.1L228.268 1091.93C231.43 1097.08 235.065 1101.96 239.17 1106.56L241.78 1104.23L244.391 1101.89C240.558 1097.6 237.174 1093.06 234.236 1088.27L231.252 1090.1ZM241.78 1104.23L239.17 1106.56L245.123 1113.22L247.734 1110.89L250.344 1108.56L244.391 1101.89L241.78 1104.23ZM247.734 1110.89L245.123 1113.22L251.076 1119.89L253.687 1117.56L256.298 1115.23L250.344 1108.56L247.734 1110.89ZM253.687 1117.56L251.076 1119.89C255.084 1124.38 259.224 1128.79 263.495 1133.12L265.987 1130.66L268.48 1128.21C264.289 1123.95 260.228 1119.63 256.298 1115.23L253.687 1117.56ZM265.987 1130.66L263.495 1133.12L269.842 1139.56L272.335 1137.1L274.827 1134.65L268.48 1128.21L265.987 1130.66ZM272.335 1137.1L269.842 1139.56L276.189 1146L278.682 1143.54L281.174 1141.09L274.827 1134.65L272.335 1137.1ZM278.682 1143.54L276.189 1146C280.55 1150.42 285.341 1154.59 290.557 1158.49L292.653 1155.68L294.749 1152.88C289.8 1149.18 285.276 1145.25 281.174 1141.09L278.682 1143.54ZM292.653 1155.68L290.557 1158.49L298.182 1164.19L300.278 1161.38L302.374 1158.58L294.749 1152.88L292.653 1155.68ZM300.278 1161.38L298.182 1164.19L305.806 1169.89L307.902 1167.09L309.998 1164.28L302.374 1158.58L300.278 1161.38ZM307.902 1167.09L305.806 1169.89C310.305 1173.25 313.18 1177.41 314.574 1182.43L317.946 1181.49L321.318 1180.56C319.487 1173.97 315.666 1168.52 309.998 1164.28L307.902 1167.09ZM317.946 1181.49L314.574 1182.43L316.993 1191.14L320.365 1190.2L323.737 1189.26L321.318 1180.56L317.946 1181.49ZM320.365 1190.2L316.993 1191.14L319.412 1199.85L322.784 1198.91L326.156 1197.97L323.737 1189.26L320.365 1190.2ZM322.784 1198.91L319.412 1199.85C320.064 1202.19 320.034 1204.22 319.475 1206.02C318.912 1207.84 317.737 1209.67 315.729 1211.5L318.082 1214.09L320.436 1216.68C323.175 1214.19 325.157 1211.33 326.161 1208.09C327.17 1204.84 327.117 1201.43 326.156 1197.97L322.784 1198.91ZM318.082 1214.09L315.729 1211.5L308.608 1217.97L310.962 1220.56L313.316 1223.15L320.436 1216.68L318.082 1214.09ZM310.962 1220.56L308.608 1217.97L301.488 1224.44L303.842 1227.03L306.195 1229.62L313.316 1223.15L310.962 1220.56ZM303.842 1227.03L301.488 1224.44C299.517 1226.23 297.611 1227.15 295.761 1227.44C293.911 1227.74 291.822 1227.46 289.406 1226.37L287.971 1229.57L286.536 1232.76C289.953 1234.29 293.426 1234.9 296.866 1234.35C300.306 1233.8 303.419 1232.14 306.195 1229.62L303.842 1227.03ZM287.971 1229.57L289.406 1226.37L280.656 1222.44L279.221 1225.63L277.786 1228.82L286.536 1232.76L287.971 1229.57ZM279.221 1225.63L280.656 1222.44L271.906 1218.51L270.471 1221.7L269.036 1224.89L277.786 1228.82L279.221 1225.63ZM270.471 1221.7L271.906 1218.51C265.548 1215.65 259.08 1214.55 252.563 1215.32L252.971 1218.79L253.379 1222.27C258.528 1221.67 263.727 1222.51 269.036 1224.89L270.471 1221.7ZM252.971 1218.79L252.563 1215.32L243.813 1216.35L244.221 1219.82L244.629 1223.3L253.379 1222.27L252.971 1218.79ZM244.221 1219.82L243.813 1216.35L235.063 1217.37L235.471 1220.85L235.879 1224.32L244.629 1223.3L244.221 1219.82ZM235.471 1220.85L235.063 1217.37C230.003 1217.97 224.867 1216.98 219.577 1214.25L217.971 1217.36L216.365 1220.46C222.742 1223.76 229.273 1225.1 235.879 1224.32L235.471 1220.85ZM217.971 1217.36L219.577 1214.25L210.827 1209.73L209.221 1212.83L207.615 1215.94L216.365 1220.46L217.971 1217.36ZM209.221 1212.83L210.827 1209.73L202.077 1205.2L200.471 1208.31L198.865 1211.42L207.615 1215.94L209.221 1212.83ZM200.471 1208.31L202.077 1205.2C195.664 1201.89 189.086 1200.66 182.439 1201.68L182.971 1205.14L183.503 1208.6C188.522 1207.83 193.611 1208.71 198.865 1211.42L200.471 1208.31ZM182.971 1205.14L182.439 1201.68L173.689 1203.02L174.221 1206.48L174.753 1209.94L183.503 1208.6L182.971 1205.14ZM174.221 1206.48L173.689 1203.02L164.939 1204.37L165.471 1207.83L166.003 1211.29L174.753 1209.94L174.221 1206.48ZM165.471 1207.83L164.939 1204.37C158.907 1205.29 152.886 1206.75 146.876 1208.73L147.971 1212.05L149.066 1215.38C154.723 1213.52 160.368 1212.15 166.003 1211.29L165.471 1207.83ZM147.971 1212.05L146.876 1208.73L138.126 1211.61L139.221 1214.94L140.316 1218.26L149.066 1215.38L147.971 1212.05ZM139.221 1214.94L138.126 1211.61L129.376 1214.5L130.471 1217.82L131.566 1221.14L140.316 1218.26L139.221 1214.94ZM130.471 1217.82L129.376 1214.5C123.485 1216.44 117.596 1218.55 111.708 1220.82L112.971 1224.09L114.234 1227.35C120.013 1225.12 125.79 1223.05 131.566 1221.14L130.471 1217.82ZM112.971 1224.09L111.708 1220.82L102.958 1224.21L104.221 1227.47L105.484 1230.74L114.234 1227.35L112.971 1224.09ZM104.221 1227.47L102.958 1224.21L94.2082 1227.59L95.471 1230.86L96.7339 1234.12L105.484 1230.74L104.221 1227.47ZM95.471 1230.86L94.2082 1227.59C92.904 1228.1 92.0346 1228.29 91.5195 1228.34C90.9717 1228.38 91.253 1228.22 91.7164 1228.59C91.9547 1228.78 92.103 1229 92.1778 1229.17C92.2429 1229.32 92.2259 1229.37 92.2199 1229.24C92.2059 1228.94 92.2729 1228.26 92.6475 1227.07L89.309 1226.02L85.9705 1224.97C85.4825 1226.52 85.1592 1228.1 85.2274 1229.57C85.2978 1231.09 85.8205 1232.86 87.3946 1234.09C88.8851 1235.26 90.6658 1235.43 92.0898 1235.31C93.5465 1235.19 95.1214 1234.75 96.7339 1234.12L95.471 1230.86ZM89.309 1226.02L92.6475 1227.07L95.2355 1218.85L91.897 1217.8L88.5585 1216.75L85.9705 1224.97L89.309 1226.02ZM91.897 1217.8L95.2355 1218.85L97.8235 1210.63L94.485 1209.58L91.1465 1208.53L88.5585 1216.75L91.897 1217.8ZM94.485 1209.58L97.8235 1210.63C99.8 1204.35 99.6365 1197.02 97.6811 1188.83L94.2766 1189.64L90.8722 1190.45C92.6453 1197.88 92.6208 1203.84 91.1465 1208.53L94.485 1209.58ZM94.2766 1189.64L97.6811 1188.83L94.8847 1177.11L91.4803 1177.92L88.0759 1178.73L90.8722 1190.45L94.2766 1189.64ZM91.4803 1177.92L94.8847 1177.11L92.0883 1165.39L88.6839 1166.2L85.2795 1167.02L88.0759 1178.73L91.4803 1177.92ZM88.6839 1166.2L92.0883 1165.39C90.4202 1158.4 91.8045 1153.99 95.1785 1151.07L92.8872 1148.42L90.5958 1145.78C84.6369 1150.94 83.219 1158.38 85.2795 1167.02L88.6839 1166.2ZM92.8872 1148.42L95.1785 1151.07L102.178 1145.01L99.8868 1142.36L97.5954 1139.71L90.5958 1145.78L92.8872 1148.42ZM99.8868 1142.36L102.178 1145.01L109.178 1138.94L106.887 1136.3L104.595 1133.65L97.5954 1139.71L99.8868 1142.36ZM106.887 1136.3L109.178 1138.94C113.666 1135.06 118.723 1131.47 124.36 1128.19L122.599 1125.16L120.838 1122.14C114.857 1125.62 109.44 1129.46 104.595 1133.65L106.887 1136.3ZM122.599 1125.16L124.36 1128.19L133.073 1123.11L131.311 1120.09L129.55 1117.06L120.838 1122.14L122.599 1125.16ZM131.311 1120.09L133.073 1123.11L141.785 1118.04L140.024 1115.02L138.263 1111.99L129.55 1117.06L131.311 1120.09ZM140.024 1115.02L141.785 1118.04C145.248 1116.02 147.841 1113.28 149.314 1109.77C150.772 1106.29 151.009 1102.37 150.301 1098.17L146.85 1098.75L143.399 1099.33C143.949 1102.59 143.677 1105.11 142.86 1107.06C142.057 1108.97 140.608 1110.62 138.263 1111.99L140.024 1115.02ZM146.85 1098.75L150.301 1098.17L148.415 1086.97L144.964 1087.56L141.512 1088.14L143.399 1099.33L146.85 1098.75ZM144.964 1087.56L148.415 1086.97L146.528 1075.78L143.077 1076.36L139.626 1076.95L141.512 1088.14L144.964 1087.56ZM143.077 1076.36L146.528 1075.78C145.98 1072.53 146.271 1070.05 147.105 1068.14C147.926 1066.26 149.408 1064.63 151.829 1063.3L150.138 1060.23L148.447 1057.17C144.903 1059.12 142.226 1061.83 140.693 1065.33C139.174 1068.8 138.916 1072.73 139.626 1076.95L143.077 1076.36ZM150.138 1060.23L151.829 1063.3L160.776 1058.36L159.085 1055.29L157.394 1052.23L148.447 1057.17L150.138 1060.23ZM159.085 1055.29L160.776 1058.36L169.723 1053.42L168.032 1050.36L166.341 1047.29L157.394 1052.23L159.085 1055.29ZM168.032 1050.36L169.723 1053.42C176.128 1049.89 181.124 1045.36 184.549 1039.8L181.568 1037.96L178.588 1036.13C175.894 1040.5 171.866 1044.24 166.341 1047.29L168.032 1050.36ZM181.568 1037.96L184.549 1039.8L189.137 1032.34L186.157 1030.51L183.176 1028.68L178.588 1036.13L181.568 1037.96ZM186.157 1030.51L189.137 1032.34L193.726 1024.89L190.745 1023.06L187.765 1021.22L183.176 1028.68L186.157 1030.51ZM190.745 1023.06L193.726 1024.89C196.649 1020.14 199.355 1017.36 201.724 1016.03L200.012 1012.98L198.301 1009.93C194.432 1012.09 190.96 1016.03 187.765 1021.22L190.745 1023.06ZM200.012 1012.98L201.724 1016.03L206.402 1013.41L204.69 1010.36L202.979 1007.3L198.301 1009.93L200.012 1012.98ZM204.69 1010.36L206.402 1013.41L211.08 1010.79L209.369 1007.73L207.657 1004.68L202.979 1007.3L204.69 1010.36ZM209.369 1007.73L211.08 1010.79C212.001 1010.27 212.874 1009.69 213.594 1009.01C214.29 1008.35 215.071 1007.4 215.394 1006.11C215.757 1004.66 215.423 1003.28 214.683 1002.18C214.023 1001.2 213.105 1000.52 212.285 1000.05L210.535 1003.08L208.785 1006.11C209.137 1006.32 209.047 1006.34 208.876 1006.09C208.774 1005.94 208.648 1005.69 208.583 1005.36C208.516 1005.02 208.534 1004.69 208.605 1004.41C208.734 1003.89 208.98 1003.74 208.798 1003.91C208.641 1004.06 208.296 1004.32 207.657 1004.68L209.369 1007.73ZM210.535 1003.08L212.285 1000.05L208.774 998.024L207.024 1001.06L205.274 1004.09L208.785 1006.11L210.535 1003.08ZM207.024 1001.06L208.774 998.024L205.262 995.996L203.512 999.028L201.762 1002.06L205.274 1004.09L207.024 1001.06ZM203.512 999.028L205.262 995.996C204.458 995.532 202.829 994.764 200.988 995.381C198.894 996.083 198.188 997.953 197.961 999.001C197.721 1000.11 197.752 1001.35 197.871 1002.51C197.996 1003.73 198.247 1005.14 198.601 1006.71L202.015 1005.94L205.43 1005.17C205.112 1003.76 204.921 1002.65 204.835 1001.8C204.792 1001.38 204.778 1001.06 204.781 1000.82C204.784 1000.57 204.804 1000.47 204.803 1000.48C204.801 1000.49 204.788 1000.55 204.753 1000.64C204.717 1000.73 204.651 1000.87 204.536 1001.04C204.283 1001.4 203.845 1001.81 203.214 1002.02C202.084 1002.4 201.395 1001.85 201.762 1002.06L203.512 999.028ZM202.015 1005.94L198.601 1006.71L200.617 1015.65L204.031 1014.88L207.445 1014.11L205.43 1005.17L202.015 1005.94Z" fill="black"/>
<rect x="462.5" y="922.5" width="395" height="395" stroke="black" stroke-width="5"/>
<path d="M779.512 1211H540.488L660 1004L779.512 1211Z" stroke="black" stroke-width="7"/>
<path d="M1119.5 1186V1147.1C1119.5 1128.88 1132.04 1113.05 1149.77 1108.88V1108.88C1157.73 1107.01 1164.9 1102.7 1170.29 1096.56L1170.75 1096.03C1176.75 1089.2 1180.34 1080.59 1180.96 1071.52L1181.21 1067.92C1182.34 1051.6 1175.74 1035.69 1163.39 1024.96L1161.97 1023.73C1144.76 1008.78 1120.21 1005.78 1099.9 1016.13L1095.45 1018.4C1072.6 1030.05 1060.04 1055.25 1064.5 1080.5V1080.5" stroke="black" stroke-width="30"/>
<rect x="1112.5" y="1218.5" width="15" height="15" fill="black" stroke="black" stroke-width="15"/>
</svg>
