<svg width="1460" height="1460" viewBox="0 0 1460 1460" fill="none" xmlns="http://www.w3.org/2000/svg">
<rect x="2.5" y="2.5" width="395" height="395" stroke="black" stroke-width="5"/>
<rect x="78.5" y="78.5" width="243" height="243" stroke="black" stroke-width="7" stroke-dasharray="10 10"/>
<rect x="532.5" y="2.5" width="395" height="395" stroke="black" stroke-width="5"/>
<path d="M683.75 85.6153L682.228 82.4636L683.75 85.6153ZM771.25 79.1261L770.312 82.4982L771.25 79.1261ZM806.25 83.6764L805.969 87.1651L806.25 83.6764ZM841.25 78.0267L840.426 74.625L841.25 78.0267ZM848.884 83.1812L845.425 82.6505L848.884 83.1812ZM846.653 97.7271L850.113 98.2577L846.653 97.7271ZM848.619 113.75L845.318 114.913L848.619 113.75ZM854.782 131.25L858.083 130.087L854.782 131.25ZM853.189 148.75L850.102 147.101L853.189 148.75ZM864.255 201.25L866.785 198.832L864.255 201.25ZM864.328 218.75L861.787 216.343L864.328 218.75ZM847.748 236.25L850.289 238.657L847.748 236.25ZM841.269 253.75L837.841 254.459L841.269 253.75ZM844.891 271.25L848.318 270.541L844.891 271.25ZM852.653 288.75L855.547 286.782L852.653 288.75ZM864.557 306.25L861.663 308.218L864.557 306.25ZM860.382 318.705L861.584 321.992L860.382 318.705ZM840.127 326.115L838.925 322.828L840.127 326.115ZM821.25 325.219L822.879 322.121L821.25 325.219ZM803.75 316.017L802.121 319.115L803.75 316.017ZM786.25 316.692L784.443 313.694L786.25 316.692ZM768.75 327.244L770.557 330.241L768.75 327.244ZM751.25 334.89L752.165 338.268L751.25 334.89ZM733.75 339.629L732.835 336.251L733.75 339.629ZM681.25 332.415L682.845 329.3L681.25 332.415ZM672.5 327.935L670.905 331.05L672.5 327.935ZM646.25 317.819L645.792 321.289L646.25 317.819ZM628.75 315.512L629.208 312.042L628.75 315.512ZM619.174 307.339L615.698 307.748L619.174 307.339ZM621.744 243.75L618.261 243.412L621.744 243.75ZM597.074 191.25L593.757 192.365L597.074 191.25ZM589.726 138.75L586.231 138.554L589.726 138.75ZM594.074 121.25L590.871 119.838L594.074 121.25ZM622.5 71.7966L623.13 75.2394L631.88 73.6378L631.25 70.195L630.62 66.7522L621.87 68.3538L622.5 71.7966ZM631.25 70.195L631.88 73.6378C636.744 72.7474 641.715 73.7292 646.934 76.8971L648.75 73.9052L650.566 70.9134C644.118 66.9987 637.423 65.5069 630.62 66.7522L631.25 70.195ZM648.75 73.9052L646.934 76.8971L655.684 82.209L657.5 79.2172L659.316 76.2254L650.566 70.9134L648.75 73.9052ZM657.5 79.2172L655.684 82.209L664.434 87.521L666.25 84.5292L668.066 81.5373L659.316 76.2254L657.5 79.2172ZM666.25 84.5292L664.434 87.521C671.216 91.6383 678.304 92.1322 685.272 88.767L683.75 85.6153L682.228 82.4636C677.529 84.7328 672.951 84.5026 668.066 81.5373L666.25 84.5292ZM683.75 85.6153L685.272 88.767L694.022 84.5412L692.5 81.3895L690.978 78.2378L682.228 82.4636L683.75 85.6153ZM692.5 81.3895L694.022 84.5412L702.772 80.3154L701.25 77.1637L699.728 74.012L690.978 78.2378L692.5 81.3895ZM701.25 77.1637L702.772 80.3154C708.213 77.6877 713.568 76.3265 718.861 76.1587L718.75 72.6604L718.639 69.1622C712.265 69.3644 705.953 71.0054 699.728 74.012L701.25 77.1637ZM718.75 72.6604L718.861 76.1587L727.611 75.8811L727.5 72.3829L727.389 68.8847L718.639 69.1622L718.75 72.6604ZM727.5 72.3829L727.611 75.8811L736.361 75.6036L736.25 72.1054L736.139 68.6071L727.389 68.8847L727.5 72.3829ZM736.25 72.1054L736.361 75.6036C741.827 75.4302 747.307 76.1021 752.812 77.6327L753.75 74.2606L754.688 70.8885C748.526 69.1754 742.339 68.4105 736.139 68.6071L736.25 72.1054ZM753.75 74.2606L752.812 77.6327L761.562 80.0654L762.5 76.6933L763.438 73.3212L754.688 70.8885L753.75 74.2606ZM762.5 76.6933L761.562 80.0654L770.312 82.4982L771.25 79.1261L772.188 75.754L763.438 73.3212L762.5 76.6933ZM771.25 79.1261L770.312 82.4982C776.353 84.1776 782.406 85.2643 788.469 85.7533L788.75 82.2647L789.031 78.776C783.428 78.3239 777.814 77.3182 772.188 75.754L771.25 79.1261ZM788.75 82.2647L788.469 85.7533L797.219 86.4592L797.5 82.9705L797.781 79.4819L789.031 78.776L788.75 82.2647ZM797.5 82.9705L797.219 86.4592L805.969 87.1651L806.25 83.6764L806.531 80.1877L797.781 79.4819L797.5 82.9705ZM806.25 83.6764L805.969 87.1651C812.182 87.6663 818.388 87.163 824.574 85.6655L823.75 82.2638L822.926 78.862C817.445 80.1891 811.985 80.6276 806.531 80.1877L806.25 83.6764ZM823.75 82.2638L824.574 85.6655L833.324 83.547L832.5 80.1452L831.676 76.7435L822.926 78.862L823.75 82.2638ZM832.5 80.1452L833.324 83.547L842.074 81.4284L841.25 78.0267L840.426 74.625L831.676 76.7435L832.5 80.1452ZM841.25 78.0267L842.074 81.4284C843.343 81.1212 844.258 81.0294 844.881 81.0521C845.505 81.0749 845.645 81.2042 845.575 81.1568C845.442 81.0666 845.421 80.949 845.45 81.0574C845.501 81.2431 845.567 81.7266 845.425 82.6505L848.884 83.1812L852.344 83.7118C852.786 80.8269 852.471 77.3664 849.492 75.3553C846.903 73.6073 843.487 73.884 840.426 74.625L841.25 78.0267ZM848.884 83.1812L845.425 82.6505L844.309 89.9234L847.769 90.4541L851.228 90.9848L852.344 83.7118L848.884 83.1812ZM847.769 90.4541L844.309 89.9234L843.194 97.1964L846.653 97.7271L850.113 98.2577L851.228 90.9848L847.769 90.4541ZM846.653 97.7271L843.194 97.1964C842.343 102.743 843.121 108.675 845.318 114.913L848.619 113.75L851.92 112.587C850.008 107.158 849.476 102.408 850.113 98.2577L846.653 97.7271ZM848.619 113.75L845.318 114.913L848.399 123.663L851.701 122.5L855.002 121.337L851.92 112.587L848.619 113.75ZM851.701 122.5L848.399 123.663L851.481 132.413L854.782 131.25L858.083 130.087L855.002 121.337L851.701 122.5ZM854.782 131.25L851.481 132.413C853.184 137.25 852.792 142.066 850.102 147.101L853.189 148.75L856.276 150.399C859.819 143.768 860.488 136.916 858.083 130.087L854.782 131.25ZM853.189 148.75L850.102 147.101L845.427 155.851L848.514 157.5L851.601 159.149L856.276 150.399L853.189 148.75ZM848.514 157.5L845.427 155.851L840.753 164.601L843.84 166.25L846.927 167.899L851.601 159.149L848.514 157.5ZM843.84 166.25L840.753 164.601C838.852 168.159 838.197 171.91 839 175.722C839.789 179.464 841.914 182.942 844.998 186.168L847.528 183.75L850.059 181.332C847.567 178.725 846.29 176.369 845.849 174.278C845.423 172.256 845.711 170.175 846.927 167.899L843.84 166.25ZM847.528 183.75L844.998 186.168L853.361 194.918L855.892 192.5L858.422 190.082L850.059 181.332L847.528 183.75ZM855.892 192.5L853.361 194.918L861.725 203.668L864.255 201.25L866.785 198.832L858.422 190.082L855.892 192.5ZM864.255 201.25L861.725 203.668C864.133 206.188 864.947 208.289 864.955 210.015C864.962 211.737 864.168 213.83 861.787 216.343L864.328 218.75L866.869 221.157C870.014 217.837 871.972 214.097 871.955 209.985C871.937 205.877 869.952 202.145 866.785 198.832L864.255 201.25ZM864.328 218.75L861.787 216.343L853.497 225.093L856.038 227.5L858.579 229.907L866.869 221.157L864.328 218.75ZM856.038 227.5L853.497 225.093L845.207 233.843L847.748 236.25L850.289 238.657L858.579 229.907L856.038 227.5ZM847.748 236.25L845.207 233.843C839.194 240.19 836.326 247.136 837.841 254.459L841.269 253.75L844.696 253.041C843.797 248.698 845.249 243.977 850.289 238.657L847.748 236.25ZM841.269 253.75L837.841 254.459L839.652 263.209L843.08 262.5L846.507 261.791L844.696 253.041L841.269 253.75ZM843.08 262.5L839.652 263.209L841.463 271.959L844.891 271.25L848.318 270.541L846.507 261.791L843.08 262.5ZM844.891 271.25L841.463 271.959C842.779 278.318 845.58 284.574 849.759 290.718L852.653 288.75L855.547 286.782C851.792 281.26 849.417 275.848 848.318 270.541L844.891 271.25ZM852.653 288.75L849.759 290.718L855.711 299.468L858.605 297.5L861.499 295.532L855.547 286.782L852.653 288.75ZM858.605 297.5L855.711 299.468L861.663 308.218L864.557 306.25L867.451 304.282L861.499 295.532L858.605 297.5ZM864.557 306.25L861.663 308.218C863.409 310.785 863.35 312.09 863.171 312.626C862.981 313.193 862.188 314.317 859.179 315.418L860.382 318.705L861.584 321.992C865.326 320.623 868.605 318.437 869.807 314.851C871.02 311.235 869.673 307.548 867.451 304.282L864.557 306.25ZM860.382 318.705L859.179 315.418L849.052 319.123L850.254 322.41L851.457 325.697L861.584 321.992L860.382 318.705ZM850.254 322.41L849.052 319.123L838.925 322.828L840.127 326.115L841.33 329.402L851.457 325.697L850.254 322.41ZM840.127 326.115L838.925 322.828C833.007 324.993 827.752 324.684 822.879 322.121L821.25 325.219L819.621 328.317C826.414 331.889 833.744 332.177 841.33 329.402L840.127 326.115ZM821.25 325.219L822.879 322.121L814.129 317.52L812.5 320.618L810.871 323.716L819.621 328.317L821.25 325.219ZM812.5 320.618L814.129 317.52L805.379 312.919L803.75 316.017L802.121 319.115L810.871 323.716L812.5 320.618ZM803.75 316.017L805.379 312.919C798.418 309.258 791.282 309.571 784.443 313.694L786.25 316.692L788.057 319.689C792.885 316.778 797.416 316.64 802.121 319.115L803.75 316.017ZM786.25 316.692L784.443 313.694L775.693 318.97L777.5 321.968L779.307 324.965L788.057 319.689L786.25 316.692ZM777.5 321.968L775.693 318.97L766.943 324.247L768.75 327.244L770.557 330.241L779.307 324.965L777.5 321.968ZM768.75 327.244L766.943 324.247C761.353 327.617 755.818 330.026 750.335 331.511L751.25 334.89L752.165 338.268C758.349 336.593 764.48 333.905 770.557 330.241L768.75 327.244ZM751.25 334.89L750.335 331.511L741.585 333.881L742.5 337.259L743.415 340.638L752.165 338.268L751.25 334.89ZM742.5 337.259L741.585 333.881L732.835 336.251L733.75 339.629L734.665 343.007L743.415 340.638L742.5 337.259ZM733.75 339.629L732.835 336.251C727.452 337.708 722.102 338.039 716.755 337.26L716.25 340.723L715.745 344.186C722.065 345.108 728.381 344.709 734.665 343.007L733.75 339.629ZM716.25 340.723L716.755 337.26L708.005 335.984L707.5 339.447L706.995 342.911L715.745 344.186L716.25 340.723ZM707.5 339.447L708.005 335.984L699.255 334.708L698.75 338.172L698.245 341.635L706.995 342.911L707.5 339.447ZM698.75 338.172L699.255 334.708C693.842 333.919 688.375 332.132 682.845 329.3L681.25 332.415L679.655 335.531C685.792 338.674 691.992 340.724 698.245 341.635L698.75 338.172ZM681.25 332.415L682.845 329.3L674.095 324.819L672.5 327.935L670.905 331.05L679.655 335.531L681.25 332.415ZM672.5 327.935L674.095 324.819L665.345 320.339L663.75 323.454L662.155 326.569L670.905 331.05L672.5 327.935ZM663.75 323.454L665.345 320.339C659.196 317.19 652.98 315.176 646.708 314.349L646.25 317.819L645.792 321.289C651.187 322 656.637 323.744 662.155 326.569L663.75 323.454ZM646.25 317.819L646.708 314.349L637.958 313.195L637.5 316.665L637.042 320.135L645.792 321.289L646.25 317.819ZM637.5 316.665L637.958 313.195L629.208 312.042L628.75 315.512L628.292 318.982L637.042 320.135L637.5 316.665ZM628.75 315.512L629.208 312.042C626.38 311.669 624.496 311.229 623.382 310.797C622.822 310.58 622.647 310.437 622.664 310.452C622.706 310.487 623.113 310.863 623.201 311.609L619.725 312.018L616.249 312.427C616.428 313.953 617.28 315.059 618.12 315.776C618.935 316.472 619.911 316.96 620.855 317.325C622.75 318.059 625.286 318.585 628.292 318.982L628.75 315.512ZM619.725 312.018L623.201 311.609L622.926 309.27L619.45 309.679L615.974 310.088L616.249 312.427L619.725 312.018ZM619.45 309.679L622.926 309.27L622.65 306.931L619.174 307.339L615.698 307.748L615.974 310.088L619.45 309.679ZM619.174 307.339L622.65 306.931C622.498 305.636 622.423 302.185 622.474 296.28L618.974 296.25L615.474 296.22C615.425 301.982 615.484 305.923 615.698 307.748L619.174 307.339ZM618.974 296.25L622.474 296.28L622.549 287.53L619.049 287.5L615.549 287.47L615.474 296.22L618.974 296.25ZM619.049 287.5L622.549 287.53L622.623 278.78L619.123 278.75L615.624 278.72L615.549 287.47L619.049 287.5ZM619.123 278.75L622.623 278.78C622.672 273.05 622.975 267.319 623.53 261.588L620.047 261.25L616.563 260.912C615.987 266.847 615.674 272.783 615.624 278.72L619.123 278.75ZM620.047 261.25L623.53 261.588L624.379 252.838L620.896 252.5L617.412 252.162L616.563 260.912L620.047 261.25ZM620.896 252.5L624.379 252.838L625.228 244.088L621.744 243.75L618.261 243.412L617.412 252.162L620.896 252.5ZM621.744 243.75L625.228 244.088C625.883 237.331 623.998 230.722 619.89 224.353L616.949 226.25L614.007 228.147C617.425 233.445 618.737 238.502 618.261 243.412L621.744 243.75ZM616.949 226.25L619.89 224.353L614.245 215.603L611.304 217.5L608.363 219.397L614.007 228.147L616.949 226.25ZM611.304 217.5L614.245 215.603L608.601 206.853L605.659 208.75L602.718 210.647L608.363 219.397L611.304 217.5ZM605.659 208.75L608.601 206.853C604.975 201.233 602.249 195.66 600.392 190.135L597.074 191.25L593.757 192.365C595.821 198.506 598.818 204.6 602.718 210.647L605.659 208.75ZM597.074 191.25L600.392 190.135L597.451 181.385L594.134 182.5L590.816 183.615L593.757 192.365L597.074 191.25ZM594.134 182.5L597.451 181.385L594.511 172.635L591.193 173.75L587.876 174.865L590.816 183.615L594.134 182.5ZM591.193 173.75L594.511 172.635C592.685 167.201 591.937 161.812 592.238 156.446L588.744 156.25L585.249 156.054C584.896 162.355 585.781 168.633 587.876 174.865L591.193 173.75ZM588.744 156.25L592.238 156.446L592.729 147.696L589.235 147.5L585.74 147.304L585.249 156.054L588.744 156.25ZM589.235 147.5L592.729 147.696L593.22 138.946L589.726 138.75L586.231 138.554L585.74 147.304L589.235 147.5ZM589.726 138.75L593.22 138.946C593.522 133.569 594.859 128.146 597.276 122.662L594.074 121.25L590.871 119.838C588.146 126.021 586.584 132.265 586.231 138.554L589.726 138.75ZM594.074 121.25L597.276 122.662L601.133 113.912L597.93 112.5L594.728 111.088L590.871 119.838L594.074 121.25ZM597.93 112.5L601.133 113.912L604.99 105.162L601.787 103.75L598.585 102.338L594.728 111.088L597.93 112.5ZM601.787 103.75L604.99 105.162C607.714 98.9823 608.568 93.061 605.846 88.2707L602.803 90L599.76 91.7292C600.826 93.6057 601.003 96.851 598.585 102.338L601.787 103.75ZM602.803 90L605.846 88.2707L603.004 83.2707L599.961 85L596.918 86.7292L599.76 91.7292L602.803 90ZM599.961 85L603.004 83.2707L600.163 78.2707L597.12 80L594.077 81.7293L596.918 86.7292L599.961 85ZM597.12 80L600.163 78.2707C599.741 77.5279 599.468 76.9579 599.306 76.542C599.129 76.0899 599.152 75.9904 599.157 76.1373C599.163 76.3144 599.131 77.1226 598.39 77.8354C597.697 78.5011 596.983 78.5 596.959 78.5V75V71.5C596.041 71.5 594.664 71.7072 593.538 72.7896C592.363 73.9191 592.128 75.3522 592.161 76.3627C592.218 78.1378 593.124 80.053 594.077 81.7293L597.12 80ZM596.959 75V78.5H599.639V75V71.5H596.959V75ZM599.639 75V78.5H602.32V75V71.5H599.639V75ZM602.32 75V78.5C604.485 78.5 608.624 77.8949 614.38 76.8411L613.75 73.3983L613.12 69.9555C607.21 71.0373 603.728 71.5 602.32 71.5V75ZM613.75 73.3983L614.38 76.8411L623.13 75.2394L622.5 71.7966L621.87 68.3538L613.12 69.9555L613.75 73.3983Z" fill="black"/>
<rect x="1062.5" y="2.5" width="395" height="395" stroke="black" stroke-width="5"/>
<rect x="1138.5" y="78.5" width="243" height="243" stroke="black" stroke-width="7"/>
<rect x="2.5" y="532.5" width="395" height="395" stroke="black" stroke-width="5"/>
<circle cx="200" cy="730" r="121.5" stroke="black" stroke-width="7"/>
<rect x="532.5" y="532.5" width="395" height="395" stroke="black" stroke-width="5"/>
<circle cx="730" cy="730" r="121.5" stroke="black" stroke-width="7" stroke-dasharray="10 10"/>
<rect x="1062.5" y="532.5" width="395" height="395" stroke="black" stroke-width="5"/>
<path d="M1375.01 745.105L1377.93 747.036L1375.01 745.105ZM1370.01 752.658L1367.1 750.727L1370.01 752.658ZM1365.51 769.424L1369 769.239L1365.51 769.424ZM1366.49 787.851L1362.99 788.036L1366.49 787.851ZM1362.35 804.975L1365.37 806.741L1362.35 804.975ZM1324.24 841.679L1322.59 838.593L1324.24 841.679ZM1297.08 840.06L1298.12 836.719L1297.08 840.06ZM1287.53 837.089L1288.58 833.747L1287.53 837.089ZM1261.6 849.625L1264 852.168L1261.6 849.625ZM1253.4 857.379L1250.99 854.836L1253.4 857.379ZM1235.52 863.971L1235.11 867.446L1235.52 863.971ZM1225.84 862.809L1226.26 859.334L1225.84 862.809ZM1216.17 861.648L1215.75 865.123L1216.17 861.648ZM1198.16 823.918L1194.75 824.695L1198.16 823.918ZM1190.37 806.455L1192.91 804.044L1190.37 806.455ZM1180.35 795.908L1177.81 798.319L1180.35 795.908ZM1156.38 758.525L1159.56 757.07L1156.38 758.525ZM1153.1 751.359L1156.28 749.904L1153.1 751.359ZM1149.82 744.193L1146.64 745.648L1149.82 744.193ZM1147.68 695.519L1144.26 696.234L1147.68 695.519ZM1168 652.399L1166.45 649.258L1168 652.399ZM1181.06 639.068L1177.89 637.583L1181.06 639.068ZM1185.27 630.095L1182.1 628.61L1185.27 630.095ZM1189.47 621.122L1192.64 622.607L1189.47 621.122ZM1202.74 609.888L1201.89 606.492L1202.74 609.888ZM1248.34 595.436L1246.99 592.206L1248.34 595.436ZM1257.54 591.602L1256.19 588.371L1257.54 591.602ZM1275.21 593.44L1273.26 596.348L1275.21 593.44ZM1292.14 604.785L1294.09 601.878L1292.14 604.785ZM1314.95 620.375L1312.96 623.254L1314.95 620.375ZM1339.06 643.984L1336.21 646.016L1339.06 643.984ZM1353.53 664.274L1350.67 666.304L1353.53 664.274ZM1362.92 677.471L1360.07 679.501L1362.92 677.471ZM1368.33 692.12L1371.81 691.813L1368.33 692.12ZM1369.74 708.221L1366.26 708.528L1369.74 708.221ZM1374.09 719.704L1371.69 722.25L1374.09 719.704ZM1377.73 723.136L1380.13 720.591L1377.73 723.136ZM1381.36 726.568L1383.76 724.022L1381.36 726.568ZM1380 737.553L1377.09 735.622L1380 737.553ZM1375.01 745.105L1372.09 743.174L1367.1 750.727L1370.01 752.658L1372.93 754.589L1377.93 747.036L1375.01 745.105ZM1370.01 752.658L1367.1 750.727C1363.34 756.4 1361.65 762.733 1362.01 769.609L1365.51 769.424L1369 769.239C1368.72 763.83 1370.03 758.986 1372.93 754.589L1370.01 752.658ZM1365.51 769.424L1362.01 769.609L1362.5 778.823L1366 778.637L1369.49 778.452L1369 769.239L1365.51 769.424ZM1366 778.637L1362.5 778.823L1362.99 788.036L1366.49 787.851L1369.98 787.665L1369.49 778.452L1366 778.637ZM1366.49 787.851L1362.99 788.036C1363.28 793.501 1362.06 798.53 1359.33 803.209L1362.35 804.975L1365.37 806.741C1368.8 800.872 1370.34 794.485 1369.98 787.665L1366.49 787.851ZM1362.35 804.975L1359.33 803.209L1354.71 811.12L1357.73 812.886L1360.75 814.652L1365.37 806.741L1362.35 804.975ZM1357.73 812.886L1354.71 811.12L1350.09 819.031L1353.11 820.796L1356.13 822.562L1360.75 814.652L1357.73 812.886ZM1353.11 820.796L1350.09 819.031C1347.33 823.746 1343.57 827.367 1338.75 829.945L1340.4 833.031L1342.05 836.117C1348.01 832.93 1352.72 828.395 1356.13 822.562L1353.11 820.796ZM1340.4 833.031L1338.75 829.945L1330.67 834.269L1332.32 837.355L1333.97 840.441L1342.05 836.117L1340.4 833.031ZM1332.32 837.355L1330.67 834.269L1322.59 838.593L1324.24 841.679L1325.89 844.765L1333.97 840.441L1332.32 837.355ZM1324.24 841.679L1322.59 838.593C1318.11 840.991 1313.21 841.42 1307.66 839.69L1306.62 843.031L1305.58 846.373C1312.74 848.605 1319.6 848.132 1325.89 844.765L1324.24 841.679ZM1306.62 843.031L1307.66 839.69L1298.12 836.719L1297.08 840.06L1296.03 843.402L1305.58 846.373L1306.62 843.031ZM1297.08 840.06L1298.12 836.719L1288.58 833.747L1287.53 837.089L1286.49 840.431L1296.03 843.402L1297.08 840.06ZM1287.53 837.089L1288.58 833.747C1280.83 831.335 1273.63 833.426 1267.39 839.329L1269.8 841.871L1272.2 844.414C1276.89 839.979 1281.52 838.882 1286.49 840.431L1287.53 837.089ZM1269.8 841.871L1267.39 839.329L1259.19 847.082L1261.6 849.625L1264 852.168L1272.2 844.414L1269.8 841.871ZM1261.6 849.625L1259.19 847.082L1250.99 854.836L1253.4 857.379L1255.8 859.922L1264 852.168L1261.6 849.625ZM1253.4 857.379L1250.99 854.836C1246.15 859.416 1241.19 861.126 1235.94 860.496L1235.52 863.971L1235.11 867.446C1242.76 868.365 1249.72 865.68 1255.8 859.922L1253.4 857.379ZM1235.52 863.971L1235.94 860.496L1226.26 859.334L1225.84 862.809L1225.43 866.284L1235.11 867.446L1235.52 863.971ZM1225.84 862.809L1226.26 859.334L1216.58 858.173L1216.17 861.648L1215.75 865.123L1225.43 866.284L1225.84 862.809ZM1216.17 861.648L1216.58 858.173C1214.12 857.877 1212.25 856.92 1210.77 855.342C1209.25 853.706 1207.96 851.194 1207.13 847.52L1203.71 848.297L1200.3 849.074C1201.31 853.526 1203.03 857.303 1205.65 860.117C1208.33 862.989 1211.76 864.644 1215.75 865.123L1216.17 861.648ZM1203.71 848.297L1207.13 847.52L1204.35 835.33L1200.94 836.107L1197.52 836.884L1200.3 849.074L1203.71 848.297ZM1200.94 836.107L1204.35 835.33L1201.57 823.141L1198.16 823.918L1194.75 824.695L1197.52 836.884L1200.94 836.107ZM1198.16 823.918L1201.57 823.141C1199.67 814.788 1196.9 808.236 1192.91 804.044L1190.37 806.455L1187.84 808.866C1190.54 811.705 1192.95 816.795 1194.75 824.695L1198.16 823.918ZM1190.37 806.455L1192.91 804.044L1187.9 798.77L1185.36 801.182L1182.83 803.593L1187.84 808.866L1190.37 806.455ZM1185.36 801.182L1187.9 798.77L1182.89 793.497L1180.35 795.908L1177.81 798.319L1182.83 803.593L1185.36 801.182ZM1180.35 795.908L1182.89 793.497C1179.71 790.152 1176.87 786.499 1174.38 782.536L1171.42 784.399L1168.45 786.262C1171.19 790.613 1174.31 794.634 1177.81 798.319L1180.35 795.908ZM1171.42 784.399L1174.38 782.536L1170.46 776.3L1167.5 778.163L1164.53 780.026L1168.45 786.262L1171.42 784.399ZM1167.5 778.163L1170.46 776.3L1166.54 770.064L1163.57 771.927L1160.61 773.79L1164.53 780.026L1167.5 778.163ZM1163.57 771.927L1166.54 770.064C1164.01 766.046 1161.68 761.716 1159.56 757.07L1156.38 758.525L1153.19 759.98C1155.44 764.888 1157.91 769.493 1160.61 773.79L1163.57 771.927ZM1156.38 758.525L1159.56 757.07L1156.28 749.904L1153.1 751.359L1149.92 752.814L1153.19 759.98L1156.38 758.525ZM1153.1 751.359L1156.28 749.904L1153.01 742.738L1149.82 744.193L1146.64 745.648L1149.92 752.814L1153.1 751.359ZM1149.82 744.193L1153.01 742.738C1151.08 738.53 1150.36 734.142 1150.84 729.51L1147.36 729.154L1143.87 728.797C1143.27 734.663 1144.2 740.302 1146.64 745.648L1149.82 744.193ZM1147.36 729.154L1150.84 729.51L1151.64 721.637L1148.16 721.28L1144.68 720.924L1143.87 728.797L1147.36 729.154ZM1148.16 721.28L1151.64 721.637L1152.45 713.764L1148.97 713.407L1145.49 713.05L1144.68 720.924L1148.16 721.28ZM1148.97 713.407L1152.45 713.764C1153.03 708.07 1152.56 701.735 1151.11 694.804L1147.68 695.519L1144.26 696.234C1145.6 702.656 1145.98 708.247 1145.49 713.05L1148.97 713.407ZM1147.68 695.519L1151.11 694.804L1149.02 684.789L1145.59 685.504L1142.17 686.219L1144.26 696.234L1147.68 695.519ZM1145.59 685.504L1149.02 684.789L1146.93 674.774L1143.5 675.489L1140.08 676.204L1142.17 686.219L1145.59 685.504ZM1143.5 675.489L1146.93 674.774C1146.34 671.964 1146.59 669.912 1147.32 668.38C1148.03 666.862 1149.4 665.447 1151.82 664.257L1150.27 661.116L1148.73 657.975C1145.24 659.691 1142.53 662.123 1140.98 665.397C1139.45 668.656 1139.27 672.337 1140.08 676.204L1143.5 675.489ZM1150.27 661.116L1151.82 664.257L1160.68 659.898L1159.14 656.757L1157.59 653.617L1148.73 657.975L1150.27 661.116ZM1159.14 656.757L1160.68 659.898L1169.54 655.54L1168 652.399L1166.45 649.258L1157.59 653.617L1159.14 656.757ZM1168 652.399L1169.54 655.54C1176.17 652.281 1181.09 647.252 1184.23 640.552L1181.06 639.068L1177.89 637.583C1175.43 642.847 1171.64 646.705 1166.45 649.258L1168 652.399ZM1181.06 639.068L1184.23 640.552L1188.44 631.58L1185.27 630.095L1182.1 628.61L1177.89 637.583L1181.06 639.068ZM1185.27 630.095L1188.44 631.58L1192.64 622.607L1189.47 621.122L1186.3 619.638L1182.1 628.61L1185.27 630.095ZM1189.47 621.122L1192.64 622.607C1195.03 617.513 1198.63 614.52 1203.59 613.284L1202.74 609.888L1201.89 606.492C1194.76 608.272 1189.52 612.768 1186.3 619.638L1189.47 621.122ZM1202.74 609.888L1203.59 613.284L1212.65 611.023L1211.81 607.627L1210.96 604.231L1201.89 606.492L1202.74 609.888ZM1211.81 607.627L1212.65 611.023L1221.72 608.762L1220.88 605.366L1220.03 601.97L1210.96 604.231L1211.81 607.627ZM1220.88 605.366L1221.72 608.762C1227.95 607.209 1234.2 605.121 1240.49 602.501L1239.14 599.271L1237.8 596.04C1231.81 598.533 1225.89 600.508 1220.03 601.97L1220.88 605.366ZM1239.14 599.271L1240.49 602.501L1249.69 598.667L1248.34 595.436L1246.99 592.206L1237.8 596.04L1239.14 599.271ZM1248.34 595.436L1249.69 598.667L1258.89 594.832L1257.54 591.602L1256.19 588.371L1246.99 592.206L1248.34 595.436ZM1257.54 591.602L1258.89 594.832C1263.91 592.74 1268.56 593.201 1273.26 596.348L1275.21 593.44L1277.15 590.532C1270.56 586.115 1263.44 585.351 1256.19 588.371L1257.54 591.602ZM1275.21 593.44L1273.26 596.348L1281.72 602.02L1283.67 599.113L1285.62 596.205L1277.15 590.532L1275.21 593.44ZM1283.67 599.113L1281.72 602.02L1290.19 607.693L1292.14 604.785L1294.09 601.878L1285.62 596.205L1283.67 599.113ZM1292.14 604.785L1290.19 607.693C1295.82 611.467 1301.02 615.001 1305.79 618.296L1307.78 615.416L1309.77 612.537C1304.97 609.221 1299.74 605.667 1294.09 601.878L1292.14 604.785ZM1307.78 615.416L1305.79 618.296L1312.96 623.254L1314.95 620.375L1316.94 617.496L1309.77 612.537L1307.78 615.416ZM1314.95 620.375L1312.96 623.254L1320.13 628.213L1322.12 625.333L1324.11 622.454L1316.94 617.496L1314.95 620.375ZM1322.12 625.333L1320.13 628.213C1324.6 631.296 1328.32 634.948 1331.33 639.17L1334.18 637.138L1337.03 635.106C1333.53 630.2 1329.22 625.982 1324.11 622.454L1322.12 625.333ZM1334.18 637.138L1331.33 639.17L1336.21 646.016L1339.06 643.984L1341.91 641.952L1337.03 635.106L1334.18 637.138ZM1339.06 643.984L1336.21 646.016L1341.1 652.862L1343.95 650.83L1346.79 648.798L1341.91 641.952L1339.06 643.984ZM1343.95 650.83L1341.1 652.862C1344.35 657.425 1347.54 661.906 1350.67 666.304L1353.53 664.274L1356.38 662.244C1353.24 657.844 1350.05 653.362 1346.79 648.798L1343.95 650.83ZM1353.53 664.274L1350.67 666.304L1355.37 672.903L1358.22 670.872L1361.08 668.842L1356.38 662.244L1353.53 664.274ZM1358.22 670.872L1355.37 672.903L1360.07 679.501L1362.92 677.471L1365.77 675.441L1361.08 668.842L1358.22 670.872ZM1362.92 677.471L1360.07 679.501C1362.84 683.393 1364.42 687.682 1364.84 692.426L1368.33 692.12L1371.81 691.813C1371.29 685.824 1369.27 680.346 1365.77 675.441L1362.92 677.471ZM1368.33 692.12L1364.84 692.426L1365.55 700.477L1369.04 700.171L1372.52 699.864L1371.81 691.813L1368.33 692.12ZM1369.04 700.171L1365.55 700.477L1366.26 708.528L1369.74 708.221L1373.23 707.915L1372.52 699.864L1369.04 700.171ZM1369.74 708.221L1366.26 708.528C1366.76 714.253 1368.35 719.104 1371.69 722.25L1374.09 719.704L1376.49 717.159C1374.98 715.729 1373.67 712.924 1373.23 707.915L1369.74 708.221ZM1374.09 719.704L1371.69 722.25L1375.32 725.682L1377.73 723.136L1380.13 720.591L1376.49 717.159L1374.09 719.704ZM1377.73 723.136L1375.32 725.682L1378.96 729.114L1381.36 726.568L1383.76 724.022L1380.13 720.591L1377.73 723.136ZM1381.36 726.568L1378.96 729.114C1379.27 729.403 1379.47 729.739 1379.37 730.601C1379.24 731.658 1378.62 733.302 1377.09 735.622L1380 737.553L1382.92 739.483C1384.72 736.768 1385.99 734.064 1386.32 731.46C1386.66 728.66 1385.88 726.021 1383.76 724.022L1381.36 726.568ZM1380 737.553L1377.09 735.622L1372.09 743.174L1375.01 745.105L1377.93 747.036L1382.92 739.483L1380 737.553Z" fill="black"/>
<rect x="2.5" y="1062.5" width="395" height="395" stroke="black" stroke-width="5"/>
<path d="M206.046 1163.82L202.632 1164.59L206.046 1163.82ZM210.428 1181.5L213.806 1180.58L210.428 1181.5ZM215.16 1198.97L211.782 1199.89L215.16 1198.97ZM222.101 1215.17L219.118 1217L222.101 1215.17ZM231.252 1230.1L234.236 1228.27L231.252 1230.1ZM265.987 1270.66L268.48 1268.21L265.987 1270.66ZM272.335 1277.1L269.842 1279.56L272.335 1277.1ZM307.902 1307.09L305.806 1309.89L307.902 1307.09ZM317.946 1321.49L321.318 1320.56L317.946 1321.49ZM320.365 1330.2L316.993 1331.14L320.365 1330.2ZM322.784 1338.91L319.412 1339.85L322.784 1338.91ZM318.082 1354.09L320.436 1356.68L318.082 1354.09ZM310.962 1360.56L308.608 1357.97L310.962 1360.56ZM303.842 1367.03L306.195 1369.62L303.842 1367.03ZM287.971 1369.57L289.406 1366.37L287.971 1369.57ZM270.471 1361.7L269.036 1364.89L270.471 1361.7ZM252.971 1358.79L253.379 1362.27L252.971 1358.79ZM244.221 1359.82L243.813 1356.35L244.221 1359.82ZM235.471 1360.85L235.063 1357.37L235.471 1360.85ZM217.971 1357.36L219.577 1354.25L217.971 1357.36ZM200.471 1348.31L202.077 1345.2L200.471 1348.31ZM182.971 1345.14L182.439 1341.68L182.971 1345.14ZM174.221 1346.48L174.753 1349.94L174.221 1346.48ZM165.471 1347.83L166.003 1351.29L165.471 1347.83ZM147.971 1352.05L146.876 1348.73L147.971 1352.05ZM130.471 1357.82L131.566 1361.14L130.471 1357.82ZM89.309 1366.02L85.9705 1364.97L89.309 1366.02ZM91.4803 1317.92L88.0759 1318.73L91.4803 1317.92ZM92.8872 1288.42L95.1785 1291.07L92.8872 1288.42ZM106.887 1276.3L104.595 1273.65L106.887 1276.3ZM122.599 1265.16L120.838 1262.14L122.599 1265.16ZM146.85 1238.75L143.399 1239.33L146.85 1238.75ZM143.077 1216.36L146.528 1215.78L143.077 1216.36ZM150.138 1200.23L148.447 1197.17L150.138 1200.23ZM168.032 1190.36L169.723 1193.42L168.032 1190.36ZM181.568 1177.96L184.549 1179.8L181.568 1177.96ZM186.157 1170.51L183.176 1168.68L186.157 1170.51ZM190.745 1163.06L193.726 1164.89L190.745 1163.06ZM204.69 1150.36L202.979 1147.3L204.69 1150.36ZM209.369 1147.73L211.08 1150.79L209.369 1147.73ZM210.535 1143.08L208.785 1146.11L210.535 1143.08ZM207.024 1141.06L208.774 1138.02L207.024 1141.06ZM202.015 1145.94L205.43 1145.17L202.015 1145.94ZM204.031 1154.88L200.617 1155.65L202.632 1164.59L206.046 1163.82L209.461 1163.05L207.445 1154.11L204.031 1154.88ZM206.046 1163.82L202.632 1164.59C203.986 1170.6 205.459 1176.54 207.05 1182.41L210.428 1181.5L213.806 1180.58C212.242 1174.81 210.793 1168.96 209.461 1163.05L206.046 1163.82ZM210.428 1181.5L207.05 1182.41L209.416 1191.15L212.794 1190.24L216.172 1189.32L213.806 1180.58L210.428 1181.5ZM212.794 1190.24L209.416 1191.15L211.782 1199.89L215.16 1198.97L218.538 1198.06L216.172 1189.32L212.794 1190.24ZM215.16 1198.97L211.782 1199.89C213.443 1206.02 215.887 1211.73 219.118 1217L222.101 1215.17L225.085 1213.34C222.215 1208.66 220.032 1203.57 218.538 1198.06L215.16 1198.97ZM222.101 1215.17L219.118 1217L223.693 1224.46L226.677 1222.63L229.66 1220.81L225.085 1213.34L222.101 1215.17ZM226.677 1222.63L223.693 1224.46L228.268 1231.93L231.252 1230.1L234.236 1228.27L229.66 1220.81L226.677 1222.63ZM231.252 1230.1L228.268 1231.93C231.43 1237.08 235.065 1241.96 239.17 1246.56L241.78 1244.23L244.391 1241.89C240.558 1237.6 237.174 1233.06 234.236 1228.27L231.252 1230.1ZM241.78 1244.23L239.17 1246.56L245.123 1253.22L247.734 1250.89L250.344 1248.56L244.391 1241.89L241.78 1244.23ZM247.734 1250.89L245.123 1253.22L251.076 1259.89L253.687 1257.56L256.298 1255.23L250.344 1248.56L247.734 1250.89ZM253.687 1257.56L251.076 1259.89C255.084 1264.38 259.224 1268.79 263.495 1273.12L265.987 1270.66L268.48 1268.21C264.289 1263.95 260.228 1259.63 256.298 1255.23L253.687 1257.56ZM265.987 1270.66L263.495 1273.12L269.842 1279.56L272.335 1277.1L274.827 1274.65L268.48 1268.21L265.987 1270.66ZM272.335 1277.1L269.842 1279.56L276.189 1286L278.682 1283.54L281.174 1281.09L274.827 1274.65L272.335 1277.1ZM278.682 1283.54L276.189 1286C280.55 1290.42 285.341 1294.59 290.557 1298.49L292.653 1295.68L294.749 1292.88C289.8 1289.18 285.276 1285.25 281.174 1281.09L278.682 1283.54ZM292.653 1295.68L290.557 1298.49L298.182 1304.19L300.278 1301.38L302.374 1298.58L294.749 1292.88L292.653 1295.68ZM300.278 1301.38L298.182 1304.19L305.806 1309.89L307.902 1307.09L309.998 1304.28L302.374 1298.58L300.278 1301.38ZM307.902 1307.09L305.806 1309.89C310.305 1313.25 313.18 1317.41 314.574 1322.43L317.946 1321.49L321.318 1320.56C319.487 1313.97 315.666 1308.52 309.998 1304.28L307.902 1307.09ZM317.946 1321.49L314.574 1322.43L316.993 1331.14L320.365 1330.2L323.737 1329.26L321.318 1320.56L317.946 1321.49ZM320.365 1330.2L316.993 1331.14L319.412 1339.85L322.784 1338.91L326.156 1337.97L323.737 1329.26L320.365 1330.2ZM322.784 1338.91L319.412 1339.85C320.064 1342.19 320.034 1344.22 319.475 1346.02C318.912 1347.84 317.737 1349.67 315.729 1351.5L318.082 1354.09L320.436 1356.68C323.175 1354.19 325.157 1351.33 326.161 1348.09C327.17 1344.84 327.117 1341.43 326.156 1337.97L322.784 1338.91ZM318.082 1354.09L315.729 1351.5L308.608 1357.97L310.962 1360.56L313.316 1363.15L320.436 1356.68L318.082 1354.09ZM310.962 1360.56L308.608 1357.97L301.488 1364.44L303.842 1367.03L306.195 1369.62L313.316 1363.15L310.962 1360.56ZM303.842 1367.03L301.488 1364.44C299.517 1366.23 297.611 1367.15 295.761 1367.44C293.911 1367.74 291.822 1367.46 289.406 1366.37L287.971 1369.57L286.536 1372.76C289.953 1374.29 293.426 1374.9 296.866 1374.35C300.306 1373.8 303.419 1372.14 306.195 1369.62L303.842 1367.03ZM287.971 1369.57L289.406 1366.37L280.656 1362.44L279.221 1365.63L277.786 1368.82L286.536 1372.76L287.971 1369.57ZM279.221 1365.63L280.656 1362.44L271.906 1358.51L270.471 1361.7L269.036 1364.89L277.786 1368.82L279.221 1365.63ZM270.471 1361.7L271.906 1358.51C265.548 1355.65 259.08 1354.55 252.563 1355.32L252.971 1358.79L253.379 1362.27C258.528 1361.67 263.727 1362.51 269.036 1364.89L270.471 1361.7ZM252.971 1358.79L252.563 1355.32L243.813 1356.35L244.221 1359.82L244.629 1363.3L253.379 1362.27L252.971 1358.79ZM244.221 1359.82L243.813 1356.35L235.063 1357.37L235.471 1360.85L235.879 1364.32L244.629 1363.3L244.221 1359.82ZM235.471 1360.85L235.063 1357.37C230.003 1357.97 224.867 1356.98 219.577 1354.25L217.971 1357.36L216.365 1360.46C222.742 1363.76 229.273 1365.1 235.879 1364.32L235.471 1360.85ZM217.971 1357.36L219.577 1354.25L210.827 1349.73L209.221 1352.83L207.615 1355.94L216.365 1360.46L217.971 1357.36ZM209.221 1352.83L210.827 1349.73L202.077 1345.2L200.471 1348.31L198.865 1351.42L207.615 1355.94L209.221 1352.83ZM200.471 1348.31L202.077 1345.2C195.664 1341.89 189.086 1340.66 182.439 1341.68L182.971 1345.14L183.503 1348.6C188.522 1347.83 193.611 1348.71 198.865 1351.42L200.471 1348.31ZM182.971 1345.14L182.439 1341.68L173.689 1343.02L174.221 1346.48L174.753 1349.94L183.503 1348.6L182.971 1345.14ZM174.221 1346.48L173.689 1343.02L164.939 1344.37L165.471 1347.83L166.003 1351.29L174.753 1349.94L174.221 1346.48ZM165.471 1347.83L164.939 1344.37C158.907 1345.29 152.886 1346.75 146.876 1348.73L147.971 1352.05L149.066 1355.38C154.723 1353.52 160.368 1352.15 166.003 1351.29L165.471 1347.83ZM147.971 1352.05L146.876 1348.73L138.126 1351.61L139.221 1354.94L140.316 1358.26L149.066 1355.38L147.971 1352.05ZM139.221 1354.94L138.126 1351.61L129.376 1354.5L130.471 1357.82L131.566 1361.14L140.316 1358.26L139.221 1354.94ZM130.471 1357.82L129.376 1354.5C123.485 1356.44 117.596 1358.55 111.708 1360.82L112.971 1364.09L114.234 1367.35C120.013 1365.12 125.79 1363.05 131.566 1361.14L130.471 1357.82ZM112.971 1364.09L111.708 1360.82L102.958 1364.21L104.221 1367.47L105.484 1370.74L114.234 1367.35L112.971 1364.09ZM104.221 1367.47L102.958 1364.21L94.2082 1367.59L95.471 1370.86L96.7339 1374.12L105.484 1370.74L104.221 1367.47ZM95.471 1370.86L94.2082 1367.59C92.904 1368.1 92.0346 1368.29 91.5195 1368.34C90.9717 1368.38 91.253 1368.22 91.7164 1368.59C91.9547 1368.78 92.103 1369 92.1778 1369.17C92.2429 1369.32 92.2259 1369.37 92.2199 1369.24C92.2059 1368.94 92.2729 1368.26 92.6475 1367.07L89.309 1366.02L85.9705 1364.97C85.4825 1366.52 85.1592 1368.1 85.2274 1369.57C85.2978 1371.09 85.8205 1372.86 87.3946 1374.09C88.8851 1375.26 90.6658 1375.43 92.0898 1375.31C93.5465 1375.19 95.1214 1374.75 96.7339 1374.12L95.471 1370.86ZM89.309 1366.02L92.6475 1367.07L95.2355 1358.85L91.897 1357.8L88.5585 1356.75L85.9705 1364.97L89.309 1366.02ZM91.897 1357.8L95.2355 1358.85L97.8235 1350.63L94.485 1349.58L91.1465 1348.53L88.5585 1356.75L91.897 1357.8ZM94.485 1349.58L97.8235 1350.63C99.8 1344.35 99.6365 1337.02 97.6811 1328.83L94.2766 1329.64L90.8722 1330.45C92.6453 1337.88 92.6208 1343.84 91.1465 1348.53L94.485 1349.58ZM94.2766 1329.64L97.6811 1328.83L94.8847 1317.11L91.4803 1317.92L88.0759 1318.73L90.8722 1330.45L94.2766 1329.64ZM91.4803 1317.92L94.8847 1317.11L92.0883 1305.39L88.6839 1306.2L85.2795 1307.02L88.0759 1318.73L91.4803 1317.92ZM88.6839 1306.2L92.0883 1305.39C90.4202 1298.4 91.8045 1293.99 95.1785 1291.07L92.8872 1288.42L90.5958 1285.78C84.6369 1290.94 83.219 1298.38 85.2795 1307.02L88.6839 1306.2ZM92.8872 1288.42L95.1785 1291.07L102.178 1285.01L99.8868 1282.36L97.5954 1279.71L90.5958 1285.78L92.8872 1288.42ZM99.8868 1282.36L102.178 1285.01L109.178 1278.94L106.887 1276.3L104.595 1273.65L97.5954 1279.71L99.8868 1282.36ZM106.887 1276.3L109.178 1278.94C113.666 1275.06 118.723 1271.47 124.36 1268.19L122.599 1265.16L120.838 1262.14C114.857 1265.62 109.44 1269.46 104.595 1273.65L106.887 1276.3ZM122.599 1265.16L124.36 1268.19L133.073 1263.11L131.311 1260.09L129.55 1257.06L120.838 1262.14L122.599 1265.16ZM131.311 1260.09L133.073 1263.11L141.785 1258.04L140.024 1255.02L138.263 1251.99L129.55 1257.06L131.311 1260.09ZM140.024 1255.02L141.785 1258.04C145.248 1256.02 147.841 1253.28 149.314 1249.77C150.772 1246.29 151.009 1242.37 150.301 1238.17L146.85 1238.75L143.399 1239.33C143.949 1242.59 143.677 1245.11 142.86 1247.06C142.057 1248.97 140.608 1250.62 138.263 1251.99L140.024 1255.02ZM146.85 1238.75L150.301 1238.17L148.415 1226.97L144.964 1227.56L141.512 1228.14L143.399 1239.33L146.85 1238.75ZM144.964 1227.56L148.415 1226.97L146.528 1215.78L143.077 1216.36L139.626 1216.95L141.512 1228.14L144.964 1227.56ZM143.077 1216.36L146.528 1215.78C145.98 1212.53 146.271 1210.05 147.105 1208.14C147.926 1206.26 149.408 1204.63 151.829 1203.3L150.138 1200.23L148.447 1197.17C144.903 1199.12 142.226 1201.83 140.693 1205.33C139.174 1208.8 138.916 1212.73 139.626 1216.95L143.077 1216.36ZM150.138 1200.23L151.829 1203.3L160.776 1198.36L159.085 1195.29L157.394 1192.23L148.447 1197.17L150.138 1200.23ZM159.085 1195.29L160.776 1198.36L169.723 1193.42L168.032 1190.36L166.341 1187.29L157.394 1192.23L159.085 1195.29ZM168.032 1190.36L169.723 1193.42C176.128 1189.89 181.124 1185.36 184.549 1179.8L181.568 1177.96L178.588 1176.13C175.894 1180.5 171.866 1184.24 166.341 1187.29L168.032 1190.36ZM181.568 1177.96L184.549 1179.8L189.137 1172.34L186.157 1170.51L183.176 1168.68L178.588 1176.13L181.568 1177.96ZM186.157 1170.51L189.137 1172.34L193.726 1164.89L190.745 1163.06L187.765 1161.22L183.176 1168.68L186.157 1170.51ZM190.745 1163.06L193.726 1164.89C196.649 1160.14 199.355 1157.36 201.724 1156.03L200.012 1152.98L198.301 1149.93C194.432 1152.09 190.96 1156.03 187.765 1161.22L190.745 1163.06ZM200.012 1152.98L201.724 1156.03L206.402 1153.41L204.69 1150.36L202.979 1147.3L198.301 1149.93L200.012 1152.98ZM204.69 1150.36L206.402 1153.41L211.08 1150.79L209.369 1147.73L207.657 1144.68L202.979 1147.3L204.69 1150.36ZM209.369 1147.73L211.08 1150.79C212.001 1150.27 212.874 1149.69 213.594 1149.01C214.29 1148.35 215.071 1147.4 215.394 1146.11C215.757 1144.66 215.423 1143.28 214.683 1142.18C214.023 1141.2 213.105 1140.52 212.285 1140.05L210.535 1143.08L208.785 1146.11C209.137 1146.32 209.047 1146.34 208.876 1146.09C208.774 1145.94 208.648 1145.69 208.583 1145.36C208.516 1145.02 208.534 1144.69 208.605 1144.41C208.734 1143.89 208.98 1143.74 208.798 1143.91C208.641 1144.06 208.296 1144.32 207.657 1144.68L209.369 1147.73ZM210.535 1143.08L212.285 1140.05L208.774 1138.02L207.024 1141.06L205.274 1144.09L208.785 1146.11L210.535 1143.08ZM207.024 1141.06L208.774 1138.02L205.262 1136L203.512 1139.03L201.762 1142.06L205.274 1144.09L207.024 1141.06ZM203.512 1139.03L205.262 1136C204.458 1135.53 202.829 1134.76 200.988 1135.38C198.894 1136.08 198.188 1137.95 197.961 1139C197.721 1140.11 197.752 1141.35 197.871 1142.51C197.996 1143.73 198.247 1145.14 198.601 1146.71L202.015 1145.94L205.43 1145.17C205.112 1143.76 204.921 1142.65 204.835 1141.8C204.792 1141.38 204.778 1141.06 204.781 1140.82C204.784 1140.57 204.804 1140.47 204.803 1140.48C204.801 1140.49 204.788 1140.55 204.753 1140.64C204.717 1140.73 204.651 1140.87 204.536 1141.04C204.283 1141.4 203.845 1141.81 203.214 1142.02C202.084 1142.4 201.395 1141.85 201.762 1142.06L203.512 1139.03ZM202.015 1145.94L198.601 1146.71L200.617 1155.65L204.031 1154.88L207.445 1154.11L205.43 1145.17L202.015 1145.94Z" fill="black"/>
<rect x="532.5" y="1062.5" width="395" height="395" stroke="black" stroke-width="5"/>
<path d="M849.512 1351H610.488L730 1144L849.512 1351Z" stroke="black" stroke-width="7"/>
<path d="M1259.5 1326V1287.1C1259.5 1268.88 1272.04 1253.05 1289.77 1248.88V1248.88C1297.73 1247.01 1304.9 1242.7 1310.29 1236.56L1310.75 1236.03C1316.75 1229.2 1320.34 1220.59 1320.96 1211.52L1321.21 1207.92C1322.34 1191.6 1315.74 1175.69 1303.39 1164.96L1301.97 1163.73C1284.76 1148.78 1260.21 1145.78 1239.9 1156.13L1235.45 1158.4C1212.6 1170.05 1200.04 1195.25 1204.5 1220.5V1220.5" stroke="black" stroke-width="30"/>
<rect x="1252.5" y="1358.5" width="15" height="15" fill="black" stroke="black" stroke-width="15"/>
</svg>
