<svg width="1320" height="1320" viewBox="0 0 1320 1320" fill="none" xmlns="http://www.w3.org/2000/svg">
<rect x="2.5" y="2.5" width="395" height="395" stroke="black" stroke-width="5"/>
<path d="M200 69V331" stroke="black" stroke-width="7"/>
<path d="M200 114L174.019 69L225.981 69L200 114Z" fill="black"/>
<rect x="462.5" y="2.5" width="395" height="395" stroke="black" stroke-width="5"/>
<path d="M660 69V331" stroke="black" stroke-width="7"/>
<path d="M660 230L634.019 185L685.981 185L660 230Z" fill="black"/>
<rect x="922.5" y="2.5" width="395" height="395" stroke="black" stroke-width="5"/>
<path d="M1120 69V331" stroke="black" stroke-width="7"/>
<path d="M1120 331L1094.02 286L1145.98 286L1120 331Z" fill="black"/>
<rect x="2.5" y="462.5" width="395" height="395" stroke="black" stroke-width="5"/>
<path d="M107 752.266L292.262 567.004" stroke="black" stroke-width="7"/>
<path d="M138.639 720.213L125.19 770.404L88.448 733.662L138.639 720.213Z" fill="black"/>
<rect x="462.5" y="462.5" width="395" height="395" stroke="black" stroke-width="5"/>
<path d="M567 752.266L752.262 567.004" stroke="black" stroke-width="7"/>
<path d="M679.639 639.213L666.19 689.404L629.448 652.662L679.639 639.213Z" fill="black"/>
<rect x="922.5" y="462.5" width="395" height="395" stroke="black" stroke-width="5"/>
<path d="M1032.67 739.828L1217.93 554.566" stroke="black" stroke-width="7"/>
<path d="M1217.64 554.213L1204.19 604.404L1167.45 567.662L1217.64 554.213Z" fill="black"/>
<rect x="2.5" y="922.5" width="395" height="395" stroke="black" stroke-width="5"/>
<path d="M331 1120L69 1120" stroke="black" stroke-width="7"/>
<path d="M286 1120L331 1094.02L331 1145.98L286 1120Z" fill="black"/>
<rect x="462.5" y="922.5" width="395" height="395" stroke="black" stroke-width="5"/>
<path d="M791 1120L529 1120" stroke="black" stroke-width="7"/>
<path d="M630 1120L675 1094.02L675 1145.98L630 1120Z" fill="black"/>
<path d="M1119.5 1186V1147.1C1119.5 1128.88 1132.04 1113.05 1149.77 1108.88V1108.88C1157.73 1107.01 1164.9 1102.7 1170.29 1096.56L1170.75 1096.03C1176.75 1089.2 1180.34 1080.59 1180.96 1071.52L1181.21 1067.92C1182.34 1051.6 1175.74 1035.69 1163.39 1024.96L1161.97 1023.73C1144.76 1008.78 1120.21 1005.78 1099.9 1016.13L1095.45 1018.4C1072.6 1030.05 1060.04 1055.25 1064.5 1080.5V1080.5" stroke="black" stroke-width="30"/>
<rect x="1112.5" y="1218.5" width="15" height="15" fill="black" stroke="black" stroke-width="15"/>
</svg>
