<svg width="1326" height="1326" viewBox="0 0 1326 1326" fill="none" xmlns="http://www.w3.org/2000/svg">
<path d="M89 294C89 306.703 99.2975 317 112 317C124.703 317 135 306.703 135 294C135 281.297 124.703 271 112 271C99.2975 271 89 281.297 89 294Z" fill="black" stroke="black" stroke-width="3"/>
<path d="M226 294.5V293.5C226 281.074 215.926 271 203.5 271C191.074 271 181 281.074 181 293.5V294.5C181 306.926 191.074 317 203.5 317C215.926 317 226 306.926 226 294.5Z" fill="black" stroke="black" stroke-width="3"/>
<path d="M403 3H3V403H403V3Z" stroke="black" stroke-width="5"/>
<path d="M641 202.5C641 214.926 651.074 225 663.5 225C675.926 225 686 214.926 686 202.5C686 190.074 675.926 180 663.5 180C651.074 180 641 190.074 641 202.5Z" fill="black" stroke="black" stroke-width="3"/>
<path d="M549 294C549 306.703 559.297 317 572 317C584.703 317 595 306.703 595 294C595 281.297 584.703 271 572 271C559.297 271 549 281.297 549 294Z" fill="black" stroke="black" stroke-width="3"/>
<path d="M686 294.5V293.5C686 281.074 675.926 271 663.5 271C651.074 271 641 281.074 641 293.5V294.5C641 306.926 651.074 317 663.5 317C675.926 317 686 306.926 686 294.5Z" fill="black" stroke="black" stroke-width="3"/>
<path d="M863 3H463V403H863V3Z" stroke="black" stroke-width="5"/>
<path d="M1146 111.5V110.5C1146 98.0736 1135.93 88 1123.5 88C1111.07 88 1101 98.0736 1101 110.5V111.5C1101 123.926 1111.07 134 1123.5 134C1135.93 134 1146 123.926 1146 111.5Z" fill="black" stroke="black" stroke-width="3"/>
<path d="M1101 202.5C1101 214.926 1111.07 225 1123.5 225C1135.93 225 1146 214.926 1146 202.5C1146 190.074 1135.93 180 1123.5 180C1111.07 180 1101 190.074 1101 202.5Z" fill="black" stroke="black" stroke-width="3"/>
<path d="M1009 294C1009 306.703 1019.3 317 1032 317C1044.7 317 1055 306.703 1055 294C1055 281.297 1044.7 271 1032 271C1019.3 271 1009 281.297 1009 294Z" fill="black" stroke="black" stroke-width="3"/>
<path d="M1146 294.5V293.5C1146 281.074 1135.93 271 1123.5 271C1111.07 271 1101 281.074 1101 293.5V294.5C1101 306.926 1111.07 317 1123.5 317C1135.93 317 1146 306.926 1146 294.5Z" fill="black" stroke="black" stroke-width="3"/>
<path d="M1323 3H923V403H1323V3Z" stroke="black" stroke-width="5"/>
<path d="M89 571C89 583.703 99.2975 594 112 594C124.703 594 135 583.703 135 571C135 558.297 124.703 548 112 548C99.2975 548 89 558.297 89 571Z" fill="black" stroke="black" stroke-width="3"/>
<path d="M112.5 640H111.5C99.0736 640 89 650.074 89 662.5C89 674.926 99.0736 685 111.5 685H112.5C124.926 685 135 674.926 135 662.5C135 650.074 124.926 640 112.5 640Z" fill="black" stroke="black" stroke-width="3"/>
<path d="M295.5 640H294.5C282.074 640 272 650.074 272 662.5C272 674.926 282.074 685 294.5 685H295.5C307.926 685 318 674.926 318 662.5C318 650.074 307.926 640 295.5 640Z" fill="black" stroke="black" stroke-width="3"/>
<path d="M89 754C89 766.703 99.2975 777 112 777C124.703 777 135 766.703 135 754C135 741.297 124.703 731 112 731C99.2975 731 89 741.297 89 754Z" fill="black" stroke="black" stroke-width="3"/>
<path d="M226 754.5V753.5C226 741.074 215.926 731 203.5 731C191.074 731 181 741.074 181 753.5V754.5C181 766.926 191.074 777 203.5 777C215.926 777 226 766.926 226 754.5Z" fill="black" stroke="black" stroke-width="3"/>
<path d="M272 754C272 766.703 282.297 777 295 777C307.703 777 318 766.703 318 754C318 741.297 307.703 731 295 731C282.297 731 272 741.297 272 754Z" fill="black" stroke="black" stroke-width="3"/>
<path d="M403 463H3V863H403V463Z" stroke="black" stroke-width="5"/>
<path d="M549 571C549 583.703 559.297 594 572 594C584.703 594 595 583.703 595 571C595 558.297 584.703 548 572 548C559.297 548 549 558.297 549 571Z" fill="black" stroke="black" stroke-width="3"/>
<path d="M572.5 640H571.5C559.074 640 549 650.074 549 662.5C549 674.926 559.074 685 571.5 685H572.5C584.926 685 595 674.926 595 662.5C595 650.074 584.926 640 572.5 640Z" fill="black" stroke="black" stroke-width="3"/>
<path d="M641 662.5C641 674.926 651.074 685 663.5 685C675.926 685 686 674.926 686 662.5C686 650.074 675.926 640 663.5 640C651.074 640 641 650.074 641 662.5Z" fill="black" stroke="black" stroke-width="3"/>
<path d="M755.5 640H754.5C742.074 640 732 650.074 732 662.5C732 674.926 742.074 685 754.5 685H755.5C767.926 685 778 674.926 778 662.5C778 650.074 767.926 640 755.5 640Z" fill="black" stroke="black" stroke-width="3"/>
<path d="M549 754C549 766.703 559.297 777 572 777C584.703 777 595 766.703 595 754C595 741.297 584.703 731 572 731C559.297 731 549 741.297 549 754Z" fill="black" stroke="black" stroke-width="3"/>
<path d="M686 754.5V753.5C686 741.074 675.926 731 663.5 731C651.074 731 641 741.074 641 753.5V754.5C641 766.926 651.074 777 663.5 777C675.926 777 686 766.926 686 754.5Z" fill="black" stroke="black" stroke-width="3"/>
<path d="M732 754C732 766.703 742.297 777 755 777C767.703 777 778 766.703 778 754C778 741.297 767.703 731 755 731C742.297 731 732 741.297 732 754Z" fill="black" stroke="black" stroke-width="3"/>
<path d="M863 463H463V863H863V463Z" stroke="black" stroke-width="5"/>
<path d="M1009 571C1009 583.703 1019.3 594 1032 594C1044.7 594 1055 583.703 1055 571C1055 558.297 1044.7 548 1032 548C1019.3 548 1009 558.297 1009 571Z" fill="black" stroke="black" stroke-width="3"/>
<path d="M1146 571.5V570.5C1146 558.074 1135.93 548 1123.5 548C1111.07 548 1101 558.074 1101 570.5V571.5C1101 583.926 1111.07 594 1123.5 594C1135.93 594 1146 583.926 1146 571.5Z" fill="black" stroke="black" stroke-width="3"/>
<path d="M1032.5 640H1031.5C1019.07 640 1009 650.074 1009 662.5C1009 674.926 1019.07 685 1031.5 685H1032.5C1044.93 685 1055 674.926 1055 662.5C1055 650.074 1044.93 640 1032.5 640Z" fill="black" stroke="black" stroke-width="3"/>
<path d="M1101 662.5C1101 674.926 1111.07 685 1123.5 685C1135.93 685 1146 674.926 1146 662.5C1146 650.074 1135.93 640 1123.5 640C1111.07 640 1101 650.074 1101 662.5Z" fill="black" stroke="black" stroke-width="3"/>
<path d="M1215.5 640H1214.5C1202.07 640 1192 650.074 1192 662.5C1192 674.926 1202.07 685 1214.5 685H1215.5C1227.93 685 1238 674.926 1238 662.5C1238 650.074 1227.93 640 1215.5 640Z" fill="black" stroke="black" stroke-width="3"/>
<path d="M1009 754C1009 766.703 1019.3 777 1032 777C1044.7 777 1055 766.703 1055 754C1055 741.297 1044.7 731 1032 731C1019.3 731 1009 741.297 1009 754Z" fill="black" stroke="black" stroke-width="3"/>
<path d="M1146 754.5V753.5C1146 741.074 1135.93 731 1123.5 731C1111.07 731 1101 741.074 1101 753.5V754.5C1101 766.926 1111.07 777 1123.5 777C1135.93 777 1146 766.926 1146 754.5Z" fill="black" stroke="black" stroke-width="3"/>
<path d="M1192 754C1192 766.703 1202.3 777 1215 777C1227.7 777 1238 766.703 1238 754C1238 741.297 1227.7 731 1215 731C1202.3 731 1192 741.297 1192 754Z" fill="black" stroke="black" stroke-width="3"/>
<path d="M1323 463H923V863H1323V463Z" stroke="black" stroke-width="5"/>
<path d="M272 1031C272 1043.7 282.297 1054 295 1054C307.703 1054 318 1043.7 318 1031C318 1018.3 307.703 1008 295 1008C282.297 1008 272 1018.3 272 1031Z" fill="black" stroke="black" stroke-width="3"/>
<path d="M295.5 1100H294.5C282.074 1100 272 1110.07 272 1122.5C272 1134.93 282.074 1145 294.5 1145H295.5C307.926 1145 318 1134.93 318 1122.5C318 1110.07 307.926 1100 295.5 1100Z" fill="black" stroke="black" stroke-width="3"/>
<path d="M89 1214C89 1226.7 99.2975 1237 112 1237C124.703 1237 135 1226.7 135 1214C135 1201.3 124.703 1191 112 1191C99.2975 1191 89 1201.3 89 1214Z" fill="black" stroke="black" stroke-width="3"/>
<path d="M226 1214.5V1213.5C226 1201.07 215.926 1191 203.5 1191C191.074 1191 181 1201.07 181 1213.5V1214.5C181 1226.93 191.074 1237 203.5 1237C215.926 1237 226 1226.93 226 1214.5Z" fill="black" stroke="black" stroke-width="3"/>
<path d="M272 1214C272 1226.7 282.297 1237 295 1237C307.703 1237 318 1226.7 318 1214C318 1201.3 307.703 1191 295 1191C282.297 1191 272 1201.3 272 1214Z" fill="black" stroke="black" stroke-width="3"/>
<path d="M403 923H3V1323H403V923Z" stroke="black" stroke-width="5"/>
<path d="M732 1031C732 1043.7 742.297 1054 755 1054C767.703 1054 778 1043.7 778 1031C778 1018.3 767.703 1008 755 1008C742.297 1008 732 1018.3 732 1031Z" fill="black" stroke="black" stroke-width="3"/>
<path d="M641 1122.5C641 1134.93 651.074 1145 663.5 1145C675.926 1145 686 1134.93 686 1122.5C686 1110.07 675.926 1100 663.5 1100C651.074 1100 641 1110.07 641 1122.5Z" fill="black" stroke="black" stroke-width="3"/>
<path d="M755.5 1100H754.5C742.074 1100 732 1110.07 732 1122.5C732 1134.93 742.074 1145 754.5 1145H755.5C767.926 1145 778 1134.93 778 1122.5C778 1110.07 767.926 1100 755.5 1100Z" fill="black" stroke="black" stroke-width="3"/>
<path d="M549 1214C549 1226.7 559.297 1237 572 1237C584.703 1237 595 1226.7 595 1214C595 1201.3 584.703 1191 572 1191C559.297 1191 549 1201.3 549 1214Z" fill="black" stroke="black" stroke-width="3"/>
<path d="M686 1214.5V1213.5C686 1201.07 675.926 1191 663.5 1191C651.074 1191 641 1201.07 641 1213.5V1214.5C641 1226.93 651.074 1237 663.5 1237C675.926 1237 686 1226.93 686 1214.5Z" fill="black" stroke="black" stroke-width="3"/>
<path d="M732 1214C732 1226.7 742.297 1237 755 1237C767.703 1237 778 1226.7 778 1214C778 1201.3 767.703 1191 755 1191C742.297 1191 732 1201.3 732 1214Z" fill="black" stroke="black" stroke-width="3"/>
<path d="M863 923H463V1323H863V923Z" stroke="black" stroke-width="5"/>
<path d="M1122.5 1189V1150.1C1122.5 1131.88 1135.04 1116.05 1152.77 1111.88V1111.88C1160.73 1110.01 1167.9 1105.7 1173.29 1099.56L1173.75 1099.03C1179.75 1092.2 1183.34 1083.59 1183.96 1074.52L1184.21 1070.92C1185.34 1054.6 1178.74 1038.69 1166.39 1027.96L1164.97 1026.73C1147.76 1011.78 1123.21 1008.78 1102.9 1019.13L1098.45 1021.4C1075.6 1033.05 1063.04 1058.25 1067.5 1083.5V1083.5" stroke="black" stroke-width="30"/>
<rect x="1115.5" y="1221.5" width="15" height="15" fill="black" stroke="black" stroke-width="15"/>
</svg>
