<svg width="1466" height="1466" viewBox="0 0 1466 1466" fill="none" xmlns="http://www.w3.org/2000/svg">
<path d="M89 294C89 306.703 99.2975 317 112 317C124.703 317 135 306.703 135 294C135 281.297 124.703 271 112 271C99.2975 271 89 281.297 89 294Z" fill="black" stroke="black" stroke-width="3"/>
<path d="M226 294.5V293.5C226 281.074 215.926 271 203.5 271C191.074 271 181 281.074 181 293.5V294.5C181 306.926 191.074 317 203.5 317C215.926 317 226 306.926 226 294.5Z" fill="black" stroke="black" stroke-width="3"/>
<path d="M403 3H3V403H403V3Z" stroke="black" stroke-width="5"/>
<path d="M711 202.5C711 214.926 721.074 225 733.5 225C745.926 225 756 214.926 756 202.5C756 190.074 745.926 180 733.5 180C721.074 180 711 190.074 711 202.5Z" fill="black" stroke="black" stroke-width="3"/>
<path d="M619 294C619 306.703 629.297 317 642 317C654.703 317 665 306.703 665 294C665 281.297 654.703 271 642 271C629.297 271 619 281.297 619 294Z" fill="black" stroke="black" stroke-width="3"/>
<path d="M756 294.5V293.5C756 281.074 745.926 271 733.5 271C721.074 271 711 281.074 711 293.5V294.5C711 306.926 721.074 317 733.5 317C745.926 317 756 306.926 756 294.5Z" fill="black" stroke="black" stroke-width="3"/>
<path d="M933 3H533V403H933V3Z" stroke="black" stroke-width="5"/>
<path d="M1286 111.5V110.5C1286 98.0736 1275.93 88 1263.5 88C1251.07 88 1241 98.0736 1241 110.5V111.5C1241 123.926 1251.07 134 1263.5 134C1275.93 134 1286 123.926 1286 111.5Z" fill="black" stroke="black" stroke-width="3"/>
<path d="M1241 202.5C1241 214.926 1251.07 225 1263.5 225C1275.93 225 1286 214.926 1286 202.5C1286 190.074 1275.93 180 1263.5 180C1251.07 180 1241 190.074 1241 202.5Z" fill="black" stroke="black" stroke-width="3"/>
<path d="M1149 294C1149 306.703 1159.3 317 1172 317C1184.7 317 1195 306.703 1195 294C1195 281.297 1184.7 271 1172 271C1159.3 271 1149 281.297 1149 294Z" fill="black" stroke="black" stroke-width="3"/>
<path d="M1286 294.5V293.5C1286 281.074 1275.93 271 1263.5 271C1251.07 271 1241 281.074 1241 293.5V294.5C1241 306.926 1251.07 317 1263.5 317C1275.93 317 1286 306.926 1286 294.5Z" fill="black" stroke="black" stroke-width="3"/>
<path d="M1463 3H1063V403H1463V3Z" stroke="black" stroke-width="5"/>
<path d="M89 641C89 653.703 99.2975 664 112 664C124.703 664 135 653.703 135 641C135 628.297 124.703 618 112 618C99.2975 618 89 628.297 89 641Z" fill="black" stroke="black" stroke-width="3"/>
<path d="M112.5 710H111.5C99.0736 710 89 720.074 89 732.5C89 744.926 99.0736 755 111.5 755H112.5C124.926 755 135 744.926 135 732.5C135 720.074 124.926 710 112.5 710Z" fill="black" stroke="black" stroke-width="3"/>
<path d="M295.5 710H294.5C282.074 710 272 720.074 272 732.5C272 744.926 282.074 755 294.5 755H295.5C307.926 755 318 744.926 318 732.5C318 720.074 307.926 710 295.5 710Z" fill="black" stroke="black" stroke-width="3"/>
<path d="M89 824C89 836.703 99.2975 847 112 847C124.703 847 135 836.703 135 824C135 811.297 124.703 801 112 801C99.2975 801 89 811.297 89 824Z" fill="black" stroke="black" stroke-width="3"/>
<path d="M226 824.5V823.5C226 811.074 215.926 801 203.5 801C191.074 801 181 811.074 181 823.5V824.5C181 836.926 191.074 847 203.5 847C215.926 847 226 836.926 226 824.5Z" fill="black" stroke="black" stroke-width="3"/>
<path d="M272 824C272 836.703 282.297 847 295 847C307.703 847 318 836.703 318 824C318 811.297 307.703 801 295 801C282.297 801 272 811.297 272 824Z" fill="black" stroke="black" stroke-width="3"/>
<path d="M403 533H3V933H403V533Z" stroke="black" stroke-width="5"/>
<path d="M619 641C619 653.703 629.297 664 642 664C654.703 664 665 653.703 665 641C665 628.297 654.703 618 642 618C629.297 618 619 628.297 619 641Z" fill="black" stroke="black" stroke-width="3"/>
<path d="M642.5 710H641.5C629.074 710 619 720.074 619 732.5C619 744.926 629.074 755 641.5 755H642.5C654.926 755 665 744.926 665 732.5C665 720.074 654.926 710 642.5 710Z" fill="black" stroke="black" stroke-width="3"/>
<path d="M711 732.5C711 744.926 721.074 755 733.5 755C745.926 755 756 744.926 756 732.5C756 720.074 745.926 710 733.5 710C721.074 710 711 720.074 711 732.5Z" fill="black" stroke="black" stroke-width="3"/>
<path d="M825.5 710H824.5C812.074 710 802 720.074 802 732.5C802 744.926 812.074 755 824.5 755H825.5C837.926 755 848 744.926 848 732.5C848 720.074 837.926 710 825.5 710Z" fill="black" stroke="black" stroke-width="3"/>
<path d="M619 824C619 836.703 629.297 847 642 847C654.703 847 665 836.703 665 824C665 811.297 654.703 801 642 801C629.297 801 619 811.297 619 824Z" fill="black" stroke="black" stroke-width="3"/>
<path d="M756 824.5V823.5C756 811.074 745.926 801 733.5 801C721.074 801 711 811.074 711 823.5V824.5C711 836.926 721.074 847 733.5 847C745.926 847 756 836.926 756 824.5Z" fill="black" stroke="black" stroke-width="3"/>
<path d="M802 824C802 836.703 812.297 847 825 847C837.703 847 848 836.703 848 824C848 811.297 837.703 801 825 801C812.297 801 802 811.297 802 824Z" fill="black" stroke="black" stroke-width="3"/>
<path d="M933 533H533V933H933V533Z" stroke="black" stroke-width="5"/>
<path d="M1149 641C1149 653.703 1159.3 664 1172 664C1184.7 664 1195 653.703 1195 641C1195 628.297 1184.7 618 1172 618C1159.3 618 1149 628.297 1149 641Z" fill="black" stroke="black" stroke-width="3"/>
<path d="M1286 641.5V640.5C1286 628.074 1275.93 618 1263.5 618C1251.07 618 1241 628.074 1241 640.5V641.5C1241 653.926 1251.07 664 1263.5 664C1275.93 664 1286 653.926 1286 641.5Z" fill="black" stroke="black" stroke-width="3"/>
<path d="M1172.5 710H1171.5C1159.07 710 1149 720.074 1149 732.5C1149 744.926 1159.07 755 1171.5 755H1172.5C1184.93 755 1195 744.926 1195 732.5C1195 720.074 1184.93 710 1172.5 710Z" fill="black" stroke="black" stroke-width="3"/>
<path d="M1241 732.5C1241 744.926 1251.07 755 1263.5 755C1275.93 755 1286 744.926 1286 732.5C1286 720.074 1275.93 710 1263.5 710C1251.07 710 1241 720.074 1241 732.5Z" fill="black" stroke="black" stroke-width="3"/>
<path d="M1355.5 710H1354.5C1342.07 710 1332 720.074 1332 732.5C1332 744.926 1342.07 755 1354.5 755H1355.5C1367.93 755 1378 744.926 1378 732.5C1378 720.074 1367.93 710 1355.5 710Z" fill="black" stroke="black" stroke-width="3"/>
<path d="M1149 824C1149 836.703 1159.3 847 1172 847C1184.7 847 1195 836.703 1195 824C1195 811.297 1184.7 801 1172 801C1159.3 801 1149 811.297 1149 824Z" fill="black" stroke="black" stroke-width="3"/>
<path d="M1286 824.5V823.5C1286 811.074 1275.93 801 1263.5 801C1251.07 801 1241 811.074 1241 823.5V824.5C1241 836.926 1251.07 847 1263.5 847C1275.93 847 1286 836.926 1286 824.5Z" fill="black" stroke="black" stroke-width="3"/>
<path d="M1332 824C1332 836.703 1342.3 847 1355 847C1367.7 847 1378 836.703 1378 824C1378 811.297 1367.7 801 1355 801C1342.3 801 1332 811.297 1332 824Z" fill="black" stroke="black" stroke-width="3"/>
<path d="M1463 533H1063V933H1463V533Z" stroke="black" stroke-width="5"/>
<path d="M272 1171C272 1183.7 282.297 1194 295 1194C307.703 1194 318 1183.7 318 1171C318 1158.3 307.703 1148 295 1148C282.297 1148 272 1158.3 272 1171Z" fill="black" stroke="black" stroke-width="3"/>
<path d="M295.5 1240H294.5C282.074 1240 272 1250.07 272 1262.5C272 1274.93 282.074 1285 294.5 1285H295.5C307.926 1285 318 1274.93 318 1262.5C318 1250.07 307.926 1240 295.5 1240Z" fill="black" stroke="black" stroke-width="3"/>
<path d="M89 1354C89 1366.7 99.2975 1377 112 1377C124.703 1377 135 1366.7 135 1354C135 1341.3 124.703 1331 112 1331C99.2975 1331 89 1341.3 89 1354Z" fill="black" stroke="black" stroke-width="3"/>
<path d="M226 1354.5V1353.5C226 1341.07 215.926 1331 203.5 1331C191.074 1331 181 1341.07 181 1353.5V1354.5C181 1366.93 191.074 1377 203.5 1377C215.926 1377 226 1366.93 226 1354.5Z" fill="black" stroke="black" stroke-width="3"/>
<path d="M272 1354C272 1366.7 282.297 1377 295 1377C307.703 1377 318 1366.7 318 1354C318 1341.3 307.703 1331 295 1331C282.297 1331 272 1341.3 272 1354Z" fill="black" stroke="black" stroke-width="3"/>
<path d="M403 1063H3V1463H403V1063Z" stroke="black" stroke-width="5"/>
<path d="M802 1171C802 1183.7 812.297 1194 825 1194C837.703 1194 848 1183.7 848 1171C848 1158.3 837.703 1148 825 1148C812.297 1148 802 1158.3 802 1171Z" fill="black" stroke="black" stroke-width="3"/>
<path d="M711 1262.5C711 1274.93 721.074 1285 733.5 1285C745.926 1285 756 1274.93 756 1262.5C756 1250.07 745.926 1240 733.5 1240C721.074 1240 711 1250.07 711 1262.5Z" fill="black" stroke="black" stroke-width="3"/>
<path d="M825.5 1240H824.5C812.074 1240 802 1250.07 802 1262.5C802 1274.93 812.074 1285 824.5 1285H825.5C837.926 1285 848 1274.93 848 1262.5C848 1250.07 837.926 1240 825.5 1240Z" fill="black" stroke="black" stroke-width="3"/>
<path d="M619 1354C619 1366.7 629.297 1377 642 1377C654.703 1377 665 1366.7 665 1354C665 1341.3 654.703 1331 642 1331C629.297 1331 619 1341.3 619 1354Z" fill="black" stroke="black" stroke-width="3"/>
<path d="M756 1354.5V1353.5C756 1341.07 745.926 1331 733.5 1331C721.074 1331 711 1341.07 711 1353.5V1354.5C711 1366.93 721.074 1377 733.5 1377C745.926 1377 756 1366.93 756 1354.5Z" fill="black" stroke="black" stroke-width="3"/>
<path d="M802 1354C802 1366.7 812.297 1377 825 1377C837.703 1377 848 1366.7 848 1354C848 1341.3 837.703 1331 825 1331C812.297 1331 802 1341.3 802 1354Z" fill="black" stroke="black" stroke-width="3"/>
<path d="M933 1063H533V1463H933V1063Z" stroke="black" stroke-width="5"/>
<path d="M1262.5 1329V1290.1C1262.5 1271.88 1275.04 1256.05 1292.77 1251.88V1251.88C1300.73 1250.01 1307.9 1245.7 1313.29 1239.56L1313.75 1239.03C1319.75 1232.2 1323.34 1223.59 1323.96 1214.52L1324.21 1210.92C1325.34 1194.6 1318.74 1178.69 1306.39 1167.96L1304.97 1166.73C1287.76 1151.78 1263.21 1148.78 1242.9 1159.13L1238.45 1161.4C1215.6 1173.05 1203.04 1198.25 1207.5 1223.5V1223.5" stroke="black" stroke-width="30"/>
<rect x="1255.5" y="1361.5" width="15" height="15" fill="black" stroke="black" stroke-width="15"/>
</svg>
