<svg width="1460" height="1460" viewBox="0 0 1460 1460" fill="none" xmlns="http://www.w3.org/2000/svg">
<rect x="2.5" y="2.5" width="395" height="395" stroke="black" stroke-width="5"/>
<path d="M200 103.5C253.295 103.5 296.5 146.705 296.5 200C296.5 253.295 253.295 296.5 200 296.5C146.705 296.5 103.5 253.295 103.5 200C103.5 146.705 146.705 103.5 200 103.5Z" stroke="black" stroke-width="7"/>
<circle cx="200" cy="200" r="21.5" stroke="black" stroke-width="7"/>
<rect x="532.5" y="2.5" width="395" height="395" stroke="black" stroke-width="5"/>
<rect x="633.5" y="103.5" width="193" height="193" stroke="black" stroke-width="7"/>
<path d="M754.315 221.25H706.685L730.5 180L754.315 221.25Z" fill="black" stroke="black" stroke-width="5"/>
<rect x="1062.5" y="2.5" width="395" height="395" stroke="black" stroke-width="5"/>
<path d="M1385.93 301.5H1133.07L1259.5 82.9883L1385.93 301.5Z" stroke="black" stroke-width="7"/>
<rect x="1238.5" y="203.5" width="43" height="43" stroke="black" stroke-width="7"/>
<rect x="2.5" y="532.5" width="395" height="395" stroke="black" stroke-width="5"/>
<path d="M221.583 767.25H177.417L199.5 729L221.583 767.25Z" stroke="black" stroke-width="7"/>
<path d="M325.932 831.5H73.0684L199.5 612.988L325.932 831.5Z" stroke="black" stroke-width="7"/>
<rect x="532.5" y="532.5" width="395" height="395" stroke="black" stroke-width="5"/>
<circle cx="729.699" cy="730" r="96.5" stroke="black" stroke-width="7"/>
<rect x="708.5" y="708.5" width="43" height="43" stroke="black" stroke-width="7"/>
<rect x="1062.5" y="532.5" width="395" height="395" stroke="black" stroke-width="5"/>
<rect x="1163.2" y="633.5" width="193" height="193" stroke="black" stroke-width="7"/>
<circle cx="1260" cy="730" r="22.5" fill="black" stroke="black" stroke-width="5"/>
<rect x="2.5" y="1062.5" width="395" height="395" stroke="black" stroke-width="5"/>
<rect x="102.199" y="1162.5" width="195" height="195" stroke="black" stroke-width="5"/>
<rect x="177.5" y="1237.5" width="45" height="45" fill="black" stroke="black" stroke-width="5"/>
<path d="M927.5 1062.5V1457.5H532.5V1062.5H927.5Z" stroke="black" stroke-width="5"/>
<path d="M927.5 1062.5V1457.5H532.5V1062.5H927.5Z" stroke="black" stroke-width="5"/>
<circle cx="730" cy="1285" r="21.5" stroke="black" stroke-width="7"/>
<path d="M855.932 1361.5H603.068L729.5 1142.99L855.932 1361.5Z" stroke="black" stroke-width="7"/>
<path d="M1259.5 1326V1287.1C1259.5 1268.88 1272.04 1253.05 1289.77 1248.88V1248.88C1297.73 1247.01 1304.9 1242.7 1310.29 1236.56L1310.75 1236.03C1316.75 1229.2 1320.34 1220.59 1320.96 1211.52L1321.21 1207.92C1322.34 1191.6 1315.74 1175.69 1303.39 1164.96L1301.97 1163.73C1284.76 1148.78 1260.21 1145.78 1239.9 1156.13L1235.45 1158.4C1212.6 1170.05 1200.04 1195.25 1204.5 1220.5V1220.5" stroke="black" stroke-width="30"/>
<rect x="1252.5" y="1358.5" width="15" height="15" fill="black" stroke="black" stroke-width="15"/>
</svg>
