<svg width="1320" height="1320" viewBox="0 0 1320 1320" fill="none" xmlns="http://www.w3.org/2000/svg">
<rect x="2.5" y="2.5" width="395" height="395" stroke="black" stroke-width="5"/>
<path d="M200 103.5C253.295 103.5 296.5 146.705 296.5 200C296.5 253.295 253.295 296.5 200 296.5C146.705 296.5 103.5 253.295 103.5 200C103.5 146.705 146.705 103.5 200 103.5Z" stroke="black" stroke-width="7"/>
<circle cx="200" cy="200" r="21.5" stroke="black" stroke-width="7"/>
<rect x="462.5" y="2.5" width="395" height="395" stroke="black" stroke-width="5"/>
<rect x="563.5" y="103.5" width="193" height="193" stroke="black" stroke-width="7"/>
<path d="M684.315 221.25H636.685L660.5 180L684.315 221.25Z" fill="black" stroke="black" stroke-width="5"/>
<rect x="922.5" y="2.5" width="395" height="395" stroke="black" stroke-width="5"/>
<path d="M1245.93 301.5H993.068L1119.5 82.9883L1245.93 301.5Z" stroke="black" stroke-width="7"/>
<rect x="1098.5" y="203.5" width="43" height="43" stroke="black" stroke-width="7"/>
<rect x="2.5" y="462.5" width="395" height="395" stroke="black" stroke-width="5"/>
<path d="M221.583 697.25H177.417L199.5 659L221.583 697.25Z" stroke="black" stroke-width="7"/>
<path d="M325.932 761.5H73.0684L199.5 542.988L325.932 761.5Z" stroke="black" stroke-width="7"/>
<rect x="462.5" y="462.5" width="395" height="395" stroke="black" stroke-width="5"/>
<circle cx="659.699" cy="660" r="96.5" stroke="black" stroke-width="7"/>
<rect x="638.5" y="638.5" width="43" height="43" stroke="black" stroke-width="7"/>
<rect x="922.5" y="462.5" width="395" height="395" stroke="black" stroke-width="5"/>
<rect x="1023.2" y="563.5" width="193" height="193" stroke="black" stroke-width="7"/>
<circle cx="1120" cy="660" r="22.5" fill="black" stroke="black" stroke-width="5"/>
<rect x="2.5" y="922.5" width="395" height="395" stroke="black" stroke-width="5"/>
<rect x="102.199" y="1022.5" width="195" height="195" stroke="black" stroke-width="5"/>
<rect x="177.5" y="1097.5" width="45" height="45" fill="black" stroke="black" stroke-width="5"/>
<path d="M857.5 922.5V1317.5H462.5V922.5H857.5Z" stroke="black" stroke-width="5"/>
<path d="M857.5 922.5V1317.5H462.5V922.5H857.5Z" stroke="black" stroke-width="5"/>
<circle cx="660" cy="1145" r="21.5" stroke="black" stroke-width="7"/>
<path d="M785.932 1221.5H533.068L659.5 1002.99L785.932 1221.5Z" stroke="black" stroke-width="7"/>
<path d="M1119.5 1186V1147.1C1119.5 1128.88 1132.04 1113.05 1149.77 1108.88V1108.88C1157.73 1107.01 1164.9 1102.7 1170.29 1096.56L1170.75 1096.03C1176.75 1089.2 1180.34 1080.59 1180.96 1071.52L1181.21 1067.92C1182.34 1051.6 1175.74 1035.69 1163.39 1024.96L1161.97 1023.73C1144.76 1008.78 1120.21 1005.78 1099.9 1016.13L1095.45 1018.4C1072.6 1030.05 1060.04 1055.25 1064.5 1080.5V1080.5" stroke="black" stroke-width="30"/>
<rect x="1112.5" y="1218.5" width="15" height="15" fill="black" stroke="black" stroke-width="15"/>
</svg>
