<svg width="1466" height="1466" viewBox="0 0 1466 1466" fill="none" xmlns="http://www.w3.org/2000/svg">
<path d="M403 3H3V403H403V3Z" stroke="black" stroke-width="5"/>
<path d="M203 323C269.274 323 323 269.274 323 203C323 136.726 269.274 83 203 83C136.726 83 83 136.726 83 203C83 269.274 136.726 323 203 323Z" stroke="black" stroke-width="7"/>
<path d="M166 179L181 209H151L166 179Z" fill="black"/>
<path d="M218 238C226.284 238 233 231.284 233 223C233 214.716 226.284 208 218 208C209.716 208 203 214.716 203 223C203 231.284 209.716 238 218 238Z" fill="black"/>
<path d="M136 268C144.284 268 151 261.284 151 253C151 244.716 144.284 238 136 238C127.716 238 121 244.716 121 253C121 261.284 127.716 268 136 268Z" fill="black"/>
<path d="M933 3H533V403H933V3Z" stroke="black" stroke-width="5"/>
<path d="M733 323C799.274 323 853 269.274 853 203C853 136.726 799.274 83 733 83C666.726 83 613 136.726 613 203C613 269.274 666.726 323 733 323Z" stroke="black" stroke-width="7"/>
<path d="M718.045 149.13L721.879 182.451L693.689 172.191L718.045 149.13Z" fill="black"/>
<path d="M750.48 250.99L732 278.981L717 253L750.48 250.99Z" fill="black"/>
<path d="M823 113C831.284 113 838 106.284 838 98C838 89.7157 831.284 83 823 83C814.716 83 808 89.7157 808 98C808 106.284 814.716 113 823 113Z" fill="black"/>
<path d="M1463 3H1063V403H1463V3Z" stroke="black" stroke-width="5"/>
<path d="M1263 323C1329.27 323 1383 269.274 1383 203C1383 136.726 1329.27 83 1263 83C1196.73 83 1143 136.726 1143 203C1143 269.274 1196.73 323 1263 323Z" stroke="black" stroke-width="7"/>
<path d="M1183 179L1198 209H1168L1183 179Z" fill="black"/>
<path d="M1271 148L1286 178H1256L1271 148Z" fill="black"/>
<path d="M1325 194L1340 224H1310L1325 194Z" fill="black"/>
<path d="M1241 283C1249.28 283 1256 276.284 1256 268C1256 259.716 1249.28 253 1241 253C1232.72 253 1226 259.716 1226 268C1226 276.284 1232.72 283 1241 283Z" fill="black"/>
<path d="M403 533H3V933H403V533Z" stroke="black" stroke-width="5"/>
<path d="M203 853C269.274 853 323 799.274 323 733C323 666.726 269.274 613 203 613C136.726 613 83 666.726 83 733C83 799.274 136.726 853 203 853Z" stroke="black" stroke-width="7"/>
<path d="M156 702L141 672L171 672L156 702Z" fill="black"/>
<path d="M205 721L220 751H190L205 721Z" fill="black"/>
<path d="M258 788L243 758L273 758L258 788Z" fill="black"/>
<path d="M243 702C251.284 702 258 695.284 258 687C258 678.716 251.284 672 243 672C234.716 672 228 678.716 228 687C228 695.284 234.716 702 243 702Z" fill="black"/>
<path d="M156 803C164.284 803 171 796.284 171 788C171 779.716 164.284 773 156 773C147.716 773 141 779.716 141 788C141 796.284 147.716 803 156 803Z" fill="black"/>
<path d="M933 533H533V933H933V533Z" stroke="black" stroke-width="5"/>
<path d="M733 853C799.274 853 853 799.274 853 733C853 666.726 799.274 613 733 613C666.726 613 613 666.726 613 733C613 799.274 666.726 853 733 853Z" stroke="black" stroke-width="7"/>
<path d="M619.548 778.563L598.892 804.989L586.014 777.893L619.548 778.563Z" fill="black"/>
<path d="M809.555 827.351L840.099 841.211L816.793 860.102L809.555 827.351Z" fill="black"/>
<path d="M713 748C721.284 748 728 741.284 728 733C728 724.716 721.284 718 713 718C704.716 718 698 724.716 698 733C698 741.284 704.716 748 713 748Z" fill="black"/>
<path d="M1463 533H1063V933H1463V533Z" stroke="black" stroke-width="5"/>
<path d="M1263 853C1329.27 853 1383 799.274 1383 733C1383 666.726 1329.27 613 1263 613C1196.73 613 1143 666.726 1143 733C1143 799.274 1196.73 853 1263 853Z" stroke="black" stroke-width="7"/>
<path d="M1220 674L1235 704H1205L1220 674Z" fill="black"/>
<path d="M1240 827C1248.28 827 1255 820.284 1255 812C1255 803.716 1248.28 797 1240 797C1231.72 797 1225 803.716 1225 812C1225 820.284 1231.72 827 1240 827Z" fill="black"/>
<path d="M1343 768C1351.28 768 1358 761.284 1358 753C1358 744.716 1351.28 738 1343 738C1334.72 738 1328 744.716 1328 753C1328 761.284 1334.72 768 1343 768Z" fill="black"/>
<path d="M1278 697C1286.28 697 1293 690.284 1293 682C1293 673.716 1286.28 667 1278 667C1269.72 667 1263 673.716 1263 682C1263 690.284 1269.72 697 1278 697Z" fill="black"/>
<path d="M403 1063H3V1463H403V1063Z" stroke="black" stroke-width="5"/>
<path d="M203 1383C269.274 1383 323 1329.27 323 1263C323 1196.73 269.274 1143 203 1143C136.726 1143 83 1196.73 83 1263C83 1329.27 136.726 1383 203 1383Z" stroke="black" stroke-width="7"/>
<path d="M176 1205L191 1235H161L176 1205Z" fill="black"/>
<path d="M243 1308C251.284 1308 258 1301.28 258 1293C258 1284.72 251.284 1278 243 1278C234.716 1278 228 1284.72 228 1293C228 1301.28 234.716 1308 243 1308Z" fill="black"/>
<path d="M933 1063H533V1463H933V1063Z" stroke="black" stroke-width="5"/>
<path d="M733 1383C799.274 1383 853 1329.27 853 1263C853 1196.73 799.274 1143 733 1143C666.726 1143 613 1196.73 613 1263C613 1329.27 666.726 1383 733 1383Z" stroke="black" stroke-width="7"/>
<path d="M830.112 1335.85L863.036 1342.26L844.741 1366.04L830.112 1335.85Z" fill="black"/>
<path d="M671 1402C679.284 1402 686 1395.28 686 1387C686 1378.72 679.284 1372 671 1372C662.716 1372 656 1378.72 656 1387C656 1395.28 662.716 1402 671 1402Z" fill="black"/>
<path d="M1262.5 1329V1290.1C1262.5 1271.88 1275.04 1256.05 1292.77 1251.88V1251.88C1300.73 1250.01 1307.9 1245.7 1313.29 1239.56L1313.75 1239.03C1319.75 1232.2 1323.34 1223.59 1323.96 1214.52L1324.21 1210.92C1325.34 1194.6 1318.74 1178.69 1306.39 1167.96L1304.97 1166.73C1287.76 1151.78 1263.21 1148.78 1242.9 1159.13L1238.45 1161.4C1215.6 1173.05 1203.04 1198.25 1207.5 1223.5V1223.5" stroke="black" stroke-width="30"/>
<rect x="1255.5" y="1361.5" width="15" height="15" fill="black" stroke="black" stroke-width="15"/>
</svg>
