<svg width="1326" height="1326" viewBox="0 0 1326 1326" fill="none" xmlns="http://www.w3.org/2000/svg">
<path d="M403 3H3V403H403V3Z" stroke="black" stroke-width="5"/>
<path d="M203 323C269.274 323 323 269.274 323 203C323 136.726 269.274 83 203 83C136.726 83 83 136.726 83 203C83 269.274 136.726 323 203 323Z" stroke="black" stroke-width="7"/>
<path d="M166 179L181 209H151L166 179Z" fill="black"/>
<path d="M218 238C226.284 238 233 231.284 233 223C233 214.716 226.284 208 218 208C209.716 208 203 214.716 203 223C203 231.284 209.716 238 218 238Z" fill="black"/>
<path d="M136 268C144.284 268 151 261.284 151 253C151 244.716 144.284 238 136 238C127.716 238 121 244.716 121 253C121 261.284 127.716 268 136 268Z" fill="black"/>
<path d="M863 3H463V403H863V3Z" stroke="black" stroke-width="5"/>
<path d="M663 323C729.274 323 783 269.274 783 203C783 136.726 729.274 83 663 83C596.726 83 543 136.726 543 203C543 269.274 596.726 323 663 323Z" stroke="black" stroke-width="7"/>
<path d="M648.045 149.13L651.879 182.451L623.689 172.191L648.045 149.13Z" fill="black"/>
<path d="M680.48 250.99L662 278.981L647 253L680.48 250.99Z" fill="black"/>
<path d="M753 113C761.284 113 768 106.284 768 98C768 89.7157 761.284 83 753 83C744.716 83 738 89.7157 738 98C738 106.284 744.716 113 753 113Z" fill="black"/>
<path d="M1323 3H923V403H1323V3Z" stroke="black" stroke-width="5"/>
<path d="M1123 323C1189.27 323 1243 269.274 1243 203C1243 136.726 1189.27 83 1123 83C1056.73 83 1003 136.726 1003 203C1003 269.274 1056.73 323 1123 323Z" stroke="black" stroke-width="7"/>
<path d="M1043 179L1058 209H1028L1043 179Z" fill="black"/>
<path d="M1131 148L1146 178H1116L1131 148Z" fill="black"/>
<path d="M1185 194L1200 224H1170L1185 194Z" fill="black"/>
<path d="M1101 283C1109.28 283 1116 276.284 1116 268C1116 259.716 1109.28 253 1101 253C1092.72 253 1086 259.716 1086 268C1086 276.284 1092.72 283 1101 283Z" fill="black"/>
<path d="M403 463H3V863H403V463Z" stroke="black" stroke-width="5"/>
<path d="M203 783C269.274 783 323 729.274 323 663C323 596.726 269.274 543 203 543C136.726 543 83 596.726 83 663C83 729.274 136.726 783 203 783Z" stroke="black" stroke-width="7"/>
<path d="M156 632L141 602L171 602L156 632Z" fill="black"/>
<path d="M205 651L220 681H190L205 651Z" fill="black"/>
<path d="M258 718L243 688L273 688L258 718Z" fill="black"/>
<path d="M243 632C251.284 632 258 625.284 258 617C258 608.716 251.284 602 243 602C234.716 602 228 608.716 228 617C228 625.284 234.716 632 243 632Z" fill="black"/>
<path d="M156 733C164.284 733 171 726.284 171 718C171 709.716 164.284 703 156 703C147.716 703 141 709.716 141 718C141 726.284 147.716 733 156 733Z" fill="black"/>
<path d="M863 463H463V863H863V463Z" stroke="black" stroke-width="5"/>
<path d="M663 783C729.274 783 783 729.274 783 663C783 596.726 729.274 543 663 543C596.726 543 543 596.726 543 663C543 729.274 596.726 783 663 783Z" stroke="black" stroke-width="7"/>
<path d="M549.548 708.563L528.892 734.989L516.014 707.893L549.548 708.563Z" fill="black"/>
<path d="M739.555 757.351L770.099 771.211L746.793 790.102L739.555 757.351Z" fill="black"/>
<path d="M643 678C651.284 678 658 671.284 658 663C658 654.716 651.284 648 643 648C634.716 648 628 654.716 628 663C628 671.284 634.716 678 643 678Z" fill="black"/>
<path d="M1323 463H923V863H1323V463Z" stroke="black" stroke-width="5"/>
<path d="M1123 783C1189.27 783 1243 729.274 1243 663C1243 596.726 1189.27 543 1123 543C1056.73 543 1003 596.726 1003 663C1003 729.274 1056.73 783 1123 783Z" stroke="black" stroke-width="7"/>
<path d="M1080 604L1095 634H1065L1080 604Z" fill="black"/>
<path d="M1100 757C1108.28 757 1115 750.284 1115 742C1115 733.716 1108.28 727 1100 727C1091.72 727 1085 733.716 1085 742C1085 750.284 1091.72 757 1100 757Z" fill="black"/>
<path d="M1203 698C1211.28 698 1218 691.284 1218 683C1218 674.716 1211.28 668 1203 668C1194.72 668 1188 674.716 1188 683C1188 691.284 1194.72 698 1203 698Z" fill="black"/>
<path d="M1138 627C1146.28 627 1153 620.284 1153 612C1153 603.716 1146.28 597 1138 597C1129.72 597 1123 603.716 1123 612C1123 620.284 1129.72 627 1138 627Z" fill="black"/>
<path d="M403 923H3V1323H403V923Z" stroke="black" stroke-width="5"/>
<path d="M203 1243C269.274 1243 323 1189.27 323 1123C323 1056.73 269.274 1003 203 1003C136.726 1003 83 1056.73 83 1123C83 1189.27 136.726 1243 203 1243Z" stroke="black" stroke-width="7"/>
<path d="M176 1065L191 1095H161L176 1065Z" fill="black"/>
<path d="M243 1168C251.284 1168 258 1161.28 258 1153C258 1144.72 251.284 1138 243 1138C234.716 1138 228 1144.72 228 1153C228 1161.28 234.716 1168 243 1168Z" fill="black"/>
<path d="M863 923H463V1323H863V923Z" stroke="black" stroke-width="5"/>
<path d="M663 1243C729.274 1243 783 1189.27 783 1123C783 1056.73 729.274 1003 663 1003C596.726 1003 543 1056.73 543 1123C543 1189.27 596.726 1243 663 1243Z" stroke="black" stroke-width="7"/>
<path d="M760.112 1195.85L793.036 1202.26L774.741 1226.04L760.112 1195.85Z" fill="black"/>
<path d="M601 1262C609.284 1262 616 1255.28 616 1247C616 1238.72 609.284 1232 601 1232C592.716 1232 586 1238.72 586 1247C586 1255.28 592.716 1262 601 1262Z" fill="black"/>
<path d="M1122.5 1189V1150.1C1122.5 1131.88 1135.04 1116.05 1152.77 1111.88V1111.88C1160.73 1110.01 1167.9 1105.7 1173.29 1099.56L1173.75 1099.03C1179.75 1092.2 1183.34 1083.59 1183.96 1074.52L1184.21 1070.92C1185.34 1054.6 1178.74 1038.69 1166.39 1027.96L1164.97 1026.73C1147.76 1011.78 1123.21 1008.78 1102.9 1019.13L1098.45 1021.4C1075.6 1033.05 1063.04 1058.25 1067.5 1083.5V1083.5" stroke="black" stroke-width="30"/>
<rect x="1115.5" y="1221.5" width="15" height="15" fill="black" stroke="black" stroke-width="15"/>
</svg>
