<svg width="1320" height="1320" viewBox="0 0 1320 1320" fill="none" xmlns="http://www.w3.org/2000/svg">
<rect x="2.5" y="2.5" width="395" height="395" stroke="black" stroke-width="5"/>
<path d="M203.5 196.5V78.5518C267.821 80.3713 319.629 132.179 321.448 196.5L203.5 196.5Z" fill="#0170C3" stroke="black" stroke-width="7"/>
<circle cx="200" cy="200" r="121.5" stroke="black" stroke-width="7"/>
<circle cx="50" cy="50" r="46.5" transform="matrix(-1 0 0 1 250 150)" fill="#0170C3" stroke="black" stroke-width="7"/>
<rect x="462.5" y="2.5" width="395" height="395" stroke="black" stroke-width="5"/>
<path d="M663.5 203.5L781.448 203.5C779.629 267.821 727.821 319.629 663.5 321.448L663.5 203.5Z" fill="#0170C3" stroke="black" stroke-width="7"/>
<circle cx="660" cy="200" r="121.5" stroke="black" stroke-width="7"/>
<circle cx="50" cy="50" r="46.5" transform="matrix(-1 0 0 1 710 150)" fill="white" stroke="black" stroke-width="7"/>
<rect x="922.5" y="2.5" width="395" height="395" stroke="black" stroke-width="5"/>
<circle cx="1120" cy="200" r="121.5" stroke="black" stroke-width="7"/>
<path d="M1122.5 78.5508C1187.98 80.4032 1240.5 134.068 1240.5 200C1240.5 265.932 1187.98 319.596 1122.5 321.448V78.5508Z" fill="#0170C3" stroke="black" stroke-width="7"/>
<circle cx="50" cy="50" r="47.5" transform="matrix(-1 0 0 1 1170 150)" fill="white" stroke="black" stroke-width="5"/>
<line x1="1085.99" y1="232.438" x2="1151.99" y2="167.438" stroke="#0170C3" stroke-width="10"/>
<line x1="1088.04" y1="166.464" x2="1154.04" y2="232.464" stroke="#0170C3" stroke-width="10"/>
<circle cx="50" cy="50" r="46.5" transform="matrix(-1 0 0 1 1170 150)" stroke="black" stroke-width="7"/>
<rect x="2.5" y="462.5" width="395" height="395" stroke="black" stroke-width="5"/>
<path d="M203.5 656.5V538.552C267.821 540.371 319.629 592.179 321.448 656.5H203.5Z" fill="#0170C3" stroke="black" stroke-width="7"/>
<circle cx="200" cy="660" r="121.5" stroke="black" stroke-width="7"/>
<circle cx="50" cy="50" r="47.5" transform="matrix(-1 0 0 1 250 610)" fill="white" stroke="black" stroke-width="5"/>
<line x1="167.492" y1="693.438" x2="233.492" y2="628.438" stroke="#0170C3" stroke-width="10"/>
<line x1="166.536" y1="625.464" x2="233.536" y2="692.464" stroke="#0170C3" stroke-width="10"/>
<circle cx="50" cy="50" r="46.5" transform="matrix(-1 0 0 1 250 610)" stroke="black" stroke-width="7"/>
<rect x="462.5" y="462.5" width="395" height="395" stroke="black" stroke-width="5"/>
<path d="M656.5 663.5L656.5 781.448C592.179 779.629 540.371 727.821 538.552 663.5L656.5 663.5Z" fill="#0170C3" stroke="black" stroke-width="7"/>
<circle cx="660" cy="660" r="121.5" stroke="black" stroke-width="7"/>
<circle cx="50" cy="50" r="46.5" transform="matrix(-1 0 0 1 710 610)" fill="#0170C3" stroke="black" stroke-width="7"/>
<rect x="922.5" y="462.5" width="395" height="395" stroke="black" stroke-width="5"/>
<path d="M1116.5 663.5L1116.5 781.448C1052.18 779.629 1000.37 727.821 998.552 663.5L1116.5 663.5Z" fill="#0170C3" stroke="black" stroke-width="7"/>
<path d="M1122.5 656.5L1122.5 538.552C1186.82 540.371 1238.63 592.179 1240.45 656.5L1122.5 656.5Z" fill="#0170C3" stroke="black" stroke-width="7"/>
<circle cx="1120" cy="660" r="121.5" stroke="black" stroke-width="7"/>
<circle cx="50" cy="50" r="46.5" transform="matrix(-1 0 0 1 1170 610)" fill="white" stroke="black" stroke-width="7"/>
<path d="M196.5 998.551C131.016 1000.4 78.5 1054.07 78.5 1120C78.5 1185.93 131.016 1239.6 196.5 1241.45V998.551Z" fill="#0170C3" stroke="black" stroke-width="7"/>
<rect x="2.5" y="922.5" width="395" height="395" stroke="black" stroke-width="5"/>
<circle cx="200" cy="1120" r="121.5" stroke="black" stroke-width="7"/>
<circle cx="50" cy="50" r="46.5" transform="matrix(-1 0 0 1 250 1070)" fill="white" stroke="black" stroke-width="7"/>
<path d="M662.5 998.551C727.984 1000.4 780.5 1054.07 780.5 1120C780.5 1185.93 727.984 1239.6 662.5 1241.45V998.551Z" fill="#0170C3" stroke="black" stroke-width="7"/>
<rect x="462.5" y="922.5" width="395" height="395" stroke="black" stroke-width="5"/>
<circle cx="660" cy="1120" r="121.5" stroke="black" stroke-width="7"/>
<circle cx="50" cy="50" r="46.5" transform="matrix(-1 0 0 1 710 1070)" fill="white" stroke="black" stroke-width="7"/>
<line x1="625.816" y1="1154.44" x2="694.491" y2="1086.8" stroke="#0170C3" stroke-width="10"/>
<line x1="624.536" y1="1086.83" x2="692.171" y2="1154.47" stroke="#0170C3" stroke-width="10"/>
<circle cx="50" cy="50" r="46.5" transform="matrix(-1 0 0 1 710 1070)" stroke="black" stroke-width="7"/>
<path d="M1119.5 1186V1147.1C1119.5 1128.88 1132.04 1113.05 1149.77 1108.88V1108.88C1157.73 1107.01 1164.9 1102.7 1170.29 1096.56L1170.75 1096.03C1176.75 1089.2 1180.34 1080.59 1180.96 1071.52L1181.21 1067.92C1182.34 1051.6 1175.74 1035.69 1163.39 1024.96L1161.97 1023.73C1144.76 1008.78 1120.21 1005.78 1099.9 1016.13L1095.45 1018.4C1072.6 1030.05 1060.04 1055.25 1064.5 1080.5V1080.5" stroke="black" stroke-width="30"/>
<rect x="1112.5" y="1218.5" width="15" height="15" fill="black" stroke="black" stroke-width="15"/>
</svg>
