<svg width="1326" height="1326" viewBox="0 0 1326 1326" fill="none" xmlns="http://www.w3.org/2000/svg">
<path d="M403 3H3V403H403V3Z" stroke="black" stroke-width="5"/>
<path d="M203 69L203 337" stroke="black" stroke-width="10"/>
<circle cx="251" cy="94" r="22.5" stroke="black" stroke-width="5"/>
<path d="M155 292L160.613 309.275H178.776L164.082 319.951L169.695 337.225L155 326.549L140.305 337.225L145.918 319.951L131.224 309.275H149.387L155 292Z" fill="black"/>
<path d="M863 3H463V403H863V3Z" stroke="black" stroke-width="5"/>
<path d="M663 69V337" stroke="black" stroke-width="10"/>
<circle cx="711" cy="94" r="22.5" stroke="black" stroke-width="5"/>
<circle cx="615" cy="312" r="22.5" stroke="black" stroke-width="5"/>
<path d="M615 69L620.613 86.2746H638.776L624.082 96.9508L629.695 114.225L615 103.549L600.305 114.225L605.918 96.9508L591.224 86.2746H609.387L615 69Z" fill="black"/>
<path d="M711 292L716.613 309.275H734.776L720.082 319.951L725.695 337.225L711 326.549L696.305 337.225L701.918 319.951L687.224 309.275H705.387L711 292Z" fill="black"/>
<path d="M1323 3H923V403H1323V3Z" stroke="black" stroke-width="5"/>
<path d="M1123 69V337" stroke="black" stroke-width="10"/>
<path d="M1075 69L1080.61 86.2746H1098.78L1084.08 96.9508L1089.69 114.225L1075 103.549L1060.31 114.225L1065.92 96.9508L1051.22 86.2746H1069.39L1075 69Z" fill="black"/>
<path d="M1171 294L1176.61 311.275H1194.78L1180.08 321.951L1185.69 339.225L1171 328.549L1156.31 339.225L1161.92 321.951L1147.22 311.275H1165.39L1171 294Z" fill="black"/>
<path d="M1171 69L1176.61 86.2746H1194.78L1180.08 96.9508L1185.69 114.225L1171 103.549L1156.31 114.225L1161.92 96.9508L1147.22 86.2746H1165.39L1171 69Z" fill="black"/>
<path d="M1075 294L1080.61 311.275H1098.78L1084.08 321.951L1089.69 339.225L1075 328.549L1060.31 339.225L1065.92 321.951L1051.22 311.275H1069.39L1075 294Z" fill="black"/>
<path d="M155 529L160.613 546.275H178.776L164.082 556.951L169.695 574.225L155 563.549L140.305 574.225L145.918 556.951L131.224 546.275H149.387L155 529Z" fill="black"/>
<path d="M403 463H3V863H403V463Z" stroke="black" stroke-width="5"/>
<path d="M203 529L203 797" stroke="black" stroke-width="10"/>
<circle cx="155" cy="554" r="22.5" stroke="black" stroke-width="5"/>
<circle cx="155" cy="775" r="22.5" stroke="black" stroke-width="5"/>
<path d="M251 754L256.613 771.275H274.776L260.082 781.951L265.695 799.225L251 788.549L236.305 799.225L241.918 781.951L227.224 771.275H245.387L251 754Z" fill="black"/>
<path d="M863 463H463V863H863V463Z" stroke="black" stroke-width="5"/>
<path d="M663 529V797" stroke="black" stroke-width="10"/>
<path d="M615 534L620.613 551.275H638.776L624.082 561.951L629.695 579.225L615 568.549L600.305 579.225L605.918 561.951L591.224 551.275H609.387L615 534Z" fill="black"/>
<path d="M711 754L716.613 771.275H734.776L720.082 781.951L725.695 799.225L711 788.549L696.305 799.225L701.918 781.951L687.224 771.275H705.387L711 754Z" fill="black"/>
<path d="M615 754L620.613 771.275H638.776L624.082 781.951L629.695 799.225L615 788.549L600.305 799.225L605.918 781.951L591.224 771.275H609.387L615 754Z" fill="black"/>
<path d="M1323 463H923V863H1323V463Z" stroke="black" stroke-width="5"/>
<path d="M1123 529V797" stroke="black" stroke-width="10"/>
<circle cx="1075" cy="554" r="22.5" stroke="black" stroke-width="5"/>
<path d="M1075 754L1080.61 771.275H1098.78L1084.08 781.951L1089.69 799.225L1075 788.549L1060.31 799.225L1065.92 781.951L1051.22 771.275H1069.39L1075 754Z" fill="black"/>
<path d="M403 923H3V1323H403V923Z" stroke="black" stroke-width="5"/>
<path d="M203 989L203 1257" stroke="black" stroke-width="10"/>
<path d="M155 989L160.613 1006.27H178.776L164.082 1016.95L169.695 1034.23L155 1023.55L140.305 1034.23L145.918 1016.95L131.224 1006.27H149.387L155 989Z" fill="black"/>
<path d="M251 1214L256.613 1231.27H274.776L260.082 1241.95L265.695 1259.23L251 1248.55L236.305 1259.23L241.918 1241.95L227.224 1231.27H245.387L251 1214Z" fill="black"/>
<path d="M463 923H863V1323H463V923Z" stroke="black" stroke-width="5"/>
<path d="M663 989V1257" stroke="black" stroke-width="10"/>
<circle cx="25" cy="25" r="22.5" transform="matrix(-1 0 0 1 640 989)" stroke="black" stroke-width="5"/>
<path d="M711 1214L705.387 1231.27H687.224L701.918 1241.95L696.305 1259.23L711 1248.55L725.695 1259.23L720.082 1241.95L734.776 1231.27H716.613L711 1214Z" fill="black"/>
<path d="M1122.5 1189V1150.1C1122.5 1131.88 1135.04 1116.05 1152.77 1111.88V1111.88C1160.73 1110.01 1167.9 1105.7 1173.29 1099.56L1173.75 1099.03C1179.75 1092.2 1183.34 1083.59 1183.96 1074.52L1184.21 1070.92C1185.34 1054.6 1178.74 1038.69 1166.39 1027.96L1164.97 1026.73C1147.76 1011.78 1123.21 1008.78 1102.9 1019.13L1098.45 1021.4C1075.6 1033.05 1063.04 1058.25 1067.5 1083.5V1083.5" stroke="black" stroke-width="30"/>
<rect x="1115.5" y="1221.5" width="15" height="15" fill="black" stroke="black" stroke-width="15"/>
</svg>
