<svg width="1466" height="1466" viewBox="0 0 1466 1466" fill="none" xmlns="http://www.w3.org/2000/svg">
<path d="M403 3H3V403H403V3Z" stroke="black" stroke-width="5"/>
<path d="M203 69L203 337" stroke="black" stroke-width="10"/>
<circle cx="251" cy="94" r="22.5" stroke="black" stroke-width="5"/>
<path d="M155 292L160.613 309.275H178.776L164.082 319.951L169.695 337.225L155 326.549L140.305 337.225L145.918 319.951L131.224 309.275H149.387L155 292Z" fill="black"/>
<path d="M933 3H533V403H933V3Z" stroke="black" stroke-width="5"/>
<path d="M733 69V337" stroke="black" stroke-width="10"/>
<circle cx="781" cy="94" r="22.5" stroke="black" stroke-width="5"/>
<circle cx="685" cy="312" r="22.5" stroke="black" stroke-width="5"/>
<path d="M685 69L690.613 86.2746H708.776L694.082 96.9508L699.695 114.225L685 103.549L670.305 114.225L675.918 96.9508L661.224 86.2746H679.387L685 69Z" fill="black"/>
<path d="M781 292L786.613 309.275H804.776L790.082 319.951L795.695 337.225L781 326.549L766.305 337.225L771.918 319.951L757.224 309.275H775.387L781 292Z" fill="black"/>
<path d="M1463 3H1063V403H1463V3Z" stroke="black" stroke-width="5"/>
<path d="M1263 69V337" stroke="black" stroke-width="10"/>
<path d="M1215 69L1220.61 86.2746H1238.78L1224.08 96.9508L1229.69 114.225L1215 103.549L1200.31 114.225L1205.92 96.9508L1191.22 86.2746H1209.39L1215 69Z" fill="black"/>
<path d="M1311 294L1316.61 311.275H1334.78L1320.08 321.951L1325.69 339.225L1311 328.549L1296.31 339.225L1301.92 321.951L1287.22 311.275H1305.39L1311 294Z" fill="black"/>
<path d="M1311 69L1316.61 86.2746H1334.78L1320.08 96.9508L1325.69 114.225L1311 103.549L1296.31 114.225L1301.92 96.9508L1287.22 86.2746H1305.39L1311 69Z" fill="black"/>
<path d="M1215 294L1220.61 311.275H1238.78L1224.08 321.951L1229.69 339.225L1215 328.549L1200.31 339.225L1205.92 321.951L1191.22 311.275H1209.39L1215 294Z" fill="black"/>
<path d="M155 599L160.613 616.275H178.776L164.082 626.951L169.695 644.225L155 633.549L140.305 644.225L145.918 626.951L131.224 616.275H149.387L155 599Z" fill="black"/>
<path d="M403 533H3V933H403V533Z" stroke="black" stroke-width="5"/>
<path d="M203 599L203 867" stroke="black" stroke-width="10"/>
<circle cx="155" cy="624" r="22.5" stroke="black" stroke-width="5"/>
<circle cx="155" cy="845" r="22.5" stroke="black" stroke-width="5"/>
<path d="M251 824L256.613 841.275H274.776L260.082 851.951L265.695 869.225L251 858.549L236.305 869.225L241.918 851.951L227.224 841.275H245.387L251 824Z" fill="black"/>
<path d="M933 533H533V933H933V533Z" stroke="black" stroke-width="5"/>
<path d="M733 599V867" stroke="black" stroke-width="10"/>
<path d="M685 604L690.613 621.275H708.776L694.082 631.951L699.695 649.225L685 638.549L670.305 649.225L675.918 631.951L661.224 621.275H679.387L685 604Z" fill="black"/>
<path d="M781 824L786.613 841.275H804.776L790.082 851.951L795.695 869.225L781 858.549L766.305 869.225L771.918 851.951L757.224 841.275H775.387L781 824Z" fill="black"/>
<path d="M685 824L690.613 841.275H708.776L694.082 851.951L699.695 869.225L685 858.549L670.305 869.225L675.918 851.951L661.224 841.275H679.387L685 824Z" fill="black"/>
<path d="M1463 533H1063V933H1463V533Z" stroke="black" stroke-width="5"/>
<path d="M1263 599V867" stroke="black" stroke-width="10"/>
<circle cx="1215" cy="624" r="22.5" stroke="black" stroke-width="5"/>
<path d="M1215 824L1220.61 841.275H1238.78L1224.08 851.951L1229.69 869.225L1215 858.549L1200.31 869.225L1205.92 851.951L1191.22 841.275H1209.39L1215 824Z" fill="black"/>
<path d="M403 1063H3V1463H403V1063Z" stroke="black" stroke-width="5"/>
<path d="M203 1129L203 1397" stroke="black" stroke-width="10"/>
<path d="M155 1129L160.613 1146.27H178.776L164.082 1156.95L169.695 1174.23L155 1163.55L140.305 1174.23L145.918 1156.95L131.224 1146.27H149.387L155 1129Z" fill="black"/>
<path d="M251 1354L256.613 1371.27H274.776L260.082 1381.95L265.695 1399.23L251 1388.55L236.305 1399.23L241.918 1381.95L227.224 1371.27H245.387L251 1354Z" fill="black"/>
<path d="M533 1063H933V1463H533V1063Z" stroke="black" stroke-width="5"/>
<path d="M733 1129V1397" stroke="black" stroke-width="10"/>
<circle cx="25" cy="25" r="22.5" transform="matrix(-1 0 0 1 710 1129)" stroke="black" stroke-width="5"/>
<path d="M781 1354L775.387 1371.27H757.224L771.918 1381.95L766.305 1399.23L781 1388.55L795.695 1399.23L790.082 1381.95L804.776 1371.27H786.613L781 1354Z" fill="black"/>
<path d="M1262.5 1329V1290.1C1262.5 1271.88 1275.04 1256.05 1292.77 1251.88V1251.88C1300.73 1250.01 1307.9 1245.7 1313.29 1239.56L1313.75 1239.03C1319.75 1232.2 1323.34 1223.59 1323.96 1214.52L1324.21 1210.92C1325.34 1194.6 1318.74 1178.69 1306.39 1167.96L1304.97 1166.73C1287.76 1151.78 1263.21 1148.78 1242.9 1159.13L1238.45 1161.4C1215.6 1173.05 1203.04 1198.25 1207.5 1223.5V1223.5" stroke="black" stroke-width="30"/>
<rect x="1255.5" y="1361.5" width="15" height="15" fill="black" stroke="black" stroke-width="15"/>
</svg>
