<svg width="1320" height="1320" viewBox="0 0 1320 1320" fill="none" xmlns="http://www.w3.org/2000/svg">
<path d="M397.5 2.5V397.5H2.5V2.5H397.5Z" stroke="black" stroke-width="5"/>
<path d="M113 287V112L288 287V112" stroke="black" stroke-width="7"/>
<path d="M857.5 2.5V397.5H462.5V2.5H857.5Z" stroke="black" stroke-width="5"/>
<path d="M573 112L748 112L573 287L748 287" stroke="black" stroke-width="7"/>
<path d="M1317.5 2.5V397.5H922.5V2.5H1317.5Z" stroke="black" stroke-width="5"/>
<path d="M1032 287L1032 112L1207 112L1207 287L1032 287ZM1039 123.949L1039 275.051L1114.55 199.5L1039 123.949ZM1043.95 119L1119.5 194.551L1195.05 119L1043.95 119ZM1119.5 204.449L1043.95 280L1195.05 280L1119.5 204.449ZM1124.45 199.5L1200 275.051L1200 123.949L1124.45 199.5Z" fill="black"/>
<path d="M397.5 462.5V857.5H2.5V462.5H397.5Z" stroke="black" stroke-width="5"/>
<path d="M113 572V747H288V572" stroke="black" stroke-width="7"/>
<path d="M857.5 462.5V857.5H462.5V462.5H857.5Z" stroke="black" stroke-width="5"/>
<path d="M660 573V747" stroke="black" stroke-width="7"/>
<path d="M748 747V572H573V747" stroke="black" stroke-width="7"/>
<path d="M1317.5 462.5V857.5H922.5V462.5H1317.5Z" stroke="black" stroke-width="5"/>
<path d="M1120 573V747" stroke="black" stroke-width="7"/>
<path d="M1031 747H1206" stroke="black" stroke-width="7"/>
<path d="M1208 572H1033" stroke="black" stroke-width="7"/>
<path d="M397.5 922.5V1317.5H2.5V922.5H397.5Z" stroke="black" stroke-width="5"/>
<path d="M113 1032L200.5 1207L288 1032" stroke="black" stroke-width="7"/>
<path d="M857.5 922.5V1317.5H462.5V922.5H857.5Z" stroke="black" stroke-width="5"/>
<path d="M748 1207V1032L660.5 1207L573 1032V1207" stroke="black" stroke-width="7"/>
<path d="M1119.5 1186V1147.1C1119.5 1128.88 1132.04 1113.05 1149.77 1108.88V1108.88C1157.73 1107.01 1164.9 1102.7 1170.29 1096.56L1170.75 1096.03C1176.75 1089.2 1180.34 1080.59 1180.96 1071.52L1181.21 1067.92C1182.34 1051.6 1175.74 1035.69 1163.39 1024.96L1161.97 1023.73C1144.76 1008.78 1120.21 1005.78 1099.9 1016.13L1095.45 1018.4C1072.6 1030.05 1060.04 1055.25 1064.5 1080.5V1080.5" stroke="black" stroke-width="30"/>
<rect x="1112.5" y="1218.5" width="15" height="15" fill="black" stroke="black" stroke-width="15"/>
</svg>
