<svg width="1460" height="1461" viewBox="0 0 1460 1461" fill="none" xmlns="http://www.w3.org/2000/svg">
<rect x="2.5" y="2.5" width="395" height="395" stroke="black" stroke-width="5"/>
<path d="M343.5 198.744V198.744C309.479 150.842 239.017 148.961 202.488 194.979L199.5 198.744L198.632 199.923C163.104 248.23 90.7239 247.631 56 198.744V198.744" stroke="black" stroke-width="7"/>
<rect x="532.5" y="2.5" width="395" height="395" stroke="black" stroke-width="5"/>
<path d="M700.744 56V56C652.842 90.0212 650.961 160.483 696.979 197.012L700.744 200L701.923 200.868C750.23 236.396 749.631 308.776 700.744 343.5V343.5" stroke="black" stroke-width="7"/>
<path d="M756.744 56V56C708.842 90.0212 706.961 160.483 752.979 197.012L756.744 200L757.923 200.868C806.23 236.396 805.631 308.776 756.744 343.5V343.5" stroke="black" stroke-width="7"/>
<rect x="1062.5" y="2.75" width="395" height="395" stroke="black" stroke-width="5"/>
<path d="M1124.81 140.343V140.343C1115.41 195.794 1161.83 244.76 1217.7 238.337L1222.27 237.812L1223.66 237.6C1280.4 228.951 1328.99 278.348 1319.4 334.942V334.942" stroke="black" stroke-width="7"/>
<path d="M1161.21 103.999V103.999C1151.82 159.45 1198.24 208.416 1254.11 201.993L1258.68 201.468L1260.07 201.256C1316.81 192.607 1365.4 242.004 1355.81 298.598V298.598" stroke="black" stroke-width="7"/>
<path d="M1198.22 66.9288V66.9288C1188.82 122.38 1235.24 171.346 1291.12 164.923L1295.69 164.397L1297.07 164.186C1353.82 155.537 1402.41 204.934 1392.82 261.528V261.528" stroke="black" stroke-width="7"/>
<rect x="2.5" y="532.75" width="395" height="395" stroke="black" stroke-width="5"/>
<path d="M201.256 876.75V876.75C249.158 842.729 251.039 772.267 205.021 735.738L201.256 732.75L200.077 731.882C151.77 696.354 152.369 623.974 201.256 589.25V589.25" stroke="black" stroke-width="7"/>
<path d="M257.256 876.75V876.75C305.158 842.729 307.039 772.267 261.021 735.738L257.256 732.75L256.077 731.882C207.77 696.354 208.369 623.974 257.256 589.25V589.25" stroke="black" stroke-width="7"/>
<path d="M146.256 876.75V876.75C194.158 842.729 196.039 772.267 150.021 735.738L146.256 732.75L145.077 731.882C96.7702 696.354 97.3689 623.974 146.256 589.25V589.25" stroke="black" stroke-width="7"/>
<rect x="532.5" y="532.75" width="395" height="395" stroke="black" stroke-width="5"/>
<path d="M627.365 630.166V630.166C617.55 688.094 666.044 739.249 724.413 732.539L729.188 731.99L730.636 731.769C789.916 722.733 840.673 774.337 830.658 833.459V833.459" stroke="black" stroke-width="7"/>
<rect x="1062.5" y="532.75" width="395" height="395" stroke="black" stroke-width="5"/>
<path d="M1409 700.994V700.994C1374.98 653.092 1304.52 651.211 1267.99 697.229L1265 700.994L1264.13 702.173C1228.6 750.48 1156.22 749.881 1121.5 700.994V700.994" stroke="black" stroke-width="7"/>
<path d="M1408.5 755.994V755.994C1374.48 708.092 1304.02 706.211 1267.49 752.229L1264.5 755.994L1263.63 757.173C1228.1 805.48 1155.72 804.881 1121 755.994V755.994" stroke="black" stroke-width="7"/>
<path d="M122.701 1139.43V1139.43C112.886 1197.36 161.38 1248.51 219.749 1241.8L224.524 1241.26L225.972 1241.03C285.252 1232 336.009 1283.6 325.994 1342.73V1342.73" stroke="black" stroke-width="7"/>
<path d="M83.701 1179.43V1179.43C73.886 1237.36 122.38 1288.51 180.749 1281.8L185.524 1281.26L186.972 1281.03C246.252 1272 297.009 1323.6 286.994 1382.73V1382.73" stroke="black" stroke-width="7"/>
<rect x="2.5" y="1062.75" width="395" height="395" stroke="black" stroke-width="5"/>
<path d="M874.5 1258.99V1258.99C840.479 1211.09 770.017 1209.21 733.488 1255.23L730.5 1258.99L729.632 1260.17C694.104 1308.48 621.724 1307.88 587 1258.99V1258.99" stroke="black" stroke-width="7"/>
<path d="M874.5 1202.99V1202.99C840.479 1155.09 770.017 1153.21 733.488 1199.23L730.5 1202.99L729.632 1204.17C694.104 1252.48 621.724 1251.88 587 1202.99V1202.99" stroke="black" stroke-width="7"/>
<path d="M874.5 1313.99V1313.99C840.479 1266.09 770.017 1264.21 733.488 1310.23L730.5 1313.99L729.632 1315.17C694.104 1363.48 621.724 1362.88 587 1313.99V1313.99" stroke="black" stroke-width="7"/>
<rect x="532.5" y="1062.75" width="395" height="395" stroke="black" stroke-width="5"/>
<path d="M1259.5 1326.25V1287.35C1259.5 1269.13 1272.04 1253.3 1289.77 1249.13V1249.13C1297.73 1247.26 1304.9 1242.95 1310.29 1236.81L1310.75 1236.28C1316.75 1229.45 1320.34 1220.84 1320.96 1211.77L1321.21 1208.17C1322.34 1191.85 1315.74 1175.94 1303.39 1165.21L1301.97 1163.98C1284.76 1149.03 1260.21 1146.03 1239.9 1156.38L1235.45 1158.65C1212.6 1170.3 1200.04 1195.5 1204.5 1220.75V1220.75" stroke="black" stroke-width="30"/>
<rect x="1252.5" y="1358.75" width="15" height="15" fill="black" stroke="black" stroke-width="15"/>
</svg>
