<svg width="1320" height="1321" viewBox="0 0 1320 1321" fill="none" xmlns="http://www.w3.org/2000/svg">
<rect x="2.5" y="2.5" width="395" height="395" stroke="black" stroke-width="5"/>
<path d="M343.5 198.744V198.744C309.479 150.842 239.017 148.961 202.488 194.979L199.5 198.744L198.632 199.923C163.104 248.23 90.7239 247.631 56 198.744V198.744" stroke="black" stroke-width="7"/>
<rect x="462.5" y="2.5" width="395" height="395" stroke="black" stroke-width="5"/>
<path d="M630.744 56V56C582.842 90.0212 580.961 160.483 626.979 197.012L630.744 200L631.923 200.868C680.23 236.396 679.631 308.776 630.744 343.5V343.5" stroke="black" stroke-width="7"/>
<path d="M686.744 56V56C638.842 90.0212 636.961 160.483 682.979 197.012L686.744 200L687.923 200.868C736.23 236.396 735.631 308.776 686.744 343.5V343.5" stroke="black" stroke-width="7"/>
<rect x="922.5" y="2.75" width="395" height="395" stroke="black" stroke-width="5"/>
<path d="M984.806 140.343V140.343C975.41 195.794 1021.83 244.76 1077.7 238.337L1082.27 237.812L1083.66 237.6C1140.4 228.951 1188.99 278.348 1179.4 334.942V334.942" stroke="black" stroke-width="7"/>
<path d="M1021.21 103.999V103.999C1011.82 159.45 1058.24 208.416 1114.11 201.993L1118.68 201.468L1120.07 201.256C1176.81 192.607 1225.4 242.004 1215.81 298.598V298.598" stroke="black" stroke-width="7"/>
<path d="M1058.22 66.9288V66.9288C1048.82 122.38 1095.24 171.346 1151.12 164.923L1155.69 164.397L1157.07 164.186C1213.82 155.537 1262.41 204.934 1252.82 261.528V261.528" stroke="black" stroke-width="7"/>
<rect x="2.5" y="462.75" width="395" height="395" stroke="black" stroke-width="5"/>
<path d="M201.256 806.75V806.75C249.158 772.729 251.039 702.267 205.021 665.738L201.256 662.75L200.077 661.882C151.77 626.354 152.369 553.974 201.256 519.25V519.25" stroke="black" stroke-width="7"/>
<path d="M257.256 806.75V806.75C305.158 772.729 307.039 702.267 261.021 665.738L257.256 662.75L256.077 661.882C207.77 626.354 208.369 553.974 257.256 519.25V519.25" stroke="black" stroke-width="7"/>
<path d="M146.256 806.75V806.75C194.158 772.729 196.039 702.267 150.021 665.738L146.256 662.75L145.077 661.882C96.7702 626.354 97.3689 553.974 146.256 519.25V519.25" stroke="black" stroke-width="7"/>
<rect x="462.5" y="462.75" width="395" height="395" stroke="black" stroke-width="5"/>
<path d="M557.365 560.166V560.166C547.55 618.094 596.044 669.249 654.413 662.539L659.188 661.99L660.636 661.769C719.916 652.733 770.673 704.337 760.658 763.459V763.459" stroke="black" stroke-width="7"/>
<rect x="922.5" y="462.75" width="395" height="395" stroke="black" stroke-width="5"/>
<path d="M1269 630.994V630.994C1234.98 583.092 1164.52 581.211 1127.99 627.229L1125 630.994L1124.13 632.173C1088.6 680.48 1016.22 679.881 981.5 630.994V630.994" stroke="black" stroke-width="7"/>
<path d="M1268.5 685.994V685.994C1234.48 638.092 1164.02 636.211 1127.49 682.229L1124.5 685.994L1123.63 687.173C1088.1 735.48 1015.72 734.881 981 685.994V685.994" stroke="black" stroke-width="7"/>
<path d="M122.701 999.432V999.432C112.886 1057.36 161.38 1108.51 219.749 1101.8L224.524 1101.26L225.972 1101.03C285.252 1092 336.009 1143.6 325.994 1202.73V1202.73" stroke="black" stroke-width="7"/>
<path d="M83.701 1039.43V1039.43C73.886 1097.36 122.38 1148.51 180.749 1141.8L185.524 1141.26L186.972 1141.03C246.252 1132 297.009 1183.6 286.994 1242.73V1242.73" stroke="black" stroke-width="7"/>
<rect x="2.5" y="922.75" width="395" height="395" stroke="black" stroke-width="5"/>
<path d="M804.5 1118.99V1118.99C770.479 1071.09 700.017 1069.21 663.488 1115.23L660.5 1118.99L659.632 1120.17C624.104 1168.48 551.724 1167.88 517 1118.99V1118.99" stroke="black" stroke-width="7"/>
<path d="M804.5 1062.99V1062.99C770.479 1015.09 700.017 1013.21 663.488 1059.23L660.5 1062.99L659.632 1064.17C624.104 1112.48 551.724 1111.88 517 1062.99V1062.99" stroke="black" stroke-width="7"/>
<path d="M804.5 1173.99V1173.99C770.479 1126.09 700.017 1124.21 663.488 1170.23L660.5 1173.99L659.632 1175.17C624.104 1223.48 551.724 1222.88 517 1173.99V1173.99" stroke="black" stroke-width="7"/>
<rect x="462.5" y="922.75" width="395" height="395" stroke="black" stroke-width="5"/>
<path d="M1119.5 1186.25V1147.35C1119.5 1129.13 1132.04 1113.3 1149.77 1109.13V1109.13C1157.73 1107.26 1164.9 1102.95 1170.29 1096.81L1170.75 1096.28C1176.75 1089.45 1180.34 1080.84 1180.96 1071.77L1181.21 1068.17C1182.34 1051.85 1175.74 1035.94 1163.39 1025.21L1161.97 1023.98C1144.76 1009.03 1120.21 1006.03 1099.9 1016.38L1095.45 1018.65C1072.6 1030.3 1060.04 1055.5 1064.5 1080.75V1080.75" stroke="black" stroke-width="30"/>
<rect x="1112.5" y="1218.75" width="15" height="15" fill="black" stroke="black" stroke-width="15"/>
</svg>
