<svg width="1320" height="1320" viewBox="0 0 1320 1320" fill="none" xmlns="http://www.w3.org/2000/svg" xmlns:xlink="http://www.w3.org/1999/xlink">
<rect x="2.5" y="2.5" width="395" height="395" stroke="black" stroke-width="5"/>
<path d="M296.437 203.5C294.594 255.174 252.124 296.5 200 296.5C147.876 296.5 105.405 255.174 103.562 203.5C147.398 203.501 146.19 203.501 200 203.501C253.982 203.501 246.384 203.5 296.437 203.5Z" fill="url(#pattern0_1556_3466)" stroke="black" stroke-width="7"/>
<rect x="462.5" y="2.5" width="395" height="395" stroke="black" stroke-width="5"/>
<path d="M660 103.5C712.124 103.5 754.594 144.826 756.437 196.5H563.563C565.406 144.826 607.876 103.5 660 103.5Z" stroke="black" stroke-width="7"/>
<rect x="922.5" y="2.5" width="395" height="395" stroke="black" stroke-width="5"/>
<path d="M1051 130.998C1090.03 93.8341 1149.97 93.8341 1189 130.998C1210.39 151.368 1220 199.998 1220 199.998H1020C1020 199.998 1029.61 151.368 1051 130.998Z" fill="url(#pattern1_1556_3466)"/>
<path d="M1120 100C1175.23 100 1220 144.772 1220 200C1220 255.228 1175.23 300 1120 300V293C1170.19 293 1211.09 253.241 1212.93 203.5H1027.07C1028.91 253.241 1069.81 293 1120 293V300C1064.77 300 1020 255.228 1020 200C1020 144.772 1064.77 100 1120 100ZM1120 107C1069.81 107 1028.91 146.759 1027.07 196.5H1212.93C1211.09 146.759 1170.19 107 1120 107Z" fill="black"/>
<rect x="2.5" y="462.5" width="395" height="395" stroke="black" stroke-width="5"/>
<path d="M304.828 656.637H95.4529L200.141 551.95L304.828 656.637Z" fill="#0170C3" stroke="black" stroke-width="7"/>
<rect x="462.5" y="462.5" width="395" height="395" stroke="black" stroke-width="5"/>
<path d="M773.137 659.996H660H546.863L660 773.134L773.137 659.996Z" fill="url(#pattern2_1556_3466)" stroke="black" stroke-width="7"/>
<rect x="922.5" y="462.5" width="395" height="395" stroke="black" stroke-width="5"/>
<path d="M1233.28 660.137L1120.14 547L1007 660.137H1120.14H1233.28Z" fill="url(#pattern3_1556_3466)"/>
<path d="M1233.28 660.137H1120.14H1007L1120.14 773.274L1233.28 660.137Z" fill="#0170C3"/>
<path d="M1233.14 659.996L1120 546.859L1006.86 659.996M1233.14 659.996L1120 773.134L1006.86 659.996M1233.14 659.996H1006.86" stroke="black" stroke-width="7"/>
<rect x="2.5" y="922.5" width="395" height="395" stroke="black" stroke-width="5"/>
<rect x="103.5" y="1123.5" width="193" height="93" fill="#0170C3" stroke="black" stroke-width="7"/>
<rect x="462.5" y="922.5" width="395" height="395" stroke="black" stroke-width="5"/>
<rect x="563.5" y="1023.5" width="193" height="93" fill="url(#pattern4_1556_3466)" stroke="black" stroke-width="7"/>
<path d="M1119.5 1186V1147.1C1119.5 1128.88 1132.04 1113.05 1149.77 1108.88V1108.88C1157.73 1107.01 1164.9 1102.7 1170.29 1096.56L1170.75 1096.03C1176.75 1089.2 1180.34 1080.59 1180.96 1071.52L1181.21 1067.92C1182.34 1051.6 1175.74 1035.69 1163.39 1024.96L1161.97 1023.73C1144.76 1008.78 1120.21 1005.78 1099.9 1016.13L1095.45 1018.4C1072.6 1030.05 1060.04 1055.25 1064.5 1080.5V1080.5" stroke="black" stroke-width="30"/>
<rect x="1112.5" y="1218.5" width="15" height="15" fill="black" stroke="black" stroke-width="15"/>
<defs>
<pattern id="pattern0_1556_3466" patternUnits="userSpaceOnUse" patternTransform="matrix(372.264 0 0 372.318 68.1655 119.523)" preserveAspectRatio="none" viewBox="37.3766 38.7578 372.264 372.318" width="1" height="1">
<g id="pattern0_1556_3466_inner">
<path d="M130.672 43.0919C128.095 47.3408 129.451 52.8741 133.7 55.4508C137.949 58.0275 143.482 56.6719 146.059 52.423C148.636 48.174 147.28 42.6407 143.031 40.064C138.782 37.4873 133.249 38.8429 130.672 43.0919Z" fill="#0170C3"/>
<path d="M161.406 61.7325C158.83 65.9814 160.185 71.5147 164.434 74.0915C168.683 76.6682 174.216 75.3125 176.793 71.0636C179.37 66.8146 178.014 61.2813 173.765 58.7046C169.516 56.1279 163.983 57.4835 161.406 61.7325Z" fill="#0170C3"/>
<path d="M112.033 73.8262C109.457 78.0752 110.812 83.6085 115.061 86.1852C119.31 88.7619 124.843 87.4063 127.42 83.1573C129.997 78.9084 128.641 73.3751 124.392 70.7984C120.143 68.2217 114.61 69.5773 112.033 73.8262Z" fill="#0170C3"/>
<path d="M173.504 111.107C170.927 115.356 172.283 120.89 176.532 123.466C180.781 126.043 186.314 124.688 188.891 120.439C191.468 116.19 190.112 110.656 185.863 108.08C181.614 105.503 176.081 106.859 173.504 111.107Z" fill="#0170C3"/>
<path d="M192.143 80.3731C189.566 84.6221 190.922 90.1554 195.171 92.7321C199.42 95.3088 204.953 93.9532 207.53 89.7042C210.106 85.4553 208.751 79.922 204.502 77.3452C200.253 74.7685 194.719 76.1241 192.143 80.3731Z" fill="#0170C3"/>
<path d="M93.3946 104.568C90.8179 108.817 92.1735 114.351 96.4225 116.927C100.671 119.504 106.205 118.148 108.781 113.9C111.358 109.651 110.003 104.117 105.754 101.541C101.505 98.9638 95.9713 100.319 93.3946 104.568Z" fill="#0170C3"/>
<path d="M154.865 141.85C152.289 146.099 153.644 151.632 157.893 154.209C162.142 156.785 167.675 155.43 170.252 151.181C172.829 146.932 171.473 141.399 167.224 138.822C162.975 136.245 157.442 137.601 154.865 141.85Z" fill="#0170C3"/>
<path d="M142.77 92.4669C140.193 96.7158 141.549 102.249 145.798 104.826C150.046 107.403 155.58 106.047 158.156 101.798C160.733 97.549 159.378 92.0157 155.129 89.439C150.88 86.8623 145.346 88.2179 142.77 92.4669Z" fill="#0170C3"/>
<path d="M124.131 123.209C121.554 127.458 122.91 132.991 127.159 135.568C131.408 138.145 136.941 136.789 139.518 132.54C142.095 128.291 140.739 122.758 136.49 120.181C132.241 117.604 126.708 118.96 124.131 123.209Z" fill="#0170C3"/>
<path d="M168.16 187.303C165.584 191.552 166.939 197.085 171.188 199.662C175.437 202.238 180.97 200.883 183.547 196.634C186.124 192.385 184.768 186.852 180.519 184.275C176.27 181.698 170.737 183.054 168.16 187.303Z" fill="#0170C3"/>
<path d="M198.895 205.943C196.318 210.192 197.674 215.726 201.923 218.302C206.171 220.879 211.705 219.523 214.281 215.275C216.858 211.026 215.503 205.492 211.254 202.916C207.005 200.339 201.471 201.694 198.895 205.943Z" fill="#0170C3"/>
<path d="M149.522 218.045C146.945 222.294 148.3 227.827 152.549 230.404C156.798 232.981 162.332 231.625 164.908 227.376C167.485 223.127 166.13 217.594 161.881 215.017C157.632 212.44 152.098 213.796 149.522 218.045Z" fill="#0170C3"/>
<path d="M210.992 255.326C208.416 259.575 209.771 265.108 214.02 267.685C218.269 270.262 223.802 268.906 226.379 264.657C228.956 260.408 227.6 254.875 223.351 252.298C219.102 249.722 213.569 251.077 210.992 255.326Z" fill="#0170C3"/>
<path d="M229.631 224.584C227.054 228.833 228.41 234.366 232.659 236.943C236.908 239.52 242.441 238.164 245.018 233.915C247.595 229.666 246.239 224.133 241.99 221.556C237.741 218.979 232.208 220.335 229.631 224.584Z" fill="#0170C3"/>
<path d="M130.883 248.779C128.306 253.028 129.662 258.562 133.911 261.138C138.16 263.715 143.693 262.359 146.27 258.11C148.846 253.862 147.491 248.328 143.242 245.751C138.993 243.175 133.46 244.53 130.883 248.779Z" fill="#0170C3"/>
<path d="M192.354 286.061C189.777 290.31 191.133 295.843 195.381 298.42C199.63 300.996 205.164 299.641 207.74 295.392C210.317 291.143 208.962 285.609 204.713 283.033C200.464 280.456 194.93 281.812 192.354 286.061Z" fill="#0170C3"/>
<path d="M180.258 236.686C177.681 240.935 179.037 246.468 183.286 249.045C187.535 251.621 193.068 250.266 195.645 246.017C198.221 241.768 196.866 236.234 192.617 233.658C188.368 231.081 182.835 232.437 180.258 236.686Z" fill="#0170C3"/>
<path d="M161.619 267.42C159.043 271.669 160.398 277.202 164.647 279.779C168.896 282.356 174.429 281 177.006 276.751C179.583 272.502 178.227 266.969 173.978 264.392C169.729 261.815 164.196 263.171 161.619 267.42Z" fill="#0170C3"/>
<path d="M75.9571 131.373C73.3804 135.622 74.736 141.155 78.985 143.732C83.234 146.309 88.7673 144.953 91.344 140.704C93.9207 136.455 92.5651 130.922 88.3161 128.345C84.0671 125.769 78.5338 127.124 75.9571 131.373Z" fill="#0170C3"/>
<path d="M106.693 150.014C104.117 154.263 105.472 159.796 109.721 162.373C113.97 164.949 119.504 163.594 122.08 159.345C124.657 155.096 123.301 149.563 119.052 146.986C114.803 144.409 109.27 145.765 106.693 150.014Z" fill="#0170C3"/>
<path d="M57.3204 162.107C54.7437 166.356 56.0993 171.89 60.3483 174.466C64.5972 177.043 70.1305 175.688 72.7073 171.439C75.284 167.19 73.9283 161.656 69.6794 159.08C65.4304 156.503 59.8971 157.859 57.3204 162.107Z" fill="#0170C3"/>
<path d="M118.789 199.389C116.212 203.638 117.568 209.171 121.817 211.748C126.066 214.324 131.599 212.969 134.176 208.72C136.753 204.471 135.397 198.938 131.148 196.361C126.899 193.784 121.366 195.14 118.789 199.389Z" fill="#0170C3"/>
<path d="M137.43 168.654C134.853 172.903 136.209 178.437 140.458 181.013C144.707 183.59 150.24 182.234 152.817 177.985C155.393 173.737 154.038 168.203 149.789 165.626C145.54 163.05 140.007 164.405 137.43 168.654Z" fill="#0170C3"/>
<path d="M38.6817 192.842C36.105 197.091 37.4607 202.624 41.7096 205.201C45.9586 207.778 51.4919 206.422 54.0686 202.173C56.6453 197.924 55.2897 192.391 51.0407 189.814C46.7918 187.237 41.2585 188.593 38.6817 192.842Z" fill="#0170C3"/>
<path d="M100.15 230.123C97.5738 234.372 98.9294 239.905 103.178 242.482C107.427 245.059 112.961 243.703 115.537 239.454C118.114 235.205 116.758 229.672 112.509 227.095C108.261 224.519 102.727 225.874 100.15 230.123Z" fill="#0170C3"/>
<path d="M88.0548 180.748C85.4781 184.997 86.8337 190.53 91.0827 193.107C95.3316 195.684 100.865 194.328 103.442 190.079C106.018 185.83 104.663 180.297 100.414 177.72C96.1648 175.144 90.6315 176.499 88.0548 180.748Z" fill="#0170C3"/>
<path d="M69.4181 211.482C66.8414 215.731 68.197 221.265 72.4459 223.841C76.6949 226.418 82.2282 225.063 84.8049 220.814C87.3816 216.565 86.026 211.031 81.777 208.455C77.5281 205.878 71.9948 207.234 69.4181 211.482Z" fill="#0170C3"/>
<path d="M222.885 99.0215C220.308 103.271 221.664 108.804 225.913 111.381C230.162 113.957 235.695 112.602 238.272 108.353C240.848 104.104 239.493 98.5704 235.244 95.9937C230.995 93.417 225.462 94.7726 222.885 99.0215Z" fill="#0170C3"/>
<path d="M253.619 117.662C251.043 121.911 252.398 127.444 256.647 130.021C260.896 132.598 266.429 131.242 269.006 126.993C271.583 122.744 270.227 117.211 265.978 114.634C261.729 112.058 256.196 113.413 253.619 117.662Z" fill="#0170C3"/>
<path d="M204.246 129.756C201.669 134.005 203.025 139.538 207.274 142.115C211.523 144.692 217.056 143.336 219.633 139.087C222.21 134.838 220.854 129.305 216.605 126.728C212.356 124.151 206.823 125.507 204.246 129.756Z" fill="#0170C3"/>
<path d="M265.717 167.037C263.14 171.286 264.496 176.819 268.745 179.396C272.994 181.973 278.527 180.617 281.104 176.368C283.68 172.119 282.325 166.586 278.076 164.009C273.827 161.433 268.294 162.788 265.717 167.037Z" fill="#0170C3"/>
<path d="M284.356 136.303C281.779 140.552 283.134 146.085 287.383 148.662C291.632 151.238 297.166 149.883 299.742 145.634C302.319 141.385 300.964 135.852 296.715 133.275C292.466 130.698 286.932 132.054 284.356 136.303Z" fill="#0170C3"/>
<path d="M185.608 160.498C183.031 164.747 184.386 170.28 188.635 172.857C192.884 175.434 198.418 174.078 200.994 169.829C203.571 165.58 202.215 160.047 197.966 157.47C193.718 154.894 188.184 156.249 185.608 160.498Z" fill="#0170C3"/>
<path d="M247.078 197.779C244.502 202.028 245.857 207.562 250.106 210.138C254.355 212.715 259.888 211.359 262.465 207.11C265.042 202.862 263.686 197.328 259.437 194.751C255.188 192.175 249.655 193.53 247.078 197.779Z" fill="#0170C3"/>
<path d="M234.983 148.397C232.406 152.646 233.761 158.179 238.01 160.756C242.259 163.332 247.793 161.977 250.369 157.728C252.946 153.479 251.59 147.945 247.341 145.369C243.093 142.792 237.559 144.148 234.983 148.397Z" fill="#0170C3"/>
<path d="M216.344 179.139C213.767 183.388 215.123 188.921 219.372 191.498C223.621 194.074 229.154 192.719 231.731 188.47C234.307 184.221 232.952 178.688 228.703 176.111C224.454 173.534 218.921 174.89 216.344 179.139Z" fill="#0170C3"/>
</g>
</pattern><pattern id="pattern1_1556_3466" patternUnits="userSpaceOnUse" patternTransform="matrix(372.264 0 0 372.318 988.166 16.4383)" preserveAspectRatio="none" viewBox="37.3766 38.7578 372.264 372.318" width="1" height="1">
<g id="pattern1_1556_3466_inner">
<path d="M130.672 43.0919C128.095 47.3408 129.451 52.8741 133.7 55.4508C137.949 58.0275 143.482 56.6719 146.059 52.423C148.636 48.174 147.28 42.6407 143.031 40.064C138.782 37.4873 133.249 38.8429 130.672 43.0919Z" fill="#0170C3"/>
<path d="M161.406 61.7325C158.83 65.9814 160.185 71.5147 164.434 74.0915C168.683 76.6682 174.216 75.3125 176.793 71.0636C179.37 66.8146 178.014 61.2813 173.765 58.7046C169.516 56.1279 163.983 57.4835 161.406 61.7325Z" fill="#0170C3"/>
<path d="M112.033 73.8262C109.457 78.0752 110.812 83.6085 115.061 86.1852C119.31 88.7619 124.843 87.4063 127.42 83.1573C129.997 78.9084 128.641 73.3751 124.392 70.7984C120.143 68.2217 114.61 69.5773 112.033 73.8262Z" fill="#0170C3"/>
<path d="M173.504 111.107C170.927 115.356 172.283 120.89 176.532 123.466C180.781 126.043 186.314 124.688 188.891 120.439C191.468 116.19 190.112 110.656 185.863 108.08C181.614 105.503 176.081 106.859 173.504 111.107Z" fill="#0170C3"/>
<path d="M192.143 80.3731C189.566 84.6221 190.922 90.1554 195.171 92.7321C199.42 95.3088 204.953 93.9532 207.53 89.7042C210.106 85.4553 208.751 79.922 204.502 77.3452C200.253 74.7685 194.719 76.1241 192.143 80.3731Z" fill="#0170C3"/>
<path d="M93.3946 104.568C90.8179 108.817 92.1735 114.351 96.4225 116.927C100.671 119.504 106.205 118.148 108.781 113.9C111.358 109.651 110.003 104.117 105.754 101.541C101.505 98.9638 95.9713 100.319 93.3946 104.568Z" fill="#0170C3"/>
<path d="M154.865 141.85C152.289 146.099 153.644 151.632 157.893 154.209C162.142 156.785 167.675 155.43 170.252 151.181C172.829 146.932 171.473 141.399 167.224 138.822C162.975 136.245 157.442 137.601 154.865 141.85Z" fill="#0170C3"/>
<path d="M142.77 92.4669C140.193 96.7158 141.549 102.249 145.798 104.826C150.046 107.403 155.58 106.047 158.156 101.798C160.733 97.549 159.378 92.0157 155.129 89.439C150.88 86.8623 145.346 88.2179 142.77 92.4669Z" fill="#0170C3"/>
<path d="M124.131 123.209C121.554 127.458 122.91 132.991 127.159 135.568C131.408 138.145 136.941 136.789 139.518 132.54C142.095 128.291 140.739 122.758 136.49 120.181C132.241 117.604 126.708 118.96 124.131 123.209Z" fill="#0170C3"/>
<path d="M168.16 187.303C165.584 191.552 166.939 197.085 171.188 199.662C175.437 202.238 180.97 200.883 183.547 196.634C186.124 192.385 184.768 186.852 180.519 184.275C176.27 181.698 170.737 183.054 168.16 187.303Z" fill="#0170C3"/>
<path d="M198.895 205.943C196.318 210.192 197.674 215.726 201.923 218.302C206.171 220.879 211.705 219.523 214.281 215.275C216.858 211.026 215.503 205.492 211.254 202.916C207.005 200.339 201.471 201.694 198.895 205.943Z" fill="#0170C3"/>
<path d="M149.522 218.045C146.945 222.294 148.3 227.827 152.549 230.404C156.798 232.981 162.332 231.625 164.908 227.376C167.485 223.127 166.13 217.594 161.881 215.017C157.632 212.44 152.098 213.796 149.522 218.045Z" fill="#0170C3"/>
<path d="M210.992 255.326C208.416 259.575 209.771 265.108 214.02 267.685C218.269 270.262 223.802 268.906 226.379 264.657C228.956 260.408 227.6 254.875 223.351 252.298C219.102 249.722 213.569 251.077 210.992 255.326Z" fill="#0170C3"/>
<path d="M229.631 224.584C227.054 228.833 228.41 234.366 232.659 236.943C236.908 239.52 242.441 238.164 245.018 233.915C247.595 229.666 246.239 224.133 241.99 221.556C237.741 218.979 232.208 220.335 229.631 224.584Z" fill="#0170C3"/>
<path d="M130.883 248.779C128.306 253.028 129.662 258.562 133.911 261.138C138.16 263.715 143.693 262.359 146.27 258.11C148.846 253.862 147.491 248.328 143.242 245.751C138.993 243.175 133.46 244.53 130.883 248.779Z" fill="#0170C3"/>
<path d="M192.354 286.061C189.777 290.31 191.133 295.843 195.381 298.42C199.63 300.996 205.164 299.641 207.74 295.392C210.317 291.143 208.962 285.609 204.713 283.033C200.464 280.456 194.93 281.812 192.354 286.061Z" fill="#0170C3"/>
<path d="M180.258 236.686C177.681 240.935 179.037 246.468 183.286 249.045C187.535 251.621 193.068 250.266 195.645 246.017C198.221 241.768 196.866 236.234 192.617 233.658C188.368 231.081 182.835 232.437 180.258 236.686Z" fill="#0170C3"/>
<path d="M161.619 267.42C159.043 271.669 160.398 277.202 164.647 279.779C168.896 282.356 174.429 281 177.006 276.751C179.583 272.502 178.227 266.969 173.978 264.392C169.729 261.815 164.196 263.171 161.619 267.42Z" fill="#0170C3"/>
<path d="M75.9571 131.373C73.3804 135.622 74.736 141.155 78.985 143.732C83.234 146.309 88.7673 144.953 91.344 140.704C93.9207 136.455 92.5651 130.922 88.3161 128.345C84.0671 125.769 78.5338 127.124 75.9571 131.373Z" fill="#0170C3"/>
<path d="M106.693 150.014C104.117 154.263 105.472 159.796 109.721 162.373C113.97 164.949 119.504 163.594 122.08 159.345C124.657 155.096 123.301 149.563 119.052 146.986C114.803 144.409 109.27 145.765 106.693 150.014Z" fill="#0170C3"/>
<path d="M57.3204 162.107C54.7437 166.356 56.0993 171.89 60.3483 174.466C64.5972 177.043 70.1305 175.688 72.7073 171.439C75.284 167.19 73.9283 161.656 69.6794 159.08C65.4304 156.503 59.8971 157.859 57.3204 162.107Z" fill="#0170C3"/>
<path d="M118.789 199.389C116.212 203.638 117.568 209.171 121.817 211.748C126.066 214.324 131.599 212.969 134.176 208.72C136.753 204.471 135.397 198.938 131.148 196.361C126.899 193.784 121.366 195.14 118.789 199.389Z" fill="#0170C3"/>
<path d="M137.43 168.654C134.853 172.903 136.209 178.437 140.458 181.013C144.707 183.59 150.24 182.234 152.817 177.985C155.393 173.737 154.038 168.203 149.789 165.626C145.54 163.05 140.007 164.405 137.43 168.654Z" fill="#0170C3"/>
<path d="M38.6817 192.842C36.105 197.091 37.4607 202.624 41.7096 205.201C45.9586 207.778 51.4919 206.422 54.0686 202.173C56.6453 197.924 55.2897 192.391 51.0407 189.814C46.7918 187.237 41.2585 188.593 38.6817 192.842Z" fill="#0170C3"/>
<path d="M100.15 230.123C97.5738 234.372 98.9294 239.905 103.178 242.482C107.427 245.059 112.961 243.703 115.537 239.454C118.114 235.205 116.758 229.672 112.509 227.095C108.261 224.519 102.727 225.874 100.15 230.123Z" fill="#0170C3"/>
<path d="M88.0548 180.748C85.4781 184.997 86.8337 190.53 91.0827 193.107C95.3316 195.684 100.865 194.328 103.442 190.079C106.018 185.83 104.663 180.297 100.414 177.72C96.1648 175.144 90.6315 176.499 88.0548 180.748Z" fill="#0170C3"/>
<path d="M69.4181 211.482C66.8414 215.731 68.197 221.265 72.4459 223.841C76.6949 226.418 82.2282 225.063 84.8049 220.814C87.3816 216.565 86.026 211.031 81.777 208.455C77.5281 205.878 71.9948 207.234 69.4181 211.482Z" fill="#0170C3"/>
<path d="M222.885 99.0215C220.308 103.271 221.664 108.804 225.913 111.381C230.162 113.957 235.695 112.602 238.272 108.353C240.848 104.104 239.493 98.5704 235.244 95.9937C230.995 93.417 225.462 94.7726 222.885 99.0215Z" fill="#0170C3"/>
<path d="M253.619 117.662C251.043 121.911 252.398 127.444 256.647 130.021C260.896 132.598 266.429 131.242 269.006 126.993C271.583 122.744 270.227 117.211 265.978 114.634C261.729 112.058 256.196 113.413 253.619 117.662Z" fill="#0170C3"/>
<path d="M204.246 129.756C201.669 134.005 203.025 139.538 207.274 142.115C211.523 144.692 217.056 143.336 219.633 139.087C222.21 134.838 220.854 129.305 216.605 126.728C212.356 124.151 206.823 125.507 204.246 129.756Z" fill="#0170C3"/>
<path d="M265.717 167.037C263.14 171.286 264.496 176.819 268.745 179.396C272.994 181.973 278.527 180.617 281.104 176.368C283.68 172.119 282.325 166.586 278.076 164.009C273.827 161.433 268.294 162.788 265.717 167.037Z" fill="#0170C3"/>
<path d="M284.356 136.303C281.779 140.552 283.134 146.085 287.383 148.662C291.632 151.238 297.166 149.883 299.742 145.634C302.319 141.385 300.964 135.852 296.715 133.275C292.466 130.698 286.932 132.054 284.356 136.303Z" fill="#0170C3"/>
<path d="M185.608 160.498C183.031 164.747 184.386 170.28 188.635 172.857C192.884 175.434 198.418 174.078 200.994 169.829C203.571 165.58 202.215 160.047 197.966 157.47C193.718 154.894 188.184 156.249 185.608 160.498Z" fill="#0170C3"/>
<path d="M247.078 197.779C244.502 202.028 245.857 207.562 250.106 210.138C254.355 212.715 259.888 211.359 262.465 207.11C265.042 202.862 263.686 197.328 259.437 194.751C255.188 192.175 249.655 193.53 247.078 197.779Z" fill="#0170C3"/>
<path d="M234.983 148.397C232.406 152.646 233.761 158.179 238.01 160.756C242.259 163.332 247.793 161.977 250.369 157.728C252.946 153.479 251.59 147.945 247.341 145.369C243.093 142.792 237.559 144.148 234.983 148.397Z" fill="#0170C3"/>
<path d="M216.344 179.139C213.767 183.388 215.123 188.921 219.372 191.498C223.621 194.074 229.154 192.719 231.731 188.47C234.307 184.221 232.952 178.688 228.703 176.111C224.454 173.534 218.921 174.89 216.344 179.139Z" fill="#0170C3"/>
</g>
</pattern><pattern id="pattern2_1556_3466" patternUnits="userSpaceOnUse" patternTransform="matrix(266.419 266.419 -275.552 275.552 717.845 438.296)" preserveAspectRatio="none" viewBox="72.5235 -2.82435 376.773 389.689" width="1" height="1">
<use xlink:href="#pattern2_1556_3466_inner" transform="translate(0 -389.689)"/>
<g id="pattern2_1556_3466_inner">
<path d="M302.115 74.4335L269.307 389.693" stroke="#0170C3" stroke-width="5" stroke-linecap="round"/>
<path d="M285.897 68.2303L253.088 383.49" stroke="#0170C3" stroke-width="5" stroke-linecap="round"/>
<path d="M269.674 62.0272L236.865 377.286" stroke="#0170C3" stroke-width="5" stroke-linecap="round"/>
<path d="M253.455 55.8163L220.647 371.075" stroke="#0170C3" stroke-width="5" stroke-linecap="round"/>
<path d="M237.232 49.6132L204.424 364.872" stroke="#0170C3" stroke-width="5" stroke-linecap="round"/>
<path d="M221.012 43.41L188.203 358.669" stroke="#0170C3" stroke-width="5" stroke-linecap="round"/>
<path d="M204.793 37.2147L171.985 352.474" stroke="#0170C3" stroke-width="5" stroke-linecap="round"/>
<path d="M188.57 31.0116L155.762 346.271" stroke="#0170C3" stroke-width="5" stroke-linecap="round"/>
<path d="M172.35 24.8085L139.541 340.068" stroke="#0170C3" stroke-width="5" stroke-linecap="round"/>
<path d="M156.129 18.6053L123.321 333.865" stroke="#0170C3" stroke-width="5" stroke-linecap="round"/>
<path d="M139.908 12.4022L107.1 327.661" stroke="#0170C3" stroke-width="5" stroke-linecap="round"/>
<path d="M123.688 6.19909L90.8792 321.458" stroke="#0170C3" stroke-width="5" stroke-linecap="round"/>
<path d="M107.467 -0.00403603L74.6585 315.255" stroke="#0170C3" stroke-width="5" stroke-linecap="round"/>
</g>
</pattern><pattern id="pattern3_1556_3466" patternUnits="userSpaceOnUse" patternTransform="matrix(266.419 266.419 -275.552 275.552 1177.99 438.436)" preserveAspectRatio="none" viewBox="72.5235 -2.82435 376.773 389.689" width="1" height="1">
<use xlink:href="#pattern3_1556_3466_inner" transform="translate(0 -389.689)"/>
<g id="pattern3_1556_3466_inner">
<path d="M302.115 74.4335L269.307 389.693" stroke="#0170C3" stroke-width="5" stroke-linecap="round"/>
<path d="M285.897 68.2303L253.088 383.49" stroke="#0170C3" stroke-width="5" stroke-linecap="round"/>
<path d="M269.674 62.0272L236.865 377.286" stroke="#0170C3" stroke-width="5" stroke-linecap="round"/>
<path d="M253.455 55.8163L220.647 371.075" stroke="#0170C3" stroke-width="5" stroke-linecap="round"/>
<path d="M237.232 49.6132L204.424 364.872" stroke="#0170C3" stroke-width="5" stroke-linecap="round"/>
<path d="M221.012 43.41L188.203 358.669" stroke="#0170C3" stroke-width="5" stroke-linecap="round"/>
<path d="M204.793 37.2147L171.985 352.474" stroke="#0170C3" stroke-width="5" stroke-linecap="round"/>
<path d="M188.57 31.0116L155.762 346.271" stroke="#0170C3" stroke-width="5" stroke-linecap="round"/>
<path d="M172.35 24.8085L139.541 340.068" stroke="#0170C3" stroke-width="5" stroke-linecap="round"/>
<path d="M156.129 18.6053L123.321 333.865" stroke="#0170C3" stroke-width="5" stroke-linecap="round"/>
<path d="M139.908 12.4022L107.1 327.661" stroke="#0170C3" stroke-width="5" stroke-linecap="round"/>
<path d="M123.688 6.19909L90.8792 321.458" stroke="#0170C3" stroke-width="5" stroke-linecap="round"/>
<path d="M107.467 -0.00403603L74.6585 315.255" stroke="#0170C3" stroke-width="5" stroke-linecap="round"/>
</g>
</pattern><pattern id="pattern4_1556_3466" patternUnits="userSpaceOnUse" patternTransform="matrix(338.421 0 0 338.47 528.167 939.523)" preserveAspectRatio="none" viewBox="37.3775 38.7578 338.421 338.47" width="1" height="1">
<g id="pattern4_1556_3466_inner">
<path d="M130.673 43.0919C128.096 47.3408 129.452 52.8741 133.701 55.4508C137.95 58.0275 143.483 56.6719 146.06 52.423C148.636 48.174 147.281 42.6407 143.032 40.064C138.783 37.4873 133.25 38.8429 130.673 43.0919Z" fill="#0170C3"/>
<path d="M161.407 61.7325C158.831 65.9814 160.186 71.5147 164.435 74.0915C168.684 76.6682 174.217 75.3125 176.794 71.0636C179.371 66.8146 178.015 61.2813 173.766 58.7046C169.517 56.1279 163.984 57.4835 161.407 61.7325Z" fill="#0170C3"/>
<path d="M112.032 73.8262C109.456 78.0752 110.811 83.6085 115.06 86.1852C119.309 88.7619 124.842 87.4063 127.419 83.1573C129.996 78.9084 128.64 73.3751 124.391 70.7984C120.142 68.2217 114.609 69.5773 112.032 73.8262Z" fill="#0170C3"/>
<path d="M173.509 111.107C170.932 115.356 172.288 120.89 176.537 123.466C180.786 126.043 186.319 124.688 188.896 120.439C191.472 116.19 190.117 110.656 185.868 108.08C181.619 105.503 176.086 106.859 173.509 111.107Z" fill="#0170C3"/>
<path d="M192.142 80.3731C189.565 84.6221 190.921 90.1554 195.17 92.7321C199.418 95.3088 204.952 93.9532 207.529 89.7042C210.105 85.4553 208.75 79.922 204.501 77.3452C200.252 74.7685 194.718 76.1241 192.142 80.3731Z" fill="#0170C3"/>
<path d="M93.3995 104.568C90.8228 108.817 92.1784 114.351 96.4273 116.927C100.676 119.504 106.21 118.148 108.786 113.9C111.363 109.651 110.007 104.117 105.758 101.541C101.509 98.9638 95.9762 100.319 93.3995 104.568Z" fill="#0170C3"/>
<path d="M154.868 141.85C152.292 146.099 153.647 151.632 157.896 154.209C162.145 156.785 167.678 155.43 170.255 151.181C172.832 146.932 171.476 141.399 167.227 138.822C162.978 136.245 157.445 137.601 154.868 141.85Z" fill="#0170C3"/>
<path d="M142.774 92.4669C140.198 96.7158 141.553 102.249 145.802 104.826C150.051 107.403 155.585 106.047 158.161 101.798C160.738 97.549 159.382 92.0157 155.133 89.439C150.884 86.8623 145.351 88.2179 142.774 92.4669Z" fill="#0170C3"/>
<path d="M124.134 123.209C121.557 127.458 122.913 132.991 127.162 135.568C131.411 138.145 136.944 136.789 139.521 132.54C142.097 128.291 140.742 122.758 136.493 120.181C132.244 117.604 126.711 118.96 124.134 123.209Z" fill="#0170C3"/>
<path d="M168.165 187.303C165.588 191.552 166.944 197.085 171.193 199.662C175.442 202.238 180.975 200.883 183.552 196.634C186.129 192.385 184.773 186.852 180.524 184.275C176.275 181.698 170.742 183.054 168.165 187.303Z" fill="#0170C3"/>
<path d="M198.899 205.943C196.323 210.192 197.678 215.726 201.927 218.302C206.176 220.879 211.71 219.523 214.286 215.275C216.863 211.026 215.507 205.492 211.258 202.916C207.009 200.339 201.476 201.694 198.899 205.943Z" fill="#0170C3"/>
<path d="M149.524 218.045C146.948 222.294 148.303 227.827 152.552 230.404C156.801 232.981 162.335 231.625 164.911 227.376C167.488 223.127 166.132 217.594 161.883 215.017C157.634 212.44 152.101 213.796 149.524 218.045Z" fill="#0170C3"/>
<path d="M211.001 255.326C208.424 259.575 209.78 265.108 214.029 267.685C218.278 270.262 223.811 268.906 226.388 264.657C228.965 260.408 227.609 254.875 223.36 252.298C219.111 249.722 213.578 251.077 211.001 255.326Z" fill="#0170C3"/>
<path d="M229.634 224.584C227.057 228.833 228.413 234.366 232.662 236.943C236.911 239.52 242.444 238.164 245.021 233.915C247.597 229.666 246.242 224.133 241.993 221.556C237.744 218.979 232.211 220.335 229.634 224.584Z" fill="#0170C3"/>
<path d="M130.892 248.779C128.315 253.028 129.671 258.562 133.92 261.138C138.168 263.715 143.702 262.359 146.279 258.11C148.855 253.862 147.5 248.328 143.251 245.751C139.002 243.175 133.468 244.53 130.892 248.779Z" fill="#0170C3"/>
<path d="M192.36 286.061C189.784 290.31 191.139 295.843 195.388 298.42C199.637 300.996 205.171 299.641 207.747 295.392C210.324 291.143 208.968 285.609 204.719 283.033C200.47 280.456 194.937 281.812 192.36 286.061Z" fill="#0170C3"/>
<path d="M180.259 236.686C177.682 240.935 179.038 246.468 183.287 249.045C187.536 251.621 193.069 250.266 195.646 246.017C198.222 241.768 196.867 236.234 192.618 233.658C188.369 231.081 182.836 232.437 180.259 236.686Z" fill="#0170C3"/>
<path d="M161.626 267.42C159.049 271.669 160.405 277.202 164.654 279.779C168.903 282.356 174.436 281 177.013 276.751C179.59 272.502 178.234 266.969 173.985 264.392C169.736 261.815 164.203 263.171 161.626 267.42Z" fill="#0170C3"/>
<path d="M75.9542 131.373C73.3775 135.622 74.7331 141.155 78.982 143.732C83.231 146.309 88.7643 144.953 91.341 140.704C93.9177 136.455 92.5621 130.922 88.3131 128.345C84.0642 125.769 78.5309 127.124 75.9542 131.373Z" fill="#0170C3"/>
<path d="M106.689 150.014C104.112 154.263 105.467 159.796 109.716 162.373C113.965 164.949 119.499 163.594 122.075 159.345C124.652 155.096 123.296 149.563 119.048 146.986C114.799 144.409 109.265 145.765 106.689 150.014Z" fill="#0170C3"/>
<path d="M57.3135 162.107C54.7368 166.356 56.0925 171.89 60.3414 174.466C64.5904 177.043 70.1237 175.688 72.7004 171.439C75.2771 167.19 73.9215 161.656 69.6725 159.08C65.4236 156.503 59.8903 157.859 57.3135 162.107Z" fill="#0170C3"/>
<path d="M118.79 199.389C116.213 203.638 117.569 209.171 121.818 211.748C126.067 214.324 131.6 212.969 134.177 208.72C136.754 204.471 135.398 198.938 131.149 196.361C126.9 193.784 121.367 195.14 118.79 199.389Z" fill="#0170C3"/>
<path d="M137.423 168.654C134.846 172.903 136.202 178.437 140.451 181.013C144.7 183.59 150.233 182.234 152.81 177.985C155.386 173.737 154.031 168.203 149.782 165.626C145.533 163.05 140 164.405 137.423 168.654Z" fill="#0170C3"/>
<path d="M38.6807 192.842C36.104 197.091 37.4596 202.624 41.7086 205.201C45.9576 207.778 51.4909 206.422 54.0676 202.173C56.6443 197.924 55.2887 192.391 51.0397 189.814C46.7907 187.237 41.2574 188.593 38.6807 192.842Z" fill="#0170C3"/>
<path d="M100.149 230.123C97.5728 234.372 98.9284 239.905 103.177 242.482C107.426 245.059 112.96 243.703 115.536 239.454C118.113 235.205 116.757 229.672 112.508 227.095C108.259 224.519 102.726 225.874 100.149 230.123Z" fill="#0170C3"/>
<path d="M88.0557 180.748C85.479 184.997 86.8346 190.53 91.0836 193.107C95.3326 195.684 100.866 194.328 103.443 190.079C106.019 185.83 104.664 180.297 100.415 177.72C96.1657 175.144 90.6324 176.499 88.0557 180.748Z" fill="#0170C3"/>
<path d="M69.4151 211.482C66.8384 215.731 68.194 221.265 72.443 223.841C76.6919 226.418 82.2252 225.063 84.8019 220.814C87.3787 216.565 86.023 211.031 81.7741 208.455C77.5251 205.878 71.9918 207.234 69.4151 211.482Z" fill="#0170C3"/>
<path d="M222.884 99.0215C220.307 103.271 221.663 108.804 225.912 111.381C230.161 113.957 235.694 112.602 238.271 108.353C240.847 104.104 239.492 98.5704 235.243 95.9937C230.994 93.417 225.461 94.7726 222.884 99.0215Z" fill="#0170C3"/>
<path d="M253.618 117.662C251.042 121.911 252.397 127.444 256.646 130.021C260.895 132.598 266.428 131.242 269.005 126.993C271.582 122.744 270.226 117.211 265.977 114.634C261.728 112.058 256.195 113.413 253.618 117.662Z" fill="#0170C3"/>
<path d="M204.243 129.756C201.667 134.005 203.022 139.538 207.271 142.115C211.52 144.692 217.053 143.336 219.63 139.087C222.207 134.838 220.851 129.305 216.602 126.728C212.353 124.151 206.82 125.507 204.243 129.756Z" fill="#0170C3"/>
<path d="M265.72 167.037C263.143 171.286 264.499 176.819 268.748 179.396C272.997 181.973 278.53 180.617 281.107 176.368C283.683 172.119 282.328 166.586 278.079 164.009C273.83 161.433 268.297 162.788 265.72 167.037Z" fill="#0170C3"/>
<path d="M284.353 136.303C281.776 140.552 283.132 146.085 287.38 148.662C291.629 151.238 297.163 149.883 299.739 145.634C302.316 141.385 300.961 135.852 296.712 133.275C292.463 130.698 286.929 132.054 284.353 136.303Z" fill="#0170C3"/>
<path d="M185.61 160.498C183.034 164.747 184.389 170.28 188.638 172.857C192.887 175.434 198.421 174.078 200.997 169.829C203.574 165.58 202.218 160.047 197.969 157.47C193.72 154.894 188.187 156.249 185.61 160.498Z" fill="#0170C3"/>
<path d="M247.079 197.779C244.502 202.028 245.858 207.562 250.107 210.138C254.356 212.715 259.889 211.359 262.466 207.11C265.043 202.862 263.687 197.328 259.438 194.751C255.189 192.175 249.656 193.53 247.079 197.779Z" fill="#0170C3"/>
<path d="M234.978 148.397C232.401 152.646 233.757 158.179 238.005 160.756C242.254 163.332 247.788 161.977 250.364 157.728C252.941 153.479 251.586 147.945 247.337 145.369C243.088 142.792 237.554 144.148 234.978 148.397Z" fill="#0170C3"/>
<path d="M216.345 179.139C213.768 183.388 215.124 188.921 219.373 191.498C223.622 194.074 229.155 192.719 231.732 188.47C234.308 184.221 232.953 178.688 228.704 176.111C224.455 173.534 218.922 174.89 216.345 179.139Z" fill="#0170C3"/>
</g>
</pattern></defs>
</svg>
