<svg width="1320" height="1320" viewBox="0 0 1320 1320" fill="none" xmlns="http://www.w3.org/2000/svg">
<rect x="2.5" y="2.5" width="395" height="395" stroke="black" stroke-width="5"/>
<path d="M250 150H150V250" stroke="black" stroke-width="10"/>
<rect x="-2.5" y="2.5" width="395" height="395" transform="matrix(-1 0 0 1 855 0)" stroke="black" stroke-width="5"/>
<path d="M610 100L610 200L710 200L710 300" stroke="black" stroke-width="10"/>
<rect x="-2.5" y="-2.5" width="395" height="395" transform="matrix(0 -1 -1 0 1315 395)" stroke="black" stroke-width="5"/>
<path d="M1020 300H1120V200H1220L1220 100" stroke="black" stroke-width="10"/>
<rect x="2.5" y="462.5" width="395" height="395" stroke="black" stroke-width="5"/>
<path d="M300 760L300 660L200 660L200 560L100 560" stroke="black" stroke-width="10"/>
<rect x="462.5" y="857.5" width="395" height="395" transform="rotate(-90 462.5 857.5)" stroke="black" stroke-width="5"/>
<path d="M710 560L710 660L610 660L610 760" stroke="black" stroke-width="10"/>
<rect x="-2.5" y="2.5" width="395" height="395" transform="matrix(-1 0 0 1 1315 460)" stroke="black" stroke-width="5"/>
<path d="M973 807H1073V707H1173L1173 607" stroke="black" stroke-width="10"/>
<path d="M1268 512L1268 612L1168 612" stroke="black" stroke-width="10"/>
<rect x="2.5" y="922.5" width="395" height="395" stroke="black" stroke-width="5"/>
<path d="M275.008 1120.01H200.008H125.008" stroke="black" stroke-width="10"/>
<rect x="-2.5" y="2.5" width="395" height="395" transform="matrix(-1 0 0 1 855 920)" stroke="black" stroke-width="5"/>
<path d="M610 1070L610 1170L710 1170" stroke="black" stroke-width="10"/>
<path d="M1119.5 1186V1147.1C1119.5 1128.88 1132.04 1113.05 1149.77 1108.88V1108.88C1157.73 1107.01 1164.9 1102.7 1170.29 1096.56L1170.75 1096.03C1176.75 1089.2 1180.34 1080.59 1180.96 1071.52L1181.21 1067.92C1182.34 1051.6 1175.74 1035.69 1163.39 1024.96L1161.97 1023.73C1144.76 1008.78 1120.21 1005.78 1099.9 1016.13L1095.45 1018.4C1072.6 1030.05 1060.04 1055.25 1064.5 1080.5V1080.5" stroke="black" stroke-width="30"/>
<rect x="1112.5" y="1218.5" width="15" height="15" fill="black" stroke="black" stroke-width="15"/>
</svg>
