<svg width="1320" height="1320" viewBox="0 0 1320 1320" fill="none" xmlns="http://www.w3.org/2000/svg">
<rect x="2.5" y="2.5" width="395" height="395" stroke="black" stroke-width="5"/>
<path d="M296.062 255.25H102.938L199.5 87.999L296.062 255.25Z" stroke="black" stroke-width="5"/>
<line x1="75" y1="180.5" x2="325" y2="180.5" stroke="black" stroke-width="7"/>
<rect x="462.5" y="2.5" width="395" height="395" stroke="black" stroke-width="5"/>
<path d="M756.062 255.25H562.938L659.5 87.999L756.062 255.25Z" stroke="black" stroke-width="5"/>
<line x1="535" y1="160.5" x2="785" y2="160.5" stroke="black" stroke-width="7"/>
<line x1="535" y1="200.5" x2="785" y2="200.5" stroke="black" stroke-width="7"/>
<rect x="922.5" y="2.5" width="395" height="395" stroke="black" stroke-width="5"/>
<path d="M1216.06 255.25H1022.94L1119.5 87.999L1216.06 255.25Z" stroke="black" stroke-width="5"/>
<line x1="995" y1="140.5" x2="1245" y2="140.5" stroke="black" stroke-width="7"/>
<line x1="995" y1="180.5" x2="1245" y2="180.5" stroke="black" stroke-width="7"/>
<line x1="995" y1="220.5" x2="1245" y2="220.5" stroke="black" stroke-width="7"/>
<rect x="2.5" y="462.5" width="395" height="395" stroke="black" stroke-width="5"/>
<circle cx="200" cy="660" r="97.5" stroke="black" stroke-width="5"/>
<line x1="225.5" y1="535" x2="225.5" y2="785" stroke="black" stroke-width="7"/>
<line x1="178.5" y1="535" x2="178.5" y2="785" stroke="black" stroke-width="7"/>
<rect x="462.5" y="462.5" width="395" height="395" stroke="black" stroke-width="5"/>
<circle cx="660" cy="660" r="97.5" stroke="black" stroke-width="5"/>
<line x1="710.5" y1="535" x2="710.5" y2="785" stroke="black" stroke-width="7"/>
<line x1="663.5" y1="535" x2="663.5" y2="785" stroke="black" stroke-width="7"/>
<line x1="616.5" y1="535" x2="616.5" y2="785" stroke="black" stroke-width="7"/>
<rect x="922.5" y="462.5" width="395" height="395" stroke="black" stroke-width="5"/>
<circle cx="1120" cy="660" r="97.5" stroke="black" stroke-width="5"/>
<line x1="1123.5" y1="535" x2="1123.5" y2="785" stroke="black" stroke-width="7"/>
<rect x="2.5" y="922.5" width="395" height="395" stroke="black" stroke-width="5"/>
<path d="M297.5 1022.5V1217.5H102.5V1022.5H297.5Z" stroke="black" stroke-width="5"/>
<line x1="58.5251" y1="1192.66" x2="270.657" y2="980.526" stroke="black" stroke-width="7"/>
<line x1="91.7595" y1="1225.89" x2="303.892" y2="1013.76" stroke="black" stroke-width="7"/>
<line x1="124.994" y1="1259.13" x2="337.126" y2="1046.99" stroke="black" stroke-width="7"/>
<path d="M857.5 922.5V1317.5H462.5V922.5H857.5Z" stroke="black" stroke-width="5"/>
<path d="M857.5 922.5V1317.5H462.5V922.5H857.5Z" stroke="black" stroke-width="5"/>
<path d="M757.5 1022.5V1217.5H562.5V1022.5H757.5Z" stroke="black" stroke-width="5"/>
<line x1="552.525" y1="1226.66" x2="764.657" y2="1014.53" stroke="black" stroke-width="7"/>
<path d="M1119.5 1186V1147.1C1119.5 1128.88 1132.04 1113.05 1149.77 1108.88V1108.88C1157.73 1107.01 1164.9 1102.7 1170.29 1096.56L1170.75 1096.03C1176.75 1089.2 1180.34 1080.59 1180.96 1071.52L1181.21 1067.92C1182.34 1051.6 1175.74 1035.69 1163.39 1024.96L1161.97 1023.73C1144.76 1008.78 1120.21 1005.78 1099.9 1016.13L1095.45 1018.4C1072.6 1030.05 1060.04 1055.25 1064.5 1080.5V1080.5" stroke="black" stroke-width="30"/>
<rect x="1112.5" y="1218.5" width="15" height="15" fill="black" stroke="black" stroke-width="15"/>
</svg>
