<svg width="1460" height="1460" viewBox="0 0 1460 1460" fill="none" xmlns="http://www.w3.org/2000/svg">
<rect x="2.5" y="2.5" width="395" height="395" stroke="black" stroke-width="5"/>
<path d="M296.062 255.25H102.938L199.5 87.999L296.062 255.25Z" stroke="black" stroke-width="5"/>
<line x1="75" y1="180.5" x2="325" y2="180.5" stroke="black" stroke-width="7"/>
<rect x="532.5" y="2.5" width="395" height="395" stroke="black" stroke-width="5"/>
<path d="M826.062 255.25H632.938L729.5 87.999L826.062 255.25Z" stroke="black" stroke-width="5"/>
<line x1="605" y1="160.5" x2="855" y2="160.5" stroke="black" stroke-width="7"/>
<line x1="605" y1="200.5" x2="855" y2="200.5" stroke="black" stroke-width="7"/>
<rect x="1062.5" y="2.5" width="395" height="395" stroke="black" stroke-width="5"/>
<path d="M1356.06 255.25H1162.94L1259.5 87.999L1356.06 255.25Z" stroke="black" stroke-width="5"/>
<line x1="1135" y1="140.5" x2="1385" y2="140.5" stroke="black" stroke-width="7"/>
<line x1="1135" y1="180.5" x2="1385" y2="180.5" stroke="black" stroke-width="7"/>
<line x1="1135" y1="220.5" x2="1385" y2="220.5" stroke="black" stroke-width="7"/>
<rect x="2.5" y="532.5" width="395" height="395" stroke="black" stroke-width="5"/>
<circle cx="200" cy="730" r="97.5" stroke="black" stroke-width="5"/>
<line x1="225.5" y1="605" x2="225.5" y2="855" stroke="black" stroke-width="7"/>
<line x1="178.5" y1="605" x2="178.5" y2="855" stroke="black" stroke-width="7"/>
<rect x="532.5" y="532.5" width="395" height="395" stroke="black" stroke-width="5"/>
<circle cx="730" cy="730" r="97.5" stroke="black" stroke-width="5"/>
<line x1="780.5" y1="605" x2="780.5" y2="855" stroke="black" stroke-width="7"/>
<line x1="733.5" y1="605" x2="733.5" y2="855" stroke="black" stroke-width="7"/>
<line x1="686.5" y1="605" x2="686.5" y2="855" stroke="black" stroke-width="7"/>
<rect x="1062.5" y="532.5" width="395" height="395" stroke="black" stroke-width="5"/>
<circle cx="1260" cy="730" r="97.5" stroke="black" stroke-width="5"/>
<line x1="1263.5" y1="605" x2="1263.5" y2="855" stroke="black" stroke-width="7"/>
<rect x="2.5" y="1062.5" width="395" height="395" stroke="black" stroke-width="5"/>
<path d="M297.5 1162.5V1357.5H102.5V1162.5H297.5Z" stroke="black" stroke-width="5"/>
<line x1="58.5251" y1="1332.66" x2="270.657" y2="1120.53" stroke="black" stroke-width="7"/>
<line x1="91.7595" y1="1365.89" x2="303.892" y2="1153.76" stroke="black" stroke-width="7"/>
<line x1="124.994" y1="1399.13" x2="337.126" y2="1186.99" stroke="black" stroke-width="7"/>
<path d="M927.5 1062.5V1457.5H532.5V1062.5H927.5Z" stroke="black" stroke-width="5"/>
<path d="M927.5 1062.5V1457.5H532.5V1062.5H927.5Z" stroke="black" stroke-width="5"/>
<path d="M827.5 1162.5V1357.5H632.5V1162.5H827.5Z" stroke="black" stroke-width="5"/>
<line x1="622.525" y1="1366.66" x2="834.657" y2="1154.53" stroke="black" stroke-width="7"/>
<path d="M1259.5 1326V1287.1C1259.5 1268.88 1272.04 1253.05 1289.77 1248.88V1248.88C1297.73 1247.01 1304.9 1242.7 1310.29 1236.56L1310.75 1236.03C1316.75 1229.2 1320.34 1220.59 1320.96 1211.52L1321.21 1207.92C1322.34 1191.6 1315.74 1175.69 1303.39 1164.96L1301.97 1163.73C1284.76 1148.78 1260.21 1145.78 1239.9 1156.13L1235.45 1158.4C1212.6 1170.05 1200.04 1195.25 1204.5 1220.5V1220.5" stroke="black" stroke-width="30"/>
<rect x="1252.5" y="1358.5" width="15" height="15" fill="black" stroke="black" stroke-width="15"/>
</svg>
