<svg width="1326" height="1326" viewBox="0 0 1326 1326" fill="none" xmlns="http://www.w3.org/2000/svg">
<path d="M403 3H3V403H403V3Z" stroke="black" stroke-width="5"/>
<path d="M264.5 253C276.926 253 287 243.15 287 231C287 218.85 276.926 209 264.5 209C252.074 209 242 218.85 242 231C242 243.15 252.074 253 264.5 253Z" fill="black"/>
<path d="M187 63.5C197.717 63.5 206.5 72.401 206.5 83.5C206.5 94.599 197.717 103.5 187 103.5C176.283 103.5 167.5 94.599 167.5 83.5C167.5 72.401 176.283 63.5 187 63.5Z" stroke="black" stroke-width="5"/>
<path d="M142.5 298C154.926 298 165 287.926 165 275.5C165 263.074 154.926 253 142.5 253C130.074 253 120 263.074 120 275.5C120 287.926 130.074 298 142.5 298Z" fill="black"/>
<path d="M863 3H463V403H863V3Z" stroke="black" stroke-width="5"/>
<path d="M592.5 103C604.926 103 615 92.9264 615 80.5C615 68.0736 604.926 58 592.5 58C580.074 58 570 68.0736 570 80.5C570 92.9264 580.074 103 592.5 103Z" fill="black"/>
<path d="M734.5 231.5C745.546 231.5 754.5 240.454 754.5 251.5C754.5 262.546 745.546 271.5 734.5 271.5C723.454 271.5 714.5 262.546 714.5 251.5C714.5 240.454 723.454 231.5 734.5 231.5Z" stroke="black" stroke-width="5"/>
<path d="M1323 3H923V403H1323V3Z" stroke="black" stroke-width="5"/>
<path d="M1141.5 62.5C1152.55 62.5 1161.5 71.4543 1161.5 82.5C1161.5 93.5457 1152.55 102.5 1141.5 102.5C1130.45 102.5 1121.5 93.5457 1121.5 82.5C1121.5 71.4543 1130.45 62.5 1141.5 62.5Z" stroke="black" stroke-width="5"/>
<path d="M1263.5 167.5C1274.55 167.5 1283.5 176.454 1283.5 187.5C1283.5 198.546 1274.55 207.5 1263.5 207.5C1252.45 207.5 1243.5 198.546 1243.5 187.5C1243.5 176.454 1252.45 167.5 1263.5 167.5Z" stroke="black" stroke-width="5"/>
<path d="M1109.5 242C1121.93 242 1132 231.926 1132 219.5C1132 207.074 1121.93 197 1109.5 197C1097.07 197 1087 207.074 1087 219.5C1087 231.926 1097.07 242 1109.5 242Z" fill="black"/>
<path d="M403 463H3V863H403V463Z" stroke="black" stroke-width="5"/>
<path d="M106.5 624.5C117.546 624.5 126.5 633.454 126.5 644.5C126.5 655.546 117.546 664.5 106.5 664.5C95.4543 664.5 86.5 655.546 86.5 644.5C86.5 633.454 95.4543 624.5 106.5 624.5Z" stroke="black" stroke-width="5"/>
<path d="M236.5 761.5C247.546 761.5 256.5 770.454 256.5 781.5C256.5 792.546 247.546 801.5 236.5 801.5C225.454 801.5 216.5 792.546 216.5 781.5C216.5 770.454 225.454 761.5 236.5 761.5Z" stroke="black" stroke-width="5"/>
<path d="M268.5 698C280.926 698 291 687.926 291 675.5C291 663.074 280.926 653 268.5 653C256.074 653 246 663.074 246 675.5C246 687.926 256.074 698 268.5 698Z" fill="black"/>
<path d="M863 463H463V863H863V463Z" stroke="black" stroke-width="5"/>
<path d="M615.5 752C627.926 752 638 741.926 638 729.5C638 717.074 627.926 707 615.5 707C603.074 707 593 717.074 593 729.5C593 741.926 603.074 752 615.5 752Z" fill="black"/>
<path d="M766.5 629.5C777.546 629.5 786.5 638.454 786.5 649.5C786.5 660.546 777.546 669.5 766.5 669.5C755.454 669.5 746.5 660.546 746.5 649.5C746.5 638.454 755.454 629.5 766.5 629.5Z" stroke="black" stroke-width="5"/>
<path d="M1323 463H923V863H1323V463Z" stroke="black" stroke-width="5"/>
<path d="M1196.5 661.5C1207.55 661.5 1216.5 670.454 1216.5 681.5C1216.5 692.546 1207.55 701.5 1196.5 701.5C1185.45 701.5 1176.5 692.546 1176.5 681.5C1176.5 670.454 1185.45 661.5 1196.5 661.5Z" stroke="black" stroke-width="5"/>
<path d="M1141.5 556.5C1152.55 556.5 1161.5 565.454 1161.5 576.5C1161.5 587.546 1152.55 596.5 1141.5 596.5C1130.45 596.5 1121.5 587.546 1121.5 576.5C1121.5 565.454 1130.45 556.5 1141.5 556.5Z" stroke="black" stroke-width="5"/>
<path d="M1109.5 693.5C1120.55 693.5 1129.5 702.454 1129.5 713.5C1129.5 724.546 1120.55 733.5 1109.5 733.5C1098.45 733.5 1089.5 724.546 1089.5 713.5C1089.5 702.454 1098.45 693.5 1109.5 693.5Z" stroke="black" stroke-width="5"/>
<path d="M403 923H3V1323H403V923Z" stroke="black" stroke-width="5"/>
<path d="M209.5 1197C221.926 1197 232 1186.93 232 1174.5C232 1162.07 221.926 1152 209.5 1152C197.074 1152 187 1162.07 187 1174.5C187 1186.93 197.074 1197 209.5 1197Z" fill="black"/>
<path d="M154.5 1092C166.926 1092 177 1081.93 177 1069.5C177 1057.07 166.926 1047 154.5 1047C142.074 1047 132 1057.07 132 1069.5C132 1081.93 142.074 1092 154.5 1092Z" fill="black"/>
<path d="M122.5 1229C134.926 1229 145 1218.93 145 1206.5C145 1194.07 134.926 1184 122.5 1184C110.074 1184 100 1194.07 100 1206.5C100 1218.93 110.074 1229 122.5 1229Z" fill="black"/>
<path d="M863 923H463V1323H863V923Z" stroke="black" stroke-width="5"/>
<path d="M647.5 1133.5C658.546 1133.5 667.5 1142.45 667.5 1153.5C667.5 1164.55 658.546 1173.5 647.5 1173.5C636.454 1173.5 627.5 1164.55 627.5 1153.5C627.5 1142.45 636.454 1133.5 647.5 1133.5Z" stroke="black" stroke-width="5"/>
<path d="M1122.5 1189V1150.1C1122.5 1131.88 1135.04 1116.05 1152.77 1111.88V1111.88C1160.73 1110.01 1167.9 1105.7 1173.29 1099.56L1173.75 1099.03C1179.75 1092.2 1183.34 1083.59 1183.96 1074.52L1184.21 1070.92C1185.34 1054.6 1178.74 1038.69 1166.39 1027.96L1164.97 1026.73C1147.76 1011.78 1123.21 1008.78 1102.9 1019.13L1098.45 1021.4C1075.6 1033.05 1063.04 1058.25 1067.5 1083.5V1083.5" stroke="black" stroke-width="30"/>
<rect x="1115.5" y="1221.5" width="15" height="15" fill="black" stroke="black" stroke-width="15"/>
</svg>
