<svg width="1466" height="1466" viewBox="0 0 1466 1466" fill="none" xmlns="http://www.w3.org/2000/svg">
<path d="M403 3H3V403H403V3Z" stroke="black" stroke-width="5"/>
<path d="M264.5 253C276.926 253 287 243.15 287 231C287 218.85 276.926 209 264.5 209C252.074 209 242 218.85 242 231C242 243.15 252.074 253 264.5 253Z" fill="black"/>
<path d="M187 63.5C197.717 63.5 206.5 72.401 206.5 83.5C206.5 94.599 197.717 103.5 187 103.5C176.283 103.5 167.5 94.599 167.5 83.5C167.5 72.401 176.283 63.5 187 63.5Z" stroke="black" stroke-width="5"/>
<path d="M142.5 298C154.926 298 165 287.926 165 275.5C165 263.074 154.926 253 142.5 253C130.074 253 120 263.074 120 275.5C120 287.926 130.074 298 142.5 298Z" fill="black"/>
<path d="M933 3H533V403H933V3Z" stroke="black" stroke-width="5"/>
<path d="M662.5 103C674.926 103 685 92.9264 685 80.5C685 68.0736 674.926 58 662.5 58C650.074 58 640 68.0736 640 80.5C640 92.9264 650.074 103 662.5 103Z" fill="black"/>
<path d="M804.5 231.5C815.546 231.5 824.5 240.454 824.5 251.5C824.5 262.546 815.546 271.5 804.5 271.5C793.454 271.5 784.5 262.546 784.5 251.5C784.5 240.454 793.454 231.5 804.5 231.5Z" stroke="black" stroke-width="5"/>
<path d="M1463 3H1063V403H1463V3Z" stroke="black" stroke-width="5"/>
<path d="M1281.5 62.5C1292.55 62.5 1301.5 71.4543 1301.5 82.5C1301.5 93.5457 1292.55 102.5 1281.5 102.5C1270.45 102.5 1261.5 93.5457 1261.5 82.5C1261.5 71.4543 1270.45 62.5 1281.5 62.5Z" stroke="black" stroke-width="5"/>
<path d="M1403.5 167.5C1414.55 167.5 1423.5 176.454 1423.5 187.5C1423.5 198.546 1414.55 207.5 1403.5 207.5C1392.45 207.5 1383.5 198.546 1383.5 187.5C1383.5 176.454 1392.45 167.5 1403.5 167.5Z" stroke="black" stroke-width="5"/>
<path d="M1249.5 242C1261.93 242 1272 231.926 1272 219.5C1272 207.074 1261.93 197 1249.5 197C1237.07 197 1227 207.074 1227 219.5C1227 231.926 1237.07 242 1249.5 242Z" fill="black"/>
<path d="M403 533H3V933H403V533Z" stroke="black" stroke-width="5"/>
<path d="M106.5 694.5C117.546 694.5 126.5 703.454 126.5 714.5C126.5 725.546 117.546 734.5 106.5 734.5C95.4543 734.5 86.5 725.546 86.5 714.5C86.5 703.454 95.4543 694.5 106.5 694.5Z" stroke="black" stroke-width="5"/>
<path d="M236.5 831.5C247.546 831.5 256.5 840.454 256.5 851.5C256.5 862.546 247.546 871.5 236.5 871.5C225.454 871.5 216.5 862.546 216.5 851.5C216.5 840.454 225.454 831.5 236.5 831.5Z" stroke="black" stroke-width="5"/>
<path d="M268.5 768C280.926 768 291 757.926 291 745.5C291 733.074 280.926 723 268.5 723C256.074 723 246 733.074 246 745.5C246 757.926 256.074 768 268.5 768Z" fill="black"/>
<path d="M933 533H533V933H933V533Z" stroke="black" stroke-width="5"/>
<path d="M685.5 822C697.926 822 708 811.926 708 799.5C708 787.074 697.926 777 685.5 777C673.074 777 663 787.074 663 799.5C663 811.926 673.074 822 685.5 822Z" fill="black"/>
<path d="M836.5 699.5C847.546 699.5 856.5 708.454 856.5 719.5C856.5 730.546 847.546 739.5 836.5 739.5C825.454 739.5 816.5 730.546 816.5 719.5C816.5 708.454 825.454 699.5 836.5 699.5Z" stroke="black" stroke-width="5"/>
<path d="M1463 533H1063V933H1463V533Z" stroke="black" stroke-width="5"/>
<path d="M1336.5 731.5C1347.55 731.5 1356.5 740.454 1356.5 751.5C1356.5 762.546 1347.55 771.5 1336.5 771.5C1325.45 771.5 1316.5 762.546 1316.5 751.5C1316.5 740.454 1325.45 731.5 1336.5 731.5Z" stroke="black" stroke-width="5"/>
<path d="M1281.5 626.5C1292.55 626.5 1301.5 635.454 1301.5 646.5C1301.5 657.546 1292.55 666.5 1281.5 666.5C1270.45 666.5 1261.5 657.546 1261.5 646.5C1261.5 635.454 1270.45 626.5 1281.5 626.5Z" stroke="black" stroke-width="5"/>
<path d="M1249.5 763.5C1260.55 763.5 1269.5 772.454 1269.5 783.5C1269.5 794.546 1260.55 803.5 1249.5 803.5C1238.45 803.5 1229.5 794.546 1229.5 783.5C1229.5 772.454 1238.45 763.5 1249.5 763.5Z" stroke="black" stroke-width="5"/>
<path d="M403 1063H3V1463H403V1063Z" stroke="black" stroke-width="5"/>
<path d="M209.5 1337C221.926 1337 232 1326.93 232 1314.5C232 1302.07 221.926 1292 209.5 1292C197.074 1292 187 1302.07 187 1314.5C187 1326.93 197.074 1337 209.5 1337Z" fill="black"/>
<path d="M154.5 1232C166.926 1232 177 1221.93 177 1209.5C177 1197.07 166.926 1187 154.5 1187C142.074 1187 132 1197.07 132 1209.5C132 1221.93 142.074 1232 154.5 1232Z" fill="black"/>
<path d="M122.5 1369C134.926 1369 145 1358.93 145 1346.5C145 1334.07 134.926 1324 122.5 1324C110.074 1324 100 1334.07 100 1346.5C100 1358.93 110.074 1369 122.5 1369Z" fill="black"/>
<path d="M933 1063H533V1463H933V1063Z" stroke="black" stroke-width="5"/>
<path d="M717.5 1273.5C728.546 1273.5 737.5 1282.45 737.5 1293.5C737.5 1304.55 728.546 1313.5 717.5 1313.5C706.454 1313.5 697.5 1304.55 697.5 1293.5C697.5 1282.45 706.454 1273.5 717.5 1273.5Z" stroke="black" stroke-width="5"/>
<path d="M1262.5 1329V1290.1C1262.5 1271.88 1275.04 1256.05 1292.77 1251.88V1251.88C1300.73 1250.01 1307.9 1245.7 1313.29 1239.56L1313.75 1239.03C1319.75 1232.2 1323.34 1223.59 1323.96 1214.52L1324.21 1210.92C1325.34 1194.6 1318.74 1178.69 1306.39 1167.96L1304.97 1166.73C1287.76 1151.78 1263.21 1148.78 1242.9 1159.13L1238.45 1161.4C1215.6 1173.05 1203.04 1198.25 1207.5 1223.5V1223.5" stroke="black" stroke-width="30"/>
<rect x="1255.5" y="1361.5" width="15" height="15" fill="black" stroke="black" stroke-width="15"/>
</svg>
