<svg width="1460" height="1460" viewBox="0 0 1460 1460" fill="none" xmlns="http://www.w3.org/2000/svg">
<rect x="2.5" y="2.5" width="395" height="395" stroke="black" stroke-width="5"/>
<path d="M350 200L200 350L50 200V50L200 190.5L350 50V200ZM200 340.1L336.6 203.5H63.4004L200 340.1ZM203.834 196.5H343V66.1465L203.834 196.5ZM57 196.5H196.166L57 66.1465V196.5Z" fill="black"/>
<rect x="532.5" y="2.5" width="395" height="395" stroke="black" stroke-width="5"/>
<path d="M580.008 199.898L730.008 49.8985L880.008 199.898L880.008 349.898L730.008 209.398L580.008 349.898L580.008 199.898ZM730.008 59.7988L593.408 196.398L866.607 196.398L730.008 59.7988ZM726.174 203.398L587.008 203.398L587.008 333.752L726.174 203.398ZM873.008 203.398L733.842 203.398L873.008 333.752L873.008 203.398Z" fill="black"/>
<rect x="1062.5" y="2.5" width="395" height="395" stroke="black" stroke-width="5"/>
<path d="M1410 350L1335 275L1260 350L1185 275L1110 350V50L1185 125L1260 50L1335 125L1410 50V350ZM1192.42 272.524L1260 340.1L1327.58 272.524L1260 204.949L1192.42 272.524ZM1117 333.1L1177.58 272.524L1117 211.949V333.1ZM1342.42 272.524L1403 333.1V211.949L1342.42 272.524ZM1185 134.899L1182.52 132.424L1117 197.949V202.051L1182.52 267.575L1185 265.101L1187.47 267.575L1255.05 200L1187.47 132.424L1185 134.899ZM1335 134.899L1332.52 132.424L1264.95 200L1332.52 267.575L1335 265.101L1337.47 267.575L1403 202.051V197.949L1337.47 132.424L1335 134.899ZM1192.42 127.476L1260 195.051L1327.58 127.476L1260 59.9004L1192.42 127.476ZM1117 188.051L1177.58 127.476L1117 66.9004V188.051ZM1342.42 127.476L1403 188.051V66.9004L1342.42 127.476Z" fill="black"/>
<rect x="2.5" y="532.5" width="395" height="395" stroke="black" stroke-width="5"/>
<path d="M341.551 876.5H53.5V588.449L341.551 876.5Z" stroke="black" stroke-width="7"/>
<rect x="532.5" y="532.5" width="395" height="395" stroke="black" stroke-width="5"/>
<path d="M726.5 733.5V876.5H583.5V733.5H726.5ZM876.5 583.5V871.551L738.449 733.5H738.45L732.475 727.525L731.449 726.5L726.5 721.55V721.551L588.449 583.5H876.5Z" stroke="black" stroke-width="7"/>
<rect x="1062.5" y="532.5" width="395" height="395" stroke="black" stroke-width="5"/>
<path d="M1406.5 583.5V876.5H1263.5V726.5H1113.5V583.5H1406.5Z" stroke="black" stroke-width="7"/>
<rect x="2.5" y="1062.5" width="395" height="395" stroke="black" stroke-width="5"/>
<path d="M346.5 1263.5V1406.5H203.5V1263.5H346.5ZM196.5 1113.5V1256.5H53.5V1113.5H196.5Z" stroke="black" stroke-width="7"/>
<rect x="532.5" y="1062.5" width="395" height="395" stroke="black" stroke-width="5"/>
<path d="M733.5 1113.5H876.5V1256.5H733.5V1113.5ZM583.5 1263.5H726.5V1406.5H583.5V1263.5Z" stroke="black" stroke-width="7"/>
<path d="M1259.5 1326V1287.1C1259.5 1268.88 1272.04 1253.05 1289.77 1248.88V1248.88C1297.73 1247.01 1304.9 1242.7 1310.29 1236.56L1310.75 1236.03C1316.75 1229.2 1320.34 1220.59 1320.96 1211.52L1321.21 1207.92C1322.34 1191.6 1315.74 1175.69 1303.39 1164.96L1301.97 1163.73C1284.76 1148.78 1260.21 1145.78 1239.9 1156.13L1235.45 1158.4C1212.6 1170.05 1200.04 1195.25 1204.5 1220.5V1220.5" stroke="black" stroke-width="30"/>
<rect x="1252.5" y="1358.5" width="15" height="15" fill="black" stroke="black" stroke-width="15"/>
</svg>
