<svg width="1320" height="1320" viewBox="0 0 1320 1320" fill="none" xmlns="http://www.w3.org/2000/svg">
<g clip-path="url(#clip0_1556_4177)">
<rect x="2.5" y="2.5" width="395" height="395" stroke="black" stroke-width="5"/>
<path d="M350 200L200 350L50 200V50L200 190.5L350 50V200ZM200 340.1L336.6 203.5H63.4004L200 340.1ZM203.834 196.5H343V66.1465L203.834 196.5ZM57 196.5H196.166L57 66.1465V196.5Z" fill="black"/>
<rect x="462.5" y="2.5" width="395" height="395" stroke="black" stroke-width="5"/>
<path d="M510.008 199.898L660.008 49.8985L810.008 199.898L810.008 349.898L660.008 209.398L510.008 349.898L510.008 199.898ZM660.008 59.7988L523.408 196.398L796.607 196.398L660.008 59.7988ZM656.174 203.398L517.008 203.398L517.008 333.752L656.174 203.398ZM803.008 203.398L663.842 203.398L803.008 333.752L803.008 203.398Z" fill="black"/>
<rect x="922.5" y="2.5" width="395" height="395" stroke="black" stroke-width="5"/>
<path d="M1270 350L1195 275L1120 350L1045 275L970 350V50L1045 125L1120 50L1195 125L1270 50V350ZM1052.42 272.524L1120 340.1L1187.58 272.524L1120 204.949L1052.42 272.524ZM977 333.1L1037.58 272.524L977 211.949V333.1ZM1202.42 272.524L1263 333.1V211.949L1202.42 272.524ZM1045 134.899L1042.52 132.424L977 197.949V202.051L1042.52 267.575L1045 265.101L1047.47 267.575L1115.05 200L1047.47 132.424L1045 134.899ZM1195 134.899L1192.52 132.424L1124.95 200L1192.52 267.575L1195 265.101L1197.47 267.575L1263 202.051V197.949L1197.47 132.424L1195 134.899ZM1052.42 127.476L1120 195.051L1187.58 127.476L1120 59.9004L1052.42 127.476ZM977 188.051L1037.58 127.476L977 66.9004V188.051ZM1202.42 127.476L1263 188.051V66.9004L1202.42 127.476Z" fill="black"/>
<rect x="2.5" y="462.5" width="395" height="395" stroke="black" stroke-width="5"/>
<path d="M341.551 806.5H53.5V518.449L341.551 806.5Z" stroke="black" stroke-width="7"/>
<rect x="462.5" y="462.5" width="395" height="395" stroke="black" stroke-width="5"/>
<path d="M656.5 663.5V806.5H513.5V663.5H656.5ZM806.5 513.5V801.551L668.449 663.5H668.45L662.475 657.525L661.449 656.5L656.5 651.55V651.551L518.449 513.5H806.5Z" stroke="black" stroke-width="7"/>
<rect x="922.5" y="462.5" width="395" height="395" stroke="black" stroke-width="5"/>
<path d="M1266.5 513.5V806.5H1123.5V656.5H973.5V513.5H1266.5Z" stroke="black" stroke-width="7"/>
<rect x="2.5" y="922.5" width="395" height="395" stroke="black" stroke-width="5"/>
<path d="M346.5 1123.5V1266.5H203.5V1123.5H346.5ZM196.5 973.5V1116.5H53.5V973.5H196.5Z" stroke="black" stroke-width="7"/>
<rect x="462.5" y="922.5" width="395" height="395" stroke="black" stroke-width="5"/>
<path d="M663.5 973.5H806.5V1116.5H663.5V973.5ZM513.5 1123.5H656.5V1266.5H513.5V1123.5Z" stroke="black" stroke-width="7"/>
<path d="M1119.5 1186V1147.1C1119.5 1128.88 1132.04 1113.05 1149.77 1108.88V1108.88C1157.73 1107.01 1164.9 1102.7 1170.29 1096.56L1170.75 1096.03C1176.75 1089.2 1180.34 1080.59 1180.96 1071.52L1181.21 1067.92C1182.34 1051.6 1175.74 1035.69 1163.39 1024.96L1161.97 1023.73C1144.76 1008.78 1120.21 1005.78 1099.9 1016.13L1095.45 1018.4C1072.6 1030.05 1060.04 1055.25 1064.5 1080.5V1080.5" stroke="black" stroke-width="30"/>
<rect x="1112.5" y="1218.5" width="15" height="15" fill="black" stroke="black" stroke-width="15"/>
</g>
<defs>
<clipPath id="clip0_1556_4177">
<rect width="1320" height="1320" fill="white"/>
</clipPath>
</defs>
</svg>
