<svg width="1326" height="1326" viewBox="0 0 1326 1326" fill="none" xmlns="http://www.w3.org/2000/svg">
<path d="M403 3H3V403H403V3Z" stroke="black" stroke-width="5"/>
<path d="M202.996 203.091L207.126 83.4708C207.126 83.4708 238.345 71.0357 253.477 76.8115C268.707 82.6245 283.268 113.909 283.268 113.909L202.996 203.091Z" stroke="black" stroke-width="5"/>
<path d="M202.868 203.6L85.7824 178.761C85.7824 178.761 78.9571 145.858 87.2729 131.958C95.6422 117.969 128.98 109.062 128.98 109.062L202.868 203.6Z" stroke="black" stroke-width="5"/>
<path d="M202.823 200.415L97.164 256.649C97.164 256.649 70.7858 235.83 68.2215 219.837C65.6408 203.742 85.4533 175.489 85.4533 175.489L202.823 200.415Z" stroke="black" stroke-width="5"/>
<path d="M203.12 201.687L158.326 312.681C158.326 312.681 124.738 313.689 112.493 303.086C100.17 292.414 97.1869 258.037 97.1869 258.037L203.12 201.687Z" fill="white" stroke="black" stroke-width="5"/>
<path d="M203.151 202.502L129.424 108.213C129.424 108.213 145.346 78.6199 160.65 73.3175C176.054 67.981 207.317 82.5865 207.317 82.5865L203.151 202.502Z" stroke="black" stroke-width="5"/>
<path d="M202.946 202.132L282.252 112.485C282.252 112.485 314.247 122.758 322.245 136.843C330.294 151.019 321.619 184.417 321.619 184.417L202.946 202.132Z" stroke="black" stroke-width="5"/>
<path d="M202.944 202.733L321.465 186.029C321.465 186.029 339.132 214.613 336.071 230.519C332.991 246.527 304.711 266.299 304.711 266.299L202.944 202.733Z" fill="#0170C3" stroke="black" stroke-width="5"/>
<path d="M206.079 202.54L307.608 265.927C307.608 265.927 302.768 299.181 290.2 309.398C277.551 319.681 243.177 316.649 243.177 316.649L206.079 202.54Z" fill="#0170C3" stroke="black" stroke-width="5"/>
<path d="M203.427 203.007L240.459 316.826C240.459 316.826 215.376 339.189 199.181 338.937C182.881 338.683 158.499 314.266 158.499 314.266L203.427 203.007Z" fill="#0170C3" stroke="black" stroke-width="5"/>
<path d="M863 3H463V403H863V3Z" stroke="black" stroke-width="5"/>
<path d="M662.996 203.091L667.126 83.4708C667.126 83.4708 698.345 71.0357 713.477 76.8115C728.707 82.6245 743.268 113.909 743.268 113.909L662.996 203.091Z" stroke="black" stroke-width="5"/>
<path d="M662.868 203.592L545.782 178.753C545.782 178.753 538.957 145.85 547.273 131.95C555.642 117.961 588.98 109.054 588.98 109.054L662.868 203.592Z" stroke="black" stroke-width="5"/>
<path d="M662.823 200.415L557.164 256.649C557.164 256.649 530.786 235.83 528.222 219.837C525.641 203.742 545.453 175.489 545.453 175.489L662.823 200.415Z" fill="#0170C3" stroke="black" stroke-width="5"/>
<path d="M663.12 201.679L618.326 312.673C618.326 312.673 584.738 313.681 572.493 303.078C560.17 292.407 557.187 258.029 557.187 258.029L663.12 201.679Z" stroke="black" stroke-width="5"/>
<path d="M663.151 202.494L589.424 108.205C589.424 108.205 605.346 78.6121 620.65 73.3097C636.054 67.9732 667.317 82.5787 667.317 82.5787L663.151 202.494Z" stroke="black" stroke-width="5"/>
<path d="M662.946 202.132L742.252 112.485C742.252 112.485 774.247 122.758 782.245 136.843C790.294 151.019 781.619 184.417 781.619 184.417L662.946 202.132Z" fill="#0170C3" stroke="black" stroke-width="5"/>
<path d="M662.944 202.733L781.465 186.029C781.465 186.029 799.132 214.613 796.071 230.519C792.991 246.527 764.711 266.299 764.711 266.299L662.944 202.733Z" fill="#0170C3" stroke="black" stroke-width="5"/>
<path d="M666.079 202.54L767.608 265.927C767.608 265.927 762.768 299.181 750.2 309.398C737.551 319.681 703.177 316.649 703.177 316.649L666.079 202.54Z" stroke="black" stroke-width="5"/>
<path d="M663.427 203L700.459 316.818C700.459 316.818 675.376 339.181 659.181 338.929C642.881 338.676 618.499 314.258 618.499 314.258L663.427 203Z" stroke="black" stroke-width="5"/>
<path d="M1323 3H923V403H1323V3Z" stroke="black" stroke-width="5"/>
<path d="M1123 203.091L1127.13 83.4708C1127.13 83.4708 1158.34 71.0357 1173.48 76.8115C1188.71 82.6245 1203.27 113.909 1203.27 113.909L1123 203.091Z" fill="#0170C3" stroke="black" stroke-width="5"/>
<path d="M1122.87 203.592L1005.78 178.753C1005.78 178.753 998.957 145.85 1007.27 131.95C1015.64 117.961 1048.98 109.054 1048.98 109.054L1122.87 203.592Z" stroke="black" stroke-width="5"/>
<path d="M1122.82 200.415L1017.16 256.649C1017.16 256.649 990.786 235.83 988.222 219.837C985.641 203.742 1005.45 175.489 1005.45 175.489L1122.82 200.415Z" fill="#0170C3" stroke="black" stroke-width="5"/>
<path d="M1123.12 201.679L1078.33 312.673C1078.33 312.673 1044.74 313.681 1032.49 303.078C1020.17 292.407 1017.19 258.029 1017.19 258.029L1123.12 201.679Z" stroke="black" stroke-width="5"/>
<path d="M1123.15 202.494L1049.42 108.205C1049.42 108.205 1065.35 78.6121 1080.65 73.3097C1096.05 67.9732 1127.32 82.5787 1127.32 82.5787L1123.15 202.494Z" stroke="black" stroke-width="5"/>
<path d="M1122.95 202.132L1202.25 112.485C1202.25 112.485 1234.25 122.758 1242.24 136.843C1250.29 151.019 1241.62 184.417 1241.62 184.417L1122.95 202.132Z" stroke="black" stroke-width="5"/>
<path d="M1122.94 202.733L1241.46 186.029C1241.46 186.029 1259.13 214.613 1256.07 230.519C1252.99 246.527 1224.71 266.299 1224.71 266.299L1122.94 202.733Z" stroke="black" stroke-width="5"/>
<path d="M1126.08 202.54L1227.61 265.927C1227.61 265.927 1222.77 299.181 1210.2 309.398C1197.55 319.681 1163.18 316.649 1163.18 316.649L1126.08 202.54Z" fill="#0170C3" stroke="black" stroke-width="5"/>
<path d="M1123.43 203L1160.46 316.818C1160.46 316.818 1135.38 339.181 1119.18 338.929C1102.88 338.676 1078.5 314.258 1078.5 314.258L1123.43 203Z" stroke="black" stroke-width="5"/>
<path d="M403 463H3V863H403V463Z" stroke="black" stroke-width="5"/>
<path d="M202.996 663.091L207.126 543.471C207.126 543.471 238.345 531.036 253.477 536.812C268.707 542.624 283.268 573.909 283.268 573.909L202.996 663.091Z" fill="#0170C3" stroke="black" stroke-width="5"/>
<path d="M202.868 663.592L85.7824 638.753C85.7824 638.753 78.9571 605.85 87.2729 591.95C95.6422 577.961 128.98 569.054 128.98 569.054L202.868 663.592Z" stroke="black" stroke-width="5"/>
<path d="M202.823 660.415L97.164 716.649C97.164 716.649 70.7858 695.83 68.2215 679.837C65.6408 663.742 85.4533 635.489 85.4533 635.489L202.823 660.415Z" stroke="black" stroke-width="5"/>
<path d="M203.12 661.679L158.326 772.673C158.326 772.673 124.738 773.681 112.493 763.078C100.17 752.407 97.1869 718.029 97.1869 718.029L203.12 661.679Z" fill="#0170C3" stroke="black" stroke-width="5"/>
<path d="M203.151 662.494L129.424 568.205C129.424 568.205 145.346 538.612 160.65 533.31C176.054 527.973 207.317 542.579 207.317 542.579L203.151 662.494Z" stroke="black" stroke-width="5"/>
<path d="M202.946 662.132L282.252 572.485C282.252 572.485 314.247 582.758 322.245 596.843C330.294 611.019 321.619 644.417 321.619 644.417L202.946 662.132Z" stroke="black" stroke-width="5"/>
<path d="M202.944 662.733L321.465 646.029C321.465 646.029 339.132 674.613 336.071 690.519C332.991 706.527 304.711 726.299 304.711 726.299L202.944 662.733Z" stroke="black" stroke-width="5"/>
<path d="M206.079 662.54L307.608 725.927C307.608 725.927 302.768 759.181 290.2 769.398C277.551 779.681 243.177 776.649 243.177 776.649L206.079 662.54Z" stroke="black" stroke-width="5"/>
<path d="M203.427 663L240.459 776.818C240.459 776.818 215.376 799.181 199.181 798.929C182.881 798.676 158.499 774.258 158.499 774.258L203.427 663Z" fill="#0170C3" stroke="black" stroke-width="5"/>
<path d="M863 463H463V863H863V463Z" stroke="black" stroke-width="5"/>
<path d="M662.996 663.091L667.126 543.471C667.126 543.471 698.345 531.036 713.477 536.812C728.707 542.624 743.268 573.909 743.268 573.909L662.996 663.091Z" stroke="black" stroke-width="5"/>
<path d="M662.868 663.592L545.782 638.753C545.782 638.753 538.957 605.85 547.273 591.95C555.642 577.961 588.98 569.054 588.98 569.054L662.868 663.592Z" fill="#0170C3" stroke="black" stroke-width="5"/>
<path d="M662.823 660.415L557.164 716.649C557.164 716.649 530.786 695.83 528.222 679.837C525.641 663.742 545.453 635.489 545.453 635.489L662.823 660.415Z" stroke="black" stroke-width="5"/>
<path d="M663.12 661.679L618.326 772.673C618.326 772.673 584.738 773.681 572.493 763.078C560.17 752.407 557.187 718.029 557.187 718.029L663.12 661.679Z" stroke="black" stroke-width="5"/>
<path d="M663.151 662.494L589.424 568.205C589.424 568.205 605.346 538.612 620.65 533.31C636.054 527.973 667.317 542.579 667.317 542.579L663.151 662.494Z" stroke="black" stroke-width="5"/>
<path d="M662.946 662.132L742.252 572.485C742.252 572.485 774.247 582.758 782.245 596.843C790.294 611.019 781.619 644.417 781.619 644.417L662.946 662.132Z" fill="#0170C3" stroke="black" stroke-width="5"/>
<path d="M662.944 662.733L781.465 646.029C781.465 646.029 799.132 674.613 796.071 690.519C792.991 706.527 764.711 726.299 764.711 726.299L662.944 662.733Z" stroke="black" stroke-width="5"/>
<path d="M666.079 662.54L767.608 725.927C767.608 725.927 762.768 759.181 750.2 769.398C737.551 779.681 703.177 776.649 703.177 776.649L666.079 662.54Z" stroke="black" stroke-width="5"/>
<path d="M663.427 663L700.459 776.818C700.459 776.818 675.376 799.181 659.181 798.929C642.881 798.676 618.499 774.258 618.499 774.258L663.427 663Z" fill="#0170C3" stroke="black" stroke-width="5"/>
<path d="M1323 463H923V863H1323V463Z" stroke="black" stroke-width="5"/>
<path d="M1123 663.091L1127.13 543.471C1127.13 543.471 1158.34 531.036 1173.48 536.812C1188.71 542.624 1203.27 573.909 1203.27 573.909L1123 663.091Z" stroke="black" stroke-width="5"/>
<path d="M1122.87 663.592L1005.78 638.753C1005.78 638.753 998.957 605.85 1007.27 591.95C1015.64 577.961 1048.98 569.054 1048.98 569.054L1122.87 663.592Z" fill="#0170C3" stroke="black" stroke-width="5"/>
<path d="M1122.82 660.415L1017.16 716.649C1017.16 716.649 990.786 695.83 988.222 679.837C985.641 663.742 1005.45 635.489 1005.45 635.489L1122.82 660.415Z" fill="#0170C3" stroke="black" stroke-width="5"/>
<path d="M1123.12 661.679L1078.33 772.673C1078.33 772.673 1044.74 773.681 1032.49 763.078C1020.17 752.407 1017.19 718.029 1017.19 718.029L1123.12 661.679Z" fill="#0170C3" stroke="black" stroke-width="5"/>
<path d="M1123.15 662.494L1049.42 568.205C1049.42 568.205 1065.35 538.612 1080.65 533.31C1096.05 527.973 1127.32 542.579 1127.32 542.579L1123.15 662.494Z" stroke="black" stroke-width="5"/>
<path d="M1122.95 662.132L1202.25 572.485C1202.25 572.485 1234.25 582.758 1242.24 596.843C1250.29 611.019 1241.62 644.417 1241.62 644.417L1122.95 662.132Z" stroke="black" stroke-width="5"/>
<path d="M1122.94 662.733L1241.46 646.029C1241.46 646.029 1259.13 674.613 1256.07 690.519C1252.99 706.527 1224.71 726.299 1224.71 726.299L1122.94 662.733Z" stroke="black" stroke-width="5"/>
<path d="M1126.08 662.54L1227.61 725.927C1227.61 725.927 1222.77 759.181 1210.2 769.398C1197.55 779.681 1163.18 776.649 1163.18 776.649L1126.08 662.54Z" stroke="black" stroke-width="5"/>
<path d="M1123.43 663L1160.46 776.818C1160.46 776.818 1135.38 799.181 1119.18 798.929C1102.88 798.676 1078.5 774.258 1078.5 774.258L1123.43 663Z" stroke="black" stroke-width="5"/>
<path d="M403 923H3V1323H403V923Z" stroke="black" stroke-width="5"/>
<path d="M202.996 1123.09L207.126 1003.47C207.126 1003.47 238.345 991.036 253.477 996.812C268.707 1002.62 283.268 1033.91 283.268 1033.91L202.996 1123.09Z" stroke="black" stroke-width="5"/>
<path d="M202.868 1123.6L85.7824 1098.76C85.7824 1098.76 78.9571 1065.86 87.2729 1051.96C95.6422 1037.97 128.98 1029.06 128.98 1029.06L202.868 1123.6Z" stroke="black" stroke-width="5"/>
<path d="M202.823 1120.42L97.164 1176.65C97.164 1176.65 70.7858 1155.83 68.2215 1139.84C65.6408 1123.74 85.4533 1095.49 85.4533 1095.49L202.823 1120.42Z" stroke="black" stroke-width="5"/>
<path d="M203.12 1121.69L158.326 1232.68C158.326 1232.68 124.738 1233.69 112.493 1223.09C100.17 1212.41 97.1869 1178.04 97.1869 1178.04L203.12 1121.69Z" fill="#0170C3" stroke="black" stroke-width="5"/>
<path d="M203.151 1122.5L129.424 1028.21C129.424 1028.21 145.346 998.62 160.65 993.318C176.054 987.981 207.317 1002.59 207.317 1002.59L203.151 1122.5Z" fill="#0170C3" stroke="black" stroke-width="5"/>
<path d="M202.946 1122.13L282.252 1032.48C282.252 1032.48 314.247 1042.76 322.245 1056.84C330.294 1071.02 321.619 1104.42 321.619 1104.42L202.946 1122.13Z" stroke="black" stroke-width="5"/>
<path d="M202.944 1122.73L321.465 1106.03C321.465 1106.03 339.132 1134.61 336.071 1150.52C332.991 1166.53 304.711 1186.3 304.711 1186.3L202.944 1122.73Z" fill="#0170C3" stroke="black" stroke-width="5"/>
<path d="M206.079 1122.54L307.608 1185.93C307.608 1185.93 302.768 1219.18 290.2 1229.4C277.551 1239.68 243.177 1236.65 243.177 1236.65L206.079 1122.54Z" stroke="black" stroke-width="5"/>
<path d="M203.427 1123.01L240.459 1236.83C240.459 1236.83 215.376 1259.19 199.181 1258.94C182.881 1258.68 158.499 1234.27 158.499 1234.27L203.427 1123.01Z" stroke="black" stroke-width="5"/>
<path d="M863 923H463V1323H863V923Z" stroke="black" stroke-width="5"/>
<path d="M662.996 1123.09L667.126 1003.47C667.126 1003.47 698.345 991.036 713.477 996.812C728.707 1002.62 743.268 1033.91 743.268 1033.91L662.996 1123.09Z" fill="#0170C3" stroke="black" stroke-width="5"/>
<path d="M662.868 1123.59L545.782 1098.75C545.782 1098.75 538.957 1065.85 547.273 1051.95C555.642 1037.96 588.98 1029.05 588.98 1029.05L662.868 1123.59Z" stroke="black" stroke-width="5"/>
<path d="M662.823 1120.42L557.164 1176.65C557.164 1176.65 530.786 1155.83 528.222 1139.84C525.641 1123.74 545.453 1095.49 545.453 1095.49L662.823 1120.42Z" stroke="black" stroke-width="5"/>
<path d="M663.12 1121.68L618.326 1232.67C618.326 1232.67 584.738 1233.68 572.493 1223.08C560.17 1212.41 557.187 1178.03 557.187 1178.03L663.12 1121.68Z" stroke="black" stroke-width="5"/>
<path d="M663.151 1122.49L589.424 1028.2C589.424 1028.2 605.346 998.612 620.65 993.31C636.054 987.973 667.317 1002.58 667.317 1002.58L663.151 1122.49Z" fill="#0170C3" stroke="black" stroke-width="5"/>
<path d="M662.946 1122.13L742.252 1032.48C742.252 1032.48 774.247 1042.76 782.245 1056.84C790.294 1071.02 781.619 1104.42 781.619 1104.42L662.946 1122.13Z" fill="#0170C3" stroke="black" stroke-width="5"/>
<path d="M662.944 1122.73L781.465 1106.03C781.465 1106.03 799.132 1134.61 796.071 1150.52C792.991 1166.53 764.711 1186.3 764.711 1186.3L662.944 1122.73Z" stroke="black" stroke-width="5"/>
<path d="M666.079 1122.54L767.608 1185.93C767.608 1185.93 762.768 1219.18 750.2 1229.4C737.551 1239.68 703.177 1236.65 703.177 1236.65L666.079 1122.54Z" stroke="black" stroke-width="5"/>
<path d="M663.427 1123L700.459 1236.82C700.459 1236.82 675.376 1259.18 659.181 1258.93C642.881 1258.68 618.499 1234.26 618.499 1234.26L663.427 1123Z" stroke="black" stroke-width="5"/>
<path d="M1122.5 1189V1150.1C1122.5 1131.88 1135.04 1116.05 1152.77 1111.88V1111.88C1160.73 1110.01 1167.9 1105.7 1173.29 1099.56L1173.75 1099.03C1179.75 1092.2 1183.34 1083.59 1183.96 1074.52L1184.21 1070.92C1185.34 1054.6 1178.74 1038.69 1166.39 1027.96L1164.97 1026.73C1147.76 1011.78 1123.21 1008.78 1102.9 1019.13L1098.45 1021.4C1075.6 1033.05 1063.04 1058.25 1067.5 1083.5V1083.5" stroke="black" stroke-width="30"/>
<rect x="1115.5" y="1221.5" width="15" height="15" fill="black" stroke="black" stroke-width="15"/>
</svg>
