<svg width="1466" height="1466" viewBox="0 0 1466 1466" fill="none" xmlns="http://www.w3.org/2000/svg">
<path d="M403 3H3V403H403V3Z" stroke="black" stroke-width="5"/>
<path d="M202.996 203.091L207.126 83.4708C207.126 83.4708 238.345 71.0357 253.477 76.8115C268.707 82.6245 283.268 113.909 283.268 113.909L202.996 203.091Z" stroke="black" stroke-width="5"/>
<path d="M202.868 203.6L85.7824 178.761C85.7824 178.761 78.9571 145.858 87.2729 131.958C95.6422 117.969 128.98 109.062 128.98 109.062L202.868 203.6Z" stroke="black" stroke-width="5"/>
<path d="M202.823 200.415L97.164 256.649C97.164 256.649 70.7858 235.83 68.2215 219.837C65.6408 203.742 85.4533 175.489 85.4533 175.489L202.823 200.415Z" stroke="black" stroke-width="5"/>
<path d="M203.12 201.687L158.326 312.681C158.326 312.681 124.738 313.689 112.493 303.086C100.17 292.414 97.1869 258.037 97.1869 258.037L203.12 201.687Z" fill="white" stroke="black" stroke-width="5"/>
<path d="M203.151 202.502L129.424 108.213C129.424 108.213 145.346 78.6199 160.65 73.3175C176.054 67.981 207.317 82.5865 207.317 82.5865L203.151 202.502Z" stroke="black" stroke-width="5"/>
<path d="M202.946 202.132L282.252 112.485C282.252 112.485 314.247 122.758 322.245 136.843C330.294 151.019 321.619 184.417 321.619 184.417L202.946 202.132Z" stroke="black" stroke-width="5"/>
<path d="M202.944 202.733L321.465 186.029C321.465 186.029 339.132 214.613 336.071 230.519C332.991 246.527 304.711 266.299 304.711 266.299L202.944 202.733Z" fill="#0170C3" stroke="black" stroke-width="5"/>
<path d="M206.079 202.54L307.608 265.927C307.608 265.927 302.768 299.181 290.2 309.398C277.551 319.681 243.177 316.649 243.177 316.649L206.079 202.54Z" fill="#0170C3" stroke="black" stroke-width="5"/>
<path d="M203.427 203.007L240.459 316.826C240.459 316.826 215.376 339.189 199.181 338.937C182.881 338.683 158.499 314.266 158.499 314.266L203.427 203.007Z" fill="#0170C3" stroke="black" stroke-width="5"/>
<path d="M933 3H533V403H933V3Z" stroke="black" stroke-width="5"/>
<path d="M732.996 203.091L737.126 83.4708C737.126 83.4708 768.345 71.0357 783.477 76.8115C798.707 82.6245 813.268 113.909 813.268 113.909L732.996 203.091Z" stroke="black" stroke-width="5"/>
<path d="M732.868 203.592L615.782 178.753C615.782 178.753 608.957 145.85 617.273 131.95C625.642 117.961 658.98 109.054 658.98 109.054L732.868 203.592Z" stroke="black" stroke-width="5"/>
<path d="M732.823 200.415L627.164 256.649C627.164 256.649 600.786 235.83 598.222 219.837C595.641 203.742 615.453 175.489 615.453 175.489L732.823 200.415Z" fill="#0170C3" stroke="black" stroke-width="5"/>
<path d="M733.12 201.679L688.326 312.673C688.326 312.673 654.738 313.681 642.493 303.078C630.17 292.407 627.187 258.029 627.187 258.029L733.12 201.679Z" stroke="black" stroke-width="5"/>
<path d="M733.151 202.494L659.424 108.205C659.424 108.205 675.346 78.6121 690.65 73.3097C706.054 67.9732 737.317 82.5787 737.317 82.5787L733.151 202.494Z" stroke="black" stroke-width="5"/>
<path d="M732.946 202.132L812.252 112.485C812.252 112.485 844.247 122.758 852.245 136.843C860.294 151.019 851.619 184.417 851.619 184.417L732.946 202.132Z" fill="#0170C3" stroke="black" stroke-width="5"/>
<path d="M732.944 202.733L851.465 186.029C851.465 186.029 869.132 214.613 866.071 230.519C862.991 246.527 834.711 266.299 834.711 266.299L732.944 202.733Z" fill="#0170C3" stroke="black" stroke-width="5"/>
<path d="M736.079 202.54L837.608 265.927C837.608 265.927 832.768 299.181 820.2 309.398C807.551 319.681 773.177 316.649 773.177 316.649L736.079 202.54Z" stroke="black" stroke-width="5"/>
<path d="M733.427 203L770.459 316.818C770.459 316.818 745.376 339.181 729.181 338.929C712.881 338.676 688.499 314.258 688.499 314.258L733.427 203Z" stroke="black" stroke-width="5"/>
<path d="M1463 3H1063V403H1463V3Z" stroke="black" stroke-width="5"/>
<path d="M1263 203.091L1267.13 83.4708C1267.13 83.4708 1298.34 71.0357 1313.48 76.8115C1328.71 82.6245 1343.27 113.909 1343.27 113.909L1263 203.091Z" fill="#0170C3" stroke="black" stroke-width="5"/>
<path d="M1262.87 203.592L1145.78 178.753C1145.78 178.753 1138.96 145.85 1147.27 131.95C1155.64 117.961 1188.98 109.054 1188.98 109.054L1262.87 203.592Z" stroke="black" stroke-width="5"/>
<path d="M1262.82 200.415L1157.16 256.649C1157.16 256.649 1130.79 235.83 1128.22 219.837C1125.64 203.742 1145.45 175.489 1145.45 175.489L1262.82 200.415Z" fill="#0170C3" stroke="black" stroke-width="5"/>
<path d="M1263.12 201.679L1218.33 312.673C1218.33 312.673 1184.74 313.681 1172.49 303.078C1160.17 292.407 1157.19 258.029 1157.19 258.029L1263.12 201.679Z" stroke="black" stroke-width="5"/>
<path d="M1263.15 202.494L1189.42 108.205C1189.42 108.205 1205.35 78.6121 1220.65 73.3097C1236.05 67.9732 1267.32 82.5787 1267.32 82.5787L1263.15 202.494Z" stroke="black" stroke-width="5"/>
<path d="M1262.95 202.132L1342.25 112.485C1342.25 112.485 1374.25 122.758 1382.24 136.843C1390.29 151.019 1381.62 184.417 1381.62 184.417L1262.95 202.132Z" stroke="black" stroke-width="5"/>
<path d="M1262.94 202.733L1381.46 186.029C1381.46 186.029 1399.13 214.613 1396.07 230.519C1392.99 246.527 1364.71 266.299 1364.71 266.299L1262.94 202.733Z" stroke="black" stroke-width="5"/>
<path d="M1266.08 202.54L1367.61 265.927C1367.61 265.927 1362.77 299.181 1350.2 309.398C1337.55 319.681 1303.18 316.649 1303.18 316.649L1266.08 202.54Z" fill="#0170C3" stroke="black" stroke-width="5"/>
<path d="M1263.43 203L1300.46 316.818C1300.46 316.818 1275.38 339.181 1259.18 338.929C1242.88 338.676 1218.5 314.258 1218.5 314.258L1263.43 203Z" stroke="black" stroke-width="5"/>
<path d="M403 533H3V933H403V533Z" stroke="black" stroke-width="5"/>
<path d="M202.996 733.091L207.126 613.471C207.126 613.471 238.345 601.036 253.477 606.812C268.707 612.624 283.268 643.909 283.268 643.909L202.996 733.091Z" fill="#0170C3" stroke="black" stroke-width="5"/>
<path d="M202.868 733.592L85.7824 708.753C85.7824 708.753 78.9571 675.85 87.2729 661.95C95.6422 647.961 128.98 639.054 128.98 639.054L202.868 733.592Z" stroke="black" stroke-width="5"/>
<path d="M202.823 730.415L97.164 786.649C97.164 786.649 70.7858 765.83 68.2215 749.837C65.6408 733.742 85.4533 705.489 85.4533 705.489L202.823 730.415Z" stroke="black" stroke-width="5"/>
<path d="M203.12 731.679L158.326 842.673C158.326 842.673 124.738 843.681 112.493 833.078C100.17 822.407 97.1869 788.029 97.1869 788.029L203.12 731.679Z" fill="#0170C3" stroke="black" stroke-width="5"/>
<path d="M203.151 732.494L129.424 638.205C129.424 638.205 145.346 608.612 160.65 603.31C176.054 597.973 207.317 612.579 207.317 612.579L203.151 732.494Z" stroke="black" stroke-width="5"/>
<path d="M202.946 732.132L282.252 642.485C282.252 642.485 314.247 652.758 322.245 666.843C330.294 681.019 321.619 714.417 321.619 714.417L202.946 732.132Z" stroke="black" stroke-width="5"/>
<path d="M202.944 732.733L321.465 716.029C321.465 716.029 339.132 744.613 336.071 760.519C332.991 776.527 304.711 796.299 304.711 796.299L202.944 732.733Z" stroke="black" stroke-width="5"/>
<path d="M206.079 732.54L307.608 795.927C307.608 795.927 302.768 829.181 290.2 839.398C277.551 849.681 243.177 846.649 243.177 846.649L206.079 732.54Z" stroke="black" stroke-width="5"/>
<path d="M203.427 733L240.459 846.818C240.459 846.818 215.376 869.181 199.181 868.929C182.881 868.676 158.499 844.258 158.499 844.258L203.427 733Z" fill="#0170C3" stroke="black" stroke-width="5"/>
<path d="M933 533H533V933H933V533Z" stroke="black" stroke-width="5"/>
<path d="M732.996 733.091L737.126 613.471C737.126 613.471 768.345 601.036 783.477 606.812C798.707 612.624 813.268 643.909 813.268 643.909L732.996 733.091Z" stroke="black" stroke-width="5"/>
<path d="M732.868 733.592L615.782 708.753C615.782 708.753 608.957 675.85 617.273 661.95C625.642 647.961 658.98 639.054 658.98 639.054L732.868 733.592Z" fill="#0170C3" stroke="black" stroke-width="5"/>
<path d="M732.823 730.415L627.164 786.649C627.164 786.649 600.786 765.83 598.222 749.837C595.641 733.742 615.453 705.489 615.453 705.489L732.823 730.415Z" stroke="black" stroke-width="5"/>
<path d="M733.12 731.679L688.326 842.673C688.326 842.673 654.738 843.681 642.493 833.078C630.17 822.407 627.187 788.029 627.187 788.029L733.12 731.679Z" stroke="black" stroke-width="5"/>
<path d="M733.151 732.494L659.424 638.205C659.424 638.205 675.346 608.612 690.65 603.31C706.054 597.973 737.317 612.579 737.317 612.579L733.151 732.494Z" stroke="black" stroke-width="5"/>
<path d="M732.946 732.132L812.252 642.485C812.252 642.485 844.247 652.758 852.245 666.843C860.294 681.019 851.619 714.417 851.619 714.417L732.946 732.132Z" fill="#0170C3" stroke="black" stroke-width="5"/>
<path d="M732.944 732.733L851.465 716.029C851.465 716.029 869.132 744.613 866.071 760.519C862.991 776.527 834.711 796.299 834.711 796.299L732.944 732.733Z" stroke="black" stroke-width="5"/>
<path d="M736.079 732.54L837.608 795.927C837.608 795.927 832.768 829.181 820.2 839.398C807.551 849.681 773.177 846.649 773.177 846.649L736.079 732.54Z" stroke="black" stroke-width="5"/>
<path d="M733.427 733L770.459 846.818C770.459 846.818 745.376 869.181 729.181 868.929C712.881 868.676 688.499 844.258 688.499 844.258L733.427 733Z" fill="#0170C3" stroke="black" stroke-width="5"/>
<path d="M1463 533H1063V933H1463V533Z" stroke="black" stroke-width="5"/>
<path d="M1263 733.091L1267.13 613.471C1267.13 613.471 1298.34 601.036 1313.48 606.812C1328.71 612.624 1343.27 643.909 1343.27 643.909L1263 733.091Z" stroke="black" stroke-width="5"/>
<path d="M1262.87 733.592L1145.78 708.753C1145.78 708.753 1138.96 675.85 1147.27 661.95C1155.64 647.961 1188.98 639.054 1188.98 639.054L1262.87 733.592Z" fill="#0170C3" stroke="black" stroke-width="5"/>
<path d="M1262.82 730.415L1157.16 786.649C1157.16 786.649 1130.79 765.83 1128.22 749.837C1125.64 733.742 1145.45 705.489 1145.45 705.489L1262.82 730.415Z" fill="#0170C3" stroke="black" stroke-width="5"/>
<path d="M1263.12 731.679L1218.33 842.673C1218.33 842.673 1184.74 843.681 1172.49 833.078C1160.17 822.407 1157.19 788.029 1157.19 788.029L1263.12 731.679Z" fill="#0170C3" stroke="black" stroke-width="5"/>
<path d="M1263.15 732.494L1189.42 638.205C1189.42 638.205 1205.35 608.612 1220.65 603.31C1236.05 597.973 1267.32 612.579 1267.32 612.579L1263.15 732.494Z" stroke="black" stroke-width="5"/>
<path d="M1262.95 732.132L1342.25 642.485C1342.25 642.485 1374.25 652.758 1382.24 666.843C1390.29 681.019 1381.62 714.417 1381.62 714.417L1262.95 732.132Z" stroke="black" stroke-width="5"/>
<path d="M1262.94 732.733L1381.46 716.029C1381.46 716.029 1399.13 744.613 1396.07 760.519C1392.99 776.527 1364.71 796.299 1364.71 796.299L1262.94 732.733Z" stroke="black" stroke-width="5"/>
<path d="M1266.08 732.54L1367.61 795.927C1367.61 795.927 1362.77 829.181 1350.2 839.398C1337.55 849.681 1303.18 846.649 1303.18 846.649L1266.08 732.54Z" stroke="black" stroke-width="5"/>
<path d="M1263.43 733L1300.46 846.818C1300.46 846.818 1275.38 869.181 1259.18 868.929C1242.88 868.676 1218.5 844.258 1218.5 844.258L1263.43 733Z" stroke="black" stroke-width="5"/>
<path d="M403 1063H3V1463H403V1063Z" stroke="black" stroke-width="5"/>
<path d="M202.996 1263.09L207.126 1143.47C207.126 1143.47 238.345 1131.04 253.477 1136.81C268.707 1142.62 283.268 1173.91 283.268 1173.91L202.996 1263.09Z" stroke="black" stroke-width="5"/>
<path d="M202.868 1263.6L85.7824 1238.76C85.7824 1238.76 78.9571 1205.86 87.2729 1191.96C95.6422 1177.97 128.98 1169.06 128.98 1169.06L202.868 1263.6Z" stroke="black" stroke-width="5"/>
<path d="M202.823 1260.42L97.164 1316.65C97.164 1316.65 70.7858 1295.83 68.2215 1279.84C65.6408 1263.74 85.4533 1235.49 85.4533 1235.49L202.823 1260.42Z" stroke="black" stroke-width="5"/>
<path d="M203.12 1261.69L158.326 1372.68C158.326 1372.68 124.738 1373.69 112.493 1363.09C100.17 1352.41 97.1869 1318.04 97.1869 1318.04L203.12 1261.69Z" fill="#0170C3" stroke="black" stroke-width="5"/>
<path d="M203.151 1262.5L129.424 1168.21C129.424 1168.21 145.346 1138.62 160.65 1133.32C176.054 1127.98 207.317 1142.59 207.317 1142.59L203.151 1262.5Z" fill="#0170C3" stroke="black" stroke-width="5"/>
<path d="M202.946 1262.13L282.252 1172.48C282.252 1172.48 314.247 1182.76 322.245 1196.84C330.294 1211.02 321.619 1244.42 321.619 1244.42L202.946 1262.13Z" stroke="black" stroke-width="5"/>
<path d="M202.944 1262.73L321.465 1246.03C321.465 1246.03 339.132 1274.61 336.071 1290.52C332.991 1306.53 304.711 1326.3 304.711 1326.3L202.944 1262.73Z" fill="#0170C3" stroke="black" stroke-width="5"/>
<path d="M206.079 1262.54L307.608 1325.93C307.608 1325.93 302.768 1359.18 290.2 1369.4C277.551 1379.68 243.177 1376.65 243.177 1376.65L206.079 1262.54Z" stroke="black" stroke-width="5"/>
<path d="M203.427 1263.01L240.459 1376.83C240.459 1376.83 215.376 1399.19 199.181 1398.94C182.881 1398.68 158.499 1374.27 158.499 1374.27L203.427 1263.01Z" stroke="black" stroke-width="5"/>
<path d="M933 1063H533V1463H933V1063Z" stroke="black" stroke-width="5"/>
<path d="M732.996 1263.09L737.126 1143.47C737.126 1143.47 768.345 1131.04 783.477 1136.81C798.707 1142.62 813.268 1173.91 813.268 1173.91L732.996 1263.09Z" fill="#0170C3" stroke="black" stroke-width="5"/>
<path d="M732.868 1263.59L615.782 1238.75C615.782 1238.75 608.957 1205.85 617.273 1191.95C625.642 1177.96 658.98 1169.05 658.98 1169.05L732.868 1263.59Z" stroke="black" stroke-width="5"/>
<path d="M732.823 1260.42L627.164 1316.65C627.164 1316.65 600.786 1295.83 598.222 1279.84C595.641 1263.74 615.453 1235.49 615.453 1235.49L732.823 1260.42Z" stroke="black" stroke-width="5"/>
<path d="M733.12 1261.68L688.326 1372.67C688.326 1372.67 654.738 1373.68 642.493 1363.08C630.17 1352.41 627.187 1318.03 627.187 1318.03L733.12 1261.68Z" stroke="black" stroke-width="5"/>
<path d="M733.151 1262.49L659.424 1168.2C659.424 1168.2 675.346 1138.61 690.65 1133.31C706.054 1127.97 737.317 1142.58 737.317 1142.58L733.151 1262.49Z" fill="#0170C3" stroke="black" stroke-width="5"/>
<path d="M732.946 1262.13L812.252 1172.48C812.252 1172.48 844.247 1182.76 852.245 1196.84C860.294 1211.02 851.619 1244.42 851.619 1244.42L732.946 1262.13Z" fill="#0170C3" stroke="black" stroke-width="5"/>
<path d="M732.944 1262.73L851.465 1246.03C851.465 1246.03 869.132 1274.61 866.071 1290.52C862.991 1306.53 834.711 1326.3 834.711 1326.3L732.944 1262.73Z" stroke="black" stroke-width="5"/>
<path d="M736.079 1262.54L837.608 1325.93C837.608 1325.93 832.768 1359.18 820.2 1369.4C807.551 1379.68 773.177 1376.65 773.177 1376.65L736.079 1262.54Z" stroke="black" stroke-width="5"/>
<path d="M733.427 1263L770.459 1376.82C770.459 1376.82 745.376 1399.18 729.181 1398.93C712.881 1398.68 688.499 1374.26 688.499 1374.26L733.427 1263Z" stroke="black" stroke-width="5"/>
<path d="M1262.5 1329V1290.1C1262.5 1271.88 1275.04 1256.05 1292.77 1251.88V1251.88C1300.73 1250.01 1307.9 1245.7 1313.29 1239.56L1313.75 1239.03C1319.75 1232.2 1323.34 1223.59 1323.96 1214.52L1324.21 1210.92C1325.34 1194.6 1318.74 1178.69 1306.39 1167.96L1304.97 1166.73C1287.76 1151.78 1263.21 1148.78 1242.9 1159.13L1238.45 1161.4C1215.6 1173.05 1203.04 1198.25 1207.5 1223.5V1223.5" stroke="black" stroke-width="30"/>
<rect x="1255.5" y="1361.5" width="15" height="15" fill="black" stroke="black" stroke-width="15"/>
</svg>
