<svg width="1460" height="1460" viewBox="0 0 1460 1460" fill="none" xmlns="http://www.w3.org/2000/svg">
<rect x="2.5" y="2.5" width="395" height="395" stroke="black" stroke-width="5"/>
<path d="M312.5 138.879V261.12L200 332.044L87.5 261.12V138.879L200 67.9551L312.5 138.879Z" stroke="black" stroke-width="5"/>
<path d="M281 170C289.284 170 296 163.284 296 155C296 146.716 289.284 140 281 140C272.716 140 266 146.716 266 155C266 163.284 272.716 170 281 170Z" fill="black"/>
<path d="M118 236.5C124.904 236.5 130.5 242.096 130.5 249C130.5 255.904 124.904 261.5 118 261.5C111.096 261.5 105.5 255.904 105.5 249C105.5 242.096 111.096 236.5 118 236.5Z" stroke="black" stroke-width="5"/>
<rect x="532.5" y="2.5" width="395" height="395" stroke="black" stroke-width="5"/>
<path d="M842.5 138.879V261.12L730 332.044L617.5 261.12V138.879L730 67.9551L842.5 138.879Z" stroke="black" stroke-width="5"/>
<path d="M730 315C738.284 315 745 308.284 745 300C745 291.716 738.284 285 730 285C721.716 285 715 291.716 715 300C715 308.284 721.716 315 730 315Z" fill="black"/>
<path d="M648 142.5C654.904 142.5 660.5 148.096 660.5 155C660.5 161.904 654.904 167.5 648 167.5C641.096 167.5 635.5 161.904 635.5 155C635.5 148.096 641.096 142.5 648 142.5Z" stroke="black" stroke-width="5"/>
<rect x="1062.5" y="2.5" width="395" height="395" stroke="black" stroke-width="5"/>
<path d="M1372.5 138.879V261.12L1260 332.044L1147.5 261.12V138.879L1260 67.9551L1372.5 138.879Z" stroke="black" stroke-width="5"/>
<path d="M1178 170C1186.28 170 1193 163.284 1193 155C1193 146.716 1186.28 140 1178 140C1169.72 140 1163 146.716 1163 155C1163 163.284 1169.72 170 1178 170Z" fill="black"/>
<path d="M1260 87.5C1266.9 87.5 1272.5 93.0964 1272.5 100C1272.5 106.904 1266.9 112.5 1260 112.5C1253.1 112.5 1247.5 106.904 1247.5 100C1247.5 93.0964 1253.1 87.5 1260 87.5Z" stroke="black" stroke-width="5"/>
<rect x="2.5" y="532.5" width="395" height="395" stroke="black" stroke-width="5"/>
<path d="M312.5 668.879V791.12L200 862.044L87.5 791.12V668.879L200 597.955L312.5 668.879Z" stroke="black" stroke-width="5"/>
<path d="M281 794C289.284 794 296 787.284 296 779C296 770.716 289.284 764 281 764C272.716 764 266 770.716 266 779C266 787.284 272.716 794 281 794Z" fill="black"/>
<path d="M200 817.5C206.904 817.5 212.5 823.096 212.5 830C212.5 836.904 206.904 842.5 200 842.5C193.096 842.5 187.5 836.904 187.5 830C187.5 823.096 193.096 817.5 200 817.5Z" stroke="black" stroke-width="5"/>
<rect x="532.5" y="532.5" width="395" height="395" stroke="black" stroke-width="5"/>
<path d="M842.5 668.879V791.12L730 862.044L617.5 791.12V668.879L730 597.955L842.5 668.879Z" stroke="black" stroke-width="5"/>
<path d="M648 794C656.284 794 663 787.284 663 779C663 770.716 656.284 764 648 764C639.716 764 633 770.716 633 779C633 787.284 639.716 794 648 794Z" fill="black"/>
<rect x="1062.5" y="532.5" width="395" height="395" stroke="black" stroke-width="5"/>
<path d="M1372.5 668.879V791.12L1260 862.044L1147.5 791.12V668.879L1260 597.955L1372.5 668.879Z" stroke="black" stroke-width="5"/>
<path d="M1260 645C1268.28 645 1275 638.284 1275 630C1275 621.716 1268.28 615 1260 615C1251.72 615 1245 621.716 1245 630C1245 638.284 1251.72 645 1260 645Z" fill="black"/>
<path d="M1178 672.5C1184.9 672.5 1190.5 678.096 1190.5 685C1190.5 691.904 1184.9 697.5 1178 697.5C1171.1 697.5 1165.5 691.904 1165.5 685C1165.5 678.096 1171.1 672.5 1178 672.5Z" stroke="black" stroke-width="5"/>
<rect x="2.5" y="1062.5" width="395" height="395" stroke="black" stroke-width="5"/>
<path d="M312.5 1198.88V1321.12L200 1392.04L87.5 1321.12V1198.88L200 1127.96L312.5 1198.88Z" stroke="black" stroke-width="5"/>
<path d="M200 1175C208.284 1175 215 1168.28 215 1160C215 1151.72 208.284 1145 200 1145C191.716 1145 185 1151.72 185 1160C185 1168.28 191.716 1175 200 1175Z" fill="black"/>
<path d="M118 1202.5C124.904 1202.5 130.5 1208.1 130.5 1215C130.5 1221.9 124.904 1227.5 118 1227.5C111.096 1227.5 105.5 1221.9 105.5 1215C105.5 1208.1 111.096 1202.5 118 1202.5Z" stroke="black" stroke-width="5"/>
<rect x="532.5" y="1062.5" width="395" height="395" stroke="black" stroke-width="5"/>
<path d="M842.5 1198.88V1321.12L730 1392.04L617.5 1321.12V1198.88L730 1127.96L842.5 1198.88Z" stroke="black" stroke-width="5"/>
<path d="M811 1324C819.284 1324 826 1317.28 826 1309C826 1300.72 819.284 1294 811 1294C802.716 1294 796 1300.72 796 1309C796 1317.28 802.716 1324 811 1324Z" fill="black"/>
<path d="M730 1147.5C736.904 1147.5 742.5 1153.1 742.5 1160C742.5 1166.9 736.904 1172.5 730 1172.5C723.096 1172.5 717.5 1166.9 717.5 1160C717.5 1153.1 723.096 1147.5 730 1147.5Z" stroke="black" stroke-width="5"/>
<path d="M1259.5 1326V1287.1C1259.5 1268.88 1272.04 1253.05 1289.77 1248.88V1248.88C1297.73 1247.01 1304.9 1242.7 1310.29 1236.56L1310.75 1236.03C1316.75 1229.2 1320.34 1220.59 1320.96 1211.52L1321.21 1207.92C1322.34 1191.6 1315.74 1175.69 1303.39 1164.96L1301.97 1163.73C1284.76 1148.78 1260.21 1145.78 1239.9 1156.13L1235.45 1158.4C1212.6 1170.05 1200.04 1195.25 1204.5 1220.5V1220.5" stroke="black" stroke-width="30"/>
<rect x="1252.5" y="1358.5" width="15" height="15" fill="black" stroke="black" stroke-width="15"/>
</svg>
