<svg width="1320" height="1320" viewBox="0 0 1320 1320" fill="none" xmlns="http://www.w3.org/2000/svg">
<rect x="2.5" y="2.5" width="395" height="395" stroke="black" stroke-width="5"/>
<path d="M312.5 138.879V261.12L200 332.044L87.5 261.12V138.879L200 67.9551L312.5 138.879Z" stroke="black" stroke-width="5"/>
<path d="M281 170C289.284 170 296 163.284 296 155C296 146.716 289.284 140 281 140C272.716 140 266 146.716 266 155C266 163.284 272.716 170 281 170Z" fill="black"/>
<path d="M118 236.5C124.904 236.5 130.5 242.096 130.5 249C130.5 255.904 124.904 261.5 118 261.5C111.096 261.5 105.5 255.904 105.5 249C105.5 242.096 111.096 236.5 118 236.5Z" stroke="black" stroke-width="5"/>
<rect x="462.5" y="2.5" width="395" height="395" stroke="black" stroke-width="5"/>
<path d="M772.5 138.879V261.12L660 332.044L547.5 261.12V138.879L660 67.9551L772.5 138.879Z" stroke="black" stroke-width="5"/>
<path d="M660 315C668.284 315 675 308.284 675 300C675 291.716 668.284 285 660 285C651.716 285 645 291.716 645 300C645 308.284 651.716 315 660 315Z" fill="black"/>
<path d="M578 142.5C584.904 142.5 590.5 148.096 590.5 155C590.5 161.904 584.904 167.5 578 167.5C571.096 167.5 565.5 161.904 565.5 155C565.5 148.096 571.096 142.5 578 142.5Z" stroke="black" stroke-width="5"/>
<rect x="922.5" y="2.5" width="395" height="395" stroke="black" stroke-width="5"/>
<path d="M1232.5 138.879V261.12L1120 332.044L1007.5 261.12V138.879L1120 67.9551L1232.5 138.879Z" stroke="black" stroke-width="5"/>
<path d="M1038 170C1046.28 170 1053 163.284 1053 155C1053 146.716 1046.28 140 1038 140C1029.72 140 1023 146.716 1023 155C1023 163.284 1029.72 170 1038 170Z" fill="black"/>
<path d="M1120 87.5C1126.9 87.5 1132.5 93.0964 1132.5 100C1132.5 106.904 1126.9 112.5 1120 112.5C1113.1 112.5 1107.5 106.904 1107.5 100C1107.5 93.0964 1113.1 87.5 1120 87.5Z" stroke="black" stroke-width="5"/>
<rect x="2.5" y="462.5" width="395" height="395" stroke="black" stroke-width="5"/>
<path d="M312.5 598.879V721.12L200 792.044L87.5 721.12V598.879L200 527.955L312.5 598.879Z" stroke="black" stroke-width="5"/>
<path d="M281 724C289.284 724 296 717.284 296 709C296 700.716 289.284 694 281 694C272.716 694 266 700.716 266 709C266 717.284 272.716 724 281 724Z" fill="black"/>
<path d="M200 747.5C206.904 747.5 212.5 753.096 212.5 760C212.5 766.904 206.904 772.5 200 772.5C193.096 772.5 187.5 766.904 187.5 760C187.5 753.096 193.096 747.5 200 747.5Z" stroke="black" stroke-width="5"/>
<rect x="462.5" y="462.5" width="395" height="395" stroke="black" stroke-width="5"/>
<path d="M772.5 598.879V721.12L660 792.044L547.5 721.12V598.879L660 527.955L772.5 598.879Z" stroke="black" stroke-width="5"/>
<path d="M578 724C586.284 724 593 717.284 593 709C593 700.716 586.284 694 578 694C569.716 694 563 700.716 563 709C563 717.284 569.716 724 578 724Z" fill="black"/>
<rect x="922.5" y="462.5" width="395" height="395" stroke="black" stroke-width="5"/>
<path d="M1232.5 598.879V721.12L1120 792.044L1007.5 721.12V598.879L1120 527.955L1232.5 598.879Z" stroke="black" stroke-width="5"/>
<path d="M1120 575C1128.28 575 1135 568.284 1135 560C1135 551.716 1128.28 545 1120 545C1111.72 545 1105 551.716 1105 560C1105 568.284 1111.72 575 1120 575Z" fill="black"/>
<path d="M1038 602.5C1044.9 602.5 1050.5 608.096 1050.5 615C1050.5 621.904 1044.9 627.5 1038 627.5C1031.1 627.5 1025.5 621.904 1025.5 615C1025.5 608.096 1031.1 602.5 1038 602.5Z" stroke="black" stroke-width="5"/>
<rect x="2.5" y="922.5" width="395" height="395" stroke="black" stroke-width="5"/>
<path d="M312.5 1058.88V1181.12L200 1252.04L87.5 1181.12V1058.88L200 987.955L312.5 1058.88Z" stroke="black" stroke-width="5"/>
<path d="M200 1035C208.284 1035 215 1028.28 215 1020C215 1011.72 208.284 1005 200 1005C191.716 1005 185 1011.72 185 1020C185 1028.28 191.716 1035 200 1035Z" fill="black"/>
<path d="M118 1062.5C124.904 1062.5 130.5 1068.1 130.5 1075C130.5 1081.9 124.904 1087.5 118 1087.5C111.096 1087.5 105.5 1081.9 105.5 1075C105.5 1068.1 111.096 1062.5 118 1062.5Z" stroke="black" stroke-width="5"/>
<rect x="462.5" y="922.5" width="395" height="395" stroke="black" stroke-width="5"/>
<path d="M772.5 1058.88V1181.12L660 1252.04L547.5 1181.12V1058.88L660 987.955L772.5 1058.88Z" stroke="black" stroke-width="5"/>
<path d="M741 1184C749.284 1184 756 1177.28 756 1169C756 1160.72 749.284 1154 741 1154C732.716 1154 726 1160.72 726 1169C726 1177.28 732.716 1184 741 1184Z" fill="black"/>
<path d="M660 1007.5C666.904 1007.5 672.5 1013.1 672.5 1020C672.5 1026.9 666.904 1032.5 660 1032.5C653.096 1032.5 647.5 1026.9 647.5 1020C647.5 1013.1 653.096 1007.5 660 1007.5Z" stroke="black" stroke-width="5"/>
<path d="M1119.5 1186V1147.1C1119.5 1128.88 1132.04 1113.05 1149.77 1108.88V1108.88C1157.73 1107.01 1164.9 1102.7 1170.29 1096.56L1170.75 1096.03C1176.75 1089.2 1180.34 1080.59 1180.96 1071.52L1181.21 1067.92C1182.34 1051.6 1175.74 1035.69 1163.39 1024.96L1161.97 1023.73C1144.76 1008.78 1120.21 1005.78 1099.9 1016.13L1095.45 1018.4C1072.6 1030.05 1060.04 1055.25 1064.5 1080.5V1080.5" stroke="black" stroke-width="30"/>
<rect x="1112.5" y="1218.5" width="15" height="15" fill="black" stroke="black" stroke-width="15"/>
</svg>
