<svg width="1320" height="1320" viewBox="0 0 1320 1320" fill="none" xmlns="http://www.w3.org/2000/svg">
<rect x="2.5" y="2.5" width="395" height="395" stroke="black" stroke-width="5"/>
<path d="M200 100H100V200H300V300H200" stroke="black" stroke-width="10"/>
<rect x="462.5" y="2.5" width="395" height="395" stroke="black" stroke-width="5"/>
<path d="M660.004 275.008L660.004 200.008L660.004 125.008" stroke="black" stroke-width="10"/>
<rect x="-2.5" y="2.5" width="395" height="395" transform="matrix(-1 0 0 1 1315 0)" stroke="black" stroke-width="5"/>
<path d="M1120 100H1220V200H1020V300H1120" stroke="black" stroke-width="10"/>
<rect x="-2.5" y="-2.5" width="395" height="395" transform="matrix(0 -1 -1 0 395 855)" stroke="black" stroke-width="5"/>
<path d="M300 660V760H200V560H100V660" stroke="black" stroke-width="10"/>
<rect x="462.5" y="462.5" width="395" height="395" stroke="black" stroke-width="5"/>
<path d="M735.004 660.008H660.004H585.004" stroke="black" stroke-width="10"/>
<rect x="922.5" y="857.5" width="395" height="395" transform="rotate(-90 922.5 857.5)" stroke="black" stroke-width="5"/>
<path d="M1035 660V760H1135V560H1235V660" stroke="black" stroke-width="10"/>
<rect x="-2.5" y="2.5" width="395" height="395" transform="matrix(-1 0 0 1 395 920)" stroke="black" stroke-width="5"/>
<path d="M200 1011H300V1111H100V1211H200" stroke="black" stroke-width="10"/>
<rect x="462.5" y="922.5" width="395" height="395" stroke="black" stroke-width="5"/>
<path d="M713.035 1066.97L660.002 1120.01L606.969 1173.04" stroke="black" stroke-width="10"/>
<path d="M1119.5 1186V1147.1C1119.5 1128.88 1132.04 1113.05 1149.77 1108.88V1108.88C1157.73 1107.01 1164.9 1102.7 1170.29 1096.56L1170.75 1096.03C1176.75 1089.2 1180.34 1080.59 1180.96 1071.52L1181.21 1067.92C1182.34 1051.6 1175.74 1035.69 1163.39 1024.96L1161.97 1023.73C1144.76 1008.78 1120.21 1005.78 1099.9 1016.13L1095.45 1018.4C1072.6 1030.05 1060.04 1055.25 1064.5 1080.5V1080.5" stroke="black" stroke-width="30"/>
<rect x="1112.5" y="1218.5" width="15" height="15" fill="black" stroke="black" stroke-width="15"/>
</svg>
