<svg width="1326" height="1326" viewBox="0 0 1326 1326" fill="none" xmlns="http://www.w3.org/2000/svg">
<path d="M403 3H3V403H403V3Z" stroke="black" stroke-width="5"/>
<path d="M255.475 66.5251C254.108 65.1583 251.892 65.1583 250.525 66.5251L228.251 88.799C226.884 90.1658 226.884 92.3819 228.251 93.7487C229.618 95.1156 231.834 95.1156 233.201 93.7487L253 73.9497L272.799 93.7487C274.166 95.1156 276.382 95.1156 277.749 93.7487C279.116 92.3819 279.116 90.1658 277.749 88.799L255.475 66.5251ZM253 119L256.5 119L256.5 69L253 69L249.5 69L249.5 119L253 119Z" fill="black"/>
<path d="M255.475 284.525C254.108 283.158 251.892 283.158 250.525 284.525L228.251 306.799C226.884 308.166 226.884 310.382 228.251 311.749C229.618 313.116 231.834 313.116 233.201 311.749L253 291.95L272.799 311.749C274.166 313.116 276.382 313.116 277.749 311.749C279.116 310.382 279.116 308.166 277.749 306.799L255.475 284.525ZM253 337H256.5V287H253H249.5V337H253Z" fill="black"/>
<path d="M150.525 339.475C151.892 340.842 154.108 340.842 155.475 339.475L177.749 317.201C179.116 315.834 179.116 313.618 177.749 312.251C176.382 310.884 174.166 310.884 172.799 312.251L153 332.05L133.201 312.251C131.834 310.884 129.618 310.884 128.251 312.251C126.884 313.618 126.884 315.834 128.251 317.201L150.525 339.475ZM153 287L149.5 287L149.5 337L153 337L156.5 337L156.5 287L153 287Z" fill="black"/>
<path d="M203 69V337" stroke="black" stroke-width="10"/>
<path d="M863 3H463V403H863V3Z" stroke="black" stroke-width="5"/>
<path d="M710.525 121.475C711.892 122.842 714.108 122.842 715.475 121.475L737.749 99.201C739.116 97.8342 739.116 95.6181 737.749 94.2513C736.382 92.8844 734.166 92.8844 732.799 94.2513L713 114.05L693.201 94.2513C691.834 92.8844 689.618 92.8844 688.251 94.2513C686.884 95.6181 686.884 97.8342 688.251 99.201L710.525 121.475ZM713 69H709.5V119H713H716.5V69H713Z" fill="black"/>
<path d="M610.525 339.475C611.892 340.842 614.108 340.842 615.475 339.475L637.749 317.201C639.116 315.834 639.116 313.618 637.749 312.251C636.382 310.884 634.166 310.884 632.799 312.251L613 332.05L593.201 312.251C591.834 310.884 589.618 310.884 588.251 312.251C586.884 313.618 586.884 315.834 588.251 317.201L610.525 339.475ZM613 287H609.5V337H613H616.5V287H613Z" fill="black"/>
<path d="M663 69V337" stroke="black" stroke-width="10"/>
<path d="M1323 3H923V403H1323V3Z" stroke="black" stroke-width="5"/>
<path d="M1175.47 284.525C1174.11 283.158 1171.89 283.158 1170.53 284.525L1148.25 306.799C1146.88 308.166 1146.88 310.382 1148.25 311.749C1149.62 313.116 1151.83 313.116 1153.2 311.749L1173 291.95L1192.8 311.749C1194.17 313.116 1196.38 313.116 1197.75 311.749C1199.12 310.382 1199.12 308.166 1197.75 306.799L1175.47 284.525ZM1173 337H1176.5V287H1173H1169.5V337H1173Z" fill="black"/>
<path d="M1075.47 284.525C1074.11 283.158 1071.89 283.158 1070.53 284.525L1048.25 306.799C1046.88 308.166 1046.88 310.382 1048.25 311.749C1049.62 313.116 1051.83 313.116 1053.2 311.749L1073 291.95L1092.8 311.749C1094.17 313.116 1096.38 313.116 1097.75 311.749C1099.12 310.382 1099.12 308.166 1097.75 306.799L1075.47 284.525ZM1073 337H1076.5V287H1073H1069.5V337H1073Z" fill="black"/>
<path d="M1123 69V337" stroke="black" stroke-width="10"/>
<path d="M403 463H3V863H403V463Z" stroke="black" stroke-width="5"/>
<path d="M255.475 526.525C254.108 525.158 251.892 525.158 250.525 526.525L228.251 548.799C226.884 550.166 226.884 552.382 228.251 553.749C229.618 555.116 231.834 555.116 233.201 553.749L253 533.95L272.799 553.749C274.166 555.116 276.382 555.116 277.749 553.749C279.116 552.382 279.116 550.166 277.749 548.799L255.475 526.525ZM253 579L256.5 579L256.5 529L253 529L249.5 529L249.5 579L253 579Z" fill="black"/>
<path d="M255.475 744.525C254.108 743.158 251.892 743.158 250.525 744.525L228.251 766.799C226.884 768.166 226.884 770.382 228.251 771.749C229.618 773.116 231.834 773.116 233.201 771.749L253 751.95L272.799 771.749C274.166 773.116 276.382 773.116 277.749 771.749C279.116 770.382 279.116 768.166 277.749 766.799L255.475 744.525ZM253 797H256.5V747H253H249.5V797H253Z" fill="black"/>
<path d="M150.525 581.475C151.892 582.842 154.108 582.842 155.475 581.475L177.749 559.201C179.116 557.834 179.116 555.618 177.749 554.251C176.382 552.884 174.166 552.884 172.799 554.251L153 574.05L133.201 554.251C131.834 552.884 129.618 552.884 128.251 554.251C126.884 555.618 126.884 557.834 128.251 559.201L150.525 581.475ZM153 529L149.5 529L149.5 579L153 579L156.5 579L156.5 529L153 529Z" fill="black"/>
<path d="M203 529V797" stroke="black" stroke-width="10"/>
<path d="M863 463H463V863H863V463Z" stroke="black" stroke-width="5"/>
<path d="M715.475 526.525C714.108 525.158 711.892 525.158 710.525 526.525L688.251 548.799C686.884 550.166 686.884 552.382 688.251 553.749C689.618 555.116 691.834 555.116 693.201 553.749L713 533.95L732.799 553.749C734.166 555.116 736.382 555.116 737.749 553.749C739.116 552.382 739.116 550.166 737.749 548.799L715.475 526.525ZM713 579L716.5 579L716.5 529L713 529L709.5 529L709.5 579L713 579Z" fill="black"/>
<path d="M615.475 526.525C614.108 525.158 611.892 525.158 610.525 526.525L588.251 548.799C586.884 550.166 586.884 552.382 588.251 553.749C589.618 555.116 591.834 555.116 593.201 553.749L613 533.95L632.799 553.749C634.166 555.116 636.382 555.116 637.749 553.749C639.116 552.382 639.116 550.166 637.749 548.799L615.475 526.525ZM613 579L616.5 579L616.5 529L613 529L609.5 529L609.5 579L613 579Z" fill="black"/>
<path d="M663 529V797" stroke="black" stroke-width="10"/>
<path d="M1323 463H923V863H1323V463Z" stroke="black" stroke-width="5"/>
<path d="M1170.53 581.475C1171.89 582.842 1174.11 582.842 1175.47 581.475L1197.75 559.201C1199.12 557.834 1199.12 555.618 1197.75 554.251C1196.38 552.884 1194.17 552.884 1192.8 554.251L1173 574.05L1153.2 554.251C1151.83 552.884 1149.62 552.884 1148.25 554.251C1146.88 555.618 1146.88 557.834 1148.25 559.201L1170.53 581.475ZM1173 529L1169.5 529L1169.5 579L1173 579L1176.5 579L1176.5 529L1173 529Z" fill="black"/>
<path d="M1175.47 744.525C1174.11 743.158 1171.89 743.158 1170.53 744.525L1148.25 766.799C1146.88 768.166 1146.88 770.382 1148.25 771.749C1149.62 773.116 1151.83 773.116 1153.2 771.749L1173 751.95L1192.8 771.749C1194.17 773.116 1196.38 773.116 1197.75 771.749C1199.12 770.382 1199.12 768.166 1197.75 766.799L1175.47 744.525ZM1173 797H1176.5V747H1173H1169.5V797H1173Z" fill="black"/>
<path d="M1123 529V797" stroke="black" stroke-width="10"/>
<path d="M403 923H3V1323H403V923Z" stroke="black" stroke-width="5"/>
<path d="M255.475 986.525C254.108 985.158 251.892 985.158 250.525 986.525L228.251 1008.8C226.884 1010.17 226.884 1012.38 228.251 1013.75C229.618 1015.12 231.834 1015.12 233.201 1013.75L253 993.95L272.799 1013.75C274.166 1015.12 276.382 1015.12 277.749 1013.75C279.116 1012.38 279.116 1010.17 277.749 1008.8L255.475 986.525ZM253 1039L256.5 1039L256.5 989L253 989L249.5 989L249.5 1039L253 1039Z" fill="black"/>
<path d="M250.525 1259.47C251.892 1260.84 254.108 1260.84 255.475 1259.47L277.749 1237.2C279.116 1235.83 279.116 1233.62 277.749 1232.25C276.382 1230.88 274.166 1230.88 272.799 1232.25L253 1252.05L233.201 1232.25C231.834 1230.88 229.618 1230.88 228.251 1232.25C226.884 1233.62 226.884 1235.83 228.251 1237.2L250.525 1259.47ZM253 1207L249.5 1207L249.5 1257L253 1257L256.5 1257L256.5 1207L253 1207Z" fill="black"/>
<path d="M155.475 986.525C154.108 985.158 151.892 985.158 150.525 986.525L128.251 1008.8C126.884 1010.17 126.884 1012.38 128.251 1013.75C129.618 1015.12 131.834 1015.12 133.201 1013.75L153 993.95L172.799 1013.75C174.166 1015.12 176.382 1015.12 177.749 1013.75C179.116 1012.38 179.116 1010.17 177.749 1008.8L155.475 986.525ZM153 1039L156.5 1039L156.5 989L153 989L149.5 989L149.5 1039L153 1039Z" fill="black"/>
<path d="M203 989V1257" stroke="black" stroke-width="10"/>
<path d="M863 923H463V1323H863V923Z" stroke="black" stroke-width="5"/>
<path d="M710.525 1259.47C711.892 1260.84 714.108 1260.84 715.475 1259.47L737.749 1237.2C739.116 1235.83 739.116 1233.62 737.749 1232.25C736.382 1230.88 734.166 1230.88 732.799 1232.25L713 1252.05L693.201 1232.25C691.834 1230.88 689.618 1230.88 688.251 1232.25C686.884 1233.62 686.884 1235.83 688.251 1237.2L710.525 1259.47ZM713 1207L709.5 1207L709.5 1257L713 1257L716.5 1257L716.5 1207L713 1207Z" fill="black"/>
<path d="M710.525 1041.47C711.892 1042.84 714.108 1042.84 715.475 1041.47L737.749 1019.2C739.116 1017.83 739.116 1015.62 737.749 1014.25C736.382 1012.88 734.166 1012.88 732.799 1014.25L713 1034.05L693.201 1014.25C691.834 1012.88 689.618 1012.88 688.251 1014.25C686.884 1015.62 686.884 1017.83 688.251 1019.2L710.525 1041.47ZM713 989L709.5 989L709.5 1039L713 1039L716.5 1039L716.5 989L713 989Z" fill="black"/>
<path d="M615.475 1204.53C614.108 1203.16 611.892 1203.16 610.525 1204.53L588.251 1226.8C586.884 1228.17 586.884 1230.38 588.251 1231.75C589.618 1233.12 591.834 1233.12 593.201 1231.75L613 1211.95L632.799 1231.75C634.166 1233.12 636.382 1233.12 637.749 1231.75C639.116 1230.38 639.116 1228.17 637.749 1226.8L615.475 1204.53ZM613 1257H616.5V1207H613H609.5V1257H613Z" fill="black"/>
<path d="M663 989V1257" stroke="black" stroke-width="10"/>
<path d="M1122.5 1189V1150.1C1122.5 1131.88 1135.04 1116.05 1152.77 1111.88V1111.88C1160.73 1110.01 1167.9 1105.7 1173.29 1099.56L1173.75 1099.03C1179.75 1092.2 1183.34 1083.59 1183.96 1074.52L1184.21 1070.92C1185.34 1054.6 1178.74 1038.69 1166.39 1027.96L1164.97 1026.73C1147.76 1011.78 1123.21 1008.78 1102.9 1019.13L1098.45 1021.4C1075.6 1033.05 1063.04 1058.25 1067.5 1083.5V1083.5" stroke="black" stroke-width="30"/>
<rect x="1115.5" y="1221.5" width="15" height="15" fill="black" stroke="black" stroke-width="15"/>
</svg>
