<svg width="1466" height="1466" viewBox="0 0 1466 1466" fill="none" xmlns="http://www.w3.org/2000/svg">
<path d="M403 3H3V403H403V3Z" stroke="black" stroke-width="5"/>
<path d="M255.475 66.5251C254.108 65.1583 251.892 65.1583 250.525 66.5251L228.251 88.799C226.884 90.1658 226.884 92.3819 228.251 93.7487C229.618 95.1156 231.834 95.1156 233.201 93.7487L253 73.9497L272.799 93.7487C274.166 95.1156 276.382 95.1156 277.749 93.7487C279.116 92.3819 279.116 90.1658 277.749 88.799L255.475 66.5251ZM253 119L256.5 119L256.5 69L253 69L249.5 69L249.5 119L253 119Z" fill="black"/>
<path d="M255.475 284.525C254.108 283.158 251.892 283.158 250.525 284.525L228.251 306.799C226.884 308.166 226.884 310.382 228.251 311.749C229.618 313.116 231.834 313.116 233.201 311.749L253 291.95L272.799 311.749C274.166 313.116 276.382 313.116 277.749 311.749C279.116 310.382 279.116 308.166 277.749 306.799L255.475 284.525ZM253 337H256.5V287H253H249.5V337H253Z" fill="black"/>
<path d="M150.525 339.475C151.892 340.842 154.108 340.842 155.475 339.475L177.749 317.201C179.116 315.834 179.116 313.618 177.749 312.251C176.382 310.884 174.166 310.884 172.799 312.251L153 332.05L133.201 312.251C131.834 310.884 129.618 310.884 128.251 312.251C126.884 313.618 126.884 315.834 128.251 317.201L150.525 339.475ZM153 287L149.5 287L149.5 337L153 337L156.5 337L156.5 287L153 287Z" fill="black"/>
<path d="M203 69V337" stroke="black" stroke-width="10"/>
<path d="M933 3H533V403H933V3Z" stroke="black" stroke-width="5"/>
<path d="M780.525 121.475C781.892 122.842 784.108 122.842 785.475 121.475L807.749 99.201C809.116 97.8342 809.116 95.6181 807.749 94.2513C806.382 92.8844 804.166 92.8844 802.799 94.2513L783 114.05L763.201 94.2513C761.834 92.8844 759.618 92.8844 758.251 94.2513C756.884 95.6181 756.884 97.8342 758.251 99.201L780.525 121.475ZM783 69H779.5V119H783H786.5V69H783Z" fill="black"/>
<path d="M680.525 339.475C681.892 340.842 684.108 340.842 685.475 339.475L707.749 317.201C709.116 315.834 709.116 313.618 707.749 312.251C706.382 310.884 704.166 310.884 702.799 312.251L683 332.05L663.201 312.251C661.834 310.884 659.618 310.884 658.251 312.251C656.884 313.618 656.884 315.834 658.251 317.201L680.525 339.475ZM683 287H679.5V337H683H686.5V287H683Z" fill="black"/>
<path d="M733 69V337" stroke="black" stroke-width="10"/>
<path d="M1463 3H1063V403H1463V3Z" stroke="black" stroke-width="5"/>
<path d="M1315.47 284.525C1314.11 283.158 1311.89 283.158 1310.53 284.525L1288.25 306.799C1286.88 308.166 1286.88 310.382 1288.25 311.749C1289.62 313.116 1291.83 313.116 1293.2 311.749L1313 291.95L1332.8 311.749C1334.17 313.116 1336.38 313.116 1337.75 311.749C1339.12 310.382 1339.12 308.166 1337.75 306.799L1315.47 284.525ZM1313 337H1316.5V287H1313H1309.5V337H1313Z" fill="black"/>
<path d="M1215.47 284.525C1214.11 283.158 1211.89 283.158 1210.53 284.525L1188.25 306.799C1186.88 308.166 1186.88 310.382 1188.25 311.749C1189.62 313.116 1191.83 313.116 1193.2 311.749L1213 291.95L1232.8 311.749C1234.17 313.116 1236.38 313.116 1237.75 311.749C1239.12 310.382 1239.12 308.166 1237.75 306.799L1215.47 284.525ZM1213 337H1216.5V287H1213H1209.5V337H1213Z" fill="black"/>
<path d="M1263 69V337" stroke="black" stroke-width="10"/>
<path d="M403 533H3V933H403V533Z" stroke="black" stroke-width="5"/>
<path d="M255.475 596.525C254.108 595.158 251.892 595.158 250.525 596.525L228.251 618.799C226.884 620.166 226.884 622.382 228.251 623.749C229.618 625.116 231.834 625.116 233.201 623.749L253 603.95L272.799 623.749C274.166 625.116 276.382 625.116 277.749 623.749C279.116 622.382 279.116 620.166 277.749 618.799L255.475 596.525ZM253 649L256.5 649L256.5 599L253 599L249.5 599L249.5 649L253 649Z" fill="black"/>
<path d="M255.475 814.525C254.108 813.158 251.892 813.158 250.525 814.525L228.251 836.799C226.884 838.166 226.884 840.382 228.251 841.749C229.618 843.116 231.834 843.116 233.201 841.749L253 821.95L272.799 841.749C274.166 843.116 276.382 843.116 277.749 841.749C279.116 840.382 279.116 838.166 277.749 836.799L255.475 814.525ZM253 867H256.5V817H253H249.5V867H253Z" fill="black"/>
<path d="M150.525 651.475C151.892 652.842 154.108 652.842 155.475 651.475L177.749 629.201C179.116 627.834 179.116 625.618 177.749 624.251C176.382 622.884 174.166 622.884 172.799 624.251L153 644.05L133.201 624.251C131.834 622.884 129.618 622.884 128.251 624.251C126.884 625.618 126.884 627.834 128.251 629.201L150.525 651.475ZM153 599L149.5 599L149.5 649L153 649L156.5 649L156.5 599L153 599Z" fill="black"/>
<path d="M203 599V867" stroke="black" stroke-width="10"/>
<path d="M933 533H533V933H933V533Z" stroke="black" stroke-width="5"/>
<path d="M785.475 596.525C784.108 595.158 781.892 595.158 780.525 596.525L758.251 618.799C756.884 620.166 756.884 622.382 758.251 623.749C759.618 625.116 761.834 625.116 763.201 623.749L783 603.95L802.799 623.749C804.166 625.116 806.382 625.116 807.749 623.749C809.116 622.382 809.116 620.166 807.749 618.799L785.475 596.525ZM783 649L786.5 649L786.5 599L783 599L779.5 599L779.5 649L783 649Z" fill="black"/>
<path d="M685.475 596.525C684.108 595.158 681.892 595.158 680.525 596.525L658.251 618.799C656.884 620.166 656.884 622.382 658.251 623.749C659.618 625.116 661.834 625.116 663.201 623.749L683 603.95L702.799 623.749C704.166 625.116 706.382 625.116 707.749 623.749C709.116 622.382 709.116 620.166 707.749 618.799L685.475 596.525ZM683 649L686.5 649L686.5 599L683 599L679.5 599L679.5 649L683 649Z" fill="black"/>
<path d="M733 599V867" stroke="black" stroke-width="10"/>
<path d="M1463 533H1063V933H1463V533Z" stroke="black" stroke-width="5"/>
<path d="M1310.53 651.475C1311.89 652.842 1314.11 652.842 1315.47 651.475L1337.75 629.201C1339.12 627.834 1339.12 625.618 1337.75 624.251C1336.38 622.884 1334.17 622.884 1332.8 624.251L1313 644.05L1293.2 624.251C1291.83 622.884 1289.62 622.884 1288.25 624.251C1286.88 625.618 1286.88 627.834 1288.25 629.201L1310.53 651.475ZM1313 599L1309.5 599L1309.5 649L1313 649L1316.5 649L1316.5 599L1313 599Z" fill="black"/>
<path d="M1315.47 814.525C1314.11 813.158 1311.89 813.158 1310.53 814.525L1288.25 836.799C1286.88 838.166 1286.88 840.382 1288.25 841.749C1289.62 843.116 1291.83 843.116 1293.2 841.749L1313 821.95L1332.8 841.749C1334.17 843.116 1336.38 843.116 1337.75 841.749C1339.12 840.382 1339.12 838.166 1337.75 836.799L1315.47 814.525ZM1313 867H1316.5V817H1313H1309.5V867H1313Z" fill="black"/>
<path d="M1263 599V867" stroke="black" stroke-width="10"/>
<path d="M403 1063H3V1463H403V1063Z" stroke="black" stroke-width="5"/>
<path d="M255.475 1126.53C254.108 1125.16 251.892 1125.16 250.525 1126.53L228.251 1148.8C226.884 1150.17 226.884 1152.38 228.251 1153.75C229.618 1155.12 231.834 1155.12 233.201 1153.75L253 1133.95L272.799 1153.75C274.166 1155.12 276.382 1155.12 277.749 1153.75C279.116 1152.38 279.116 1150.17 277.749 1148.8L255.475 1126.53ZM253 1179L256.5 1179L256.5 1129L253 1129L249.5 1129L249.5 1179L253 1179Z" fill="black"/>
<path d="M250.525 1399.47C251.892 1400.84 254.108 1400.84 255.475 1399.47L277.749 1377.2C279.116 1375.83 279.116 1373.62 277.749 1372.25C276.382 1370.88 274.166 1370.88 272.799 1372.25L253 1392.05L233.201 1372.25C231.834 1370.88 229.618 1370.88 228.251 1372.25C226.884 1373.62 226.884 1375.83 228.251 1377.2L250.525 1399.47ZM253 1347L249.5 1347L249.5 1397L253 1397L256.5 1397L256.5 1347L253 1347Z" fill="black"/>
<path d="M155.475 1126.53C154.108 1125.16 151.892 1125.16 150.525 1126.53L128.251 1148.8C126.884 1150.17 126.884 1152.38 128.251 1153.75C129.618 1155.12 131.834 1155.12 133.201 1153.75L153 1133.95L172.799 1153.75C174.166 1155.12 176.382 1155.12 177.749 1153.75C179.116 1152.38 179.116 1150.17 177.749 1148.8L155.475 1126.53ZM153 1179L156.5 1179L156.5 1129L153 1129L149.5 1129L149.5 1179L153 1179Z" fill="black"/>
<path d="M203 1129V1397" stroke="black" stroke-width="10"/>
<path d="M933 1063H533V1463H933V1063Z" stroke="black" stroke-width="5"/>
<path d="M780.525 1399.47C781.892 1400.84 784.108 1400.84 785.475 1399.47L807.749 1377.2C809.116 1375.83 809.116 1373.62 807.749 1372.25C806.382 1370.88 804.166 1370.88 802.799 1372.25L783 1392.05L763.201 1372.25C761.834 1370.88 759.618 1370.88 758.251 1372.25C756.884 1373.62 756.884 1375.83 758.251 1377.2L780.525 1399.47ZM783 1347L779.5 1347L779.5 1397L783 1397L786.5 1397L786.5 1347L783 1347Z" fill="black"/>
<path d="M780.525 1181.47C781.892 1182.84 784.108 1182.84 785.475 1181.47L807.749 1159.2C809.116 1157.83 809.116 1155.62 807.749 1154.25C806.382 1152.88 804.166 1152.88 802.799 1154.25L783 1174.05L763.201 1154.25C761.834 1152.88 759.618 1152.88 758.251 1154.25C756.884 1155.62 756.884 1157.83 758.251 1159.2L780.525 1181.47ZM783 1129L779.5 1129L779.5 1179L783 1179L786.5 1179L786.5 1129L783 1129Z" fill="black"/>
<path d="M685.475 1344.53C684.108 1343.16 681.892 1343.16 680.525 1344.53L658.251 1366.8C656.884 1368.17 656.884 1370.38 658.251 1371.75C659.618 1373.12 661.834 1373.12 663.201 1371.75L683 1351.95L702.799 1371.75C704.166 1373.12 706.382 1373.12 707.749 1371.75C709.116 1370.38 709.116 1368.17 707.749 1366.8L685.475 1344.53ZM683 1397H686.5V1347H683H679.5V1397H683Z" fill="black"/>
<path d="M733 1129V1397" stroke="black" stroke-width="10"/>
<path d="M1262.5 1329V1290.1C1262.5 1271.88 1275.04 1256.05 1292.77 1251.88V1251.88C1300.73 1250.01 1307.9 1245.7 1313.29 1239.56L1313.75 1239.03C1319.75 1232.2 1323.34 1223.59 1323.96 1214.52L1324.21 1210.92C1325.34 1194.6 1318.74 1178.69 1306.39 1167.96L1304.97 1166.73C1287.76 1151.78 1263.21 1148.78 1242.9 1159.13L1238.45 1161.4C1215.6 1173.05 1203.04 1198.25 1207.5 1223.5V1223.5" stroke="black" stroke-width="30"/>
<rect x="1255.5" y="1361.5" width="15" height="15" fill="black" stroke="black" stroke-width="15"/>
</svg>
