<svg width="1326" height="1326" viewBox="0 0 1326 1326" fill="none" xmlns="http://www.w3.org/2000/svg">
<path d="M244.667 78H328V161.333H244.667V78Z" fill="#CACACA" stroke="white" stroke-width="10"/>
<path d="M161.335 78H244.668V161.333H161.335V78Z" fill="#CACACA" stroke="white" stroke-width="10"/>
<path d="M77.9987 78H161.332V161.333H77.9987V78Z" fill="#CACACA" stroke="white" stroke-width="10"/>
<path d="M244.667 161.336H328V244.669H244.667V161.336Z" fill="#CACACA" stroke="white" stroke-width="10"/>
<path d="M161.335 161.336H244.668V244.669H161.335V161.336Z" fill="#CACACA" stroke="white" stroke-width="10"/>
<path d="M77.9987 161.336H161.332V244.669H77.9987V161.336Z" fill="#CACACA" stroke="white" stroke-width="10"/>
<path d="M244.667 244.664H328V327.997H244.667V244.664Z" fill="#0170C3" stroke="white" stroke-width="10"/>
<path d="M161.335 244.664H244.668V327.997H161.335V244.664Z" fill="#0170C3" stroke="white" stroke-width="10"/>
<path d="M77.9987 244.664H161.332V327.997H77.9987V244.664Z" fill="#CACACA" stroke="white" stroke-width="10"/>
<path d="M403 3H3V403H403V3Z" stroke="black" stroke-width="5"/>
<path d="M538 244.667V328H621.333V244.667H538Z" fill="#CACACA" stroke="white" stroke-width="10"/>
<path d="M538 161.331V244.664H621.333V161.331H538Z" fill="#CACACA" stroke="white" stroke-width="10"/>
<path d="M538 78.0026V161.336H621.333V78.0026H538Z" fill="#CACACA" stroke="white" stroke-width="10"/>
<path d="M621.332 244.667V328H704.665V244.667H621.332Z" fill="#CACACA" stroke="white" stroke-width="10"/>
<path d="M621.332 161.331V244.664H704.665V161.331H621.332Z" fill="#CACACA" stroke="white" stroke-width="10"/>
<path d="M621.332 78.0026V161.336H704.665V78.0026H621.332Z" fill="#CACACA" stroke="white" stroke-width="10"/>
<path d="M704.668 244.667V328H788.001V244.667H704.668Z" fill="#0170C3" stroke="white" stroke-width="10"/>
<path d="M704.668 161.331V244.664H788.001V161.331H704.668Z" fill="#0170C3" stroke="white" stroke-width="10"/>
<path d="M704.668 78.0026V161.336H788.001V78.0026H704.668Z" fill="#0170C3" stroke="white" stroke-width="10"/>
<path d="M863 3H463V403H863V3Z" stroke="black" stroke-width="5"/>
<path d="M1164.67 328H1248V244.667H1164.67V328Z" fill="#CACACA" stroke="white" stroke-width="10"/>
<path d="M1081.33 328H1164.67V244.667H1081.33V328Z" fill="#CACACA" stroke="white" stroke-width="10"/>
<path d="M997.999 328H1081.33V244.667H997.999V328Z" fill="#CACACA" stroke="white" stroke-width="10"/>
<path d="M1164.67 244.664H1248V161.331H1164.67V244.664Z" fill="#CACACA" stroke="white" stroke-width="10"/>
<path d="M1081.33 244.664H1164.67V161.331H1081.33V244.664Z" fill="#CACACA" stroke="white" stroke-width="10"/>
<path d="M997.999 244.664H1081.33V161.331H997.999V244.664Z" fill="#0170C3" stroke="white" stroke-width="10"/>
<path d="M1164.67 161.336H1248V78.0026H1164.67V161.336Z" fill="#0170C3" stroke="white" stroke-width="10"/>
<path d="M1081.33 161.336H1164.67V78.0026H1081.33V161.336Z" fill="#0170C3" stroke="white" stroke-width="10"/>
<path d="M997.999 161.336H1081.33V78.0026H997.999V161.336Z" fill="#0170C3" stroke="white" stroke-width="10"/>
<path d="M1323 3H923V403H1323V3Z" stroke="black" stroke-width="5"/>
<path d="M161.333 788H78V704.667H161.333V788Z" fill="#CACACA" stroke="white" stroke-width="10"/>
<path d="M244.665 788H161.332V704.667H244.665V788Z" fill="#CACACA" stroke="white" stroke-width="10"/>
<path d="M328.001 788H244.668V704.667H328.001V788Z" fill="#CACACA" stroke="white" stroke-width="10"/>
<path d="M161.333 704.664H78V621.331H161.333V704.664Z" fill="#CACACA" stroke="white" stroke-width="10"/>
<path d="M244.665 704.664H161.332V621.331H244.665V704.664Z" fill="#0170C3" stroke="white" stroke-width="10"/>
<path d="M328.001 704.664H244.668V621.331H328.001V704.664Z" fill="#0170C3" stroke="white" stroke-width="10"/>
<path d="M161.333 621.336H78V538.003H161.333V621.336Z" fill="#0170C3" stroke="white" stroke-width="10"/>
<path d="M244.665 621.336H161.332V538.003H244.665V621.336Z" fill="#0170C3" stroke="white" stroke-width="10"/>
<path d="M328.001 621.336H244.668V538.003H328.001V621.336Z" fill="#0170C3" stroke="white" stroke-width="10"/>
<path d="M403 463H3V863H403V463Z" stroke="black" stroke-width="5"/>
<path d="M788 704.667V788H704.667V704.667H788Z" fill="#CACACA" stroke="white" stroke-width="10"/>
<path d="M788 621.331V704.664H704.667V621.331H788Z" fill="#CACACA" stroke="white" stroke-width="10"/>
<path d="M788 538.003V621.336H704.667V538.003H788Z" fill="#CACACA" stroke="white" stroke-width="10"/>
<path d="M704.668 704.667V788H621.335V704.667H704.668Z" fill="#0170C3" stroke="white" stroke-width="10"/>
<path d="M704.668 621.331V704.664H621.335V621.331H704.668Z" fill="#0170C3" stroke="white" stroke-width="10"/>
<path d="M704.668 538.003V621.336H621.335V538.003H704.668Z" fill="#0170C3" stroke="white" stroke-width="10"/>
<path d="M621.332 704.667V788H537.999V704.667H621.332Z" fill="#0170C3" stroke="white" stroke-width="10"/>
<path d="M621.332 621.331V704.664H537.999V621.331H621.332Z" fill="#0170C3" stroke="white" stroke-width="10"/>
<path d="M621.332 538.003V621.336H537.999V538.003H621.332Z" fill="#0170C3" stroke="white" stroke-width="10"/>
<path d="M863 463H463V863H863V463Z" stroke="black" stroke-width="5"/>
<path d="M1164.67 538H1248V621.333H1164.67V538Z" fill="#0170C3" stroke="white" stroke-width="10"/>
<path d="M1081.33 538H1164.67V621.333H1081.33V538Z" fill="#CACACA" stroke="white" stroke-width="10"/>
<path d="M997.999 538H1081.33V621.333H997.999V538Z" fill="#CACACA" stroke="white" stroke-width="10"/>
<path d="M1164.67 621.336H1248V704.669H1164.67V621.336Z" fill="#0170C3" stroke="white" stroke-width="10"/>
<path d="M1081.33 621.336H1164.67V704.669H1081.33V621.336Z" fill="#0170C3" stroke="white" stroke-width="10"/>
<path d="M997.999 621.336H1081.33V704.669H997.999V621.336Z" fill="#0170C3" stroke="white" stroke-width="10"/>
<path d="M1164.67 704.664H1248V787.997H1164.67V704.664Z" fill="#0170C3" stroke="white" stroke-width="10"/>
<path d="M1081.33 704.664H1164.67V787.997H1081.33V704.664Z" fill="#0170C3" stroke="white" stroke-width="10"/>
<path d="M997.999 704.664H1081.33V787.997H997.999V704.664Z" fill="#0170C3" stroke="white" stroke-width="10"/>
<path d="M1323 463H923V863H1323V463Z" stroke="black" stroke-width="5"/>
<path d="M161.333 998H78V1081.33H161.333V998Z" fill="#0170C3" stroke="white" stroke-width="10"/>
<path d="M244.665 998H161.332V1081.33H244.665V998Z" fill="#CACACA" stroke="white" stroke-width="10"/>
<path d="M328.001 998H244.668V1081.33H328.001V998Z" fill="#CACACA" stroke="white" stroke-width="10"/>
<path d="M161.333 1081.34H78V1164.67H161.333V1081.34Z" fill="#CACACA" stroke="white" stroke-width="10"/>
<path d="M244.665 1081.34H161.332V1164.67H244.665V1081.34Z" fill="#CACACA" stroke="white" stroke-width="10"/>
<path d="M328.001 1081.34H244.668V1164.67H328.001V1081.34Z" fill="#CACACA" stroke="white" stroke-width="10"/>
<path d="M161.333 1164.66H78V1248H161.333V1164.66Z" fill="#CACACA" stroke="white" stroke-width="10"/>
<path d="M244.665 1164.66H161.332V1248H244.665V1164.66Z" fill="#CACACA" stroke="white" stroke-width="10"/>
<path d="M328.001 1164.66H244.668V1248H328.001V1164.66Z" fill="#CACACA" stroke="white" stroke-width="10"/>
<path d="M403 923H3V1323H403V923Z" stroke="black" stroke-width="5"/>
<path d="M621.333 994H538V1077.33H621.333V994Z" fill="#CACACA" stroke="white" stroke-width="10"/>
<path d="M704.665 994H621.332V1077.33H704.665V994Z" fill="#CACACA" stroke="white" stroke-width="10"/>
<path d="M788.001 994H704.668V1077.33H788.001V994Z" fill="#CACACA" stroke="white" stroke-width="10"/>
<path d="M621.333 1077.34H538V1160.67H621.333V1077.34Z" fill="#CACACA" stroke="white" stroke-width="10"/>
<path d="M704.665 1077.34H621.332V1160.67H704.665V1077.34Z" fill="#CACACA" stroke="white" stroke-width="10"/>
<path d="M788.001 1077.34H704.668V1160.67H788.001V1077.34Z" fill="#CACACA" stroke="white" stroke-width="10"/>
<path d="M621.333 1160.66H538V1244H621.333V1160.66Z" fill="#0170C3" stroke="white" stroke-width="10"/>
<path d="M704.665 1160.66H621.332V1244H704.665V1160.66Z" fill="#0170C3" stroke="white" stroke-width="10"/>
<path d="M788.001 1160.66H704.668V1244H788.001V1160.66Z" fill="#CACACA" stroke="white" stroke-width="10"/>
<path d="M863 923H463V1323H863V923Z" stroke="black" stroke-width="5"/>
<path d="M1122.5 1189V1150.1C1122.5 1131.88 1135.04 1116.05 1152.77 1111.88V1111.88C1160.73 1110.01 1167.9 1105.7 1173.29 1099.56L1173.75 1099.03C1179.75 1092.2 1183.34 1083.59 1183.96 1074.52L1184.21 1070.92C1185.34 1054.6 1178.74 1038.69 1166.39 1027.96L1164.97 1026.73C1147.76 1011.78 1123.21 1008.78 1102.9 1019.13L1098.45 1021.4C1075.6 1033.05 1063.04 1058.25 1067.5 1083.5V1083.5" stroke="black" stroke-width="30"/>
<rect x="1115.5" y="1221.5" width="15" height="15" fill="black" stroke="black" stroke-width="15"/>
</svg>
