<svg width="1466" height="1466" viewBox="0 0 1466 1466" fill="none" xmlns="http://www.w3.org/2000/svg">
<path d="M403 3H3V403H403V3Z" stroke="black" stroke-width="5"/>
<path d="M69.0078 203.008L337.008 203.008" stroke="black" stroke-width="10"/>
<circle cx="89" cy="158" r="17.5" stroke="black" stroke-width="5"/>
<path d="M933 3H533V403H933V3Z" stroke="black" stroke-width="5"/>
<path d="M599.008 203.008L867.008 203.008" stroke="black" stroke-width="10"/>
<circle cx="619" cy="248" r="20" fill="black"/>
<path d="M1463 3H1063V403H1463V3Z" stroke="black" stroke-width="5"/>
<path d="M1129.01 203.008L1397.01 203.008" stroke="black" stroke-width="10"/>
<circle cx="1377" cy="248" r="17.5" stroke="black" stroke-width="5"/>
<circle cx="1377" cy="158" r="20" fill="black"/>
<path d="M403 533H3V933H403V533Z" stroke="black" stroke-width="5"/>
<path d="M69.0078 733.008L337.008 733.008" stroke="black" stroke-width="10"/>
<circle cx="317" cy="778" r="17.5" stroke="black" stroke-width="5"/>
<circle cx="317" cy="688" r="17.5" stroke="black" stroke-width="5"/>
<path d="M933 533H533V933H933V533Z" stroke="black" stroke-width="5"/>
<path d="M599.008 733.008L867.008 733.008" stroke="black" stroke-width="10"/>
<circle cx="619" cy="688" r="20" fill="black"/>
<path d="M1463 533H1063V933H1463V533Z" stroke="black" stroke-width="5"/>
<path d="M1129.01 733.008L1397.01 733.008" stroke="black" stroke-width="10"/>
<circle cx="1377" cy="688" r="17.5" stroke="black" stroke-width="5"/>
<circle cx="1377" cy="778" r="17.5" stroke="black" stroke-width="5"/>
<circle cx="1312" cy="778" r="20" fill="black"/>
<path d="M403 1063H3V1463H403V1063Z" stroke="black" stroke-width="5"/>
<path d="M69.0078 1263.01L337.008 1263.01" stroke="black" stroke-width="10"/>
<circle cx="317" cy="1308" r="17.5" stroke="black" stroke-width="5"/>
<circle cx="89" cy="1218" r="20" fill="black"/>
<path d="M933 1463H533V1063H933V1463Z" stroke="black" stroke-width="5"/>
<path d="M599.008 1262.99L867.008 1262.99" stroke="black" stroke-width="10"/>
<circle cx="20" cy="20" r="17.5" transform="matrix(1 0 0 -1 827 1238)" stroke="black" stroke-width="5"/>
<circle cx="20" cy="20" r="20" transform="matrix(1 0 0 -1 599 1328)" fill="black"/>
<path d="M1262.5 1329V1290.1C1262.5 1271.88 1275.04 1256.05 1292.77 1251.88V1251.88C1300.73 1250.01 1307.9 1245.7 1313.29 1239.56L1313.75 1239.03C1319.75 1232.2 1323.34 1223.59 1323.96 1214.52L1324.21 1210.92C1325.34 1194.6 1318.74 1178.69 1306.39 1167.96L1304.97 1166.73C1287.76 1151.78 1263.21 1148.78 1242.9 1159.13L1238.45 1161.4C1215.6 1173.05 1203.04 1198.25 1207.5 1223.5V1223.5" stroke="black" stroke-width="30"/>
<rect x="1255.5" y="1361.5" width="15" height="15" fill="black" stroke="black" stroke-width="15"/>
</svg>
