<svg width="1326" height="1326" viewBox="0 0 1326 1326" fill="none" xmlns="http://www.w3.org/2000/svg" xmlns:xlink="http://www.w3.org/1999/xlink">
<path d="M164 93C164 115.091 181.909 133 204 133C226.091 133 244 115.091 244 93C244 70.9086 226.091 53 204 53C181.909 53 164 70.9086 164 93Z" stroke="black" stroke-width="10"/>
<path d="M54 203C54 225.091 71.9086 243 94 243C116.091 243 134 225.091 134 203C134 180.909 116.091 163 94 163C71.9086 163 54 180.909 54 203Z" fill="#0170C3" stroke="black" stroke-width="10"/>
<path d="M164 203C164 225.091 181.909 243 204 243C226.091 243 244 225.091 244 203C244 180.909 226.091 163 204 163C181.909 163 164 180.909 164 203Z" fill="#0170C3" stroke="black" stroke-width="10"/>
<path d="M274 203C274 225.091 291.909 243 314 243C336.091 243 354 225.091 354 203C354 180.909 336.091 163 314 163C291.909 163 274 180.909 274 203Z" stroke="black" stroke-width="10"/>
<path d="M163 313C163 335.091 180.909 353 203 353C225.091 353 243 335.091 243 313C243 290.909 225.091 273 203 273C180.909 273 163 290.909 163 313Z" fill="url(#pattern0_1556_3981)" stroke="black" stroke-width="10"/>
<path d="M403 3H3V403H403V3Z" stroke="black" stroke-width="5"/>
<path d="M702 93C702 115.091 684.091 133 662 133C639.909 133 622 115.091 622 93C622 70.9086 639.909 53 662 53C684.091 53 702 70.9086 702 93Z" stroke="black" stroke-width="10"/>
<path d="M812 203C812 225.091 794.091 243 772 243C749.909 243 732 225.091 732 203C732 180.909 749.909 163 772 163C794.091 163 812 180.909 812 203Z" fill="#0170C3" stroke="black" stroke-width="10"/>
<path d="M702 203C702 225.091 684.091 243 662 243C639.909 243 622 225.091 622 203C622 180.909 639.909 163 662 163C684.091 163 702 180.909 702 203Z" fill="#0170C3" stroke="black" stroke-width="10"/>
<path d="M512 203C512 225.091 529.909 243 552 243C574.091 243 592 225.091 592 203C592 180.909 574.091 163 552 163C529.909 163 512 180.909 512 203Z" fill="url(#pattern1_1556_3981)" stroke="black" stroke-width="10"/>
<path d="M623 313C623 335.091 640.909 353 663 353C685.091 353 703 335.091 703 313C703 290.909 685.091 273 663 273C640.909 273 623 290.909 623 313Z" fill="url(#pattern2_1556_3981)" stroke="black" stroke-width="10"/>
<path d="M463 3H863V403H463V3Z" stroke="black" stroke-width="5"/>
<path d="M1084 313C1084 290.909 1101.91 273 1124 273C1146.09 273 1164 290.909 1164 313C1164 335.091 1146.09 353 1124 353C1101.91 353 1084 335.091 1084 313Z" fill="#0170C3" stroke="black" stroke-width="10"/>
<path d="M974 203C974 180.909 991.909 163 1014 163C1036.09 163 1054 180.909 1054 203C1054 225.091 1036.09 243 1014 243C991.909 243 974 225.091 974 203Z" stroke="black" stroke-width="10"/>
<path d="M1164 203C1164 180.909 1146.09 163 1124 163C1101.91 163 1084 180.909 1084 203C1084 225.091 1101.91 243 1124 243C1146.09 243 1164 225.091 1164 203Z" fill="url(#pattern3_1556_3981)" stroke="black" stroke-width="10"/>
<path d="M1194 203C1194 180.909 1211.91 163 1234 163C1256.09 163 1274 180.909 1274 203C1274 225.091 1256.09 243 1234 243C1211.91 243 1194 225.091 1194 203Z" fill="#0170C3" stroke="black" stroke-width="10"/>
<path d="M1163 93C1163 70.9086 1145.09 53 1123 53C1100.91 53 1083 70.9086 1083 93C1083 115.091 1100.91 133 1123 133C1145.09 133 1163 115.091 1163 93Z" fill="url(#pattern4_1556_3981)" stroke="black" stroke-width="10"/>
<path d="M1323 3H923V403H1323V3Z" stroke="black" stroke-width="5"/>
<path d="M242 553C242 575.091 224.091 593 202 593C179.909 593 162 575.091 162 553C162 530.909 179.909 513 202 513C224.091 513 242 530.909 242 553Z" fill="#0170C3" stroke="black" stroke-width="10"/>
<path d="M352 663C352 685.091 334.091 703 312 703C289.909 703 272 685.091 272 663C272 640.909 289.909 623 312 623C334.091 623 352 640.909 352 663Z" stroke="black" stroke-width="10"/>
<path d="M202 704C179.909 704 162 686.091 162 664C162 641.909 179.909 624 202 624C224.091 624 242 641.909 242 664C242 686.091 224.091 704 202 704Z" fill="url(#pattern5_1556_3981)" stroke="black" stroke-width="10"/>
<path d="M132 663C132 685.091 114.091 703 92 703C69.9086 703 52 685.091 52 663C52 640.909 69.9086 623 92 623C114.091 623 132 640.909 132 663Z" stroke="black" stroke-width="10"/>
<path d="M203 814C180.909 814 163 796.091 163 774C163 751.909 180.909 734 203 734C225.091 734 243 751.909 243 774C243 796.091 225.091 814 203 814Z" fill="url(#pattern6_1556_3981)" stroke="black" stroke-width="10"/>
<path d="M3 863H403V463H3V863Z" stroke="black" stroke-width="5"/>
<path d="M624 553C624 575.091 641.909 593 664 593C686.091 593 704 575.091 704 553C704 530.909 686.091 513 664 513C641.909 513 624 530.909 624 553Z" fill="#0170C3" stroke="black" stroke-width="10"/>
<path d="M514 663C514 685.091 531.909 703 554 703C576.091 703 594 685.091 594 663C594 640.909 576.091 623 554 623C531.909 623 514 640.909 514 663Z" fill="#0170C3" stroke="black" stroke-width="10"/>
<path d="M624 663C624 685.091 641.909 703 664 703C686.091 703 704 685.091 704 663C704 640.909 686.091 623 664 623C641.909 623 624 640.909 624 663Z" fill="#0170C3" stroke="black" stroke-width="10"/>
<path d="M734 663C734 685.091 751.909 703 774 703C796.091 703 814 685.091 814 663C814 640.909 796.091 623 774 623C751.909 623 734 640.909 734 663Z" stroke="black" stroke-width="10"/>
<path d="M623 773C623 795.091 640.909 813 663 813C685.091 813 703 795.091 703 773C703 750.909 685.091 733 663 733C640.909 733 623 750.909 623 773Z" stroke="black" stroke-width="10"/>
<path d="M863 463H463V863H863V463Z" stroke="black" stroke-width="5"/>
<path d="M1084 553C1084 575.091 1101.91 593 1124 593C1146.09 593 1164 575.091 1164 553C1164 530.909 1146.09 513 1124 513C1101.91 513 1084 530.909 1084 553Z" fill="url(#pattern7_1556_3981)" stroke="black" stroke-width="10"/>
<path d="M974 663C974 685.091 991.909 703 1014 703C1036.09 703 1054 685.091 1054 663C1054 640.909 1036.09 623 1014 623C991.909 623 974 640.909 974 663Z" fill="#0170C3" stroke="black" stroke-width="10"/>
<path d="M1084 663C1084 685.091 1101.91 703 1124 703C1146.09 703 1164 685.091 1164 663C1164 640.909 1146.09 623 1124 623C1101.91 623 1084 640.909 1084 663Z" stroke="black" stroke-width="10"/>
<path d="M1194 663C1194 685.091 1211.91 703 1234 703C1256.09 703 1274 685.091 1274 663C1274 640.909 1256.09 623 1234 623C1211.91 623 1194 640.909 1194 663Z" fill="url(#pattern8_1556_3981)" stroke="black" stroke-width="10"/>
<path d="M1083 773C1083 795.091 1100.91 813 1123 813C1145.09 813 1163 795.091 1163 773C1163 750.909 1145.09 733 1123 733C1100.91 733 1083 750.909 1083 773Z" stroke="black" stroke-width="10"/>
<path d="M1323 463H923V863H1323V463Z" stroke="black" stroke-width="5"/>
<path d="M313 1162C290.909 1162 273 1144.09 273 1122C273 1099.91 290.909 1082 313 1082C335.091 1082 353 1099.91 353 1122C353 1144.09 335.091 1162 313 1162Z" stroke="black" stroke-width="10"/>
<path d="M203 1272C180.909 1272 163 1254.09 163 1232C163 1209.91 180.909 1192 203 1192C225.091 1192 243 1209.91 243 1232C243 1254.09 225.091 1272 203 1272Z" fill="#0170C3" stroke="black" stroke-width="10"/>
<path d="M133 1122C133 1099.91 115.091 1082 93 1082C70.9086 1082 53 1099.91 53 1122C53 1144.09 70.9086 1162 93 1162C115.091 1162 133 1144.09 133 1122Z" fill="url(#pattern9_1556_3981)" stroke="black" stroke-width="10"/>
<path d="M203 1052C180.909 1052 163 1034.09 163 1012C163 989.909 180.909 972 203 972C225.091 972 243 989.909 243 1012C243 1034.09 225.091 1052 203 1052Z" fill="#0170C3" stroke="black" stroke-width="10"/>
<path d="M243 1123C243 1100.91 225.091 1083 203 1083C180.909 1083 163 1100.91 163 1123C163 1145.09 180.909 1163 203 1163C225.091 1163 243 1145.09 243 1123Z" fill="url(#pattern10_1556_3981)" stroke="black" stroke-width="10"/>
<path d="M3 923V1323H403V923H3Z" stroke="black" stroke-width="5"/>
<path d="M702 1013C702 1035.09 684.091 1053 662 1053C639.909 1053 622 1035.09 622 1013C622 990.909 639.909 973 662 973C684.091 973 702 990.909 702 1013Z" stroke="black" stroke-width="10"/>
<path d="M812 1123C812 1145.09 794.091 1163 772 1163C749.909 1163 732 1145.09 732 1123C732 1100.91 749.909 1083 772 1083C794.091 1083 812 1100.91 812 1123Z" stroke="black" stroke-width="10"/>
<path d="M662 1164C639.909 1164 622 1146.09 622 1124C622 1101.91 639.909 1084 662 1084C684.091 1084 702 1101.91 702 1124C702 1146.09 684.091 1164 662 1164Z" fill="url(#pattern11_1556_3981)" stroke="black" stroke-width="10"/>
<path d="M592 1123C592 1145.09 574.091 1163 552 1163C529.909 1163 512 1145.09 512 1123C512 1100.91 529.909 1083 552 1083C574.091 1083 592 1100.91 592 1123Z" stroke="black" stroke-width="10"/>
<path d="M663 1274C640.909 1274 623 1256.09 623 1234C623 1211.91 640.909 1194 663 1194C685.091 1194 703 1211.91 703 1234C703 1256.09 685.091 1274 663 1274Z" fill="url(#pattern12_1556_3981)" stroke="black" stroke-width="10"/>
<path d="M463 1323H863V923H463V1323Z" stroke="black" stroke-width="5"/>
<path d="M1122.5 1189V1150.1C1122.5 1131.88 1135.04 1116.05 1152.77 1111.88V1111.88C1160.73 1110.01 1167.9 1105.7 1173.29 1099.56L1173.75 1099.03C1179.75 1092.2 1183.34 1083.59 1183.96 1074.52L1184.21 1070.92C1185.34 1054.6 1178.74 1038.69 1166.39 1027.96L1164.97 1026.73C1147.76 1011.78 1123.21 1008.78 1102.9 1019.13L1098.45 1021.4C1075.6 1033.05 1063.04 1058.25 1067.5 1083.5V1083.5" stroke="black" stroke-width="30"/>
<rect x="1115.5" y="1221.5" width="15" height="15" fill="black" stroke="black" stroke-width="15"/>
<defs>
<pattern id="pattern0_1556_3981" patternUnits="userSpaceOnUse" patternTransform="matrix(445.373 0 0 463.779 27.9892 78.4799)" preserveAspectRatio="none" viewBox="47.6758 -2.63044 445.373 463.779" width="1" height="1">
<use xlink:href="#pattern0_1556_3981_inner" transform="translate(0 -463.779)"/>
<g id="pattern0_1556_3981_inner">
<path d="M53.4727 246.424L263.946 1.41901" stroke="#0170C3" stroke-width="10" stroke-linecap="round"/>
<path d="M64.1328 264.424L274.606 19.419" stroke="#0170C3" stroke-width="10" stroke-linecap="round"/>
<path d="M74.7969 282.416L285.27 37.4112" stroke="#0170C3" stroke-width="10" stroke-linecap="round"/>
<path d="M85.4629 300.409L295.936 55.4034" stroke="#0170C3" stroke-width="10" stroke-linecap="round"/>
<path d="M96.123 318.401L306.596 73.3956" stroke="#0170C3" stroke-width="10" stroke-linecap="round"/>
<path d="M106.787 336.393L317.26 91.3878" stroke="#0170C3" stroke-width="10" stroke-linecap="round"/>
<path d="M117.449 354.393L327.922 109.388" stroke="#0170C3" stroke-width="10" stroke-linecap="round"/>
<path d="M128.113 372.385L338.586 127.38" stroke="#0170C3" stroke-width="10" stroke-linecap="round"/>
<path d="M138.775 390.377L349.248 145.372" stroke="#0170C3" stroke-width="10" stroke-linecap="round"/>
<path d="M149.439 408.377L359.912 163.372" stroke="#0170C3" stroke-width="10" stroke-linecap="round"/>
<path d="M160.1 426.362L370.572 181.357" stroke="#0170C3" stroke-width="10" stroke-linecap="round"/>
<path d="M170.764 444.362L381.237 199.357" stroke="#0170C3" stroke-width="10" stroke-linecap="round"/>
<path d="M181.428 462.354L391.901 217.349" stroke="#0170C3" stroke-width="10" stroke-linecap="round"/>
</g>
</pattern><pattern id="pattern1_1556_3981" patternUnits="userSpaceOnUse" patternTransform="matrix(445.373 0 0 463.779 376.989 -31.5201)" preserveAspectRatio="none" viewBox="47.6758 -2.63044 445.373 463.779" width="1" height="1">
<use xlink:href="#pattern1_1556_3981_inner" transform="translate(0 -463.779)"/>
<g id="pattern1_1556_3981_inner">
<path d="M53.4727 246.424L263.946 1.41901" stroke="#0170C3" stroke-width="10" stroke-linecap="round"/>
<path d="M64.1328 264.424L274.606 19.419" stroke="#0170C3" stroke-width="10" stroke-linecap="round"/>
<path d="M74.7969 282.416L285.27 37.4112" stroke="#0170C3" stroke-width="10" stroke-linecap="round"/>
<path d="M85.4629 300.409L295.936 55.4034" stroke="#0170C3" stroke-width="10" stroke-linecap="round"/>
<path d="M96.123 318.401L306.596 73.3956" stroke="#0170C3" stroke-width="10" stroke-linecap="round"/>
<path d="M106.787 336.393L317.26 91.3878" stroke="#0170C3" stroke-width="10" stroke-linecap="round"/>
<path d="M117.449 354.393L327.922 109.388" stroke="#0170C3" stroke-width="10" stroke-linecap="round"/>
<path d="M128.113 372.385L338.586 127.38" stroke="#0170C3" stroke-width="10" stroke-linecap="round"/>
<path d="M138.775 390.377L349.248 145.372" stroke="#0170C3" stroke-width="10" stroke-linecap="round"/>
<path d="M149.439 408.377L359.912 163.372" stroke="#0170C3" stroke-width="10" stroke-linecap="round"/>
<path d="M160.1 426.362L370.572 181.357" stroke="#0170C3" stroke-width="10" stroke-linecap="round"/>
<path d="M170.764 444.362L381.237 199.357" stroke="#0170C3" stroke-width="10" stroke-linecap="round"/>
<path d="M181.428 462.354L391.901 217.349" stroke="#0170C3" stroke-width="10" stroke-linecap="round"/>
</g>
</pattern><pattern id="pattern2_1556_3981" patternUnits="userSpaceOnUse" patternTransform="matrix(445.373 0 0 463.779 487.989 78.4799)" preserveAspectRatio="none" viewBox="47.6758 -2.63044 445.373 463.779" width="1" height="1">
<use xlink:href="#pattern2_1556_3981_inner" transform="translate(0 -463.779)"/>
<g id="pattern2_1556_3981_inner">
<path d="M53.4727 246.424L263.946 1.41901" stroke="#0170C3" stroke-width="10" stroke-linecap="round"/>
<path d="M64.1328 264.424L274.606 19.419" stroke="#0170C3" stroke-width="10" stroke-linecap="round"/>
<path d="M74.7969 282.416L285.27 37.4112" stroke="#0170C3" stroke-width="10" stroke-linecap="round"/>
<path d="M85.4629 300.409L295.936 55.4034" stroke="#0170C3" stroke-width="10" stroke-linecap="round"/>
<path d="M96.123 318.401L306.596 73.3956" stroke="#0170C3" stroke-width="10" stroke-linecap="round"/>
<path d="M106.787 336.393L317.26 91.3878" stroke="#0170C3" stroke-width="10" stroke-linecap="round"/>
<path d="M117.449 354.393L327.922 109.388" stroke="#0170C3" stroke-width="10" stroke-linecap="round"/>
<path d="M128.113 372.385L338.586 127.38" stroke="#0170C3" stroke-width="10" stroke-linecap="round"/>
<path d="M138.775 390.377L349.248 145.372" stroke="#0170C3" stroke-width="10" stroke-linecap="round"/>
<path d="M149.439 408.377L359.912 163.372" stroke="#0170C3" stroke-width="10" stroke-linecap="round"/>
<path d="M160.1 426.362L370.572 181.357" stroke="#0170C3" stroke-width="10" stroke-linecap="round"/>
<path d="M170.764 444.362L381.237 199.357" stroke="#0170C3" stroke-width="10" stroke-linecap="round"/>
<path d="M181.428 462.354L391.901 217.349" stroke="#0170C3" stroke-width="10" stroke-linecap="round"/>
</g>
</pattern><pattern id="pattern3_1556_3981" patternUnits="userSpaceOnUse" patternTransform="matrix(-445.373 0 0 -463.779 1299.01 437.52)" preserveAspectRatio="none" viewBox="47.6758 -2.63044 445.373 463.779" width="1" height="1">
<use xlink:href="#pattern3_1556_3981_inner" transform="translate(0 -463.779)"/>
<g id="pattern3_1556_3981_inner">
<path d="M53.4727 246.424L263.946 1.41901" stroke="#0170C3" stroke-width="10" stroke-linecap="round"/>
<path d="M64.1328 264.424L274.606 19.419" stroke="#0170C3" stroke-width="10" stroke-linecap="round"/>
<path d="M74.7969 282.416L285.27 37.4112" stroke="#0170C3" stroke-width="10" stroke-linecap="round"/>
<path d="M85.4629 300.409L295.936 55.4034" stroke="#0170C3" stroke-width="10" stroke-linecap="round"/>
<path d="M96.123 318.401L306.596 73.3956" stroke="#0170C3" stroke-width="10" stroke-linecap="round"/>
<path d="M106.787 336.393L317.26 91.3878" stroke="#0170C3" stroke-width="10" stroke-linecap="round"/>
<path d="M117.449 354.393L327.922 109.388" stroke="#0170C3" stroke-width="10" stroke-linecap="round"/>
<path d="M128.113 372.385L338.586 127.38" stroke="#0170C3" stroke-width="10" stroke-linecap="round"/>
<path d="M138.775 390.377L349.248 145.372" stroke="#0170C3" stroke-width="10" stroke-linecap="round"/>
<path d="M149.439 408.377L359.912 163.372" stroke="#0170C3" stroke-width="10" stroke-linecap="round"/>
<path d="M160.1 426.362L370.572 181.357" stroke="#0170C3" stroke-width="10" stroke-linecap="round"/>
<path d="M170.764 444.362L381.237 199.357" stroke="#0170C3" stroke-width="10" stroke-linecap="round"/>
<path d="M181.428 462.354L391.901 217.349" stroke="#0170C3" stroke-width="10" stroke-linecap="round"/>
</g>
</pattern><pattern id="pattern4_1556_3981" patternUnits="userSpaceOnUse" patternTransform="matrix(-445.373 0 0 -463.779 1298.01 327.52)" preserveAspectRatio="none" viewBox="47.6758 -2.63044 445.373 463.779" width="1" height="1">
<use xlink:href="#pattern4_1556_3981_inner" transform="translate(0 -463.779)"/>
<g id="pattern4_1556_3981_inner">
<path d="M53.4727 246.424L263.946 1.41901" stroke="#0170C3" stroke-width="10" stroke-linecap="round"/>
<path d="M64.1328 264.424L274.606 19.419" stroke="#0170C3" stroke-width="10" stroke-linecap="round"/>
<path d="M74.7969 282.416L285.27 37.4112" stroke="#0170C3" stroke-width="10" stroke-linecap="round"/>
<path d="M85.4629 300.409L295.936 55.4034" stroke="#0170C3" stroke-width="10" stroke-linecap="round"/>
<path d="M96.123 318.401L306.596 73.3956" stroke="#0170C3" stroke-width="10" stroke-linecap="round"/>
<path d="M106.787 336.393L317.26 91.3878" stroke="#0170C3" stroke-width="10" stroke-linecap="round"/>
<path d="M117.449 354.393L327.922 109.388" stroke="#0170C3" stroke-width="10" stroke-linecap="round"/>
<path d="M128.113 372.385L338.586 127.38" stroke="#0170C3" stroke-width="10" stroke-linecap="round"/>
<path d="M138.775 390.377L349.248 145.372" stroke="#0170C3" stroke-width="10" stroke-linecap="round"/>
<path d="M149.439 408.377L359.912 163.372" stroke="#0170C3" stroke-width="10" stroke-linecap="round"/>
<path d="M160.1 426.362L370.572 181.357" stroke="#0170C3" stroke-width="10" stroke-linecap="round"/>
<path d="M170.764 444.362L381.237 199.357" stroke="#0170C3" stroke-width="10" stroke-linecap="round"/>
<path d="M181.428 462.354L391.901 217.349" stroke="#0170C3" stroke-width="10" stroke-linecap="round"/>
</g>
</pattern><pattern id="pattern5_1556_3981" patternUnits="userSpaceOnUse" patternTransform="matrix(0 -445.373 -463.779 0 436.52 839.011)" preserveAspectRatio="none" viewBox="47.6758 -2.63044 445.373 463.779" width="1" height="1">
<use xlink:href="#pattern5_1556_3981_inner" transform="translate(0 -463.779)"/>
<g id="pattern5_1556_3981_inner">
<path d="M53.4727 246.424L263.946 1.41901" stroke="#0170C3" stroke-width="10" stroke-linecap="round"/>
<path d="M64.1328 264.424L274.606 19.419" stroke="#0170C3" stroke-width="10" stroke-linecap="round"/>
<path d="M74.7969 282.416L285.27 37.4112" stroke="#0170C3" stroke-width="10" stroke-linecap="round"/>
<path d="M85.4629 300.409L295.936 55.4034" stroke="#0170C3" stroke-width="10" stroke-linecap="round"/>
<path d="M96.123 318.401L306.596 73.3956" stroke="#0170C3" stroke-width="10" stroke-linecap="round"/>
<path d="M106.787 336.393L317.26 91.3878" stroke="#0170C3" stroke-width="10" stroke-linecap="round"/>
<path d="M117.449 354.393L327.922 109.388" stroke="#0170C3" stroke-width="10" stroke-linecap="round"/>
<path d="M128.113 372.385L338.586 127.38" stroke="#0170C3" stroke-width="10" stroke-linecap="round"/>
<path d="M138.775 390.377L349.248 145.372" stroke="#0170C3" stroke-width="10" stroke-linecap="round"/>
<path d="M149.439 408.377L359.912 163.372" stroke="#0170C3" stroke-width="10" stroke-linecap="round"/>
<path d="M160.1 426.362L370.572 181.357" stroke="#0170C3" stroke-width="10" stroke-linecap="round"/>
<path d="M170.764 444.362L381.237 199.357" stroke="#0170C3" stroke-width="10" stroke-linecap="round"/>
<path d="M181.428 462.354L391.901 217.349" stroke="#0170C3" stroke-width="10" stroke-linecap="round"/>
</g>
</pattern><pattern id="pattern6_1556_3981" patternUnits="userSpaceOnUse" patternTransform="matrix(0 -445.373 -463.779 0 437.52 949.011)" preserveAspectRatio="none" viewBox="47.6758 -2.63044 445.373 463.779" width="1" height="1">
<use xlink:href="#pattern6_1556_3981_inner" transform="translate(0 -463.779)"/>
<g id="pattern6_1556_3981_inner">
<path d="M53.4727 246.424L263.946 1.41901" stroke="#0170C3" stroke-width="10" stroke-linecap="round"/>
<path d="M64.1328 264.424L274.606 19.419" stroke="#0170C3" stroke-width="10" stroke-linecap="round"/>
<path d="M74.7969 282.416L285.27 37.4112" stroke="#0170C3" stroke-width="10" stroke-linecap="round"/>
<path d="M85.4629 300.409L295.936 55.4034" stroke="#0170C3" stroke-width="10" stroke-linecap="round"/>
<path d="M96.123 318.401L306.596 73.3956" stroke="#0170C3" stroke-width="10" stroke-linecap="round"/>
<path d="M106.787 336.393L317.26 91.3878" stroke="#0170C3" stroke-width="10" stroke-linecap="round"/>
<path d="M117.449 354.393L327.922 109.388" stroke="#0170C3" stroke-width="10" stroke-linecap="round"/>
<path d="M128.113 372.385L338.586 127.38" stroke="#0170C3" stroke-width="10" stroke-linecap="round"/>
<path d="M138.775 390.377L349.248 145.372" stroke="#0170C3" stroke-width="10" stroke-linecap="round"/>
<path d="M149.439 408.377L359.912 163.372" stroke="#0170C3" stroke-width="10" stroke-linecap="round"/>
<path d="M160.1 426.362L370.572 181.357" stroke="#0170C3" stroke-width="10" stroke-linecap="round"/>
<path d="M170.764 444.362L381.237 199.357" stroke="#0170C3" stroke-width="10" stroke-linecap="round"/>
<path d="M181.428 462.354L391.901 217.349" stroke="#0170C3" stroke-width="10" stroke-linecap="round"/>
</g>
</pattern><pattern id="pattern7_1556_3981" patternUnits="userSpaceOnUse" patternTransform="matrix(445.373 0 0 463.779 948.989 318.48)" preserveAspectRatio="none" viewBox="47.6758 -2.63044 445.373 463.779" width="1" height="1">
<use xlink:href="#pattern7_1556_3981_inner" transform="translate(0 -463.779)"/>
<g id="pattern7_1556_3981_inner">
<path d="M53.4727 246.424L263.946 1.41901" stroke="#0170C3" stroke-width="10" stroke-linecap="round"/>
<path d="M64.1328 264.424L274.606 19.419" stroke="#0170C3" stroke-width="10" stroke-linecap="round"/>
<path d="M74.7969 282.416L285.27 37.4112" stroke="#0170C3" stroke-width="10" stroke-linecap="round"/>
<path d="M85.4629 300.409L295.936 55.4034" stroke="#0170C3" stroke-width="10" stroke-linecap="round"/>
<path d="M96.123 318.401L306.596 73.3956" stroke="#0170C3" stroke-width="10" stroke-linecap="round"/>
<path d="M106.787 336.393L317.26 91.3878" stroke="#0170C3" stroke-width="10" stroke-linecap="round"/>
<path d="M117.449 354.393L327.922 109.388" stroke="#0170C3" stroke-width="10" stroke-linecap="round"/>
<path d="M128.113 372.385L338.586 127.38" stroke="#0170C3" stroke-width="10" stroke-linecap="round"/>
<path d="M138.775 390.377L349.248 145.372" stroke="#0170C3" stroke-width="10" stroke-linecap="round"/>
<path d="M149.439 408.377L359.912 163.372" stroke="#0170C3" stroke-width="10" stroke-linecap="round"/>
<path d="M160.1 426.362L370.572 181.357" stroke="#0170C3" stroke-width="10" stroke-linecap="round"/>
<path d="M170.764 444.362L381.237 199.357" stroke="#0170C3" stroke-width="10" stroke-linecap="round"/>
<path d="M181.428 462.354L391.901 217.349" stroke="#0170C3" stroke-width="10" stroke-linecap="round"/>
</g>
</pattern><pattern id="pattern8_1556_3981" patternUnits="userSpaceOnUse" patternTransform="matrix(445.373 0 0 463.779 1058.99 428.48)" preserveAspectRatio="none" viewBox="47.6758 -2.63044 445.373 463.779" width="1" height="1">
<use xlink:href="#pattern8_1556_3981_inner" transform="translate(0 -463.779)"/>
<g id="pattern8_1556_3981_inner">
<path d="M53.4727 246.424L263.946 1.41901" stroke="#0170C3" stroke-width="10" stroke-linecap="round"/>
<path d="M64.1328 264.424L274.606 19.419" stroke="#0170C3" stroke-width="10" stroke-linecap="round"/>
<path d="M74.7969 282.416L285.27 37.4112" stroke="#0170C3" stroke-width="10" stroke-linecap="round"/>
<path d="M85.4629 300.409L295.936 55.4034" stroke="#0170C3" stroke-width="10" stroke-linecap="round"/>
<path d="M96.123 318.401L306.596 73.3956" stroke="#0170C3" stroke-width="10" stroke-linecap="round"/>
<path d="M106.787 336.393L317.26 91.3878" stroke="#0170C3" stroke-width="10" stroke-linecap="round"/>
<path d="M117.449 354.393L327.922 109.388" stroke="#0170C3" stroke-width="10" stroke-linecap="round"/>
<path d="M128.113 372.385L338.586 127.38" stroke="#0170C3" stroke-width="10" stroke-linecap="round"/>
<path d="M138.775 390.377L349.248 145.372" stroke="#0170C3" stroke-width="10" stroke-linecap="round"/>
<path d="M149.439 408.377L359.912 163.372" stroke="#0170C3" stroke-width="10" stroke-linecap="round"/>
<path d="M160.1 426.362L370.572 181.357" stroke="#0170C3" stroke-width="10" stroke-linecap="round"/>
<path d="M170.764 444.362L381.237 199.357" stroke="#0170C3" stroke-width="10" stroke-linecap="round"/>
<path d="M181.428 462.354L391.901 217.349" stroke="#0170C3" stroke-width="10" stroke-linecap="round"/>
</g>
</pattern><pattern id="pattern9_1556_3981" patternUnits="userSpaceOnUse" patternTransform="matrix(-445.373 0 0 -463.779 268.011 1356.52)" preserveAspectRatio="none" viewBox="47.6758 -2.63044 445.373 463.779" width="1" height="1">
<use xlink:href="#pattern9_1556_3981_inner" transform="translate(0 -463.779)"/>
<g id="pattern9_1556_3981_inner">
<path d="M53.4727 246.424L263.946 1.41901" stroke="#0170C3" stroke-width="10" stroke-linecap="round"/>
<path d="M64.1328 264.424L274.606 19.419" stroke="#0170C3" stroke-width="10" stroke-linecap="round"/>
<path d="M74.7969 282.416L285.27 37.4112" stroke="#0170C3" stroke-width="10" stroke-linecap="round"/>
<path d="M85.4629 300.409L295.936 55.4034" stroke="#0170C3" stroke-width="10" stroke-linecap="round"/>
<path d="M96.123 318.401L306.596 73.3956" stroke="#0170C3" stroke-width="10" stroke-linecap="round"/>
<path d="M106.787 336.393L317.26 91.3878" stroke="#0170C3" stroke-width="10" stroke-linecap="round"/>
<path d="M117.449 354.393L327.922 109.388" stroke="#0170C3" stroke-width="10" stroke-linecap="round"/>
<path d="M128.113 372.385L338.586 127.38" stroke="#0170C3" stroke-width="10" stroke-linecap="round"/>
<path d="M138.775 390.377L349.248 145.372" stroke="#0170C3" stroke-width="10" stroke-linecap="round"/>
<path d="M149.439 408.377L359.912 163.372" stroke="#0170C3" stroke-width="10" stroke-linecap="round"/>
<path d="M160.1 426.362L370.572 181.357" stroke="#0170C3" stroke-width="10" stroke-linecap="round"/>
<path d="M170.764 444.362L381.237 199.357" stroke="#0170C3" stroke-width="10" stroke-linecap="round"/>
<path d="M181.428 462.354L391.901 217.349" stroke="#0170C3" stroke-width="10" stroke-linecap="round"/>
</g>
</pattern><pattern id="pattern10_1556_3981" patternUnits="userSpaceOnUse" patternTransform="matrix(-445.373 0 0 -463.779 378.011 1357.52)" preserveAspectRatio="none" viewBox="47.6758 -2.63044 445.373 463.779" width="1" height="1">
<use xlink:href="#pattern10_1556_3981_inner" transform="translate(0 -463.779)"/>
<g id="pattern10_1556_3981_inner">
<path d="M53.4727 246.424L263.946 1.41901" stroke="#0170C3" stroke-width="10" stroke-linecap="round"/>
<path d="M64.1328 264.424L274.606 19.419" stroke="#0170C3" stroke-width="10" stroke-linecap="round"/>
<path d="M74.7969 282.416L285.27 37.4112" stroke="#0170C3" stroke-width="10" stroke-linecap="round"/>
<path d="M85.4629 300.409L295.936 55.4034" stroke="#0170C3" stroke-width="10" stroke-linecap="round"/>
<path d="M96.123 318.401L306.596 73.3956" stroke="#0170C3" stroke-width="10" stroke-linecap="round"/>
<path d="M106.787 336.393L317.26 91.3878" stroke="#0170C3" stroke-width="10" stroke-linecap="round"/>
<path d="M117.449 354.393L327.922 109.388" stroke="#0170C3" stroke-width="10" stroke-linecap="round"/>
<path d="M128.113 372.385L338.586 127.38" stroke="#0170C3" stroke-width="10" stroke-linecap="round"/>
<path d="M138.775 390.377L349.248 145.372" stroke="#0170C3" stroke-width="10" stroke-linecap="round"/>
<path d="M149.439 408.377L359.912 163.372" stroke="#0170C3" stroke-width="10" stroke-linecap="round"/>
<path d="M160.1 426.362L370.572 181.357" stroke="#0170C3" stroke-width="10" stroke-linecap="round"/>
<path d="M170.764 444.362L381.237 199.357" stroke="#0170C3" stroke-width="10" stroke-linecap="round"/>
<path d="M181.428 462.354L391.901 217.349" stroke="#0170C3" stroke-width="10" stroke-linecap="round"/>
</g>
</pattern><pattern id="pattern11_1556_3981" patternUnits="userSpaceOnUse" patternTransform="matrix(0 -445.373 -463.779 0 896.52 1299.01)" preserveAspectRatio="none" viewBox="47.6758 -2.63044 445.373 463.779" width="1" height="1">
<use xlink:href="#pattern11_1556_3981_inner" transform="translate(0 -463.779)"/>
<g id="pattern11_1556_3981_inner">
<path d="M53.4727 246.424L263.946 1.41901" stroke="#0170C3" stroke-width="10" stroke-linecap="round"/>
<path d="M64.1328 264.424L274.606 19.419" stroke="#0170C3" stroke-width="10" stroke-linecap="round"/>
<path d="M74.7969 282.416L285.27 37.4112" stroke="#0170C3" stroke-width="10" stroke-linecap="round"/>
<path d="M85.4629 300.409L295.936 55.4034" stroke="#0170C3" stroke-width="10" stroke-linecap="round"/>
<path d="M96.123 318.401L306.596 73.3956" stroke="#0170C3" stroke-width="10" stroke-linecap="round"/>
<path d="M106.787 336.393L317.26 91.3878" stroke="#0170C3" stroke-width="10" stroke-linecap="round"/>
<path d="M117.449 354.393L327.922 109.388" stroke="#0170C3" stroke-width="10" stroke-linecap="round"/>
<path d="M128.113 372.385L338.586 127.38" stroke="#0170C3" stroke-width="10" stroke-linecap="round"/>
<path d="M138.775 390.377L349.248 145.372" stroke="#0170C3" stroke-width="10" stroke-linecap="round"/>
<path d="M149.439 408.377L359.912 163.372" stroke="#0170C3" stroke-width="10" stroke-linecap="round"/>
<path d="M160.1 426.362L370.572 181.357" stroke="#0170C3" stroke-width="10" stroke-linecap="round"/>
<path d="M170.764 444.362L381.237 199.357" stroke="#0170C3" stroke-width="10" stroke-linecap="round"/>
<path d="M181.428 462.354L391.901 217.349" stroke="#0170C3" stroke-width="10" stroke-linecap="round"/>
</g>
</pattern><pattern id="pattern12_1556_3981" patternUnits="userSpaceOnUse" patternTransform="matrix(0 -445.373 -463.779 0 897.52 1409.01)" preserveAspectRatio="none" viewBox="47.6758 -2.63044 445.373 463.779" width="1" height="1">
<use xlink:href="#pattern12_1556_3981_inner" transform="translate(0 -463.779)"/>
<g id="pattern12_1556_3981_inner">
<path d="M53.4727 246.424L263.946 1.41901" stroke="#0170C3" stroke-width="10" stroke-linecap="round"/>
<path d="M64.1328 264.424L274.606 19.419" stroke="#0170C3" stroke-width="10" stroke-linecap="round"/>
<path d="M74.7969 282.416L285.27 37.4112" stroke="#0170C3" stroke-width="10" stroke-linecap="round"/>
<path d="M85.4629 300.409L295.936 55.4034" stroke="#0170C3" stroke-width="10" stroke-linecap="round"/>
<path d="M96.123 318.401L306.596 73.3956" stroke="#0170C3" stroke-width="10" stroke-linecap="round"/>
<path d="M106.787 336.393L317.26 91.3878" stroke="#0170C3" stroke-width="10" stroke-linecap="round"/>
<path d="M117.449 354.393L327.922 109.388" stroke="#0170C3" stroke-width="10" stroke-linecap="round"/>
<path d="M128.113 372.385L338.586 127.38" stroke="#0170C3" stroke-width="10" stroke-linecap="round"/>
<path d="M138.775 390.377L349.248 145.372" stroke="#0170C3" stroke-width="10" stroke-linecap="round"/>
<path d="M149.439 408.377L359.912 163.372" stroke="#0170C3" stroke-width="10" stroke-linecap="round"/>
<path d="M160.1 426.362L370.572 181.357" stroke="#0170C3" stroke-width="10" stroke-linecap="round"/>
<path d="M170.764 444.362L381.237 199.357" stroke="#0170C3" stroke-width="10" stroke-linecap="round"/>
<path d="M181.428 462.354L391.901 217.349" stroke="#0170C3" stroke-width="10" stroke-linecap="round"/>
</g>
</pattern></defs>
</svg>
