<svg width="1466" height="1466" viewBox="0 0 1466 1466" fill="none" xmlns="http://www.w3.org/2000/svg" xmlns:xlink="http://www.w3.org/1999/xlink">
<path d="M164 93C164 115.091 181.909 133 204 133C226.091 133 244 115.091 244 93C244 70.9086 226.091 53 204 53C181.909 53 164 70.9086 164 93Z" stroke="black" stroke-width="10"/>
<path d="M54 203C54 225.091 71.9086 243 94 243C116.091 243 134 225.091 134 203C134 180.909 116.091 163 94 163C71.9086 163 54 180.909 54 203Z" fill="#0170C3" stroke="black" stroke-width="10"/>
<path d="M164 203C164 225.091 181.909 243 204 243C226.091 243 244 225.091 244 203C244 180.909 226.091 163 204 163C181.909 163 164 180.909 164 203Z" fill="#0170C3" stroke="black" stroke-width="10"/>
<path d="M274 203C274 225.091 291.909 243 314 243C336.091 243 354 225.091 354 203C354 180.909 336.091 163 314 163C291.909 163 274 180.909 274 203Z" stroke="black" stroke-width="10"/>
<path d="M163 313C163 335.091 180.909 353 203 353C225.091 353 243 335.091 243 313C243 290.909 225.091 273 203 273C180.909 273 163 290.909 163 313Z" fill="url(#pattern0_1556_3981)" stroke="black" stroke-width="10"/>
<path d="M403 3H3V403H403V3Z" stroke="black" stroke-width="5"/>
<path d="M772 93C772 115.091 754.091 133 732 133C709.909 133 692 115.091 692 93C692 70.9086 709.909 53 732 53C754.091 53 772 70.9086 772 93Z" stroke="black" stroke-width="10"/>
<path d="M882 203C882 225.091 864.091 243 842 243C819.909 243 802 225.091 802 203C802 180.909 819.909 163 842 163C864.091 163 882 180.909 882 203Z" fill="#0170C3" stroke="black" stroke-width="10"/>
<path d="M772 203C772 225.091 754.091 243 732 243C709.909 243 692 225.091 692 203C692 180.909 709.909 163 732 163C754.091 163 772 180.909 772 203Z" fill="#0170C3" stroke="black" stroke-width="10"/>
<path d="M582 203C582 225.091 599.909 243 622 243C644.091 243 662 225.091 662 203C662 180.909 644.091 163 622 163C599.909 163 582 180.909 582 203Z" fill="url(#pattern1_1556_3981)" stroke="black" stroke-width="10"/>
<path d="M693 313C693 335.091 710.909 353 733 353C755.091 353 773 335.091 773 313C773 290.909 755.091 273 733 273C710.909 273 693 290.909 693 313Z" fill="url(#pattern2_1556_3981)" stroke="black" stroke-width="10"/>
<path d="M533 3H933V403H533V3Z" stroke="black" stroke-width="5"/>
<path d="M1224 313C1224 290.909 1241.91 273 1264 273C1286.09 273 1304 290.909 1304 313C1304 335.091 1286.09 353 1264 353C1241.91 353 1224 335.091 1224 313Z" fill="#0170C3" stroke="black" stroke-width="10"/>
<path d="M1114 203C1114 180.909 1131.91 163 1154 163C1176.09 163 1194 180.909 1194 203C1194 225.091 1176.09 243 1154 243C1131.91 243 1114 225.091 1114 203Z" stroke="black" stroke-width="10"/>
<path d="M1304 203C1304 180.909 1286.09 163 1264 163C1241.91 163 1224 180.909 1224 203C1224 225.091 1241.91 243 1264 243C1286.09 243 1304 225.091 1304 203Z" fill="url(#pattern3_1556_3981)" stroke="black" stroke-width="10"/>
<path d="M1334 203C1334 180.909 1351.91 163 1374 163C1396.09 163 1414 180.909 1414 203C1414 225.091 1396.09 243 1374 243C1351.91 243 1334 225.091 1334 203Z" fill="#0170C3" stroke="black" stroke-width="10"/>
<path d="M1303 93C1303 70.9086 1285.09 53 1263 53C1240.91 53 1223 70.9086 1223 93C1223 115.091 1240.91 133 1263 133C1285.09 133 1303 115.091 1303 93Z" fill="url(#pattern4_1556_3981)" stroke="black" stroke-width="10"/>
<path d="M1463 3H1063V403H1463V3Z" stroke="black" stroke-width="5"/>
<path d="M242 623C242 645.091 224.091 663 202 663C179.909 663 162 645.091 162 623C162 600.909 179.909 583 202 583C224.091 583 242 600.909 242 623Z" fill="#0170C3" stroke="black" stroke-width="10"/>
<path d="M352 733C352 755.091 334.091 773 312 773C289.909 773 272 755.091 272 733C272 710.909 289.909 693 312 693C334.091 693 352 710.909 352 733Z" stroke="black" stroke-width="10"/>
<path d="M202 774C179.909 774 162 756.091 162 734C162 711.909 179.909 694 202 694C224.091 694 242 711.909 242 734C242 756.091 224.091 774 202 774Z" fill="url(#pattern5_1556_3981)" stroke="black" stroke-width="10"/>
<path d="M132 733C132 755.091 114.091 773 92 773C69.9086 773 52 755.091 52 733C52 710.909 69.9086 693 92 693C114.091 693 132 710.909 132 733Z" stroke="black" stroke-width="10"/>
<path d="M203 884C180.909 884 163 866.091 163 844C163 821.909 180.909 804 203 804C225.091 804 243 821.909 243 844C243 866.091 225.091 884 203 884Z" fill="url(#pattern6_1556_3981)" stroke="black" stroke-width="10"/>
<path d="M3 933H403V533H3V933Z" stroke="black" stroke-width="5"/>
<path d="M694 623C694 645.091 711.909 663 734 663C756.091 663 774 645.091 774 623C774 600.909 756.091 583 734 583C711.909 583 694 600.909 694 623Z" fill="#0170C3" stroke="black" stroke-width="10"/>
<path d="M584 733C584 755.091 601.909 773 624 773C646.091 773 664 755.091 664 733C664 710.909 646.091 693 624 693C601.909 693 584 710.909 584 733Z" fill="#0170C3" stroke="black" stroke-width="10"/>
<path d="M694 733C694 755.091 711.909 773 734 773C756.091 773 774 755.091 774 733C774 710.909 756.091 693 734 693C711.909 693 694 710.909 694 733Z" fill="#0170C3" stroke="black" stroke-width="10"/>
<path d="M804 733C804 755.091 821.909 773 844 773C866.091 773 884 755.091 884 733C884 710.909 866.091 693 844 693C821.909 693 804 710.909 804 733Z" stroke="black" stroke-width="10"/>
<path d="M693 843C693 865.091 710.909 883 733 883C755.091 883 773 865.091 773 843C773 820.909 755.091 803 733 803C710.909 803 693 820.909 693 843Z" stroke="black" stroke-width="10"/>
<path d="M933 533H533V933H933V533Z" stroke="black" stroke-width="5"/>
<path d="M1224 623C1224 645.091 1241.91 663 1264 663C1286.09 663 1304 645.091 1304 623C1304 600.909 1286.09 583 1264 583C1241.91 583 1224 600.909 1224 623Z" fill="url(#pattern7_1556_3981)" stroke="black" stroke-width="10"/>
<path d="M1114 733C1114 755.091 1131.91 773 1154 773C1176.09 773 1194 755.091 1194 733C1194 710.909 1176.09 693 1154 693C1131.91 693 1114 710.909 1114 733Z" fill="#0170C3" stroke="black" stroke-width="10"/>
<path d="M1224 733C1224 755.091 1241.91 773 1264 773C1286.09 773 1304 755.091 1304 733C1304 710.909 1286.09 693 1264 693C1241.91 693 1224 710.909 1224 733Z" stroke="black" stroke-width="10"/>
<path d="M1334 733C1334 755.091 1351.91 773 1374 773C1396.09 773 1414 755.091 1414 733C1414 710.909 1396.09 693 1374 693C1351.91 693 1334 710.909 1334 733Z" fill="url(#pattern8_1556_3981)" stroke="black" stroke-width="10"/>
<path d="M1223 843C1223 865.091 1240.91 883 1263 883C1285.09 883 1303 865.091 1303 843C1303 820.909 1285.09 803 1263 803C1240.91 803 1223 820.909 1223 843Z" stroke="black" stroke-width="10"/>
<path d="M1463 533H1063V933H1463V533Z" stroke="black" stroke-width="5"/>
<path d="M313 1302C290.909 1302 273 1284.09 273 1262C273 1239.91 290.909 1222 313 1222C335.091 1222 353 1239.91 353 1262C353 1284.09 335.091 1302 313 1302Z" stroke="black" stroke-width="10"/>
<path d="M203 1412C180.909 1412 163 1394.09 163 1372C163 1349.91 180.909 1332 203 1332C225.091 1332 243 1349.91 243 1372C243 1394.09 225.091 1412 203 1412Z" fill="#0170C3" stroke="black" stroke-width="10"/>
<path d="M133 1262C133 1239.91 115.091 1222 93 1222C70.9086 1222 53 1239.91 53 1262C53 1284.09 70.9086 1302 93 1302C115.091 1302 133 1284.09 133 1262Z" fill="url(#pattern9_1556_3981)" stroke="black" stroke-width="10"/>
<path d="M203 1192C180.909 1192 163 1174.09 163 1152C163 1129.91 180.909 1112 203 1112C225.091 1112 243 1129.91 243 1152C243 1174.09 225.091 1192 203 1192Z" fill="#0170C3" stroke="black" stroke-width="10"/>
<path d="M243 1263C243 1240.91 225.091 1223 203 1223C180.909 1223 163 1240.91 163 1263C163 1285.09 180.909 1303 203 1303C225.091 1303 243 1285.09 243 1263Z" fill="url(#pattern10_1556_3981)" stroke="black" stroke-width="10"/>
<path d="M3 1063V1463H403V1063H3Z" stroke="black" stroke-width="5"/>
<path d="M772 1153C772 1175.09 754.091 1193 732 1193C709.909 1193 692 1175.09 692 1153C692 1130.91 709.909 1113 732 1113C754.091 1113 772 1130.91 772 1153Z" stroke="black" stroke-width="10"/>
<path d="M882 1263C882 1285.09 864.091 1303 842 1303C819.909 1303 802 1285.09 802 1263C802 1240.91 819.909 1223 842 1223C864.091 1223 882 1240.91 882 1263Z" stroke="black" stroke-width="10"/>
<path d="M732 1304C709.909 1304 692 1286.09 692 1264C692 1241.91 709.909 1224 732 1224C754.091 1224 772 1241.91 772 1264C772 1286.09 754.091 1304 732 1304Z" fill="url(#pattern11_1556_3981)" stroke="black" stroke-width="10"/>
<path d="M662 1263C662 1285.09 644.091 1303 622 1303C599.909 1303 582 1285.09 582 1263C582 1240.91 599.909 1223 622 1223C644.091 1223 662 1240.91 662 1263Z" stroke="black" stroke-width="10"/>
<path d="M733 1414C710.909 1414 693 1396.09 693 1374C693 1351.91 710.909 1334 733 1334C755.091 1334 773 1351.91 773 1374C773 1396.09 755.091 1414 733 1414Z" fill="url(#pattern12_1556_3981)" stroke="black" stroke-width="10"/>
<path d="M533 1463H933V1063H533V1463Z" stroke="black" stroke-width="5"/>
<path d="M1262.5 1329V1290.1C1262.5 1271.88 1275.04 1256.05 1292.77 1251.88V1251.88C1300.73 1250.01 1307.9 1245.7 1313.29 1239.56L1313.75 1239.03C1319.75 1232.2 1323.34 1223.59 1323.96 1214.52L1324.21 1210.92C1325.34 1194.6 1318.74 1178.69 1306.39 1167.96L1304.97 1166.73C1287.76 1151.78 1263.21 1148.78 1242.9 1159.13L1238.45 1161.4C1215.6 1173.05 1203.04 1198.25 1207.5 1223.5V1223.5" stroke="black" stroke-width="30"/>
<rect x="1255.5" y="1361.5" width="15" height="15" fill="black" stroke="black" stroke-width="15"/>
<defs>
<pattern id="pattern0_1556_3981" patternUnits="userSpaceOnUse" patternTransform="matrix(445.373 0 0 463.779 27.9892 78.4799)" preserveAspectRatio="none" viewBox="47.6758 -2.63044 445.373 463.779" width="1" height="1">
<use xlink:href="#pattern0_1556_3981_inner" transform="translate(0 -463.779)"/>
<g id="pattern0_1556_3981_inner">
<path d="M53.4727 246.424L263.946 1.41901" stroke="#0170C3" stroke-width="10" stroke-linecap="round"/>
<path d="M64.1328 264.424L274.606 19.419" stroke="#0170C3" stroke-width="10" stroke-linecap="round"/>
<path d="M74.7969 282.416L285.27 37.4112" stroke="#0170C3" stroke-width="10" stroke-linecap="round"/>
<path d="M85.4629 300.409L295.936 55.4034" stroke="#0170C3" stroke-width="10" stroke-linecap="round"/>
<path d="M96.123 318.401L306.596 73.3956" stroke="#0170C3" stroke-width="10" stroke-linecap="round"/>
<path d="M106.787 336.393L317.26 91.3878" stroke="#0170C3" stroke-width="10" stroke-linecap="round"/>
<path d="M117.449 354.393L327.922 109.388" stroke="#0170C3" stroke-width="10" stroke-linecap="round"/>
<path d="M128.113 372.385L338.586 127.38" stroke="#0170C3" stroke-width="10" stroke-linecap="round"/>
<path d="M138.775 390.377L349.248 145.372" stroke="#0170C3" stroke-width="10" stroke-linecap="round"/>
<path d="M149.439 408.377L359.912 163.372" stroke="#0170C3" stroke-width="10" stroke-linecap="round"/>
<path d="M160.1 426.362L370.572 181.357" stroke="#0170C3" stroke-width="10" stroke-linecap="round"/>
<path d="M170.764 444.362L381.237 199.357" stroke="#0170C3" stroke-width="10" stroke-linecap="round"/>
<path d="M181.428 462.354L391.901 217.349" stroke="#0170C3" stroke-width="10" stroke-linecap="round"/>
</g>
</pattern><pattern id="pattern1_1556_3981" patternUnits="userSpaceOnUse" patternTransform="matrix(445.373 0 0 463.779 446.989 -31.5201)" preserveAspectRatio="none" viewBox="47.6758 -2.63044 445.373 463.779" width="1" height="1">
<use xlink:href="#pattern1_1556_3981_inner" transform="translate(0 -463.779)"/>
<g id="pattern1_1556_3981_inner">
<path d="M53.4727 246.424L263.946 1.41901" stroke="#0170C3" stroke-width="10" stroke-linecap="round"/>
<path d="M64.1328 264.424L274.606 19.419" stroke="#0170C3" stroke-width="10" stroke-linecap="round"/>
<path d="M74.7969 282.416L285.27 37.4112" stroke="#0170C3" stroke-width="10" stroke-linecap="round"/>
<path d="M85.4629 300.409L295.936 55.4034" stroke="#0170C3" stroke-width="10" stroke-linecap="round"/>
<path d="M96.123 318.401L306.596 73.3956" stroke="#0170C3" stroke-width="10" stroke-linecap="round"/>
<path d="M106.787 336.393L317.26 91.3878" stroke="#0170C3" stroke-width="10" stroke-linecap="round"/>
<path d="M117.449 354.393L327.922 109.388" stroke="#0170C3" stroke-width="10" stroke-linecap="round"/>
<path d="M128.113 372.385L338.586 127.38" stroke="#0170C3" stroke-width="10" stroke-linecap="round"/>
<path d="M138.775 390.377L349.248 145.372" stroke="#0170C3" stroke-width="10" stroke-linecap="round"/>
<path d="M149.439 408.377L359.912 163.372" stroke="#0170C3" stroke-width="10" stroke-linecap="round"/>
<path d="M160.1 426.362L370.572 181.357" stroke="#0170C3" stroke-width="10" stroke-linecap="round"/>
<path d="M170.764 444.362L381.237 199.357" stroke="#0170C3" stroke-width="10" stroke-linecap="round"/>
<path d="M181.428 462.354L391.901 217.349" stroke="#0170C3" stroke-width="10" stroke-linecap="round"/>
</g>
</pattern><pattern id="pattern2_1556_3981" patternUnits="userSpaceOnUse" patternTransform="matrix(445.373 0 0 463.779 557.989 78.4799)" preserveAspectRatio="none" viewBox="47.6758 -2.63044 445.373 463.779" width="1" height="1">
<use xlink:href="#pattern2_1556_3981_inner" transform="translate(0 -463.779)"/>
<g id="pattern2_1556_3981_inner">
<path d="M53.4727 246.424L263.946 1.41901" stroke="#0170C3" stroke-width="10" stroke-linecap="round"/>
<path d="M64.1328 264.424L274.606 19.419" stroke="#0170C3" stroke-width="10" stroke-linecap="round"/>
<path d="M74.7969 282.416L285.27 37.4112" stroke="#0170C3" stroke-width="10" stroke-linecap="round"/>
<path d="M85.4629 300.409L295.936 55.4034" stroke="#0170C3" stroke-width="10" stroke-linecap="round"/>
<path d="M96.123 318.401L306.596 73.3956" stroke="#0170C3" stroke-width="10" stroke-linecap="round"/>
<path d="M106.787 336.393L317.26 91.3878" stroke="#0170C3" stroke-width="10" stroke-linecap="round"/>
<path d="M117.449 354.393L327.922 109.388" stroke="#0170C3" stroke-width="10" stroke-linecap="round"/>
<path d="M128.113 372.385L338.586 127.38" stroke="#0170C3" stroke-width="10" stroke-linecap="round"/>
<path d="M138.775 390.377L349.248 145.372" stroke="#0170C3" stroke-width="10" stroke-linecap="round"/>
<path d="M149.439 408.377L359.912 163.372" stroke="#0170C3" stroke-width="10" stroke-linecap="round"/>
<path d="M160.1 426.362L370.572 181.357" stroke="#0170C3" stroke-width="10" stroke-linecap="round"/>
<path d="M170.764 444.362L381.237 199.357" stroke="#0170C3" stroke-width="10" stroke-linecap="round"/>
<path d="M181.428 462.354L391.901 217.349" stroke="#0170C3" stroke-width="10" stroke-linecap="round"/>
</g>
</pattern><pattern id="pattern3_1556_3981" patternUnits="userSpaceOnUse" patternTransform="matrix(-445.373 0 0 -463.779 1439.01 437.52)" preserveAspectRatio="none" viewBox="47.6758 -2.63044 445.373 463.779" width="1" height="1">
<use xlink:href="#pattern3_1556_3981_inner" transform="translate(0 -463.779)"/>
<g id="pattern3_1556_3981_inner">
<path d="M53.4727 246.424L263.946 1.41901" stroke="#0170C3" stroke-width="10" stroke-linecap="round"/>
<path d="M64.1328 264.424L274.606 19.419" stroke="#0170C3" stroke-width="10" stroke-linecap="round"/>
<path d="M74.7969 282.416L285.27 37.4112" stroke="#0170C3" stroke-width="10" stroke-linecap="round"/>
<path d="M85.4629 300.409L295.936 55.4034" stroke="#0170C3" stroke-width="10" stroke-linecap="round"/>
<path d="M96.123 318.401L306.596 73.3956" stroke="#0170C3" stroke-width="10" stroke-linecap="round"/>
<path d="M106.787 336.393L317.26 91.3878" stroke="#0170C3" stroke-width="10" stroke-linecap="round"/>
<path d="M117.449 354.393L327.922 109.388" stroke="#0170C3" stroke-width="10" stroke-linecap="round"/>
<path d="M128.113 372.385L338.586 127.38" stroke="#0170C3" stroke-width="10" stroke-linecap="round"/>
<path d="M138.775 390.377L349.248 145.372" stroke="#0170C3" stroke-width="10" stroke-linecap="round"/>
<path d="M149.439 408.377L359.912 163.372" stroke="#0170C3" stroke-width="10" stroke-linecap="round"/>
<path d="M160.1 426.362L370.572 181.357" stroke="#0170C3" stroke-width="10" stroke-linecap="round"/>
<path d="M170.764 444.362L381.237 199.357" stroke="#0170C3" stroke-width="10" stroke-linecap="round"/>
<path d="M181.428 462.354L391.901 217.349" stroke="#0170C3" stroke-width="10" stroke-linecap="round"/>
</g>
</pattern><pattern id="pattern4_1556_3981" patternUnits="userSpaceOnUse" patternTransform="matrix(-445.373 0 0 -463.779 1438.01 327.52)" preserveAspectRatio="none" viewBox="47.6758 -2.63044 445.373 463.779" width="1" height="1">
<use xlink:href="#pattern4_1556_3981_inner" transform="translate(0 -463.779)"/>
<g id="pattern4_1556_3981_inner">
<path d="M53.4727 246.424L263.946 1.41901" stroke="#0170C3" stroke-width="10" stroke-linecap="round"/>
<path d="M64.1328 264.424L274.606 19.419" stroke="#0170C3" stroke-width="10" stroke-linecap="round"/>
<path d="M74.7969 282.416L285.27 37.4112" stroke="#0170C3" stroke-width="10" stroke-linecap="round"/>
<path d="M85.4629 300.409L295.936 55.4034" stroke="#0170C3" stroke-width="10" stroke-linecap="round"/>
<path d="M96.123 318.401L306.596 73.3956" stroke="#0170C3" stroke-width="10" stroke-linecap="round"/>
<path d="M106.787 336.393L317.26 91.3878" stroke="#0170C3" stroke-width="10" stroke-linecap="round"/>
<path d="M117.449 354.393L327.922 109.388" stroke="#0170C3" stroke-width="10" stroke-linecap="round"/>
<path d="M128.113 372.385L338.586 127.38" stroke="#0170C3" stroke-width="10" stroke-linecap="round"/>
<path d="M138.775 390.377L349.248 145.372" stroke="#0170C3" stroke-width="10" stroke-linecap="round"/>
<path d="M149.439 408.377L359.912 163.372" stroke="#0170C3" stroke-width="10" stroke-linecap="round"/>
<path d="M160.1 426.362L370.572 181.357" stroke="#0170C3" stroke-width="10" stroke-linecap="round"/>
<path d="M170.764 444.362L381.237 199.357" stroke="#0170C3" stroke-width="10" stroke-linecap="round"/>
<path d="M181.428 462.354L391.901 217.349" stroke="#0170C3" stroke-width="10" stroke-linecap="round"/>
</g>
</pattern><pattern id="pattern5_1556_3981" patternUnits="userSpaceOnUse" patternTransform="matrix(0 -445.373 -463.779 0 436.52 909.011)" preserveAspectRatio="none" viewBox="47.6758 -2.63044 445.373 463.779" width="1" height="1">
<use xlink:href="#pattern5_1556_3981_inner" transform="translate(0 -463.779)"/>
<g id="pattern5_1556_3981_inner">
<path d="M53.4727 246.424L263.946 1.41901" stroke="#0170C3" stroke-width="10" stroke-linecap="round"/>
<path d="M64.1328 264.424L274.606 19.419" stroke="#0170C3" stroke-width="10" stroke-linecap="round"/>
<path d="M74.7969 282.416L285.27 37.4112" stroke="#0170C3" stroke-width="10" stroke-linecap="round"/>
<path d="M85.4629 300.409L295.936 55.4034" stroke="#0170C3" stroke-width="10" stroke-linecap="round"/>
<path d="M96.123 318.401L306.596 73.3956" stroke="#0170C3" stroke-width="10" stroke-linecap="round"/>
<path d="M106.787 336.393L317.26 91.3878" stroke="#0170C3" stroke-width="10" stroke-linecap="round"/>
<path d="M117.449 354.393L327.922 109.388" stroke="#0170C3" stroke-width="10" stroke-linecap="round"/>
<path d="M128.113 372.385L338.586 127.38" stroke="#0170C3" stroke-width="10" stroke-linecap="round"/>
<path d="M138.775 390.377L349.248 145.372" stroke="#0170C3" stroke-width="10" stroke-linecap="round"/>
<path d="M149.439 408.377L359.912 163.372" stroke="#0170C3" stroke-width="10" stroke-linecap="round"/>
<path d="M160.1 426.362L370.572 181.357" stroke="#0170C3" stroke-width="10" stroke-linecap="round"/>
<path d="M170.764 444.362L381.237 199.357" stroke="#0170C3" stroke-width="10" stroke-linecap="round"/>
<path d="M181.428 462.354L391.901 217.349" stroke="#0170C3" stroke-width="10" stroke-linecap="round"/>
</g>
</pattern><pattern id="pattern6_1556_3981" patternUnits="userSpaceOnUse" patternTransform="matrix(0 -445.373 -463.779 0 437.52 1019.01)" preserveAspectRatio="none" viewBox="47.6758 -2.63044 445.373 463.779" width="1" height="1">
<use xlink:href="#pattern6_1556_3981_inner" transform="translate(0 -463.779)"/>
<g id="pattern6_1556_3981_inner">
<path d="M53.4727 246.424L263.946 1.41901" stroke="#0170C3" stroke-width="10" stroke-linecap="round"/>
<path d="M64.1328 264.424L274.606 19.419" stroke="#0170C3" stroke-width="10" stroke-linecap="round"/>
<path d="M74.7969 282.416L285.27 37.4112" stroke="#0170C3" stroke-width="10" stroke-linecap="round"/>
<path d="M85.4629 300.409L295.936 55.4034" stroke="#0170C3" stroke-width="10" stroke-linecap="round"/>
<path d="M96.123 318.401L306.596 73.3956" stroke="#0170C3" stroke-width="10" stroke-linecap="round"/>
<path d="M106.787 336.393L317.26 91.3878" stroke="#0170C3" stroke-width="10" stroke-linecap="round"/>
<path d="M117.449 354.393L327.922 109.388" stroke="#0170C3" stroke-width="10" stroke-linecap="round"/>
<path d="M128.113 372.385L338.586 127.38" stroke="#0170C3" stroke-width="10" stroke-linecap="round"/>
<path d="M138.775 390.377L349.248 145.372" stroke="#0170C3" stroke-width="10" stroke-linecap="round"/>
<path d="M149.439 408.377L359.912 163.372" stroke="#0170C3" stroke-width="10" stroke-linecap="round"/>
<path d="M160.1 426.362L370.572 181.357" stroke="#0170C3" stroke-width="10" stroke-linecap="round"/>
<path d="M170.764 444.362L381.237 199.357" stroke="#0170C3" stroke-width="10" stroke-linecap="round"/>
<path d="M181.428 462.354L391.901 217.349" stroke="#0170C3" stroke-width="10" stroke-linecap="round"/>
</g>
</pattern><pattern id="pattern7_1556_3981" patternUnits="userSpaceOnUse" patternTransform="matrix(445.373 0 0 463.779 1088.99 388.48)" preserveAspectRatio="none" viewBox="47.6758 -2.63044 445.373 463.779" width="1" height="1">
<use xlink:href="#pattern7_1556_3981_inner" transform="translate(0 -463.779)"/>
<g id="pattern7_1556_3981_inner">
<path d="M53.4727 246.424L263.946 1.41901" stroke="#0170C3" stroke-width="10" stroke-linecap="round"/>
<path d="M64.1328 264.424L274.606 19.419" stroke="#0170C3" stroke-width="10" stroke-linecap="round"/>
<path d="M74.7969 282.416L285.27 37.4112" stroke="#0170C3" stroke-width="10" stroke-linecap="round"/>
<path d="M85.4629 300.409L295.936 55.4034" stroke="#0170C3" stroke-width="10" stroke-linecap="round"/>
<path d="M96.123 318.401L306.596 73.3956" stroke="#0170C3" stroke-width="10" stroke-linecap="round"/>
<path d="M106.787 336.393L317.26 91.3878" stroke="#0170C3" stroke-width="10" stroke-linecap="round"/>
<path d="M117.449 354.393L327.922 109.388" stroke="#0170C3" stroke-width="10" stroke-linecap="round"/>
<path d="M128.113 372.385L338.586 127.38" stroke="#0170C3" stroke-width="10" stroke-linecap="round"/>
<path d="M138.775 390.377L349.248 145.372" stroke="#0170C3" stroke-width="10" stroke-linecap="round"/>
<path d="M149.439 408.377L359.912 163.372" stroke="#0170C3" stroke-width="10" stroke-linecap="round"/>
<path d="M160.1 426.362L370.572 181.357" stroke="#0170C3" stroke-width="10" stroke-linecap="round"/>
<path d="M170.764 444.362L381.237 199.357" stroke="#0170C3" stroke-width="10" stroke-linecap="round"/>
<path d="M181.428 462.354L391.901 217.349" stroke="#0170C3" stroke-width="10" stroke-linecap="round"/>
</g>
</pattern><pattern id="pattern8_1556_3981" patternUnits="userSpaceOnUse" patternTransform="matrix(445.373 0 0 463.779 1198.99 498.48)" preserveAspectRatio="none" viewBox="47.6758 -2.63044 445.373 463.779" width="1" height="1">
<use xlink:href="#pattern8_1556_3981_inner" transform="translate(0 -463.779)"/>
<g id="pattern8_1556_3981_inner">
<path d="M53.4727 246.424L263.946 1.41901" stroke="#0170C3" stroke-width="10" stroke-linecap="round"/>
<path d="M64.1328 264.424L274.606 19.419" stroke="#0170C3" stroke-width="10" stroke-linecap="round"/>
<path d="M74.7969 282.416L285.27 37.4112" stroke="#0170C3" stroke-width="10" stroke-linecap="round"/>
<path d="M85.4629 300.409L295.936 55.4034" stroke="#0170C3" stroke-width="10" stroke-linecap="round"/>
<path d="M96.123 318.401L306.596 73.3956" stroke="#0170C3" stroke-width="10" stroke-linecap="round"/>
<path d="M106.787 336.393L317.26 91.3878" stroke="#0170C3" stroke-width="10" stroke-linecap="round"/>
<path d="M117.449 354.393L327.922 109.388" stroke="#0170C3" stroke-width="10" stroke-linecap="round"/>
<path d="M128.113 372.385L338.586 127.38" stroke="#0170C3" stroke-width="10" stroke-linecap="round"/>
<path d="M138.775 390.377L349.248 145.372" stroke="#0170C3" stroke-width="10" stroke-linecap="round"/>
<path d="M149.439 408.377L359.912 163.372" stroke="#0170C3" stroke-width="10" stroke-linecap="round"/>
<path d="M160.1 426.362L370.572 181.357" stroke="#0170C3" stroke-width="10" stroke-linecap="round"/>
<path d="M170.764 444.362L381.237 199.357" stroke="#0170C3" stroke-width="10" stroke-linecap="round"/>
<path d="M181.428 462.354L391.901 217.349" stroke="#0170C3" stroke-width="10" stroke-linecap="round"/>
</g>
</pattern><pattern id="pattern9_1556_3981" patternUnits="userSpaceOnUse" patternTransform="matrix(-445.373 0 0 -463.779 268.011 1496.52)" preserveAspectRatio="none" viewBox="47.6758 -2.63044 445.373 463.779" width="1" height="1">
<use xlink:href="#pattern9_1556_3981_inner" transform="translate(0 -463.779)"/>
<g id="pattern9_1556_3981_inner">
<path d="M53.4727 246.424L263.946 1.41901" stroke="#0170C3" stroke-width="10" stroke-linecap="round"/>
<path d="M64.1328 264.424L274.606 19.419" stroke="#0170C3" stroke-width="10" stroke-linecap="round"/>
<path d="M74.7969 282.416L285.27 37.4112" stroke="#0170C3" stroke-width="10" stroke-linecap="round"/>
<path d="M85.4629 300.409L295.936 55.4034" stroke="#0170C3" stroke-width="10" stroke-linecap="round"/>
<path d="M96.123 318.401L306.596 73.3956" stroke="#0170C3" stroke-width="10" stroke-linecap="round"/>
<path d="M106.787 336.393L317.26 91.3878" stroke="#0170C3" stroke-width="10" stroke-linecap="round"/>
<path d="M117.449 354.393L327.922 109.388" stroke="#0170C3" stroke-width="10" stroke-linecap="round"/>
<path d="M128.113 372.385L338.586 127.38" stroke="#0170C3" stroke-width="10" stroke-linecap="round"/>
<path d="M138.775 390.377L349.248 145.372" stroke="#0170C3" stroke-width="10" stroke-linecap="round"/>
<path d="M149.439 408.377L359.912 163.372" stroke="#0170C3" stroke-width="10" stroke-linecap="round"/>
<path d="M160.1 426.362L370.572 181.357" stroke="#0170C3" stroke-width="10" stroke-linecap="round"/>
<path d="M170.764 444.362L381.237 199.357" stroke="#0170C3" stroke-width="10" stroke-linecap="round"/>
<path d="M181.428 462.354L391.901 217.349" stroke="#0170C3" stroke-width="10" stroke-linecap="round"/>
</g>
</pattern><pattern id="pattern10_1556_3981" patternUnits="userSpaceOnUse" patternTransform="matrix(-445.373 0 0 -463.779 378.011 1497.52)" preserveAspectRatio="none" viewBox="47.6758 -2.63044 445.373 463.779" width="1" height="1">
<use xlink:href="#pattern10_1556_3981_inner" transform="translate(0 -463.779)"/>
<g id="pattern10_1556_3981_inner">
<path d="M53.4727 246.424L263.946 1.41901" stroke="#0170C3" stroke-width="10" stroke-linecap="round"/>
<path d="M64.1328 264.424L274.606 19.419" stroke="#0170C3" stroke-width="10" stroke-linecap="round"/>
<path d="M74.7969 282.416L285.27 37.4112" stroke="#0170C3" stroke-width="10" stroke-linecap="round"/>
<path d="M85.4629 300.409L295.936 55.4034" stroke="#0170C3" stroke-width="10" stroke-linecap="round"/>
<path d="M96.123 318.401L306.596 73.3956" stroke="#0170C3" stroke-width="10" stroke-linecap="round"/>
<path d="M106.787 336.393L317.26 91.3878" stroke="#0170C3" stroke-width="10" stroke-linecap="round"/>
<path d="M117.449 354.393L327.922 109.388" stroke="#0170C3" stroke-width="10" stroke-linecap="round"/>
<path d="M128.113 372.385L338.586 127.38" stroke="#0170C3" stroke-width="10" stroke-linecap="round"/>
<path d="M138.775 390.377L349.248 145.372" stroke="#0170C3" stroke-width="10" stroke-linecap="round"/>
<path d="M149.439 408.377L359.912 163.372" stroke="#0170C3" stroke-width="10" stroke-linecap="round"/>
<path d="M160.1 426.362L370.572 181.357" stroke="#0170C3" stroke-width="10" stroke-linecap="round"/>
<path d="M170.764 444.362L381.237 199.357" stroke="#0170C3" stroke-width="10" stroke-linecap="round"/>
<path d="M181.428 462.354L391.901 217.349" stroke="#0170C3" stroke-width="10" stroke-linecap="round"/>
</g>
</pattern><pattern id="pattern11_1556_3981" patternUnits="userSpaceOnUse" patternTransform="matrix(0 -445.373 -463.779 0 966.52 1439.01)" preserveAspectRatio="none" viewBox="47.6758 -2.63044 445.373 463.779" width="1" height="1">
<use xlink:href="#pattern11_1556_3981_inner" transform="translate(0 -463.779)"/>
<g id="pattern11_1556_3981_inner">
<path d="M53.4727 246.424L263.946 1.41901" stroke="#0170C3" stroke-width="10" stroke-linecap="round"/>
<path d="M64.1328 264.424L274.606 19.419" stroke="#0170C3" stroke-width="10" stroke-linecap="round"/>
<path d="M74.7969 282.416L285.27 37.4112" stroke="#0170C3" stroke-width="10" stroke-linecap="round"/>
<path d="M85.4629 300.409L295.936 55.4034" stroke="#0170C3" stroke-width="10" stroke-linecap="round"/>
<path d="M96.123 318.401L306.596 73.3956" stroke="#0170C3" stroke-width="10" stroke-linecap="round"/>
<path d="M106.787 336.393L317.26 91.3878" stroke="#0170C3" stroke-width="10" stroke-linecap="round"/>
<path d="M117.449 354.393L327.922 109.388" stroke="#0170C3" stroke-width="10" stroke-linecap="round"/>
<path d="M128.113 372.385L338.586 127.38" stroke="#0170C3" stroke-width="10" stroke-linecap="round"/>
<path d="M138.775 390.377L349.248 145.372" stroke="#0170C3" stroke-width="10" stroke-linecap="round"/>
<path d="M149.439 408.377L359.912 163.372" stroke="#0170C3" stroke-width="10" stroke-linecap="round"/>
<path d="M160.1 426.362L370.572 181.357" stroke="#0170C3" stroke-width="10" stroke-linecap="round"/>
<path d="M170.764 444.362L381.237 199.357" stroke="#0170C3" stroke-width="10" stroke-linecap="round"/>
<path d="M181.428 462.354L391.901 217.349" stroke="#0170C3" stroke-width="10" stroke-linecap="round"/>
</g>
</pattern><pattern id="pattern12_1556_3981" patternUnits="userSpaceOnUse" patternTransform="matrix(0 -445.373 -463.779 0 967.52 1549.01)" preserveAspectRatio="none" viewBox="47.6758 -2.63044 445.373 463.779" width="1" height="1">
<use xlink:href="#pattern12_1556_3981_inner" transform="translate(0 -463.779)"/>
<g id="pattern12_1556_3981_inner">
<path d="M53.4727 246.424L263.946 1.41901" stroke="#0170C3" stroke-width="10" stroke-linecap="round"/>
<path d="M64.1328 264.424L274.606 19.419" stroke="#0170C3" stroke-width="10" stroke-linecap="round"/>
<path d="M74.7969 282.416L285.27 37.4112" stroke="#0170C3" stroke-width="10" stroke-linecap="round"/>
<path d="M85.4629 300.409L295.936 55.4034" stroke="#0170C3" stroke-width="10" stroke-linecap="round"/>
<path d="M96.123 318.401L306.596 73.3956" stroke="#0170C3" stroke-width="10" stroke-linecap="round"/>
<path d="M106.787 336.393L317.26 91.3878" stroke="#0170C3" stroke-width="10" stroke-linecap="round"/>
<path d="M117.449 354.393L327.922 109.388" stroke="#0170C3" stroke-width="10" stroke-linecap="round"/>
<path d="M128.113 372.385L338.586 127.38" stroke="#0170C3" stroke-width="10" stroke-linecap="round"/>
<path d="M138.775 390.377L349.248 145.372" stroke="#0170C3" stroke-width="10" stroke-linecap="round"/>
<path d="M149.439 408.377L359.912 163.372" stroke="#0170C3" stroke-width="10" stroke-linecap="round"/>
<path d="M160.1 426.362L370.572 181.357" stroke="#0170C3" stroke-width="10" stroke-linecap="round"/>
<path d="M170.764 444.362L381.237 199.357" stroke="#0170C3" stroke-width="10" stroke-linecap="round"/>
<path d="M181.428 462.354L391.901 217.349" stroke="#0170C3" stroke-width="10" stroke-linecap="round"/>
</g>
</pattern></defs>
</svg>
