<svg width="1320" height="1320" viewBox="0 0 1320 1320" fill="none" xmlns="http://www.w3.org/2000/svg">
<rect x="2.5" y="2.5" width="395" height="395" stroke="black" stroke-width="5"/>
<circle cx="110" cy="289" r="22.5" fill="black" stroke="black" stroke-width="5"/>
<rect x="53.5" y="53.5" width="293" height="293" stroke="black" stroke-width="7"/>
<rect x="857.5" y="2.5" width="395" height="395" transform="rotate(90 857.5 2.5)" stroke="black" stroke-width="5"/>
<circle cx="571" cy="110" r="21.5" transform="rotate(90 571 110)" stroke="black" stroke-width="7"/>
<rect x="806.5" y="53.5" width="293" height="293" transform="rotate(90 806.5 53.5)" stroke="black" stroke-width="7"/>
<rect x="2.5" y="2.5" width="395" height="395" transform="matrix(0 1 1 0 920 0)" stroke="black" stroke-width="5"/>
<circle cx="25" cy="25" r="22.5" transform="matrix(0 1 1 0 1184 85)" fill="black" stroke="black" stroke-width="5"/>
<rect x="3.5" y="3.5" width="293" height="293" transform="matrix(0 1 1 0 970 50)" stroke="black" stroke-width="7"/>
<rect x="2.5" y="2.5" width="395" height="395" transform="matrix(0 1 1 0 0 460)" stroke="black" stroke-width="5"/>
<circle cx="25" cy="25" r="22.5" transform="matrix(0 1 1 0 264 545)" fill="black" stroke="black" stroke-width="5"/>
<rect x="3.5" y="3.5" width="293" height="293" transform="matrix(0 1 1 0 50 510)" stroke="black" stroke-width="7"/>
<rect x="462.5" y="857.5" width="395" height="395" transform="rotate(-90 462.5 857.5)" stroke="black" stroke-width="5"/>
<circle cx="749" cy="750" r="21.5" transform="rotate(-90 749 750)" stroke="black" stroke-width="7"/>
<rect x="513.5" y="806.5" width="293" height="293" transform="rotate(-90 513.5 806.5)" stroke="black" stroke-width="7"/>
<rect x="922.5" y="462.5" width="395" height="395" stroke="black" stroke-width="5"/>
<circle cx="1032" cy="749" r="22.5" fill="black" stroke="black" stroke-width="5"/>
<rect x="975.5" y="513.5" width="293" height="293" stroke="black" stroke-width="7"/>
<rect x="397.5" y="922.5" width="395" height="395" transform="rotate(90 397.5 922.5)" stroke="black" stroke-width="5"/>
<circle cx="111" cy="1030" r="21.5" transform="rotate(90 111 1030)" stroke="black" stroke-width="7"/>
<rect x="346.5" y="973.5" width="293" height="293" transform="rotate(90 346.5 973.5)" stroke="black" stroke-width="7"/>
<rect x="2.5" y="2.5" width="395" height="395" transform="matrix(0 1 1 0 460 920)" stroke="black" stroke-width="5"/>
<circle cx="25" cy="25" r="22.5" transform="matrix(0 1 1 0 724 1005)" fill="black" stroke="black" stroke-width="5"/>
<rect x="3.5" y="3.5" width="293" height="293" transform="matrix(0 1 1 0 510 970)" stroke="black" stroke-width="7"/>
<path d="M1119.5 1186V1147.1C1119.5 1128.88 1132.04 1113.05 1149.77 1108.88V1108.88C1157.73 1107.01 1164.9 1102.7 1170.29 1096.56L1170.75 1096.03C1176.75 1089.2 1180.34 1080.59 1180.96 1071.52L1181.21 1067.92C1182.34 1051.6 1175.74 1035.69 1163.39 1024.96L1161.97 1023.73C1144.76 1008.78 1120.21 1005.78 1099.9 1016.13L1095.45 1018.4C1072.6 1030.05 1060.04 1055.25 1064.5 1080.5V1080.5" stroke="black" stroke-width="30"/>
<rect x="1112.5" y="1218.5" width="15" height="15" fill="black" stroke="black" stroke-width="15"/>
</svg>
