<svg width="1320" height="1320" viewBox="0 0 1320 1320" fill="none" xmlns="http://www.w3.org/2000/svg">
<rect x="2.5" y="2.5" width="395" height="395" stroke="black" stroke-width="5"/>
<line x1="15" y1="199.5" x2="385" y2="199.5" stroke="black" stroke-width="5"/>
<line y1="-2.5" x2="370" y2="-2.5" transform="matrix(0 -1 -1 0 200 385)" stroke="black" stroke-width="5"/>
<rect x="462.5" y="2.5" width="395" height="395" stroke="black" stroke-width="5"/>
<circle cx="497" cy="37" r="15" fill="black"/>
<circle cx="497" cy="363" r="15" fill="black"/>
<circle cx="823" cy="363" r="15" fill="black"/>
<circle cx="823" cy="37" r="15" fill="black"/>
<path d="M665 77.5C732.655 77.5 787.5 132.345 787.5 200C787.5 267.655 732.655 322.5 665 322.5C597.345 322.5 542.5 267.655 542.5 200C542.5 132.345 597.345 77.5 665 77.5Z" fill="black" stroke="black" stroke-width="5"/>
<rect x="922.5" y="2.5" width="395" height="395" stroke="black" stroke-width="5"/>
<circle cx="1120" cy="200" r="122.5" stroke="black" stroke-width="5"/>
<line x1="948.768" y1="25.2322" x2="1296.77" y2="373.232" stroke="black" stroke-width="5"/>
<line y1="-2.5" x2="492.146" y2="-2.5" transform="matrix(-0.707107 0.707107 0.707107 0.707107 1295 27)" stroke="black" stroke-width="5"/>
<rect x="2.5" y="462.5" width="395" height="395" stroke="black" stroke-width="5"/>
<circle cx="37" cy="498" r="15" fill="black"/>
<circle cx="37" cy="824" r="15" fill="black"/>
<circle cx="363" cy="824" r="15" fill="black"/>
<circle cx="363" cy="498" r="15" fill="black"/>
<circle cx="200" cy="653" r="122.5" stroke="black" stroke-width="5"/>
<rect x="462.5" y="462.5" width="395" height="395" stroke="black" stroke-width="5"/>
<path d="M488.766 486.234L836.766 834.234" stroke="black" stroke-width="5"/>
<line y1="-2.5" x2="492.146" y2="-2.5" transform="matrix(-0.707107 0.707107 0.707107 0.707107 836 487)" stroke="black" stroke-width="5"/>
<g clip-path="url(#clip0_1556_346)">
<rect x="535" y="535" width="250" height="250" rx="125" fill="#C8D700"/>
<circle cx="660" cy="660" r="122.5" fill="white" stroke="black" stroke-width="5"/>
<path d="M519.797 624.398L803.427 465.001" stroke="black" stroke-width="5" stroke-linecap="round"/>
<path d="M523.742 647.797L807.372 488.399" stroke="black" stroke-width="5" stroke-linecap="round"/>
<path d="M527.688 671.195L811.317 511.798" stroke="black" stroke-width="5" stroke-linecap="round"/>
<path d="M531.633 694.594L815.263 535.196" stroke="black" stroke-width="5" stroke-linecap="round"/>
<path d="M535.578 717.992L819.208 558.595" stroke="black" stroke-width="5" stroke-linecap="round"/>
<path d="M539.523 741.391L823.153 581.993" stroke="black" stroke-width="5" stroke-linecap="round"/>
<path d="M543.477 764.781L827.106 605.384" stroke="black" stroke-width="5" stroke-linecap="round"/>
<path d="M547.422 788.18L831.052 628.782" stroke="black" stroke-width="5" stroke-linecap="round"/>
<path d="M551.367 811.578L834.997 652.181" stroke="black" stroke-width="5" stroke-linecap="round"/>
<path d="M555.312 834.977L838.942 675.579" stroke="black" stroke-width="5" stroke-linecap="round"/>
<path d="M559.258 858.375L842.888 698.977" stroke="black" stroke-width="5" stroke-linecap="round"/>
<path d="M563.203 881.773L846.833 722.376" stroke="black" stroke-width="5" stroke-linecap="round"/>
<path d="M567.148 905.172L850.778 745.774" stroke="black" stroke-width="5" stroke-linecap="round"/>
</g>
<rect x="922.5" y="462.5" width="395" height="395" stroke="black" stroke-width="5"/>
<circle cx="1120" cy="660" r="122.5" fill="black" stroke="black" stroke-width="5"/>
<line x1="935" y1="659.5" x2="1305" y2="659.5" stroke="black" stroke-width="5"/>
<line y1="-2.5" x2="370" y2="-2.5" transform="matrix(0 -1 -1 0 1120 845)" stroke="black" stroke-width="5"/>
<rect x="2.5" y="922.5" width="395" height="395" stroke="black" stroke-width="5"/>
<circle cx="200" cy="1120" r="122.5" fill="black" stroke="black" stroke-width="5"/>
<line x1="26.7678" y1="947.232" x2="374.768" y2="1295.23" stroke="black" stroke-width="5"/>
<line y1="-2.5" x2="492.146" y2="-2.5" transform="matrix(-0.707107 0.707107 0.707107 0.707107 373 949)" stroke="black" stroke-width="5"/>
<path d="M857.5 922.5V1317.5H462.5V922.5H857.5Z" stroke="black" stroke-width="5"/>
<path d="M857.5 922.5V1317.5H462.5V922.5H857.5Z" stroke="black" stroke-width="5"/>
<circle cx="660" cy="1120" r="122.5" stroke="black" stroke-width="5"/>
<line x1="475" y1="1119.5" x2="845" y2="1119.5" stroke="black" stroke-width="5"/>
<line y1="-2.5" x2="370" y2="-2.5" transform="matrix(0 -1 -1 0 660 1305)" stroke="black" stroke-width="5"/>
<path d="M1119.5 1186V1147.1C1119.5 1128.88 1132.04 1113.05 1149.77 1108.88V1108.88C1157.73 1107.01 1164.9 1102.7 1170.29 1096.56L1170.75 1096.03C1176.75 1089.2 1180.34 1080.59 1180.96 1071.52L1181.21 1067.92C1182.34 1051.6 1175.74 1035.69 1163.39 1024.96L1161.97 1023.73C1144.76 1008.78 1120.21 1005.78 1099.9 1016.13L1095.45 1018.4C1072.6 1030.05 1060.04 1055.25 1064.5 1080.5V1080.5" stroke="black" stroke-width="30"/>
<rect x="1112.5" y="1218.5" width="15" height="15" fill="black" stroke="black" stroke-width="15"/>
<g clip-path="url(#clip1_1556_346)">
<rect x="75" y="75" width="250" height="250" rx="125" fill="#C8D700"/>
<circle cx="200" cy="200" r="122.5" fill="white" stroke="black" stroke-width="5"/>
<path d="M59.7969 164.398L343.427 5.00085" stroke="black" stroke-width="5" stroke-linecap="round"/>
<path d="M63.7422 187.797L347.372 28.3993" stroke="black" stroke-width="5" stroke-linecap="round"/>
<path d="M67.6875 211.195L351.317 51.7977" stroke="black" stroke-width="5" stroke-linecap="round"/>
<path d="M71.6328 234.594L355.263 75.1962" stroke="black" stroke-width="5" stroke-linecap="round"/>
<path d="M75.5781 257.992L359.208 98.5946" stroke="black" stroke-width="5" stroke-linecap="round"/>
<path d="M79.5234 281.391L363.153 121.993" stroke="black" stroke-width="5" stroke-linecap="round"/>
<path d="M83.4766 304.789L367.106 145.391" stroke="black" stroke-width="5" stroke-linecap="round"/>
<path d="M87.4219 328.18L371.052 168.782" stroke="black" stroke-width="5" stroke-linecap="round"/>
<path d="M91.3672 351.578L374.997 192.181" stroke="black" stroke-width="5" stroke-linecap="round"/>
<path d="M95.3125 374.977L378.942 215.579" stroke="black" stroke-width="5" stroke-linecap="round"/>
<path d="M99.2578 398.375L382.888 238.977" stroke="black" stroke-width="5" stroke-linecap="round"/>
<path d="M103.203 421.773L386.833 262.376" stroke="black" stroke-width="5" stroke-linecap="round"/>
<path d="M107.148 445.172L390.778 285.774" stroke="black" stroke-width="5" stroke-linecap="round"/>
</g>
<defs>
<clipPath id="clip0_1556_346">
<rect x="535" y="535" width="250" height="250" rx="125" fill="white"/>
</clipPath>
<clipPath id="clip1_1556_346">
<rect x="75" y="75" width="250" height="250" rx="125" fill="white"/>
</clipPath>
</defs>
</svg>
