<svg width="1460" height="1460" viewBox="0 0 1460 1460" fill="none" xmlns="http://www.w3.org/2000/svg">
<rect x="2.5" y="2.5" width="395" height="395" stroke="black" stroke-width="5"/>
<line x1="15" y1="198.5" x2="385" y2="198.5" stroke="black" stroke-width="7"/>
<line y1="-3.5" x2="370" y2="-3.5" transform="matrix(0 -1 -1 0 200 385)" stroke="black" stroke-width="7"/>
<circle cx="104" cy="103" r="50" fill="black"/>
<circle cx="104" cy="296" r="46.5" stroke="black" stroke-width="7"/>
<rect x="532.5" y="2.5" width="395" height="395" stroke="black" stroke-width="5"/>
<line x1="545" y1="198.5" x2="915" y2="198.5" stroke="black" stroke-width="7"/>
<line y1="-3.5" x2="370" y2="-3.5" transform="matrix(0 -1 -1 0 730 385)" stroke="black" stroke-width="7"/>
<circle cx="831" cy="103" r="50" fill="black"/>
<rect x="1062.5" y="2.5" width="395" height="395" stroke="black" stroke-width="5"/>
<line x1="1075" y1="198.5" x2="1445" y2="198.5" stroke="black" stroke-width="7"/>
<line y1="-3.5" x2="370" y2="-3.5" transform="matrix(0 -1 -1 0 1260 385)" stroke="black" stroke-width="7"/>
<circle cx="1364" cy="296" r="50" fill="black"/>
<circle cx="1164" cy="296" r="46.5" stroke="black" stroke-width="7"/>
<rect x="2.5" y="532.5" width="395" height="395" stroke="black" stroke-width="5"/>
<line x1="15" y1="728.5" x2="385" y2="728.5" stroke="black" stroke-width="7"/>
<line y1="-3.5" x2="370" y2="-3.5" transform="matrix(0 -1 -1 0 200 915)" stroke="black" stroke-width="7"/>
<circle cx="301" cy="632" r="46.5" stroke="black" stroke-width="7"/>
<circle cx="104" cy="826" r="50" fill="black"/>
<rect x="532.5" y="532.5" width="395" height="395" stroke="black" stroke-width="5"/>
<line x1="545" y1="728.5" x2="915" y2="728.5" stroke="black" stroke-width="7"/>
<line y1="-3.5" x2="370" y2="-3.5" transform="matrix(0 -1 -1 0 730 915)" stroke="black" stroke-width="7"/>
<circle cx="634" cy="633" r="50" fill="black"/>
<circle cx="634" cy="826" r="46.5" stroke="black" stroke-width="7"/>
<rect x="1062.5" y="532.5" width="395" height="395" stroke="black" stroke-width="5"/>
<line x1="1075" y1="728.5" x2="1445" y2="728.5" stroke="black" stroke-width="7"/>
<line y1="-3.5" x2="370" y2="-3.5" transform="matrix(0 -1 -1 0 1260 915)" stroke="black" stroke-width="7"/>
<circle cx="1361" cy="633" r="50" fill="black"/>
<rect x="2.5" y="1062.5" width="395" height="395" stroke="black" stroke-width="5"/>
<line x1="15" y1="1258.5" x2="385" y2="1258.5" stroke="black" stroke-width="7"/>
<line y1="-3.5" x2="370" y2="-3.5" transform="matrix(0 -1 -1 0 200 1445)" stroke="black" stroke-width="7"/>
<circle cx="304" cy="1356" r="50" fill="black"/>
<circle cx="104" cy="1356" r="46.5" stroke="black" stroke-width="7"/>
<rect x="532.5" y="1062.5" width="395" height="395" stroke="black" stroke-width="5"/>
<line x1="545" y1="1258.5" x2="915" y2="1258.5" stroke="black" stroke-width="7"/>
<line y1="-3.5" x2="370" y2="-3.5" transform="matrix(0 -1 -1 0 730 1445)" stroke="black" stroke-width="7"/>
<circle cx="831" cy="1162" r="46.5" stroke="black" stroke-width="7"/>
<circle cx="634" cy="1356" r="50" fill="black"/>
<path d="M1259.5 1326V1287.1C1259.5 1268.88 1272.04 1253.05 1289.77 1248.88V1248.88C1297.73 1247.01 1304.9 1242.7 1310.29 1236.56L1310.75 1236.03C1316.75 1229.2 1320.34 1220.59 1320.96 1211.52L1321.21 1207.92C1322.34 1191.6 1315.74 1175.69 1303.39 1164.96L1301.97 1163.73C1284.76 1148.78 1260.21 1145.78 1239.9 1156.13L1235.45 1158.4C1212.6 1170.05 1200.04 1195.25 1204.5 1220.5V1220.5" stroke="black" stroke-width="30"/>
<rect x="1252.5" y="1358.5" width="15" height="15" fill="black" stroke="black" stroke-width="15"/>
</svg>
