<svg width="1320" height="1320" viewBox="0 0 1320 1320" fill="none" xmlns="http://www.w3.org/2000/svg">
<g clip-path="url(#clip0_1556_2634)">
<rect x="2.5" y="2.5" width="395" height="395" stroke="black" stroke-width="5"/>
<line x1="15" y1="198.5" x2="385" y2="198.5" stroke="black" stroke-width="7"/>
<line y1="-3.5" x2="370" y2="-3.5" transform="matrix(0 -1 -1 0 200 385)" stroke="black" stroke-width="7"/>
<circle cx="104" cy="103" r="50" fill="black"/>
<circle cx="104" cy="296" r="46.5" stroke="black" stroke-width="7"/>
<rect x="462.5" y="2.5" width="395" height="395" stroke="black" stroke-width="5"/>
<line x1="475" y1="198.5" x2="845" y2="198.5" stroke="black" stroke-width="7"/>
<line y1="-3.5" x2="370" y2="-3.5" transform="matrix(0 -1 -1 0 660 385)" stroke="black" stroke-width="7"/>
<circle cx="761" cy="103" r="50" fill="black"/>
<rect x="922.5" y="2.5" width="395" height="395" stroke="black" stroke-width="5"/>
<line x1="935" y1="198.5" x2="1305" y2="198.5" stroke="black" stroke-width="7"/>
<line y1="-3.5" x2="370" y2="-3.5" transform="matrix(0 -1 -1 0 1120 385)" stroke="black" stroke-width="7"/>
<circle cx="1224" cy="296" r="50" fill="black"/>
<circle cx="1024" cy="296" r="46.5" stroke="black" stroke-width="7"/>
<rect x="2.5" y="462.5" width="395" height="395" stroke="black" stroke-width="5"/>
<line x1="15" y1="658.5" x2="385" y2="658.5" stroke="black" stroke-width="7"/>
<line y1="-3.5" x2="370" y2="-3.5" transform="matrix(0 -1 -1 0 200 845)" stroke="black" stroke-width="7"/>
<circle cx="301" cy="562" r="46.5" stroke="black" stroke-width="7"/>
<circle cx="104" cy="756" r="50" fill="black"/>
<rect x="462.5" y="462.5" width="395" height="395" stroke="black" stroke-width="5"/>
<line x1="475" y1="658.5" x2="845" y2="658.5" stroke="black" stroke-width="7"/>
<line y1="-3.5" x2="370" y2="-3.5" transform="matrix(0 -1 -1 0 660 845)" stroke="black" stroke-width="7"/>
<circle cx="564" cy="563" r="50" fill="black"/>
<circle cx="564" cy="756" r="46.5" stroke="black" stroke-width="7"/>
<rect x="922.5" y="462.5" width="395" height="395" stroke="black" stroke-width="5"/>
<line x1="935" y1="658.5" x2="1305" y2="658.5" stroke="black" stroke-width="7"/>
<line y1="-3.5" x2="370" y2="-3.5" transform="matrix(0 -1 -1 0 1120 845)" stroke="black" stroke-width="7"/>
<circle cx="1221" cy="563" r="50" fill="black"/>
<rect x="2.5" y="922.5" width="395" height="395" stroke="black" stroke-width="5"/>
<line x1="15" y1="1118.5" x2="385" y2="1118.5" stroke="black" stroke-width="7"/>
<line y1="-3.5" x2="370" y2="-3.5" transform="matrix(0 -1 -1 0 200 1305)" stroke="black" stroke-width="7"/>
<circle cx="304" cy="1216" r="50" fill="black"/>
<circle cx="104" cy="1216" r="46.5" stroke="black" stroke-width="7"/>
<rect x="462.5" y="922.5" width="395" height="395" stroke="black" stroke-width="5"/>
<line x1="475" y1="1118.5" x2="845" y2="1118.5" stroke="black" stroke-width="7"/>
<line y1="-3.5" x2="370" y2="-3.5" transform="matrix(0 -1 -1 0 660 1305)" stroke="black" stroke-width="7"/>
<circle cx="761" cy="1022" r="46.5" stroke="black" stroke-width="7"/>
<circle cx="564" cy="1216" r="50" fill="black"/>
<path d="M1119.5 1186V1147.1C1119.5 1128.88 1132.04 1113.05 1149.77 1108.88V1108.88C1157.73 1107.01 1164.9 1102.7 1170.29 1096.56L1170.75 1096.03C1176.75 1089.2 1180.34 1080.59 1180.96 1071.52L1181.21 1067.92C1182.34 1051.6 1175.74 1035.69 1163.39 1024.96L1161.97 1023.73C1144.76 1008.78 1120.21 1005.78 1099.9 1016.13L1095.45 1018.4C1072.6 1030.05 1060.04 1055.25 1064.5 1080.5V1080.5" stroke="black" stroke-width="30"/>
<rect x="1112.5" y="1218.5" width="15" height="15" fill="black" stroke="black" stroke-width="15"/>
</g>
<defs>
<clipPath id="clip0_1556_2634">
<rect width="1320" height="1320" fill="white"/>
</clipPath>
</defs>
</svg>
