<svg width="1320" height="1320" viewBox="0 0 1320 1320" fill="none" xmlns="http://www.w3.org/2000/svg">
<g clip-path="url(#clip0_1556_4834)">
<rect x="2.5" y="2.5" width="395" height="395" stroke="black" stroke-width="5"/>
<path d="M345 200C345 174.467 338.405 150.49 326.828 129.662L204.999 200L326.828 270.337C338.404 249.509 345 225.532 345 200ZM75.6748 274.665C100.646 316.152 145.779 344.104 197.5 344.979V204.33L75.6748 274.665ZM202.5 344.979C254.221 344.104 299.353 316.152 324.324 274.665L202.5 204.33V344.979ZM197.5 55.0205C145.779 55.8948 100.646 83.8471 75.6748 125.334L197.5 195.669V55.0205ZM202.5 195.669L324.324 125.334C299.353 83.8473 254.221 55.8948 202.5 55.0205V195.669ZM55 200C55 225.532 61.5949 249.51 73.1709 270.337L195 200L73.1709 129.662C61.5946 150.49 55 174.468 55 200ZM350 200C350 227.327 342.693 252.947 329.926 275.013C303.988 319.841 255.516 350 200 350C144.484 350 96.0117 319.841 70.0742 275.013C57.307 252.947 50 227.327 50 200C50 172.673 57.307 147.053 70.0742 124.987C96.0117 80.1591 144.484 50 200 50C255.516 50 303.988 80.1591 329.926 124.987C342.693 147.053 350 172.673 350 200Z" fill="black"/>
<circle cx="104" cy="200" r="16.5" stroke="black" stroke-width="7"/>
<circle cx="152" cy="285" r="16.5" stroke="black" stroke-width="7"/>
<path d="M267.32 302H232.68L250 272L267.32 302Z" stroke="black" stroke-width="7"/>
<path d="M169.32 126H134.68L152 96L169.32 126Z" stroke="black" stroke-width="7"/>
<rect x="281.5" y="183.5" width="33" height="33" stroke="black" stroke-width="7"/>
<path d="M231 89L267 125M267 89L231 125" stroke="black" stroke-width="7"/>
<rect x="462.5" y="2.5" width="395" height="395" stroke="black" stroke-width="5"/>
<path d="M805 200C805 174.467 798.405 150.49 786.828 129.662L664.999 200L786.828 270.337C798.404 249.509 805 225.532 805 200ZM535.675 274.665C560.646 316.152 605.779 344.104 657.5 344.979V204.33L535.675 274.665ZM662.5 344.979C714.221 344.104 759.353 316.152 784.324 274.665L662.5 204.33V344.979ZM657.5 55.0205C605.779 55.8948 560.646 83.8471 535.675 125.334L657.5 195.669V55.0205ZM662.5 195.669L784.324 125.334C759.353 83.8473 714.221 55.8948 662.5 55.0205V195.669ZM515 200C515 225.532 521.595 249.51 533.171 270.337L655 200L533.171 129.662C521.595 150.49 515 174.468 515 200ZM810 200C810 227.327 802.693 252.947 789.926 275.013C763.988 319.841 715.516 350 660 350C604.484 350 556.012 319.841 530.074 275.013C517.307 252.947 510 227.327 510 200C510 172.673 517.307 147.053 530.074 124.987C556.012 80.1591 604.484 50 660 50C715.516 50 763.988 80.1591 789.926 124.987C802.693 147.053 810 172.673 810 200Z" fill="black"/>
<circle cx="608" cy="285" r="16.5" stroke="black" stroke-width="7"/>
<circle cx="711" cy="116" r="16.5" stroke="black" stroke-width="7"/>
<path d="M778.32 214H743.68L761 184L778.32 214Z" stroke="black" stroke-width="7"/>
<rect x="547.5" y="183.5" width="33" height="33" stroke="black" stroke-width="7"/>
<rect x="592.5" y="99.5" width="33" height="33" stroke="black" stroke-width="7"/>
<path d="M693 267L729 303M729 267L693 303" stroke="black" stroke-width="7"/>
<rect x="922.5" y="2.5" width="395" height="395" stroke="black" stroke-width="5"/>
<path d="M1265 200C1265 174.467 1258.4 150.49 1246.83 129.662L1125 200L1246.83 270.337C1258.4 249.509 1265 225.532 1265 200ZM995.675 274.665C1020.65 316.152 1065.78 344.104 1117.5 344.979V204.33L995.675 274.665ZM1122.5 344.979C1174.22 344.104 1219.35 316.152 1244.32 274.665L1122.5 204.33V344.979ZM1117.5 55.0205C1065.78 55.8948 1020.65 83.8471 995.675 125.334L1117.5 195.669V55.0205ZM1122.5 195.669L1244.32 125.334C1219.35 83.8473 1174.22 55.8948 1122.5 55.0205V195.669ZM975 200C975 225.532 981.595 249.51 993.171 270.337L1115 200L993.171 129.662C981.595 150.49 975 174.468 975 200ZM1270 200C1270 227.327 1262.69 252.947 1249.93 275.013C1223.99 319.841 1175.52 350 1120 350C1064.48 350 1016.01 319.841 990.074 275.013C977.307 252.947 970 227.327 970 200C970 172.673 977.307 147.053 990.074 124.987C1016.01 80.1591 1064.48 50 1120 50C1175.52 50 1223.99 80.1591 1249.93 124.987C1262.69 147.053 1270 172.673 1270 200Z" fill="black"/>
<circle cx="1170" cy="287" r="16.5" stroke="black" stroke-width="7"/>
<path d="M1088.32 302H1053.68L1071 272L1088.32 302Z" stroke="black" stroke-width="7"/>
<rect x="1008.5" y="183.5" width="33" height="33" stroke="black" stroke-width="7"/>
<rect x="1201.5" y="183.5" width="33" height="33" stroke="black" stroke-width="7"/>
<path d="M1053 89L1089 125M1089 89L1053 125" stroke="black" stroke-width="7"/>
<path d="M1151 89L1187 125M1187 89L1151 125" stroke="black" stroke-width="7"/>
<rect x="2.5" y="462.5" width="395" height="395" stroke="black" stroke-width="5"/>
<path d="M345 660C345 634.467 338.405 610.49 326.828 589.662L204.999 660L326.828 730.337C338.404 709.509 345 685.532 345 660ZM75.6748 734.665C100.646 776.152 145.779 804.104 197.5 804.979V664.33L75.6748 734.665ZM202.5 804.979C254.221 804.104 299.353 776.152 324.324 734.665L202.5 664.33V804.979ZM197.5 515.021C145.779 515.895 100.646 543.847 75.6748 585.334L197.5 655.669V515.021ZM202.5 655.669L324.324 585.334C299.353 543.847 254.221 515.895 202.5 515.021V655.669ZM55 660C55 685.532 61.5949 709.51 73.1709 730.337L195 660L73.1709 589.662C61.5946 610.49 55 634.468 55 660ZM350 660C350 687.327 342.693 712.947 329.926 735.013C303.988 779.841 255.516 810 200 810C144.484 810 96.0117 779.841 70.0742 735.013C57.307 712.947 50 687.327 50 660C50 632.673 57.307 607.053 70.0742 584.987C96.0117 540.159 144.484 510 200 510C255.516 510 303.988 540.159 329.926 584.987C342.693 607.053 350 632.673 350 660Z" fill="black"/>
<circle cx="104" cy="660" r="16.5" stroke="black" stroke-width="7"/>
<path d="M270.32 589H235.68L253 559L270.32 589Z" stroke="black" stroke-width="7"/>
<rect x="236.5" y="732.5" width="33" height="33" stroke="black" stroke-width="7"/>
<path d="M278 642L314 678M314 642L278 678" stroke="black" stroke-width="7"/>
<path d="M132 724L168 760M168 724L132 760" stroke="black" stroke-width="7"/>
<path d="M132 557L168 593M168 557L132 593" stroke="black" stroke-width="7"/>
<rect x="462.5" y="462.5" width="395" height="395" stroke="black" stroke-width="5"/>
<path d="M593 726L629 762M629 726L593 762" stroke="black" stroke-width="7"/>
<path d="M805 660C805 634.467 798.405 610.49 786.828 589.662L664.999 660L786.828 730.337C798.404 709.509 805 685.532 805 660ZM535.675 734.665C560.646 776.152 605.779 804.104 657.5 804.979V664.33L535.675 734.665ZM662.5 804.979C714.221 804.104 759.353 776.152 784.324 734.665L662.5 664.33V804.979ZM657.5 515.021C605.779 515.895 560.646 543.847 535.675 585.334L657.5 655.669V515.021ZM662.5 655.669L784.324 585.334C759.353 543.847 714.221 515.895 662.5 515.021V655.669ZM515 660C515 685.532 521.595 709.51 533.171 730.337L655 660L533.171 589.662C521.595 610.49 515 634.468 515 660ZM810 660C810 687.327 802.693 712.947 789.926 735.013C763.988 779.841 715.516 810 660 810C604.484 810 556.012 779.841 530.074 735.013C517.307 712.947 510 687.327 510 660C510 632.673 517.307 607.053 530.074 584.987C556.012 540.159 604.484 510 660 510C715.516 510 763.988 540.159 789.926 584.987C802.693 607.053 810 632.673 810 660Z" fill="black"/>
<circle cx="756" cy="660" r="16.5" stroke="black" stroke-width="7"/>
<path d="M729.32 589H694.68L712 559L729.32 589Z" stroke="black" stroke-width="7"/>
<path d="M729.32 759H694.68L712 729L729.32 759Z" stroke="black" stroke-width="7"/>
<path d="M581.32 677H546.68L564 647L581.32 677Z" stroke="black" stroke-width="7"/>
<rect x="594.5" y="560.5" width="33" height="33" stroke="black" stroke-width="7"/>
<rect x="922.5" y="462.5" width="395" height="395" stroke="black" stroke-width="5"/>
<path d="M1265 660C1265 634.467 1258.4 610.49 1246.83 589.662L1125 660L1246.83 730.337C1258.4 709.509 1265 685.532 1265 660ZM995.675 734.665C1020.65 776.152 1065.78 804.104 1117.5 804.979V664.33L995.675 734.665ZM1122.5 804.979C1174.22 804.104 1219.35 776.152 1244.32 734.665L1122.5 664.33V804.979ZM1117.5 515.021C1065.78 515.895 1020.65 543.847 995.675 585.334L1117.5 655.669V515.021ZM1122.5 655.669L1244.32 585.334C1219.35 543.847 1174.22 515.895 1122.5 515.021V655.669ZM975 660C975 685.532 981.595 709.51 993.171 730.337L1115 660L993.171 589.662C981.595 610.49 975 634.468 975 660ZM1270 660C1270 687.327 1262.69 712.947 1249.93 735.013C1223.99 779.841 1175.52 810 1120 810C1064.48 810 1016.01 779.841 990.074 735.013C977.307 712.947 970 687.327 970 660C970 632.673 977.307 607.053 990.074 584.987C1016.01 540.159 1064.48 510 1120 510C1175.52 510 1223.99 540.159 1249.93 584.987C1262.69 607.053 1270 632.673 1270 660Z" fill="black"/>
<circle cx="1218" cy="660" r="16.5" stroke="black" stroke-width="7"/>
<circle cx="1071" cy="577" r="16.5" stroke="black" stroke-width="7"/>
<circle cx="1071" cy="742" r="16.5" stroke="black" stroke-width="7"/>
<path d="M1042.32 674H1007.68L1025 644L1042.32 674Z" stroke="black" stroke-width="7"/>
<rect x="1152.5" y="725.5" width="33" height="33" stroke="black" stroke-width="7"/>
<path d="M1151 557L1187 593M1187 557L1151 593" stroke="black" stroke-width="7"/>
<rect x="2.5" y="922.5" width="395" height="395" stroke="black" stroke-width="5"/>
<path d="M345 1120C345 1094.47 338.405 1070.49 326.828 1049.66L204.999 1120L326.828 1190.34C338.404 1169.51 345 1145.53 345 1120ZM75.6748 1194.67C100.646 1236.15 145.779 1264.1 197.5 1264.98V1124.33L75.6748 1194.67ZM202.5 1264.98C254.221 1264.1 299.353 1236.15 324.324 1194.67L202.5 1124.33V1264.98ZM197.5 975.021C145.779 975.895 100.646 1003.85 75.6748 1045.33L197.5 1115.67V975.021ZM202.5 1115.67L324.324 1045.33C299.353 1003.85 254.221 975.895 202.5 975.021V1115.67ZM55 1120C55 1145.53 61.5949 1169.51 73.1709 1190.34L195 1120L73.1709 1049.66C61.5946 1070.49 55 1094.47 55 1120ZM350 1120C350 1147.33 342.693 1172.95 329.926 1195.01C303.988 1239.84 255.516 1270 200 1270C144.484 1270 96.0117 1239.84 70.0742 1195.01C57.307 1172.95 50 1147.33 50 1120C50 1092.67 57.307 1067.05 70.0742 1044.99C96.0117 1000.16 144.484 970 200 970C255.516 970 303.988 1000.16 329.926 1044.99C342.693 1067.05 350 1092.67 350 1120Z" fill="black"/>
<circle cx="296" cy="1120" r="16.5" stroke="black" stroke-width="7"/>
<path d="M266.32 1052H231.68L249 1022L266.32 1052Z" stroke="black" stroke-width="7"/>
<path d="M172.32 1213H137.68L155 1183L172.32 1213Z" stroke="black" stroke-width="7"/>
<rect x="232.5" y="1186.5" width="33" height="33" stroke="black" stroke-width="7"/>
<rect x="88.5" y="1103.5" width="33" height="33" stroke="black" stroke-width="7"/>
<path d="M132 1017L168 1053M168 1017L132 1053" stroke="black" stroke-width="7"/>
<rect x="462.5" y="922.5" width="395" height="395" stroke="black" stroke-width="5"/>
<path d="M805 1120C805 1094.47 798.405 1070.49 786.828 1049.66L664.999 1120L786.828 1190.34C798.404 1169.51 805 1145.53 805 1120ZM535.675 1194.67C560.646 1236.15 605.779 1264.1 657.5 1264.98V1124.33L535.675 1194.67ZM662.5 1264.98C714.221 1264.1 759.353 1236.15 784.324 1194.67L662.5 1124.33V1264.98ZM657.5 975.021C605.779 975.895 560.646 1003.85 535.675 1045.33L657.5 1115.67V975.021ZM662.5 1115.67L784.324 1045.33C759.353 1003.85 714.221 975.895 662.5 975.021V1115.67ZM515 1120C515 1145.53 521.595 1169.51 533.171 1190.34L655 1120L533.171 1049.66C521.595 1070.49 515 1094.47 515 1120ZM810 1120C810 1147.33 802.693 1172.95 789.926 1195.01C763.988 1239.84 715.516 1270 660 1270C604.484 1270 556.012 1239.84 530.074 1195.01C517.307 1172.95 510 1147.33 510 1120C510 1092.67 517.307 1067.05 530.074 1044.99C556.012 1000.16 604.484 970 660 970C715.516 970 763.988 1000.16 789.926 1044.99C802.693 1067.05 810 1092.67 810 1120Z" fill="black"/>
<circle cx="564" cy="1120" r="16.5" stroke="black" stroke-width="7"/>
<circle cx="756" cy="1120" r="16.5" stroke="black" stroke-width="7"/>
<path d="M726.32 1052H691.68L709 1022L726.32 1052Z" stroke="black" stroke-width="7"/>
<rect x="692.5" y="1186.5" width="33" height="33" stroke="black" stroke-width="7"/>
<path d="M593 1017L629 1053M629 1017L593 1053" stroke="black" stroke-width="7"/>
<path d="M593 1186L629 1222M629 1186L593 1222" stroke="black" stroke-width="7"/>
<path d="M1119.5 1186V1147.1C1119.5 1128.88 1132.04 1113.05 1149.77 1108.88V1108.88C1157.73 1107.01 1164.9 1102.7 1170.29 1096.56L1170.75 1096.03C1176.75 1089.2 1180.34 1080.59 1180.96 1071.52L1181.21 1067.92C1182.34 1051.6 1175.74 1035.69 1163.39 1024.96L1161.97 1023.73C1144.76 1008.78 1120.21 1005.78 1099.9 1016.13L1095.45 1018.4C1072.6 1030.05 1060.04 1055.25 1064.5 1080.5V1080.5" stroke="black" stroke-width="30"/>
<rect x="1112.5" y="1218.5" width="15" height="15" fill="black" stroke="black" stroke-width="15"/>
</g>
<defs>
<clipPath id="clip0_1556_4834">
<rect width="1320" height="1320" fill="white"/>
</clipPath>
</defs>
</svg>
