<svg width="1460" height="1460" viewBox="0 0 1460 1460" fill="none" xmlns="http://www.w3.org/2000/svg">
<rect x="2.5" y="2.5" width="395" height="395" stroke="black" stroke-width="5"/>
<path d="M345 200C345 174.467 338.405 150.49 326.828 129.662L204.999 200L326.828 270.337C338.404 249.509 345 225.532 345 200ZM75.6748 274.665C100.646 316.152 145.779 344.104 197.5 344.979V204.33L75.6748 274.665ZM202.5 344.979C254.221 344.104 299.353 316.152 324.324 274.665L202.5 204.33V344.979ZM197.5 55.0205C145.779 55.8948 100.646 83.8471 75.6748 125.334L197.5 195.669V55.0205ZM202.5 195.669L324.324 125.334C299.353 83.8473 254.221 55.8948 202.5 55.0205V195.669ZM55 200C55 225.532 61.5949 249.51 73.1709 270.337L195 200L73.1709 129.662C61.5946 150.49 55 174.468 55 200ZM350 200C350 227.327 342.693 252.947 329.926 275.013C303.988 319.841 255.516 350 200 350C144.484 350 96.0117 319.841 70.0742 275.013C57.307 252.947 50 227.327 50 200C50 172.673 57.307 147.053 70.0742 124.987C96.0117 80.1591 144.484 50 200 50C255.516 50 303.988 80.1591 329.926 124.987C342.693 147.053 350 172.673 350 200Z" fill="black"/>
<circle cx="104" cy="200" r="16.5" stroke="black" stroke-width="7"/>
<circle cx="152" cy="285" r="16.5" stroke="black" stroke-width="7"/>
<path d="M267.32 302H232.68L250 272L267.32 302Z" stroke="black" stroke-width="7"/>
<path d="M169.32 126H134.68L152 96L169.32 126Z" stroke="black" stroke-width="7"/>
<rect x="281.5" y="183.5" width="33" height="33" stroke="black" stroke-width="7"/>
<path d="M231 89L267 125M267 89L231 125" stroke="black" stroke-width="7"/>
<rect x="532.5" y="2.5" width="395" height="395" stroke="black" stroke-width="5"/>
<path d="M875 200C875 174.467 868.405 150.49 856.828 129.662L734.999 200L856.828 270.337C868.404 249.509 875 225.532 875 200ZM605.675 274.665C630.646 316.152 675.779 344.104 727.5 344.979V204.33L605.675 274.665ZM732.5 344.979C784.221 344.104 829.353 316.152 854.324 274.665L732.5 204.33V344.979ZM727.5 55.0205C675.779 55.8948 630.646 83.8471 605.675 125.334L727.5 195.669V55.0205ZM732.5 195.669L854.324 125.334C829.353 83.8473 784.221 55.8948 732.5 55.0205V195.669ZM585 200C585 225.532 591.595 249.51 603.171 270.337L725 200L603.171 129.662C591.595 150.49 585 174.468 585 200ZM880 200C880 227.327 872.693 252.947 859.926 275.013C833.988 319.841 785.516 350 730 350C674.484 350 626.012 319.841 600.074 275.013C587.307 252.947 580 227.327 580 200C580 172.673 587.307 147.053 600.074 124.987C626.012 80.1591 674.484 50 730 50C785.516 50 833.988 80.1591 859.926 124.987C872.693 147.053 880 172.673 880 200Z" fill="black"/>
<circle cx="678" cy="285" r="16.5" stroke="black" stroke-width="7"/>
<circle cx="781" cy="116" r="16.5" stroke="black" stroke-width="7"/>
<path d="M848.32 214H813.68L831 184L848.32 214Z" stroke="black" stroke-width="7"/>
<rect x="617.5" y="183.5" width="33" height="33" stroke="black" stroke-width="7"/>
<rect x="662.5" y="99.5" width="33" height="33" stroke="black" stroke-width="7"/>
<path d="M763 267L799 303M799 267L763 303" stroke="black" stroke-width="7"/>
<rect x="1062.5" y="2.5" width="395" height="395" stroke="black" stroke-width="5"/>
<path d="M1405 200C1405 174.467 1398.4 150.49 1386.83 129.662L1265 200L1386.83 270.337C1398.4 249.509 1405 225.532 1405 200ZM1135.67 274.665C1160.65 316.152 1205.78 344.104 1257.5 344.979V204.33L1135.67 274.665ZM1262.5 344.979C1314.22 344.104 1359.35 316.152 1384.32 274.665L1262.5 204.33V344.979ZM1257.5 55.0205C1205.78 55.8948 1160.65 83.8471 1135.67 125.334L1257.5 195.669V55.0205ZM1262.5 195.669L1384.32 125.334C1359.35 83.8473 1314.22 55.8948 1262.5 55.0205V195.669ZM1115 200C1115 225.532 1121.59 249.51 1133.17 270.337L1255 200L1133.17 129.662C1121.59 150.49 1115 174.468 1115 200ZM1410 200C1410 227.327 1402.69 252.947 1389.93 275.013C1363.99 319.841 1315.52 350 1260 350C1204.48 350 1156.01 319.841 1130.07 275.013C1117.31 252.947 1110 227.327 1110 200C1110 172.673 1117.31 147.053 1130.07 124.987C1156.01 80.1591 1204.48 50 1260 50C1315.52 50 1363.99 80.1591 1389.93 124.987C1402.69 147.053 1410 172.673 1410 200Z" fill="black"/>
<circle cx="1310" cy="287" r="16.5" stroke="black" stroke-width="7"/>
<path d="M1228.32 302H1193.68L1211 272L1228.32 302Z" stroke="black" stroke-width="7"/>
<rect x="1148.5" y="183.5" width="33" height="33" stroke="black" stroke-width="7"/>
<rect x="1341.5" y="183.5" width="33" height="33" stroke="black" stroke-width="7"/>
<path d="M1193 89L1229 125M1229 89L1193 125" stroke="black" stroke-width="7"/>
<path d="M1291 89L1327 125M1327 89L1291 125" stroke="black" stroke-width="7"/>
<rect x="2.5" y="532.5" width="395" height="395" stroke="black" stroke-width="5"/>
<path d="M345 730C345 704.467 338.405 680.49 326.828 659.662L204.999 730L326.828 800.337C338.404 779.509 345 755.532 345 730ZM75.6748 804.665C100.646 846.152 145.779 874.104 197.5 874.979V734.33L75.6748 804.665ZM202.5 874.979C254.221 874.104 299.353 846.152 324.324 804.665L202.5 734.33V874.979ZM197.5 585.021C145.779 585.895 100.646 613.847 75.6748 655.334L197.5 725.669V585.021ZM202.5 725.669L324.324 655.334C299.353 613.847 254.221 585.895 202.5 585.021V725.669ZM55 730C55 755.532 61.5949 779.51 73.1709 800.337L195 730L73.1709 659.662C61.5946 680.49 55 704.468 55 730ZM350 730C350 757.327 342.693 782.947 329.926 805.013C303.988 849.841 255.516 880 200 880C144.484 880 96.0117 849.841 70.0742 805.013C57.307 782.947 50 757.327 50 730C50 702.673 57.307 677.053 70.0742 654.987C96.0117 610.159 144.484 580 200 580C255.516 580 303.988 610.159 329.926 654.987C342.693 677.053 350 702.673 350 730Z" fill="black"/>
<circle cx="104" cy="730" r="16.5" stroke="black" stroke-width="7"/>
<path d="M270.32 659H235.68L253 629L270.32 659Z" stroke="black" stroke-width="7"/>
<rect x="236.5" y="802.5" width="33" height="33" stroke="black" stroke-width="7"/>
<path d="M278 712L314 748M314 712L278 748" stroke="black" stroke-width="7"/>
<path d="M132 794L168 830M168 794L132 830" stroke="black" stroke-width="7"/>
<path d="M132 627L168 663M168 627L132 663" stroke="black" stroke-width="7"/>
<rect x="532.5" y="532.5" width="395" height="395" stroke="black" stroke-width="5"/>
<path d="M663 796L699 832M699 796L663 832" stroke="black" stroke-width="7"/>
<path d="M875 730C875 704.467 868.405 680.49 856.828 659.662L734.999 730L856.828 800.337C868.404 779.509 875 755.532 875 730ZM605.675 804.665C630.646 846.152 675.779 874.104 727.5 874.979V734.33L605.675 804.665ZM732.5 874.979C784.221 874.104 829.353 846.152 854.324 804.665L732.5 734.33V874.979ZM727.5 585.021C675.779 585.895 630.646 613.847 605.675 655.334L727.5 725.669V585.021ZM732.5 725.669L854.324 655.334C829.353 613.847 784.221 585.895 732.5 585.021V725.669ZM585 730C585 755.532 591.595 779.51 603.171 800.337L725 730L603.171 659.662C591.595 680.49 585 704.468 585 730ZM880 730C880 757.327 872.693 782.947 859.926 805.013C833.988 849.841 785.516 880 730 880C674.484 880 626.012 849.841 600.074 805.013C587.307 782.947 580 757.327 580 730C580 702.673 587.307 677.053 600.074 654.987C626.012 610.159 674.484 580 730 580C785.516 580 833.988 610.159 859.926 654.987C872.693 677.053 880 702.673 880 730Z" fill="black"/>
<circle cx="826" cy="730" r="16.5" stroke="black" stroke-width="7"/>
<path d="M799.32 659H764.68L782 629L799.32 659Z" stroke="black" stroke-width="7"/>
<path d="M799.32 829H764.68L782 799L799.32 829Z" stroke="black" stroke-width="7"/>
<path d="M651.32 747H616.68L634 717L651.32 747Z" stroke="black" stroke-width="7"/>
<rect x="664.5" y="630.5" width="33" height="33" stroke="black" stroke-width="7"/>
<rect x="1062.5" y="532.5" width="395" height="395" stroke="black" stroke-width="5"/>
<path d="M1405 730C1405 704.467 1398.4 680.49 1386.83 659.662L1265 730L1386.83 800.337C1398.4 779.509 1405 755.532 1405 730ZM1135.67 804.665C1160.65 846.152 1205.78 874.104 1257.5 874.979V734.33L1135.67 804.665ZM1262.5 874.979C1314.22 874.104 1359.35 846.152 1384.32 804.665L1262.5 734.33V874.979ZM1257.5 585.021C1205.78 585.895 1160.65 613.847 1135.67 655.334L1257.5 725.669V585.021ZM1262.5 725.669L1384.32 655.334C1359.35 613.847 1314.22 585.895 1262.5 585.021V725.669ZM1115 730C1115 755.532 1121.59 779.51 1133.17 800.337L1255 730L1133.17 659.662C1121.59 680.49 1115 704.468 1115 730ZM1410 730C1410 757.327 1402.69 782.947 1389.93 805.013C1363.99 849.841 1315.52 880 1260 880C1204.48 880 1156.01 849.841 1130.07 805.013C1117.31 782.947 1110 757.327 1110 730C1110 702.673 1117.31 677.053 1130.07 654.987C1156.01 610.159 1204.48 580 1260 580C1315.52 580 1363.99 610.159 1389.93 654.987C1402.69 677.053 1410 702.673 1410 730Z" fill="black"/>
<circle cx="1358" cy="730" r="16.5" stroke="black" stroke-width="7"/>
<circle cx="1211" cy="647" r="16.5" stroke="black" stroke-width="7"/>
<circle cx="1211" cy="812" r="16.5" stroke="black" stroke-width="7"/>
<path d="M1182.32 744H1147.68L1165 714L1182.32 744Z" stroke="black" stroke-width="7"/>
<rect x="1292.5" y="795.5" width="33" height="33" stroke="black" stroke-width="7"/>
<path d="M1291 627L1327 663M1327 627L1291 663" stroke="black" stroke-width="7"/>
<rect x="2.5" y="1062.5" width="395" height="395" stroke="black" stroke-width="5"/>
<path d="M345 1260C345 1234.47 338.405 1210.49 326.828 1189.66L204.999 1260L326.828 1330.34C338.404 1309.51 345 1285.53 345 1260ZM75.6748 1334.67C100.646 1376.15 145.779 1404.1 197.5 1404.98V1264.33L75.6748 1334.67ZM202.5 1404.98C254.221 1404.1 299.353 1376.15 324.324 1334.67L202.5 1264.33V1404.98ZM197.5 1115.02C145.779 1115.89 100.646 1143.85 75.6748 1185.33L197.5 1255.67V1115.02ZM202.5 1255.67L324.324 1185.33C299.353 1143.85 254.221 1115.89 202.5 1115.02V1255.67ZM55 1260C55 1285.53 61.5949 1309.51 73.1709 1330.34L195 1260L73.1709 1189.66C61.5946 1210.49 55 1234.47 55 1260ZM350 1260C350 1287.33 342.693 1312.95 329.926 1335.01C303.988 1379.84 255.516 1410 200 1410C144.484 1410 96.0117 1379.84 70.0742 1335.01C57.307 1312.95 50 1287.33 50 1260C50 1232.67 57.307 1207.05 70.0742 1184.99C96.0117 1140.16 144.484 1110 200 1110C255.516 1110 303.988 1140.16 329.926 1184.99C342.693 1207.05 350 1232.67 350 1260Z" fill="black"/>
<circle cx="296" cy="1260" r="16.5" stroke="black" stroke-width="7"/>
<path d="M266.32 1192H231.68L249 1162L266.32 1192Z" stroke="black" stroke-width="7"/>
<path d="M172.32 1353H137.68L155 1323L172.32 1353Z" stroke="black" stroke-width="7"/>
<rect x="232.5" y="1326.5" width="33" height="33" stroke="black" stroke-width="7"/>
<rect x="88.5" y="1243.5" width="33" height="33" stroke="black" stroke-width="7"/>
<path d="M132 1157L168 1193M168 1157L132 1193" stroke="black" stroke-width="7"/>
<rect x="532.5" y="1062.5" width="395" height="395" stroke="black" stroke-width="5"/>
<path d="M875 1260C875 1234.47 868.405 1210.49 856.828 1189.66L734.999 1260L856.828 1330.34C868.404 1309.51 875 1285.53 875 1260ZM605.675 1334.67C630.646 1376.15 675.779 1404.1 727.5 1404.98V1264.33L605.675 1334.67ZM732.5 1404.98C784.221 1404.1 829.353 1376.15 854.324 1334.67L732.5 1264.33V1404.98ZM727.5 1115.02C675.779 1115.89 630.646 1143.85 605.675 1185.33L727.5 1255.67V1115.02ZM732.5 1255.67L854.324 1185.33C829.353 1143.85 784.221 1115.89 732.5 1115.02V1255.67ZM585 1260C585 1285.53 591.595 1309.51 603.171 1330.34L725 1260L603.171 1189.66C591.595 1210.49 585 1234.47 585 1260ZM880 1260C880 1287.33 872.693 1312.95 859.926 1335.01C833.988 1379.84 785.516 1410 730 1410C674.484 1410 626.012 1379.84 600.074 1335.01C587.307 1312.95 580 1287.33 580 1260C580 1232.67 587.307 1207.05 600.074 1184.99C626.012 1140.16 674.484 1110 730 1110C785.516 1110 833.988 1140.16 859.926 1184.99C872.693 1207.05 880 1232.67 880 1260Z" fill="black"/>
<circle cx="634" cy="1260" r="16.5" stroke="black" stroke-width="7"/>
<circle cx="826" cy="1260" r="16.5" stroke="black" stroke-width="7"/>
<path d="M796.32 1192H761.68L779 1162L796.32 1192Z" stroke="black" stroke-width="7"/>
<rect x="762.5" y="1326.5" width="33" height="33" stroke="black" stroke-width="7"/>
<path d="M663 1157L699 1193M699 1157L663 1193" stroke="black" stroke-width="7"/>
<path d="M663 1326L699 1362M699 1326L663 1362" stroke="black" stroke-width="7"/>
<path d="M1259.5 1326V1287.1C1259.5 1268.88 1272.04 1253.05 1289.77 1248.88V1248.88C1297.73 1247.01 1304.9 1242.7 1310.29 1236.56L1310.75 1236.03C1316.75 1229.2 1320.34 1220.59 1320.96 1211.52L1321.21 1207.92C1322.34 1191.6 1315.74 1175.69 1303.39 1164.96L1301.97 1163.73C1284.76 1148.78 1260.21 1145.78 1239.9 1156.13L1235.45 1158.4C1212.6 1170.05 1200.04 1195.25 1204.5 1220.5V1220.5" stroke="black" stroke-width="30"/>
<rect x="1252.5" y="1358.5" width="15" height="15" fill="black" stroke="black" stroke-width="15"/>
</svg>
