<svg width="1326" height="1326" viewBox="0 0 1326 1326" fill="none" xmlns="http://www.w3.org/2000/svg">
<path d="M161.333 78H78V161.333H161.333V78Z" fill="#CACACA" stroke="white" stroke-width="10"/>
<path d="M244.665 78H161.332V161.333H244.665V78Z" fill="#CACACA" stroke="white" stroke-width="10"/>
<path d="M328.001 78H244.668V161.333H328.001V78Z" fill="#CACACA" stroke="white" stroke-width="10"/>
<path d="M161.333 161.336H78V244.669H161.333V161.336Z" fill="#CACACA" stroke="white" stroke-width="10"/>
<path d="M244.665 161.336H161.332V244.669H244.665V161.336Z" fill="#CACACA" stroke="white" stroke-width="10"/>
<path d="M328.001 161.336H244.668V244.669H328.001V161.336Z" fill="#CACACA" stroke="white" stroke-width="10"/>
<path d="M161.333 244.664H78V327.997H161.333V244.664Z" fill="#0170C3" stroke="white" stroke-width="10"/>
<path d="M244.665 244.664H161.332V327.997H244.665V244.664Z" fill="#CACACA" stroke="white" stroke-width="10"/>
<path d="M328.001 244.664H244.668V327.997H328.001V244.664Z" fill="#CACACA" stroke="white" stroke-width="10"/>
<path d="M403 3H3V403H403V3Z" stroke="black" stroke-width="5"/>
<path d="M621.333 78H538V161.333H621.333V78Z" fill="#CACACA" stroke="white" stroke-width="10"/>
<path d="M704.665 78H621.332V161.333H704.665V78Z" fill="#CACACA" stroke="white" stroke-width="10"/>
<path d="M788.001 78H704.668V161.333H788.001V78Z" fill="#CACACA" stroke="white" stroke-width="10"/>
<path d="M621.333 161.336H538V244.669H621.333V161.336Z" fill="#CACACA" stroke="white" stroke-width="10"/>
<path d="M704.665 161.336H621.332V244.669H704.665V161.336Z" fill="#CACACA" stroke="white" stroke-width="10"/>
<path d="M788.001 161.336H704.668V244.669H788.001V161.336Z" fill="#CACACA" stroke="white" stroke-width="10"/>
<path d="M621.333 244.664H538V327.997H621.333V244.664Z" fill="#0170C3" stroke="white" stroke-width="10"/>
<path d="M704.665 244.664H621.332V327.997H704.665V244.664Z" fill="#0170C3" stroke="white" stroke-width="10"/>
<path d="M788.001 244.664H704.668V327.997H788.001V244.664Z" fill="#CACACA" stroke="white" stroke-width="10"/>
<path d="M863 3H463V403H863V3Z" stroke="black" stroke-width="5"/>
<path d="M1081.33 78H998V161.333H1081.33V78Z" fill="#CACACA" stroke="white" stroke-width="10"/>
<path d="M1164.67 78H1081.33V161.333H1164.67V78Z" fill="#CACACA" stroke="white" stroke-width="10"/>
<path d="M1248 78H1164.67V161.333H1248V78Z" fill="#CACACA" stroke="white" stroke-width="10"/>
<path d="M1081.33 161.336H998V244.669H1081.33V161.336Z" fill="#CACACA" stroke="white" stroke-width="10"/>
<path d="M1164.67 161.336H1081.33V244.669H1164.67V161.336Z" fill="#CACACA" stroke="white" stroke-width="10"/>
<path d="M1248 161.336H1164.67V244.669H1248V161.336Z" fill="#CACACA" stroke="white" stroke-width="10"/>
<path d="M1081.33 244.664H998V327.997H1081.33V244.664Z" fill="#0170C3" stroke="white" stroke-width="10"/>
<path d="M1164.67 244.664H1081.33V327.997H1164.67V244.664Z" fill="#0170C3" stroke="white" stroke-width="10"/>
<path d="M1248 244.664H1164.67V327.997H1248V244.664Z" fill="#0170C3" stroke="white" stroke-width="10"/>
<path d="M1323 3H923V403H1323V3Z" stroke="black" stroke-width="5"/>
<path d="M161.333 538H78V621.333H161.333V538Z" fill="#CACACA" stroke="white" stroke-width="10"/>
<path d="M244.665 538H161.332V621.333H244.665V538Z" fill="#CACACA" stroke="white" stroke-width="10"/>
<path d="M328.001 538H244.668V621.333H328.001V538Z" fill="#CACACA" stroke="white" stroke-width="10"/>
<path d="M161.333 621.336H78V704.669H161.333V621.336Z" fill="#0170C3" stroke="white" stroke-width="10"/>
<path d="M244.665 621.336H161.332V704.669H244.665V621.336Z" fill="#CACACA" stroke="white" stroke-width="10"/>
<path d="M328.001 621.336H244.668V704.669H328.001V621.336Z" fill="#CACACA" stroke="white" stroke-width="10"/>
<path d="M161.333 704.664H78V787.997H161.333V704.664Z" fill="#CACACA" stroke="white" stroke-width="10"/>
<path d="M244.665 704.664H161.332V787.997H244.665V704.664Z" fill="#CACACA" stroke="white" stroke-width="10"/>
<path d="M328.001 704.664H244.668V787.997H328.001V704.664Z" fill="#CACACA" stroke="white" stroke-width="10"/>
<path d="M403 463H3V863H403V463Z" stroke="black" stroke-width="5"/>
<path d="M621.333 538H538V621.333H621.333V538Z" fill="#CACACA" stroke="white" stroke-width="10"/>
<path d="M704.665 538H621.332V621.333H704.665V538Z" fill="#CACACA" stroke="white" stroke-width="10"/>
<path d="M788.001 538H704.668V621.333H788.001V538Z" fill="#CACACA" stroke="white" stroke-width="10"/>
<path d="M621.333 621.336H538V704.669H621.333V621.336Z" fill="#0170C3" stroke="white" stroke-width="10"/>
<path d="M704.665 621.336H621.332V704.669H704.665V621.336Z" fill="#0170C3" stroke="white" stroke-width="10"/>
<path d="M788.001 621.336H704.668V704.669H788.001V621.336Z" fill="#CACACA" stroke="white" stroke-width="10"/>
<path d="M621.333 704.664H538V787.997H621.333V704.664Z" fill="#CACACA" stroke="white" stroke-width="10"/>
<path d="M704.665 704.664H621.332V787.997H704.665V704.664Z" fill="#CACACA" stroke="white" stroke-width="10"/>
<path d="M788.001 704.664H704.668V787.997H788.001V704.664Z" fill="#CACACA" stroke="white" stroke-width="10"/>
<path d="M863 463H463V863H863V463Z" stroke="black" stroke-width="5"/>
<path d="M1081.33 538H998V621.333H1081.33V538Z" fill="#CACACA" stroke="white" stroke-width="10"/>
<path d="M1164.67 538H1081.33V621.333H1164.67V538Z" fill="#CACACA" stroke="white" stroke-width="10"/>
<path d="M1248 538H1164.67V621.333H1248V538Z" fill="#CACACA" stroke="white" stroke-width="10"/>
<path d="M1081.33 621.336H998V704.669H1081.33V621.336Z" fill="#0170C3" stroke="white" stroke-width="10"/>
<path d="M1164.67 621.336H1081.33V704.669H1164.67V621.336Z" fill="#0170C3" stroke="white" stroke-width="10"/>
<path d="M1248 621.336H1164.67V704.669H1248V621.336Z" fill="#0170C3" stroke="white" stroke-width="10"/>
<path d="M1081.33 704.664H998V787.997H1081.33V704.664Z" fill="#CACACA" stroke="white" stroke-width="10"/>
<path d="M1164.67 704.664H1081.33V787.997H1164.67V704.664Z" fill="#CACACA" stroke="white" stroke-width="10"/>
<path d="M1248 704.664H1164.67V787.997H1248V704.664Z" fill="#CACACA" stroke="white" stroke-width="10"/>
<path d="M1323 463H923V863H1323V463Z" stroke="black" stroke-width="5"/>
<path d="M161.333 998H78V1081.33H161.333V998Z" fill="#0170C3" stroke="white" stroke-width="10"/>
<path d="M244.665 998H161.332V1081.33H244.665V998Z" fill="#CACACA" stroke="white" stroke-width="10"/>
<path d="M328.001 998H244.668V1081.33H328.001V998Z" fill="#CACACA" stroke="white" stroke-width="10"/>
<path d="M161.333 1081.34H78V1164.67H161.333V1081.34Z" fill="#CACACA" stroke="white" stroke-width="10"/>
<path d="M244.665 1081.34H161.332V1164.67H244.665V1081.34Z" fill="#CACACA" stroke="white" stroke-width="10"/>
<path d="M328.001 1081.34H244.668V1164.67H328.001V1081.34Z" fill="#CACACA" stroke="white" stroke-width="10"/>
<path d="M161.333 1164.66H78V1248H161.333V1164.66Z" fill="#CACACA" stroke="white" stroke-width="10"/>
<path d="M244.665 1164.66H161.332V1248H244.665V1164.66Z" fill="#CACACA" stroke="white" stroke-width="10"/>
<path d="M328.001 1164.66H244.668V1248H328.001V1164.66Z" fill="#CACACA" stroke="white" stroke-width="10"/>
<path d="M403 923H3V1323H403V923Z" stroke="black" stroke-width="5"/>
<path d="M621.333 998H538V1081.33H621.333V998Z" fill="#0170C3" stroke="white" stroke-width="10"/>
<path d="M704.665 998H621.332V1081.33H704.665V998Z" fill="#0170C3" stroke="white" stroke-width="10"/>
<path d="M788.001 998H704.668V1081.33H788.001V998Z" fill="#CACACA" stroke="white" stroke-width="10"/>
<path d="M621.333 1081.34H538V1164.67H621.333V1081.34Z" fill="#CACACA" stroke="white" stroke-width="10"/>
<path d="M704.665 1081.34H621.332V1164.67H704.665V1081.34Z" fill="#CACACA" stroke="white" stroke-width="10"/>
<path d="M788.001 1081.34H704.668V1164.67H788.001V1081.34Z" fill="#CACACA" stroke="white" stroke-width="10"/>
<path d="M621.333 1164.66H538V1248H621.333V1164.66Z" fill="#CACACA" stroke="white" stroke-width="10"/>
<path d="M704.665 1164.66H621.332V1248H704.665V1164.66Z" fill="#CACACA" stroke="white" stroke-width="10"/>
<path d="M788.001 1164.66H704.668V1248H788.001V1164.66Z" fill="#CACACA" stroke="white" stroke-width="10"/>
<path d="M863 923H463V1323H863V923Z" stroke="black" stroke-width="5"/>
<path d="M1122.5 1189V1150.1C1122.5 1131.88 1135.04 1116.05 1152.77 1111.88V1111.88C1160.73 1110.01 1167.9 1105.7 1173.29 1099.56L1173.75 1099.03C1179.75 1092.2 1183.34 1083.59 1183.96 1074.52L1184.21 1070.92C1185.34 1054.6 1178.74 1038.69 1166.39 1027.96L1164.97 1026.73C1147.76 1011.78 1123.21 1008.78 1102.9 1019.13L1098.45 1021.4C1075.6 1033.05 1063.04 1058.25 1067.5 1083.5V1083.5" stroke="black" stroke-width="30"/>
<rect x="1115.5" y="1221.5" width="15" height="15" fill="black" stroke="black" stroke-width="15"/>
</svg>
