<svg width="1326" height="1326" viewBox="0 0 1326 1326" fill="none" xmlns="http://www.w3.org/2000/svg">
<path d="M403 3H3V403H403V3Z" stroke="black" stroke-width="5"/>
<path d="M203 123V283H123L203 123Z" stroke="black" stroke-width="7"/>
<path d="M863 3H463V403H863V3Z" stroke="black" stroke-width="5"/>
<path d="M663 123V283" stroke="black" stroke-width="7"/>
<path d="M1323 3H923V403H1323V3Z" stroke="black" stroke-width="5"/>
<path d="M1123 123L1203 283H1043L1123 123Z" stroke="black" stroke-width="7"/>
<path d="M403 463H3V863H403V463Z" stroke="black" stroke-width="5"/>
<path d="M283 583H123V663H283V583Z" stroke="black" stroke-width="7"/>
<path d="M863 463H463V863H863V463Z" stroke="black" stroke-width="5"/>
<path d="M583 663H743" stroke="black" stroke-width="7"/>
<path d="M1323 463H923V863H1323V463Z" stroke="black" stroke-width="5"/>
<path d="M1203 583H1043V743H1203V583Z" stroke="black" stroke-width="7"/>
<path d="M403 923H3V1323H403V923Z" stroke="black" stroke-width="5"/>
<path d="M123 1043L283 1203H123V1043Z" stroke="black" stroke-width="7"/>
<path d="M863 923H463V1323H863V923Z" stroke="black" stroke-width="5"/>
<path d="M743 1203L583 1043" stroke="black" stroke-width="7"/>
<path d="M1122.5 1189V1150.1C1122.5 1131.88 1135.04 1116.05 1152.77 1111.88V1111.88C1160.73 1110.01 1167.9 1105.7 1173.29 1099.56L1173.75 1099.03C1179.75 1092.2 1183.34 1083.59 1183.96 1074.52L1184.21 1070.92C1185.34 1054.6 1178.74 1038.69 1166.39 1027.96L1164.97 1026.73C1147.76 1011.78 1123.21 1008.78 1102.9 1019.13L1098.45 1021.4C1075.6 1033.05 1063.04 1058.25 1067.5 1083.5V1083.5" stroke="black" stroke-width="30"/>
<rect x="1115.5" y="1221.5" width="15" height="15" fill="black" stroke="black" stroke-width="15"/>
</svg>
