<svg width="1326" height="1326" viewBox="0 0 1326 1326" fill="none" xmlns="http://www.w3.org/2000/svg">
<path d="M128 299H68V359H128V299Z" fill="#0170C3"/>
<path d="M233 89H173V359H233V89Z" fill="#0170C3"/>
<path d="M338 194H278V359H338V194Z" fill="#0170C3"/>
<path d="M403 3H3V403H403V3Z" stroke="black" stroke-width="5"/>
<path d="M693 149V89H528V149H693Z" fill="#0170C3" stroke="#0170C3" stroke-width="3"/>
<path d="M588 254V194H528V254H588Z" fill="#0170C3" stroke="#0170C3" stroke-width="3"/>
<path d="M798 359V299H528V359H798Z" fill="#0170C3" stroke="#0170C3" stroke-width="3"/>
<path d="M863 3H463V403H863V3Z" stroke="black" stroke-width="5"/>
<path d="M988 299V359H1258V299H988Z" fill="#0170C3" stroke="#0170C3" stroke-width="3"/>
<path d="M1093 194V254H1258V194H1093Z" fill="#0170C3" stroke="#0170C3" stroke-width="3"/>
<path d="M1198 89V149H1258V89H1198Z" fill="#0170C3" stroke="#0170C3" stroke-width="3"/>
<path d="M1323 3H923V403H1323V3Z" stroke="black" stroke-width="5"/>
<path d="M338 579V519H68V579H338Z" fill="#0170C3" stroke="#0170C3" stroke-width="3"/>
<path d="M233 684V624H68V684H233Z" fill="#0170C3" stroke="#0170C3" stroke-width="3"/>
<path d="M233 789V729H68V789H233Z" fill="#0170C3" stroke="#0170C3" stroke-width="3"/>
<path d="M403 463H3V863H403V463Z" stroke="black" stroke-width="5"/>
<path d="M738 759V819H798V759H738Z" fill="#0170C3" stroke="#0170C3" stroke-width="3"/>
<path d="M528 654V714H798V654H528Z" fill="#0170C3" stroke="#0170C3" stroke-width="3"/>
<path d="M633 549V609H798V549H633Z" fill="#0170C3" stroke="#0170C3" stroke-width="3"/>
<path d="M863 463H463V863H863V463Z" stroke="black" stroke-width="5"/>
<path d="M1048 549H988V819H1048V549Z" fill="#0170C3" stroke="#0170C3" stroke-width="3"/>
<path d="M1153 759H1093V819H1153V759Z" fill="#0170C3" stroke="#0170C3" stroke-width="3"/>
<path d="M1258 654H1198V819H1258V654Z" fill="#0170C3" stroke="#0170C3" stroke-width="3"/>
<path d="M1323 463H923V863H1323V463Z" stroke="black" stroke-width="5"/>
<path d="M173 1219V1279H338V1219H173Z" fill="#0170C3" stroke="#0170C3" stroke-width="3"/>
<path d="M278 1114V1174H338V1114H278Z" fill="#0170C3" stroke="#0170C3" stroke-width="3"/>
<path d="M68 1009V1069H338V1009H68Z" fill="#0170C3" stroke="#0170C3" stroke-width="3"/>
<path d="M403 923H3V1323H403V923Z" stroke="black" stroke-width="5"/>
<path d="M863 923H463V1323H863V923Z" stroke="black" stroke-width="5"/>
<path d="M588 1084H528V1249H588V1084Z" fill="#0170C3" stroke="#0170C3" stroke-width="3"/>
<path d="M693 1084H633V1249H693V1084Z" fill="#0170C3" stroke="#0170C3" stroke-width="3"/>
<path d="M798 979H738V1249H798V979Z" fill="#0170C3" stroke="#0170C3" stroke-width="3"/>
<path d="M1122.5 1189V1150.1C1122.5 1131.88 1135.04 1116.05 1152.77 1111.88V1111.88C1160.73 1110.01 1167.9 1105.7 1173.29 1099.56L1173.75 1099.03C1179.75 1092.2 1183.34 1083.59 1183.96 1074.52L1184.21 1070.92C1185.34 1054.6 1178.74 1038.69 1166.39 1027.96L1164.97 1026.73C1147.76 1011.78 1123.21 1008.78 1102.9 1019.13L1098.45 1021.4C1075.6 1033.05 1063.04 1058.25 1067.5 1083.5V1083.5" stroke="black" stroke-width="30"/>
<rect x="1115.5" y="1221.5" width="15" height="15" fill="black" stroke="black" stroke-width="15"/>
</svg>
