<svg width="1460" height="1460" viewBox="0 0 1460 1460" fill="none" xmlns="http://www.w3.org/2000/svg">
<rect x="2.5" y="2.5" width="395" height="395" stroke="black" stroke-width="5"/>
<circle cx="200" cy="200" r="121.5" stroke="black" stroke-width="7"/>
<rect x="532.5" y="2.5" width="395" height="395" stroke="black" stroke-width="5"/>
<line x1="690" y1="199.5" x2="770" y2="199.5" stroke="black" stroke-width="7"/>
<line x1="730.5" y1="160" x2="730.5" y2="240" stroke="black" stroke-width="7"/>
<circle cx="1260" cy="200" r="121.5" stroke="black" stroke-width="7"/>
<rect x="1062.5" y="2.5" width="395" height="395" stroke="black" stroke-width="5"/>
<line x1="1220" y1="199.5" x2="1300" y2="199.5" stroke="black" stroke-width="7"/>
<line x1="1260.5" y1="160" x2="1260.5" y2="240" stroke="black" stroke-width="7"/>
<rect x="2.5" y="532.5" width="395" height="395" stroke="black" stroke-width="5"/>
<rect x="78.5" y="608.5" width="243" height="243" stroke="black" stroke-width="7"/>
<rect x="532.5" y="532.5" width="395" height="395" stroke="black" stroke-width="5"/>
<line x1="700.799" y1="757.369" x2="757.367" y2="700.8" stroke="black" stroke-width="7"/>
<line x1="701.733" y1="700.838" x2="758.301" y2="757.406" stroke="black" stroke-width="7"/>
<rect x="1138.5" y="608.5" width="243" height="243" stroke="black" stroke-width="7"/>
<rect x="1062.5" y="532.5" width="395" height="395" stroke="black" stroke-width="5"/>
<line x1="1230.8" y1="757.369" x2="1287.37" y2="700.8" stroke="black" stroke-width="7"/>
<line x1="1231.73" y1="700.838" x2="1288.3" y2="757.406" stroke="black" stroke-width="7"/>
<rect x="2.5" y="1062.5" width="395" height="395" stroke="black" stroke-width="5"/>
<path d="M319.512 1351H80.4883L200 1144L319.512 1351Z" stroke="black" stroke-width="7"/>
<rect x="532.5" y="1062.5" width="395" height="395" stroke="black" stroke-width="5"/>
<path d="M701.421 1253.5H758.579L730 1303L701.421 1253.5Z" stroke="black" stroke-width="7"/>
<path d="M1259.5 1326V1287.1C1259.5 1268.88 1272.04 1253.05 1289.77 1248.88V1248.88C1297.73 1247.01 1304.9 1242.7 1310.29 1236.56L1310.75 1236.03C1316.75 1229.2 1320.34 1220.59 1320.96 1211.52L1321.21 1207.92C1322.34 1191.6 1315.74 1175.69 1303.39 1164.96L1301.97 1163.73C1284.76 1148.78 1260.21 1145.78 1239.9 1156.13L1235.45 1158.4C1212.6 1170.05 1200.04 1195.25 1204.5 1220.5V1220.5" stroke="black" stroke-width="30"/>
<rect x="1252.5" y="1358.5" width="15" height="15" fill="black" stroke="black" stroke-width="15"/>
</svg>
