<svg width="1320" height="1320" viewBox="0 0 1320 1320" fill="none" xmlns="http://www.w3.org/2000/svg">
<rect x="2.5" y="2.5" width="395" height="395" stroke="black" stroke-width="5"/>
<circle cx="200" cy="200" r="121.5" stroke="black" stroke-width="7"/>
<rect x="462.5" y="2.5" width="395" height="395" stroke="black" stroke-width="5"/>
<line x1="620" y1="199.5" x2="700" y2="199.5" stroke="black" stroke-width="7"/>
<line x1="660.5" y1="160" x2="660.5" y2="240" stroke="black" stroke-width="7"/>
<circle cx="1120" cy="200" r="121.5" stroke="black" stroke-width="7"/>
<rect x="922.5" y="2.5" width="395" height="395" stroke="black" stroke-width="5"/>
<line x1="1080" y1="199.5" x2="1160" y2="199.5" stroke="black" stroke-width="7"/>
<line x1="1120.5" y1="160" x2="1120.5" y2="240" stroke="black" stroke-width="7"/>
<rect x="2.5" y="462.5" width="395" height="395" stroke="black" stroke-width="5"/>
<rect x="78.5" y="538.5" width="243" height="243" stroke="black" stroke-width="7"/>
<rect x="462.5" y="462.5" width="395" height="395" stroke="black" stroke-width="5"/>
<line x1="630.799" y1="687.369" x2="687.367" y2="630.8" stroke="black" stroke-width="7"/>
<line x1="631.733" y1="630.838" x2="688.301" y2="687.406" stroke="black" stroke-width="7"/>
<rect x="998.5" y="538.5" width="243" height="243" stroke="black" stroke-width="7"/>
<rect x="922.5" y="462.5" width="395" height="395" stroke="black" stroke-width="5"/>
<line x1="1090.8" y1="687.369" x2="1147.37" y2="630.8" stroke="black" stroke-width="7"/>
<line x1="1091.73" y1="630.838" x2="1148.3" y2="687.406" stroke="black" stroke-width="7"/>
<rect x="2.5" y="922.5" width="395" height="395" stroke="black" stroke-width="5"/>
<path d="M319.512 1211H80.4883L200 1004L319.512 1211Z" stroke="black" stroke-width="7"/>
<rect x="462.5" y="922.5" width="395" height="395" stroke="black" stroke-width="5"/>
<path d="M631.421 1113.5H688.579L660 1163L631.421 1113.5Z" stroke="black" stroke-width="7"/>
<path d="M1119.5 1186V1147.1C1119.5 1128.88 1132.04 1113.05 1149.77 1108.88V1108.88C1157.73 1107.01 1164.9 1102.7 1170.29 1096.56L1170.75 1096.03C1176.75 1089.2 1180.34 1080.59 1180.96 1071.52L1181.21 1067.92C1182.34 1051.6 1175.74 1035.69 1163.39 1024.96L1161.97 1023.73C1144.76 1008.78 1120.21 1005.78 1099.9 1016.13L1095.45 1018.4C1072.6 1030.05 1060.04 1055.25 1064.5 1080.5V1080.5" stroke="black" stroke-width="30"/>
<rect x="1112.5" y="1218.5" width="15" height="15" fill="black" stroke="black" stroke-width="15"/>
</svg>
