<svg width="400" height="400" viewBox="0 0 400 400" fill="none" xmlns="http://www.w3.org/2000/svg">
<rect x="2.5" y="2.5" width="395" height="395" stroke="black" stroke-width="5"/>
<path d="M221.5 200C221.5 234.359 218.713 265.369 214.246 287.702C212.007 298.898 209.381 307.731 206.567 313.681C205.156 316.664 203.784 318.736 202.535 320.014C201.292 321.285 200.453 321.5 200 321.5C199.547 321.5 198.708 321.285 197.465 320.014C196.216 318.736 194.844 316.664 193.433 313.681C190.619 307.731 187.993 298.898 185.754 287.702C181.287 265.369 178.5 234.359 178.5 200C178.5 165.641 181.287 134.631 185.754 112.298C187.993 101.102 190.619 92.2693 193.433 86.3193C194.844 83.3356 196.216 81.2639 197.465 79.9863C198.708 78.7146 199.547 78.5 200 78.5C200.453 78.5 201.292 78.7146 202.535 79.9863C203.784 81.2639 205.156 83.3356 206.567 86.3193C209.381 92.2693 212.007 101.102 214.246 112.298C218.713 134.631 221.5 165.641 221.5 200Z" stroke="black" stroke-width="7"/>
</svg>
