<svg width="406" height="406" viewBox="0 0 406 406" fill="none" xmlns="http://www.w3.org/2000/svg">
<path d="M403 3H3V403H403V3Z" stroke="black" stroke-width="5"/>
<path d="M255.475 284.525C254.108 283.158 251.892 283.158 250.525 284.525L228.251 306.799C226.884 308.166 226.884 310.382 228.251 311.749C229.618 313.116 231.834 313.116 233.201 311.749L253 291.95L272.799 311.749C274.166 313.116 276.382 313.116 277.749 311.749C279.116 310.382 279.116 308.166 277.749 306.799L255.475 284.525ZM253 337H256.5V287H253H249.5V337H253Z" fill="black"/>
<path d="M155.475 66.5251C154.108 65.1583 151.892 65.1583 150.525 66.5251L128.251 88.799C126.884 90.1658 126.884 92.3819 128.251 93.7487C129.618 95.1156 131.834 95.1156 133.201 93.7487L153 73.9497L172.799 93.7487C174.166 95.1156 176.382 95.1156 177.749 93.7487C179.116 92.3819 179.116 90.1658 177.749 88.799L155.475 66.5251ZM153 119L156.5 119L156.5 69L153 69L149.5 69L149.5 119L153 119Z" fill="black"/>
<path d="M155.475 284.525C154.108 283.158 151.892 283.158 150.525 284.525L128.251 306.799C126.884 308.166 126.884 310.382 128.251 311.749C129.618 313.116 131.834 313.116 133.201 311.749L153 291.95L172.799 311.749C174.166 313.116 176.382 313.116 177.749 311.749C179.116 310.382 179.116 308.166 177.749 306.799L155.475 284.525ZM153 337H156.5V287H153H149.5V337H153Z" fill="black"/>
<path d="M203 69V337" stroke="black" stroke-width="10"/>
</svg>
