<svg width="406" height="406" viewBox="0 0 406 406" fill="none" xmlns="http://www.w3.org/2000/svg">
<path d="M403 3H3V403H403V3Z" stroke="black" stroke-width="5"/>
<path d="M255.475 284.525C254.108 283.158 251.892 283.158 250.525 284.525L228.251 306.799C226.884 308.166 226.884 310.382 228.251 311.749C229.618 313.116 231.834 313.116 233.201 311.749L253 291.95L272.799 311.749C274.166 313.116 276.382 313.116 277.749 311.749C279.116 310.382 279.116 308.166 277.749 306.799L255.475 284.525ZM253 337H256.5V287H253H249.5V337H253Z" fill="black"/>
<path d="M150.525 339.475C151.892 340.842 154.108 340.842 155.475 339.475L177.749 317.201C179.116 315.834 179.116 313.618 177.749 312.251C176.382 310.884 174.166 310.884 172.799 312.251L153 332.05L133.201 312.251C131.834 310.884 129.618 310.884 128.251 312.251C126.884 313.618 126.884 315.834 128.251 317.201L150.525 339.475ZM153 287L149.5 287L149.5 337L153 337L156.5 337L156.5 287L153 287Z" fill="black"/>
<path d="M203 69V337" stroke="black" stroke-width="10"/>
</svg>
