<svg width="406" height="406" viewBox="0 0 406 406" fill="none" xmlns="http://www.w3.org/2000/svg">
<path d="M403 3H3V403H403V3Z" stroke="black" stroke-width="5"/>
<path d="M255.475 284.525C254.108 283.158 251.892 283.158 250.525 284.525L228.251 306.799C226.884 308.166 226.884 310.382 228.251 311.749C229.618 313.116 231.834 313.116 233.201 311.749L253 291.95L272.799 311.749C274.166 313.116 276.382 313.116 277.749 311.749C279.116 310.382 279.116 308.166 277.749 306.799L255.475 284.525ZM253 337H256.5V287H253H249.5V337H253Z" fill="black"/>
<path d="M150.525 121.475C151.892 122.842 154.108 122.842 155.475 121.475L177.749 99.201C179.116 97.8342 179.116 95.6181 177.749 94.2513C176.382 92.8844 174.166 92.8844 172.799 94.2513L153 114.05L133.201 94.2513C131.834 92.8844 129.618 92.8844 128.251 94.2513C126.884 95.6181 126.884 97.8342 128.251 99.201L150.525 121.475ZM153 69L149.5 69L149.5 119L153 119L156.5 119L156.5 69L153 69Z" fill="black"/>
<path d="M203 69V337" stroke="black" stroke-width="10"/>
</svg>
