<svg width="406" height="406" viewBox="0 0 406 406" fill="none" xmlns="http://www.w3.org/2000/svg">
<path d="M403 3H3V403H403V3Z" stroke="black" stroke-width="5"/>
<path d="M150.525 339.475C151.892 340.842 154.108 340.842 155.475 339.475L177.749 317.201C179.116 315.834 179.116 313.618 177.749 312.251C176.382 310.884 174.166 310.884 172.799 312.251L153 332.05L133.201 312.251C131.834 310.884 129.618 310.884 128.251 312.251C126.884 313.618 126.884 315.834 128.251 317.201L150.525 339.475ZM153 287L149.5 287L149.5 337L153 337L156.5 337L156.5 287L153 287Z" fill="black"/>
<path d="M203 69V337" stroke="black" stroke-width="10"/>
</svg>
