<svg width="406" height="406" viewBox="0 0 406 406" fill="none" xmlns="http://www.w3.org/2000/svg">
<path d="M403 3H3V403H403V3Z" stroke="black" stroke-width="5"/>
<path d="M250.525 339.475C251.892 340.842 254.108 340.842 255.475 339.475L277.749 317.201C279.116 315.834 279.116 313.618 277.749 312.251C276.382 310.884 274.166 310.884 272.799 312.251L253 332.05L233.201 312.251C231.834 310.884 229.618 310.884 228.251 312.251C226.884 313.618 226.884 315.834 228.251 317.201L250.525 339.475ZM253 287L249.5 287L249.5 337L253 337L256.5 337L256.5 287L253 287Z" fill="black"/>
<path d="M250.525 121.475C251.892 122.842 254.108 122.842 255.475 121.475L277.749 99.201C279.116 97.8342 279.116 95.6181 277.749 94.2513C276.382 92.8844 274.166 92.8844 272.799 94.2513L253 114.05L233.201 94.2513C231.834 92.8844 229.618 92.8844 228.251 94.2513C226.884 95.6181 226.884 97.8342 228.251 99.201L250.525 121.475ZM253 69L249.5 69L249.5 119L253 119L256.5 119L256.5 69L253 69Z" fill="black"/>
<path d="M155.475 66.5251C154.108 65.1583 151.892 65.1583 150.525 66.5251L128.251 88.799C126.884 90.1658 126.884 92.3819 128.251 93.7487C129.618 95.1156 131.834 95.1156 133.201 93.7487L153 73.9497L172.799 93.7487C174.166 95.1156 176.382 95.1156 177.749 93.7487C179.116 92.3819 179.116 90.1658 177.749 88.799L155.475 66.5251ZM153 119L156.5 119L156.5 69L153 69L149.5 69L149.5 119L153 119Z" fill="black"/>
<path d="M155.475 284.525C154.108 283.158 151.892 283.158 150.525 284.525L128.251 306.799C126.884 308.166 126.884 310.382 128.251 311.749C129.618 313.116 131.834 313.116 133.201 311.749L153 291.95L172.799 311.749C174.166 313.116 176.382 313.116 177.749 311.749C179.116 310.382 179.116 308.166 177.749 306.799L155.475 284.525ZM153 337H156.5V287H153H149.5V337H153Z" fill="black"/>
<path d="M203 69V337" stroke="black" stroke-width="10"/>
</svg>
