<svg width="400" height="400" viewBox="0 0 400 400" fill="none" xmlns="http://www.w3.org/2000/svg">
<rect x="2.5" y="2.5" width="395" height="395" stroke="black" stroke-width="5"/>
<path d="M192.954 298.18L196.368 297.41L192.954 298.18ZM188.572 280.502L185.194 281.417L188.572 280.502ZM183.84 263.027L187.218 262.112L183.84 263.027ZM176.899 246.828L179.882 244.998L176.899 246.828ZM167.748 231.903L164.764 233.733L167.748 231.903ZM133.013 191.336L130.52 193.793L133.013 191.336ZM126.665 184.897L129.158 182.44L126.665 184.897ZM91.0975 154.914L93.1936 152.111L91.0975 154.914ZM81.054 140.505L77.6817 141.442L81.054 140.505ZM78.635 131.798L82.0073 130.861L78.635 131.798ZM76.216 123.091L79.5883 122.154L76.216 123.091ZM80.9175 107.914L78.5636 105.323L80.9175 107.914ZM88.038 101.443L90.3918 104.033L88.038 101.443ZM95.1585 94.9722L92.8046 92.382L95.1585 94.9722ZM111.029 92.4345L109.594 95.6268L111.029 92.4345ZM128.529 100.3L129.964 97.108L128.529 100.3ZM146.029 103.206L145.621 99.7299L146.029 103.206ZM154.779 102.179L155.187 105.655L154.779 102.179ZM163.529 101.152L163.937 104.628L163.529 101.152ZM181.029 104.645L179.423 107.754L181.029 104.645ZM198.529 113.686L196.923 116.795L198.529 113.686ZM216.029 116.862L216.561 120.321L216.029 116.862ZM224.779 115.517L224.247 112.058L224.779 115.517ZM233.529 114.173L232.997 110.713L233.529 114.173ZM251.029 109.945L252.124 113.27L251.029 109.945ZM268.529 104.18L267.434 100.856L268.529 104.18ZM309.691 95.9784L313.029 97.0293L309.691 95.9784ZM307.52 144.079L310.924 143.267L307.52 144.079ZM306.113 173.578L303.821 170.932L306.113 173.578ZM292.113 185.702L294.405 188.348L292.113 185.702ZM276.401 196.838L278.162 199.863L276.401 196.838ZM252.15 223.251L255.601 222.669L252.15 223.251ZM255.923 245.637L252.472 246.218L255.923 245.637ZM248.862 261.767L250.553 264.832L248.862 261.767ZM230.968 271.643L229.277 268.579L230.968 271.643ZM217.432 284.036L214.451 282.201L217.432 284.036ZM212.843 291.49L215.824 293.325L212.843 291.49ZM208.255 298.945L205.274 297.11L208.255 298.945ZM194.31 311.644L196.021 314.697L194.31 311.644ZM189.631 314.267L187.92 311.214L189.631 314.267ZM188.465 318.917L190.215 315.886L188.465 318.917ZM191.976 320.945L190.226 323.976L191.976 320.945ZM196.985 316.06L193.57 316.83L196.985 316.06ZM194.969 307.12L198.383 306.35L196.368 297.41L192.954 298.18L189.539 298.95L191.555 307.89L194.969 307.12ZM192.954 298.18L196.368 297.41C195.014 291.402 193.541 285.461 191.95 279.588L188.572 280.502L185.194 281.417C186.758 287.194 188.207 293.038 189.539 298.95L192.954 298.18ZM188.572 280.502L191.95 279.588L189.584 270.85L186.206 271.765L182.828 272.68L185.194 281.417L188.572 280.502ZM186.206 271.765L189.584 270.85L187.218 262.112L183.84 263.027L180.462 263.942L182.828 272.68L186.206 271.765ZM183.84 263.027L187.218 262.112C185.557 255.976 183.113 250.267 179.882 244.998L176.899 246.828L173.915 248.657C176.785 253.338 178.968 258.428 180.462 263.942L183.84 263.027ZM176.899 246.828L179.882 244.998L175.307 237.536L172.323 239.365L169.34 241.195L173.915 248.657L176.899 246.828ZM172.323 239.365L175.307 237.536L170.732 230.074L167.748 231.903L164.764 233.733L169.34 241.195L172.323 239.365ZM167.748 231.903L170.732 230.074C167.57 224.917 163.935 220.04 159.83 215.443L157.22 217.775L154.609 220.106C158.442 224.398 161.826 228.94 164.764 233.733L167.748 231.903ZM157.22 217.775L159.83 215.443L153.877 208.777L151.266 211.108L148.656 213.44L154.609 220.106L157.22 217.775ZM151.266 211.108L153.877 208.777L147.924 202.11L145.313 204.442L142.702 206.773L148.656 213.44L151.266 211.108ZM145.313 204.442L147.924 202.11C143.916 197.623 139.776 193.212 135.505 188.879L133.013 191.336L130.52 193.793C134.711 198.045 138.772 202.372 142.702 206.773L145.313 204.442ZM133.013 191.336L135.505 188.879L129.158 182.44L126.665 184.897L124.173 187.354L130.52 193.793L133.013 191.336ZM126.665 184.897L129.158 182.44L122.811 176.001L120.318 178.458L117.826 180.915L124.173 187.354L126.665 184.897ZM120.318 178.458L122.811 176.001C118.45 171.577 113.659 167.415 108.443 163.514L106.347 166.317L104.251 169.12C109.2 172.822 113.724 176.754 117.826 180.915L120.318 178.458ZM106.347 166.317L108.443 163.514L100.818 157.813L98.7221 160.616L96.6261 163.419L104.251 169.12L106.347 166.317ZM98.7221 160.616L100.818 157.813L93.1936 152.111L91.0975 154.914L89.0015 157.717L96.6261 163.419L98.7221 160.616ZM91.0975 154.914L93.1936 152.111C88.6951 148.747 85.82 144.585 84.4262 139.569L81.054 140.505L77.6817 141.442C79.5132 148.035 83.3339 153.479 89.0015 157.717L91.0975 154.914ZM81.054 140.505L84.4262 139.569L82.0073 130.861L78.635 131.798L75.2627 132.735L77.6817 141.442L81.054 140.505ZM78.635 131.798L82.0073 130.861L79.5883 122.154L76.216 123.091L72.8437 124.028L75.2627 132.735L78.635 131.798ZM76.216 123.091L79.5883 122.154C78.9362 119.807 78.9665 117.783 79.5251 115.979C80.0882 114.161 81.2629 112.329 83.2714 110.504L80.9175 107.914L78.5636 105.323C75.825 107.812 73.8427 110.666 72.8386 113.908C71.8301 117.163 71.8831 120.571 72.8437 124.028L76.216 123.091ZM80.9175 107.914L83.2714 110.504L90.3918 104.033L88.038 101.443L85.6841 98.8527L78.5636 105.323L80.9175 107.914ZM88.038 101.443L90.3918 104.033L97.5123 97.5625L95.1585 94.9722L92.8046 92.382L85.6841 98.8527L88.038 101.443ZM95.1585 94.9722L97.5123 97.5625C99.483 95.7717 101.389 94.8545 103.239 94.5585C105.089 94.2628 107.178 94.5407 109.594 95.6268L111.029 92.4345L112.464 89.2421C109.047 87.7063 105.574 87.0962 102.134 87.6464C98.694 88.1964 95.5809 89.8591 92.8046 92.382L95.1585 94.9722ZM111.029 92.4345L109.594 95.6268L118.344 99.5598L119.779 96.3674L121.214 93.1751L112.464 89.2421L111.029 92.4345ZM119.779 96.3674L118.344 99.5598L127.094 103.493L128.529 100.3L129.964 97.108L121.214 93.1751L119.779 96.3674ZM128.529 100.3L127.094 103.493C133.452 106.35 139.92 107.447 146.437 106.682L146.029 103.206L145.621 99.7299C140.472 100.334 135.273 99.4943 129.964 97.108L128.529 100.3ZM146.029 103.206L146.437 106.682L155.187 105.655L154.779 102.179L154.371 98.7027L145.621 99.7299L146.029 103.206ZM154.779 102.179L155.187 105.655L163.937 104.628L163.529 101.152L163.121 97.6754L154.371 98.7027L154.779 102.179ZM163.529 101.152L163.937 104.628C168.997 104.034 174.133 105.022 179.423 107.754L181.029 104.645L182.635 101.535C176.258 98.2404 169.727 96.8998 163.121 97.6754L163.529 101.152ZM181.029 104.645L179.423 107.754L188.173 112.275L189.779 109.165L191.385 106.056L182.635 101.535L181.029 104.645ZM189.779 109.165L188.173 112.275L196.923 116.795L198.529 113.686L200.135 110.576L191.385 106.056L189.779 109.165ZM198.529 113.686L196.923 116.795C203.336 120.109 209.914 121.342 216.561 120.321L216.029 116.862L215.497 113.402C210.478 114.174 205.389 113.29 200.135 110.576L198.529 113.686ZM216.029 116.862L216.561 120.321L225.311 118.977L224.779 115.517L224.247 112.058L215.497 113.402L216.029 116.862ZM224.779 115.517L225.311 118.977L234.061 117.632L233.529 114.173L232.997 110.713L224.247 112.058L224.779 115.517ZM233.529 114.173L234.061 117.632C240.093 116.705 246.114 115.249 252.124 113.27L251.029 109.945L249.934 106.621C244.277 108.485 238.632 109.847 232.997 110.713L233.529 114.173ZM251.029 109.945L252.124 113.27L260.874 110.387L259.779 107.063L258.684 103.739L249.934 106.621L251.029 109.945ZM259.779 107.063L260.874 110.387L269.624 107.504L268.529 104.18L267.434 100.856L258.684 103.739L259.779 107.063ZM268.529 104.18L269.624 107.504C275.515 105.564 281.404 103.454 287.292 101.177L286.029 97.9124L284.766 94.6482C278.987 96.8839 273.21 98.9531 267.434 100.856L268.529 104.18ZM286.029 97.9124L287.292 101.177L296.042 97.7915L294.779 94.5272L293.516 91.263L284.766 94.6482L286.029 97.9124ZM294.779 94.5272L296.042 97.7915L304.792 94.4063L303.529 91.1421L302.266 87.8779L293.516 91.263L294.779 94.5272ZM303.529 91.1421L304.792 94.4063C306.096 93.9018 306.965 93.7054 307.48 93.6633C308.028 93.6185 307.747 93.7756 307.284 93.4118C307.045 93.2249 306.897 93.0009 306.822 92.8271C306.757 92.6757 306.774 92.6257 306.78 92.7551C306.794 93.0564 306.727 93.7375 306.352 94.9275L309.691 95.9784L313.029 97.0293C313.518 95.4788 313.841 93.903 313.773 92.4311C313.702 90.9119 313.179 89.1408 311.605 87.9053C310.115 86.7355 308.334 86.5702 306.91 86.6866C305.453 86.8056 303.879 87.254 302.266 87.8779L303.529 91.1421ZM309.691 95.9784L306.352 94.9275L303.764 103.149L307.103 104.2L310.441 105.251L313.029 97.0293L309.691 95.9784ZM307.103 104.2L303.764 103.149L301.176 111.37L304.515 112.421L307.853 113.472L310.441 105.251L307.103 104.2ZM304.515 112.421L301.176 111.37C299.2 117.649 299.363 124.979 301.319 133.173L304.723 132.361L308.128 131.548C306.355 124.118 306.379 118.155 307.853 113.472L304.515 112.421ZM304.723 132.361L301.319 133.173L304.115 144.891L307.52 144.079L310.924 143.267L308.128 131.548L304.723 132.361ZM307.52 144.079L304.115 144.891L306.912 156.61L310.316 155.797L313.721 154.985L310.924 143.267L307.52 144.079ZM310.316 155.797L306.912 156.61C308.58 163.599 307.196 168.01 303.821 170.932L306.113 173.578L308.404 176.223C314.363 171.062 315.781 163.619 313.721 154.985L310.316 155.797ZM306.113 173.578L303.821 170.932L296.822 176.994L299.113 179.64L301.405 182.286L308.404 176.223L306.113 173.578ZM299.113 179.64L296.822 176.994L289.822 183.057L292.113 185.702L294.405 188.348L301.405 182.286L299.113 179.64ZM292.113 185.702L289.822 183.057C285.334 186.944 280.277 190.531 274.64 193.813L276.401 196.838L278.162 199.863C284.143 196.38 289.56 192.544 294.405 188.348L292.113 185.702ZM276.401 196.838L274.64 193.813L265.927 198.887L267.689 201.911L269.45 204.936L278.162 199.863L276.401 196.838ZM267.689 201.911L265.927 198.887L257.215 203.96L258.976 206.985L260.737 210.009L269.45 204.936L267.689 201.911ZM258.976 206.985L257.215 203.96C253.752 205.977 251.159 208.723 249.686 212.234C248.228 215.709 247.991 219.633 248.699 223.833L252.15 223.251L255.601 222.669C255.051 219.407 255.323 216.89 256.14 214.942C256.943 213.031 258.392 211.375 260.737 210.009L258.976 206.985ZM252.15 223.251L248.699 223.833L250.585 235.026L254.036 234.444L257.488 233.862L255.601 222.669L252.15 223.251ZM254.036 234.444L250.585 235.026L252.472 246.218L255.923 245.637L259.374 245.055L257.488 233.862L254.036 234.444ZM255.923 245.637L252.472 246.218C253.02 249.47 252.729 251.955 251.895 253.862C251.074 255.736 249.592 257.367 247.171 258.703L248.862 261.767L250.553 264.832C254.097 262.876 256.774 260.172 258.307 256.669C259.826 253.2 260.084 249.265 259.374 245.055L255.923 245.637ZM248.862 261.767L247.171 258.703L238.224 263.641L239.915 266.705L241.606 269.77L250.553 264.832L248.862 261.767ZM239.915 266.705L238.224 263.641L229.277 268.579L230.968 271.643L232.659 274.708L241.606 269.77L239.915 266.705ZM230.968 271.643L229.277 268.579C222.872 272.114 217.876 276.637 214.451 282.201L217.432 284.036L220.412 285.87C223.106 281.495 227.134 277.757 232.659 274.708L230.968 271.643ZM217.432 284.036L214.451 282.201L209.863 289.655L212.843 291.49L215.824 293.325L220.412 285.87L217.432 284.036ZM212.843 291.49L209.863 289.655L205.274 297.11L208.255 298.945L211.235 300.779L215.824 293.325L212.843 291.49ZM208.255 298.945L205.274 297.11C202.351 301.858 199.645 304.641 197.276 305.969L198.988 309.022L200.699 312.075C204.568 309.906 208.04 305.97 211.235 300.779L208.255 298.945ZM198.988 309.022L197.276 305.969L192.598 308.591L194.31 311.644L196.021 314.697L200.699 312.075L198.988 309.022ZM194.31 311.644L192.598 308.591L187.92 311.214L189.631 314.267L191.343 317.32L196.021 314.697L194.31 311.644ZM189.631 314.267L187.92 311.214C186.999 311.73 186.126 312.315 185.406 312.992C184.71 313.646 183.929 314.601 183.606 315.889C183.243 317.336 183.577 318.721 184.317 319.82C184.977 320.801 185.895 321.475 186.715 321.948L188.465 318.917L190.215 315.886C189.863 315.683 189.953 315.657 190.124 315.913C190.226 316.063 190.352 316.309 190.417 316.641C190.484 316.981 190.466 317.311 190.395 317.593C190.266 318.106 190.02 318.261 190.202 318.091C190.359 317.943 190.704 317.678 191.343 317.32L189.631 314.267ZM188.465 318.917L186.715 321.948L190.226 323.976L191.976 320.945L193.726 317.914L190.215 315.886L188.465 318.917ZM191.976 320.945L190.226 323.976L193.738 326.004L195.488 322.972L197.238 319.941L193.726 317.914L191.976 320.945ZM195.488 322.972L193.738 326.004C194.542 326.468 196.171 327.236 198.012 326.619C200.106 325.917 200.812 324.047 201.039 322.999C201.279 321.888 201.248 320.654 201.129 319.489C201.004 318.268 200.753 316.86 200.399 315.29L196.985 316.06L193.57 316.83C193.888 318.24 194.079 319.355 194.165 320.2C194.208 320.621 194.222 320.943 194.219 321.181C194.216 321.427 194.196 321.525 194.197 321.518C194.199 321.509 194.212 321.453 194.247 321.362C194.283 321.272 194.349 321.13 194.464 320.963C194.717 320.597 195.155 320.194 195.786 319.982C196.916 319.603 197.605 320.153 197.238 319.941L195.488 322.972ZM196.985 316.06L200.399 315.29L198.383 306.35L194.969 307.12L191.555 307.89L193.57 316.83L196.985 316.06Z" fill="black"/>
</svg>
