<svg width="400" height="400" viewBox="0 0 400 400" fill="none" xmlns="http://www.w3.org/2000/svg">
<rect x="2.5" y="2.5" width="395" height="395" stroke="black" stroke-width="5"/>
<path d="M153.75 85.6153L152.228 82.4636L153.75 85.6153ZM241.25 79.1261L240.312 82.4982L241.25 79.1261ZM276.25 83.6764L275.969 87.1651L276.25 83.6764ZM311.25 78.0267L310.426 74.625L311.25 78.0267ZM318.884 83.1812L315.425 82.6505L318.884 83.1812ZM316.653 97.7271L320.113 98.2577L316.653 97.7271ZM318.619 113.75L315.318 114.913L318.619 113.75ZM324.782 131.25L328.083 130.087L324.782 131.25ZM323.189 148.75L320.102 147.101L323.189 148.75ZM334.255 201.25L336.785 198.832L334.255 201.25ZM334.328 218.75L331.787 216.343L334.328 218.75ZM317.748 236.25L320.289 238.657L317.748 236.25ZM311.269 253.75L307.841 254.459L311.269 253.75ZM314.891 271.25L318.318 270.541L314.891 271.25ZM322.653 288.75L325.547 286.782L322.653 288.75ZM334.557 306.25L331.663 308.218L334.557 306.25ZM330.382 318.705L331.584 321.992L330.382 318.705ZM310.127 326.115L308.925 322.828L310.127 326.115ZM291.25 325.219L292.879 322.121L291.25 325.219ZM273.75 316.017L272.121 319.115L273.75 316.017ZM256.25 316.692L254.443 313.694L256.25 316.692ZM238.75 327.244L240.557 330.241L238.75 327.244ZM221.25 334.89L222.165 338.268L221.25 334.89ZM203.75 339.629L202.835 336.251L203.75 339.629ZM151.25 332.415L152.845 329.3L151.25 332.415ZM142.5 327.935L140.905 331.05L142.5 327.935ZM116.25 317.819L115.792 321.289L116.25 317.819ZM98.75 315.512L99.2076 312.042L98.75 315.512ZM89.1744 307.339L85.6984 307.748L89.1744 307.339ZM91.7443 243.75L88.2607 243.412L91.7443 243.75ZM67.0744 191.25L63.7567 192.365L67.0744 191.25ZM59.7258 138.75L56.2313 138.554L59.7258 138.75ZM64.0736 121.25L60.871 119.838L64.0736 121.25ZM92.5 71.7966L93.1302 75.2394L101.88 73.6378L101.25 70.195L100.62 66.7522L91.8698 68.3538L92.5 71.7966ZM101.25 70.195L101.88 73.6378C106.744 72.7474 111.715 73.7292 116.934 76.8971L118.75 73.9052L120.566 70.9134C114.118 66.9987 107.423 65.5069 100.62 66.7522L101.25 70.195ZM118.75 73.9052L116.934 76.8971L125.684 82.209L127.5 79.2172L129.316 76.2254L120.566 70.9134L118.75 73.9052ZM127.5 79.2172L125.684 82.209L134.434 87.521L136.25 84.5292L138.066 81.5373L129.316 76.2254L127.5 79.2172ZM136.25 84.5292L134.434 87.521C141.216 91.6383 148.304 92.1322 155.272 88.767L153.75 85.6153L152.228 82.4636C147.529 84.7328 142.951 84.5026 138.066 81.5373L136.25 84.5292ZM153.75 85.6153L155.272 88.767L164.022 84.5412L162.5 81.3895L160.978 78.2378L152.228 82.4636L153.75 85.6153ZM162.5 81.3895L164.022 84.5412L172.772 80.3154L171.25 77.1637L169.728 74.012L160.978 78.2378L162.5 81.3895ZM171.25 77.1637L172.772 80.3154C178.213 77.6877 183.568 76.3265 188.861 76.1587L188.75 72.6604L188.639 69.1622C182.265 69.3644 175.953 71.0054 169.728 74.012L171.25 77.1637ZM188.75 72.6604L188.861 76.1587L197.611 75.8811L197.5 72.3829L197.389 68.8847L188.639 69.1622L188.75 72.6604ZM197.5 72.3829L197.611 75.8811L206.361 75.6036L206.25 72.1054L206.139 68.6071L197.389 68.8847L197.5 72.3829ZM206.25 72.1054L206.361 75.6036C211.827 75.4302 217.307 76.1021 222.812 77.6327L223.75 74.2606L224.688 70.8885C218.526 69.1754 212.339 68.4105 206.139 68.6071L206.25 72.1054ZM223.75 74.2606L222.812 77.6327L231.562 80.0654L232.5 76.6933L233.438 73.3212L224.688 70.8885L223.75 74.2606ZM232.5 76.6933L231.562 80.0654L240.312 82.4982L241.25 79.1261L242.188 75.754L233.438 73.3212L232.5 76.6933ZM241.25 79.1261L240.312 82.4982C246.353 84.1776 252.406 85.2643 258.469 85.7533L258.75 82.2647L259.031 78.776C253.428 78.3239 247.814 77.3182 242.188 75.754L241.25 79.1261ZM258.75 82.2647L258.469 85.7533L267.219 86.4592L267.5 82.9705L267.781 79.4819L259.031 78.776L258.75 82.2647ZM267.5 82.9705L267.219 86.4592L275.969 87.1651L276.25 83.6764L276.531 80.1877L267.781 79.4819L267.5 82.9705ZM276.25 83.6764L275.969 87.1651C282.182 87.6663 288.388 87.163 294.574 85.6655L293.75 82.2638L292.926 78.862C287.445 80.1891 281.985 80.6276 276.531 80.1877L276.25 83.6764ZM293.75 82.2638L294.574 85.6655L303.324 83.547L302.5 80.1452L301.676 76.7435L292.926 78.862L293.75 82.2638ZM302.5 80.1452L303.324 83.547L312.074 81.4284L311.25 78.0267L310.426 74.625L301.676 76.7435L302.5 80.1452ZM311.25 78.0267L312.074 81.4284C313.343 81.1212 314.258 81.0294 314.881 81.0521C315.505 81.0749 315.645 81.2042 315.575 81.1568C315.442 81.0666 315.421 80.949 315.45 81.0574C315.501 81.2431 315.567 81.7266 315.425 82.6505L318.884 83.1812L322.344 83.7118C322.786 80.8269 322.471 77.3664 319.492 75.3553C316.903 73.6073 313.487 73.884 310.426 74.625L311.25 78.0267ZM318.884 83.1812L315.425 82.6505L314.309 89.9234L317.769 90.4541L321.228 90.9848L322.344 83.7118L318.884 83.1812ZM317.769 90.4541L314.309 89.9234L313.194 97.1964L316.653 97.7271L320.113 98.2577L321.228 90.9848L317.769 90.4541ZM316.653 97.7271L313.194 97.1964C312.343 102.743 313.121 108.675 315.318 114.913L318.619 113.75L321.92 112.587C320.008 107.158 319.476 102.408 320.113 98.2577L316.653 97.7271ZM318.619 113.75L315.318 114.913L318.399 123.663L321.701 122.5L325.002 121.337L321.92 112.587L318.619 113.75ZM321.701 122.5L318.399 123.663L321.481 132.413L324.782 131.25L328.083 130.087L325.002 121.337L321.701 122.5ZM324.782 131.25L321.481 132.413C323.184 137.25 322.792 142.066 320.102 147.101L323.189 148.75L326.276 150.399C329.819 143.768 330.488 136.916 328.083 130.087L324.782 131.25ZM323.189 148.75L320.102 147.101L315.427 155.851L318.514 157.5L321.601 159.149L326.276 150.399L323.189 148.75ZM318.514 157.5L315.427 155.851L310.753 164.601L313.84 166.25L316.927 167.899L321.601 159.149L318.514 157.5ZM313.84 166.25L310.753 164.601C308.852 168.159 308.197 171.91 309 175.722C309.789 179.464 311.914 182.942 314.998 186.168L317.528 183.75L320.059 181.332C317.567 178.725 316.29 176.369 315.849 174.278C315.423 172.256 315.711 170.175 316.927 167.899L313.84 166.25ZM317.528 183.75L314.998 186.168L323.361 194.918L325.892 192.5L328.422 190.082L320.059 181.332L317.528 183.75ZM325.892 192.5L323.361 194.918L331.725 203.668L334.255 201.25L336.785 198.832L328.422 190.082L325.892 192.5ZM334.255 201.25L331.725 203.668C334.133 206.188 334.947 208.289 334.955 210.015C334.962 211.737 334.168 213.83 331.787 216.343L334.328 218.75L336.869 221.157C340.014 217.837 341.972 214.097 341.955 209.985C341.937 205.877 339.952 202.145 336.785 198.832L334.255 201.25ZM334.328 218.75L331.787 216.343L323.497 225.093L326.038 227.5L328.579 229.907L336.869 221.157L334.328 218.75ZM326.038 227.5L323.497 225.093L315.207 233.843L317.748 236.25L320.289 238.657L328.579 229.907L326.038 227.5ZM317.748 236.25L315.207 233.843C309.194 240.19 306.326 247.136 307.841 254.459L311.269 253.75L314.696 253.041C313.797 248.698 315.249 243.977 320.289 238.657L317.748 236.25ZM311.269 253.75L307.841 254.459L309.652 263.209L313.08 262.5L316.507 261.791L314.696 253.041L311.269 253.75ZM313.08 262.5L309.652 263.209L311.463 271.959L314.891 271.25L318.318 270.541L316.507 261.791L313.08 262.5ZM314.891 271.25L311.463 271.959C312.779 278.318 315.58 284.574 319.759 290.718L322.653 288.75L325.547 286.782C321.792 281.26 319.417 275.848 318.318 270.541L314.891 271.25ZM322.653 288.75L319.759 290.718L325.711 299.468L328.605 297.5L331.499 295.532L325.547 286.782L322.653 288.75ZM328.605 297.5L325.711 299.468L331.663 308.218L334.557 306.25L337.451 304.282L331.499 295.532L328.605 297.5ZM334.557 306.25L331.663 308.218C333.409 310.785 333.35 312.09 333.171 312.626C332.981 313.193 332.188 314.317 329.179 315.418L330.382 318.705L331.584 321.992C335.326 320.623 338.605 318.437 339.807 314.851C341.02 311.235 339.673 307.548 337.451 304.282L334.557 306.25ZM330.382 318.705L329.179 315.418L319.052 319.123L320.254 322.41L321.457 325.697L331.584 321.992L330.382 318.705ZM320.254 322.41L319.052 319.123L308.925 322.828L310.127 326.115L311.33 329.402L321.457 325.697L320.254 322.41ZM310.127 326.115L308.925 322.828C303.007 324.993 297.752 324.684 292.879 322.121L291.25 325.219L289.621 328.317C296.414 331.889 303.744 332.177 311.33 329.402L310.127 326.115ZM291.25 325.219L292.879 322.121L284.129 317.52L282.5 320.618L280.871 323.716L289.621 328.317L291.25 325.219ZM282.5 320.618L284.129 317.52L275.379 312.919L273.75 316.017L272.121 319.115L280.871 323.716L282.5 320.618ZM273.75 316.017L275.379 312.919C268.418 309.258 261.282 309.571 254.443 313.694L256.25 316.692L258.057 319.689C262.885 316.778 267.416 316.64 272.121 319.115L273.75 316.017ZM256.25 316.692L254.443 313.694L245.693 318.97L247.5 321.968L249.307 324.965L258.057 319.689L256.25 316.692ZM247.5 321.968L245.693 318.97L236.943 324.247L238.75 327.244L240.557 330.241L249.307 324.965L247.5 321.968ZM238.75 327.244L236.943 324.247C231.353 327.617 225.818 330.026 220.335 331.511L221.25 334.89L222.165 338.268C228.349 336.593 234.48 333.905 240.557 330.241L238.75 327.244ZM221.25 334.89L220.335 331.511L211.585 333.881L212.5 337.259L213.415 340.638L222.165 338.268L221.25 334.89ZM212.5 337.259L211.585 333.881L202.835 336.251L203.75 339.629L204.665 343.007L213.415 340.638L212.5 337.259ZM203.75 339.629L202.835 336.251C197.452 337.708 192.102 338.039 186.755 337.26L186.25 340.723L185.745 344.186C192.065 345.108 198.381 344.709 204.665 343.007L203.75 339.629ZM186.25 340.723L186.755 337.26L178.005 335.984L177.5 339.447L176.995 342.911L185.745 344.186L186.25 340.723ZM177.5 339.447L178.005 335.984L169.255 334.708L168.75 338.172L168.245 341.635L176.995 342.911L177.5 339.447ZM168.75 338.172L169.255 334.708C163.842 333.919 158.375 332.132 152.845 329.3L151.25 332.415L149.655 335.531C155.792 338.674 161.992 340.724 168.245 341.635L168.75 338.172ZM151.25 332.415L152.845 329.3L144.095 324.819L142.5 327.935L140.905 331.05L149.655 335.531L151.25 332.415ZM142.5 327.935L144.095 324.819L135.345 320.339L133.75 323.454L132.155 326.569L140.905 331.05L142.5 327.935ZM133.75 323.454L135.345 320.339C129.196 317.19 122.98 315.176 116.708 314.349L116.25 317.819L115.792 321.289C121.187 322 126.637 323.744 132.155 326.569L133.75 323.454ZM116.25 317.819L116.708 314.349L107.958 313.195L107.5 316.665L107.042 320.135L115.792 321.289L116.25 317.819ZM107.5 316.665L107.958 313.195L99.2076 312.042L98.75 315.512L98.2924 318.982L107.042 320.135L107.5 316.665ZM98.75 315.512L99.2076 312.042C96.3804 311.669 94.4962 311.229 93.3821 310.797C92.8218 310.58 92.6472 310.437 92.6642 310.452C92.706 310.487 93.1131 310.863 93.2008 311.609L89.7248 312.018L86.2488 312.427C86.4283 313.953 87.2802 315.059 88.12 315.776C88.9349 316.472 89.9114 316.96 90.8553 317.325C92.7496 318.059 95.2862 318.585 98.2924 318.982L98.75 315.512ZM89.7248 312.018L93.2008 311.609L92.9256 309.27L89.4496 309.679L85.9736 310.088L86.2488 312.427L89.7248 312.018ZM89.4496 309.679L92.9256 309.27L92.6505 306.931L89.1744 307.339L85.6984 307.748L85.9736 310.088L89.4496 309.679ZM89.1744 307.339L92.6505 306.931C92.4982 305.636 92.4234 302.185 92.4738 296.28L88.9739 296.25L85.4741 296.22C85.4249 301.982 85.4837 305.923 85.6984 307.748L89.1744 307.339ZM88.9739 296.25L92.4738 296.28L92.5485 287.53L89.0487 287.5L85.5488 287.47L85.4741 296.22L88.9739 296.25ZM89.0487 287.5L92.5485 287.53L92.6233 278.78L89.1234 278.75L85.6235 278.72L85.5488 287.47L89.0487 287.5ZM89.1234 278.75L92.6233 278.78C92.6722 273.05 92.9745 267.319 93.5305 261.588L90.0468 261.25L86.5632 260.912C85.9875 266.847 85.6742 272.783 85.6235 278.72L89.1234 278.75ZM90.0468 261.25L93.5305 261.588L94.3792 252.838L90.8956 252.5L87.4119 252.162L86.5632 260.912L90.0468 261.25ZM90.8956 252.5L94.3792 252.838L95.228 244.088L91.7443 243.75L88.2607 243.412L87.4119 252.162L90.8956 252.5ZM91.7443 243.75L95.228 244.088C95.8833 237.331 93.9982 230.722 89.8896 224.353L86.9485 226.25L84.0074 228.147C87.4249 233.445 88.7369 238.502 88.2607 243.412L91.7443 243.75ZM86.9485 226.25L89.8896 224.353L84.2451 215.603L81.304 217.5L78.3628 219.397L84.0074 228.147L86.9485 226.25ZM81.304 217.5L84.2451 215.603L78.6006 206.853L75.6595 208.75L72.7183 210.647L78.3628 219.397L81.304 217.5ZM75.6595 208.75L78.6006 206.853C74.9753 201.233 72.2489 195.66 70.392 190.135L67.0744 191.25L63.7567 192.365C65.8206 198.506 68.8176 204.6 72.7183 210.647L75.6595 208.75ZM67.0744 191.25L70.392 190.135L67.4515 181.385L64.1338 182.5L60.8161 183.615L63.7567 192.365L67.0744 191.25ZM64.1338 182.5L67.4515 181.385L64.5109 172.635L61.1932 173.75L57.8756 174.865L60.8161 183.615L64.1338 182.5ZM61.1932 173.75L64.5109 172.635C62.6846 167.201 61.9371 161.812 62.2382 156.446L58.7437 156.25L55.2492 156.054C54.8956 162.355 55.7811 168.633 57.8756 174.865L61.1932 173.75ZM58.7437 156.25L62.2382 156.446L62.7293 147.696L59.2348 147.5L55.7403 147.304L55.2492 156.054L58.7437 156.25ZM59.2348 147.5L62.7293 147.696L63.2203 138.946L59.7258 138.75L56.2313 138.554L55.7403 147.304L59.2348 147.5ZM59.7258 138.75L63.2203 138.946C63.5221 133.569 64.8591 128.146 67.2763 122.662L64.0736 121.25L60.871 119.838C58.1458 126.021 56.5842 132.265 56.2313 138.554L59.7258 138.75ZM64.0736 121.25L67.2763 122.662L71.1331 113.912L67.9304 112.5L64.7278 111.088L60.871 119.838L64.0736 121.25ZM67.9304 112.5L71.1331 113.912L74.9899 105.162L71.7873 103.75L68.5846 102.338L64.7278 111.088L67.9304 112.5ZM71.7873 103.75L74.9899 105.162C77.7137 98.9823 78.5678 93.061 75.8457 88.2707L72.8027 90L69.7597 91.7292C70.826 93.6057 71.0032 96.851 68.5846 102.338L71.7873 103.75ZM72.8027 90L75.8457 88.2707L73.0043 83.2707L69.9613 85L66.9183 86.7292L69.7597 91.7292L72.8027 90ZM69.9613 85L73.0043 83.2707L70.1629 78.2707L67.1199 80L64.0769 81.7293L66.9183 86.7292L69.9613 85ZM67.1199 80L70.1629 78.2707C69.7408 77.5279 69.4676 76.9579 69.3056 76.542C69.1295 76.0899 69.1524 75.9904 69.1572 76.1373C69.1629 76.3144 69.131 77.1226 68.3898 77.8354C67.6974 78.5011 66.983 78.5 66.9589 78.5V75V71.5C66.0413 71.5 64.6635 71.7072 63.5379 72.7896C62.3633 73.9191 62.1282 75.3522 62.1608 76.3627C62.2179 78.1378 63.1244 80.053 64.0769 81.7293L67.1199 80ZM66.9589 75V78.5H69.6393V75V71.5H66.9589V75ZM69.6393 75V78.5H72.3196V75V71.5H69.6393V75ZM72.3196 75V78.5C74.4848 78.5 78.6235 77.8949 84.3802 76.8411L83.75 73.3983L83.1198 69.9555C77.2098 71.0373 73.7283 71.5 72.3196 71.5V75ZM83.75 73.3983L84.3802 76.8411L93.1302 75.2394L92.5 71.7966L91.8698 68.3538L83.1198 69.9555L83.75 73.3983Z" fill="black"/>
</svg>
