<svg width="400" height="400" viewBox="0 0 400 400" fill="none" xmlns="http://www.w3.org/2000/svg">
<rect x="2.5" y="2.5" width="395" height="395" stroke="black" stroke-width="5"/>
<path d="M153.75 80.1774L152.401 83.4069L153.75 80.1774ZM206.25 66.6466L208.638 69.2055L206.25 66.6466ZM232.5 67.6851L234.129 64.5875L232.5 67.6851ZM241.25 72.2872L239.621 75.3849L241.25 72.2872ZM276.25 81.2111L275.681 84.6646L276.25 81.2111ZM323.173 93.9863L325.821 91.6978L323.173 93.9863ZM329.518 101.329L332.166 99.0403L329.518 101.329ZM329.895 113.75L326.561 112.685L329.895 113.75ZM327.1 122.5L330.434 123.565L327.1 122.5ZM324.305 131.25L320.971 130.185L324.305 131.25ZM319.879 148.75L323.32 149.391L319.879 148.75ZM318.248 157.5L314.808 156.859L318.248 157.5ZM316.618 166.25L313.177 165.609L316.618 166.25ZM316.544 183.75L313.099 184.363L316.544 183.75ZM318.102 192.5L314.656 193.113L318.102 192.5ZM319.66 201.25L323.105 200.637L319.66 201.25ZM318.17 218.75L314.865 217.599L318.17 218.75ZM312.077 236.25L315.382 237.401L312.077 236.25ZM309.106 253.75L312.606 253.72L309.106 253.75ZM309.258 271.25L305.758 271.28L309.258 271.25ZM312.585 288.75L315.866 287.531L312.585 288.75ZM319.088 306.25L315.807 307.469L319.088 306.25ZM316.754 320.854L314.222 318.438L316.754 320.854ZM305.585 332.561L308.117 334.977L305.585 332.561ZM291.25 338.612L291.171 335.113L291.25 338.612ZM282.5 338.809L282.579 342.308L282.5 338.809ZM273.75 339.006L273.671 335.507L273.75 339.006ZM256.25 334.123L254.493 337.149L256.25 334.123ZM238.75 323.962L240.507 320.935L238.75 323.962ZM221.25 320.99L222.07 324.393L221.25 320.99ZM212.5 323.099L211.68 319.696L212.5 323.099ZM203.75 325.208L202.93 321.805L203.75 325.208ZM186.25 326.113L186.727 322.646L186.25 326.113ZM168.75 323.707L169.227 320.24L168.75 323.707ZM151.25 318.341L152.754 315.181L151.25 318.341ZM133.75 310.016L132.246 313.176L133.75 310.016ZM116.25 309.808L117.692 312.997L116.25 309.808ZM98.75 317.718L97.3084 314.529L98.75 317.718ZM91.219 317.505L87.8598 316.522L91.219 317.505ZM92.4381 313.337L95.7974 314.319L92.4381 313.337ZM93.6571 309.168L90.2979 308.186L93.6571 309.168ZM54.8368 243.75L51.3426 243.952L54.8368 243.75ZM59.7878 226.25L56.8178 224.398L59.7878 226.25ZM70.6996 208.75L67.7297 206.898L70.6996 208.75ZM71.5007 156.25L68.0772 156.978L71.5007 156.25ZM67.7807 138.75L64.3572 139.478L67.7807 138.75ZM69.2974 121.25L66.0321 119.99L69.2974 121.25ZM82.0571 90L78.9593 88.3709L82.0571 90ZM92.5 70.2758L93.4122 73.6549L102.162 71.2928L101.25 67.9137L100.338 64.5347L91.5878 66.8968L92.5 70.2758ZM101.25 67.9137L102.162 71.2928C107.344 69.8939 112.498 70.0025 117.703 71.634L118.75 68.2942L119.797 64.9544C113.335 62.9292 106.823 62.7841 100.338 64.5347L101.25 67.9137ZM118.75 68.2942L117.703 71.634L126.453 74.3766L127.5 71.0368L128.547 67.697L119.797 64.9544L118.75 68.2942ZM127.5 71.0368L126.453 74.3766L135.203 77.1192L136.25 73.7794L137.297 70.4396L128.547 67.697L127.5 71.0368ZM136.25 73.7794L135.203 77.1192C140.931 78.9144 146.663 81.01 152.401 83.4069L153.75 80.1774L155.099 76.9479C149.17 74.471 143.236 72.3012 137.297 70.4396L136.25 73.7794ZM153.75 80.1774L152.401 83.4069L161.151 87.0623L162.5 83.8328L163.849 80.6033L155.099 76.9479L153.75 80.1774ZM162.5 83.8328L161.151 87.0623L169.901 90.7177L171.25 87.4882L172.599 84.2586L163.849 80.6033L162.5 83.8328ZM171.25 87.4882L169.901 90.7177C173.484 92.2145 177.18 92.5294 180.874 91.5775C184.511 90.6402 187.928 88.5327 191.138 85.5367L188.75 82.9779L186.362 80.4191C183.739 82.8668 181.323 84.233 179.126 84.799C176.986 85.3506 174.849 85.1987 172.599 84.2586L171.25 87.4882ZM188.75 82.9779L191.138 85.5367L199.888 77.3711L197.5 74.8123L195.112 72.2534L186.362 80.4191L188.75 82.9779ZM197.5 74.8123L199.888 77.3711L208.638 69.2055L206.25 66.6466L203.862 64.0878L195.112 72.2534L197.5 74.8123ZM206.25 66.6466L208.638 69.2055C211.238 66.7787 213.595 65.5308 215.698 65.1025C217.738 64.6871 219.837 64.9796 222.121 66.1807L223.75 63.0831L225.379 59.9854C221.83 58.1185 218.095 57.4708 214.302 58.2433C210.572 59.0028 207.095 61.0708 203.862 64.0878L206.25 66.6466ZM223.75 63.0831L222.121 66.1807L230.871 70.7828L232.5 67.6851L234.129 64.5875L225.379 59.9854L223.75 63.0831ZM232.5 67.6851L230.871 70.7828L239.621 75.3849L241.25 72.2872L242.879 69.1895L234.129 64.5875L232.5 67.6851ZM241.25 72.2872L239.621 75.3849C245.748 78.6078 251.938 80.7554 258.181 81.7834L258.75 78.3299L259.319 74.8764C253.895 73.9835 248.418 72.1027 242.879 69.1895L241.25 72.2872ZM258.75 78.3299L258.181 81.7834L266.931 83.224L267.5 79.7705L268.069 76.317L259.319 74.8764L258.75 78.3299ZM267.5 79.7705L266.931 83.224L275.681 84.6646L276.25 81.2111L276.819 77.7576L268.069 76.317L267.5 79.7705ZM276.25 81.2111L275.681 84.6646C281.454 85.6149 287.227 86.7222 293.001 87.9865L293.75 84.5675L294.499 81.1485C288.606 79.8583 282.713 78.728 276.819 77.7576L276.25 81.2111ZM293.75 84.5675L293.001 87.9865L301.751 89.9023L302.5 86.4833L303.249 83.0643L294.499 81.1485L293.75 84.5675ZM302.5 86.4833L301.751 89.9023L310.501 91.8182L311.25 88.3992L311.999 84.9802L303.249 83.0643L302.5 86.4833ZM311.25 88.3992L310.501 91.8182C316.139 93.0526 319.173 94.7115 320.524 96.2748L323.173 93.9863L325.821 91.6978C322.942 88.3661 318.027 86.3002 311.999 84.9802L311.25 88.3992ZM323.173 93.9863L320.524 96.2748L323.697 99.946L326.345 97.6575L328.993 95.369L325.821 91.6978L323.173 93.9863ZM326.345 97.6575L323.697 99.946L326.87 103.617L329.518 101.329L332.166 99.0403L328.993 95.369L326.345 97.6575ZM329.518 101.329L326.87 103.617C327.683 104.558 328.374 107.01 326.561 112.685L329.895 113.75L333.229 114.815C335.143 108.823 335.583 102.994 332.166 99.0403L329.518 101.329ZM329.895 113.75L326.561 112.685L323.766 121.435L327.1 122.5L330.434 123.565L333.229 114.815L329.895 113.75ZM327.1 122.5L323.766 121.435L320.971 130.185L324.305 131.25L327.639 132.315L330.434 123.565L327.1 122.5ZM324.305 131.25L320.971 130.185C319.064 136.153 317.553 142.128 316.438 148.109L319.879 148.75L323.32 149.391C324.379 143.706 325.818 138.014 327.639 132.315L324.305 131.25ZM319.879 148.75L316.438 148.109L314.808 156.859L318.248 157.5L321.689 158.141L323.32 149.391L319.879 148.75ZM318.248 157.5L314.808 156.859L313.177 165.609L316.618 166.25L320.058 166.891L321.689 158.141L318.248 157.5ZM316.618 166.25L313.177 165.609C312.013 171.856 311.986 178.114 313.099 184.363L316.544 183.75L319.99 183.137C319.026 177.719 319.048 172.311 320.058 166.891L316.618 166.25ZM316.544 183.75L313.099 184.363L314.656 193.113L318.102 192.5L321.548 191.887L319.99 183.137L316.544 183.75ZM318.102 192.5L314.656 193.113L316.214 201.863L319.66 201.25L323.105 200.637L321.548 191.887L318.102 192.5ZM319.66 201.25L316.214 201.863C317.143 207.081 316.708 212.307 314.865 217.599L318.17 218.75L321.476 219.901C323.695 213.526 324.253 207.086 323.105 200.637L319.66 201.25ZM318.17 218.75L314.865 217.599L311.818 226.349L315.124 227.5L318.429 228.651L321.476 219.901L318.17 218.75ZM315.124 227.5L311.818 226.349L308.772 235.099L312.077 236.25L315.382 237.401L318.429 228.651L315.124 227.5ZM312.077 236.25L308.772 235.099C306.616 241.29 305.552 247.522 305.606 253.78L309.106 253.75L312.606 253.72C312.559 248.311 313.475 242.877 315.382 237.401L312.077 236.25ZM309.106 253.75L305.606 253.78L305.682 262.53L309.182 262.5L312.682 262.47L312.606 253.72L309.106 253.75ZM309.182 262.5L305.682 262.53L305.758 271.28L309.258 271.25L312.758 271.22L312.682 262.47L309.182 262.5ZM309.258 271.25L305.758 271.28C305.812 277.546 307.005 283.781 309.304 289.969L312.585 288.75L315.866 287.531C313.83 282.053 312.805 276.621 312.758 271.22L309.258 271.25ZM312.585 288.75L309.304 289.969L312.556 298.719L315.836 297.5L319.117 296.281L315.866 287.531L312.585 288.75ZM315.836 297.5L312.556 298.719L315.807 307.469L319.088 306.25L322.368 305.031L319.117 296.281L315.836 297.5ZM319.088 306.25L315.807 307.469C316.735 309.966 316.946 312.022 316.674 313.724C316.407 315.391 315.642 316.949 314.222 318.438L316.754 320.854L319.287 323.27C321.59 320.856 323.075 318.029 323.586 314.828C324.092 311.662 323.608 308.367 322.368 305.031L319.088 306.25ZM316.754 320.854L314.222 318.438L308.637 324.292L311.169 326.708L313.702 329.124L319.287 323.27L316.754 320.854ZM311.169 326.708L308.637 324.292L303.052 330.146L305.585 332.561L308.117 334.977L313.702 329.124L311.169 326.708ZM305.585 332.561L303.052 330.146C300.026 333.317 296.159 335.001 291.171 335.113L291.25 338.612L291.329 342.111C298.007 341.961 303.697 339.611 308.117 334.977L305.585 332.561ZM291.25 338.612L291.171 335.113L282.421 335.31L282.5 338.809L282.579 342.308L291.329 342.111L291.25 338.612ZM282.5 338.809L282.421 335.31L273.671 335.507L273.75 339.006L273.829 342.505L282.579 342.308L282.5 338.809ZM273.75 339.006L273.671 335.507C268.577 335.622 263.372 334.211 258.007 331.096L256.25 334.123L254.493 337.149C260.794 340.808 267.256 342.653 273.829 342.505L273.75 339.006ZM256.25 334.123L258.007 331.096L249.257 326.015L247.5 329.042L245.743 332.069L254.493 337.149L256.25 334.123ZM247.5 329.042L249.257 326.015L240.507 320.935L238.75 323.962L236.993 326.989L245.743 332.069L247.5 329.042ZM238.75 323.962L240.507 320.935C234 317.157 227.25 315.944 220.43 317.588L221.25 320.99L222.07 324.393C226.917 323.225 231.833 323.993 236.993 326.989L238.75 323.962ZM221.25 320.99L220.43 317.588L211.68 319.696L212.5 323.099L213.32 326.502L222.07 324.393L221.25 320.99ZM212.5 323.099L211.68 319.696L202.93 321.805L203.75 325.208L204.57 328.61L213.32 326.502L212.5 323.099ZM203.75 325.208L202.93 321.805C197.513 323.111 192.119 323.387 186.727 322.646L186.25 326.113L185.773 329.581C192.047 330.443 198.32 330.116 204.57 328.61L203.75 325.208ZM186.25 326.113L186.727 322.646L177.977 321.443L177.5 324.91L177.023 328.378L185.773 329.581L186.25 326.113ZM177.5 324.91L177.977 321.443L169.227 320.24L168.75 323.707L168.273 327.175L177.023 328.378L177.5 324.91ZM168.75 323.707L169.227 320.24C163.782 319.491 158.294 317.816 152.754 315.181L151.25 318.341L149.746 321.502C155.873 324.417 162.051 326.319 168.273 327.175L168.75 323.707ZM151.25 318.341L152.754 315.181L144.004 311.018L142.5 314.178L140.996 317.339L149.746 321.502L151.25 318.341ZM142.5 314.178L144.004 311.018L135.254 306.855L133.75 310.016L132.246 313.176L140.996 317.339L142.5 314.178ZM133.75 310.016L135.254 306.855C128.5 303.642 121.59 303.553 114.808 306.618L116.25 309.808L117.692 312.997C122.577 310.789 127.333 310.838 132.246 313.176L133.75 310.016ZM116.25 309.808L114.808 306.618L106.058 310.574L107.5 313.763L108.942 316.952L117.692 312.997L116.25 309.808ZM107.5 313.763L106.058 310.574L97.3084 314.529L98.75 317.718L100.192 320.907L108.942 316.952L107.5 313.763ZM98.75 317.718L97.3084 314.529C95.9285 315.152 94.8231 315.58 93.9693 315.842C93.5452 315.973 93.2139 316.053 92.9649 316.098C92.8422 316.12 92.7493 316.132 92.6833 316.138C92.6166 316.145 92.5878 316.144 92.5913 316.144C92.594 316.144 92.6447 316.145 92.732 316.162C92.8196 316.179 92.9596 316.215 93.1306 316.292C93.5059 316.459 93.9359 316.78 94.2395 317.29C94.7896 318.214 94.4575 318.9 94.5783 318.487L91.219 317.505L87.8598 316.522C87.5742 317.499 87.2511 319.236 88.2256 320.872C89.3244 322.717 91.2233 323.108 92.3932 323.141C93.5841 323.175 94.8464 322.896 96.0268 322.533C97.2589 322.154 98.6548 321.602 100.192 320.907L98.75 317.718ZM91.219 317.505L94.5783 318.487L95.7974 314.319L92.4381 313.337L89.0788 312.354L87.8598 316.522L91.219 317.505ZM92.4381 313.337L95.7974 314.319L97.0164 310.151L93.6571 309.168L90.2979 308.186L89.0788 312.354L92.4381 313.337ZM93.6571 309.168L97.0164 310.151C97.8674 307.241 96.6495 304.329 95.0966 301.945C93.4576 299.428 90.901 296.66 87.5985 293.659L85.245 296.25L82.8915 298.841C86.0098 301.674 88.0657 303.975 89.2307 305.764C90.4819 307.686 90.2595 308.317 90.2979 308.186L93.6571 309.168ZM85.245 296.25L87.5985 293.659L77.9674 284.909L75.6138 287.5L73.2603 290.091L82.8915 298.841L85.245 296.25ZM75.6138 287.5L77.9674 284.909L68.3362 276.159L65.9827 278.75L63.6291 281.341L73.2603 290.091L75.6138 287.5ZM65.9827 278.75L68.3362 276.159C62.2685 270.647 59.6037 265.606 59.3408 261.048L55.8466 261.25L52.3524 261.452C52.7626 268.561 56.8553 275.186 63.6291 281.341L65.9827 278.75ZM55.8466 261.25L59.3408 261.048L58.8358 252.298L55.3417 252.5L51.8475 252.702L52.3524 261.452L55.8466 261.25ZM55.3417 252.5L58.8358 252.298L58.3309 243.548L54.8368 243.75L51.3426 243.952L51.8475 252.702L55.3417 252.5ZM54.8368 243.75L58.3309 243.548C58.043 238.558 59.4338 233.433 62.7577 228.102L59.7878 226.25L56.8178 224.398C52.8672 230.734 50.9573 237.275 51.3426 243.952L54.8368 243.75ZM59.7878 226.25L62.7577 228.102L68.2137 219.352L65.2437 217.5L62.2738 215.648L56.8178 224.398L59.7878 226.25ZM65.2437 217.5L68.2137 219.352L73.6696 210.602L70.6996 208.75L67.7297 206.898L62.2738 215.648L65.2437 217.5ZM70.6996 208.75L73.6696 210.602C77.6319 204.247 79.4812 197.677 78.9457 190.971L75.4568 191.25L71.9679 191.529C72.3641 196.49 71.0419 201.586 67.7297 206.898L70.6996 208.75ZM75.4568 191.25L78.9457 190.971L78.247 182.221L74.7581 182.5L71.2692 182.779L71.9679 191.529L75.4568 191.25ZM74.7581 182.5L78.247 182.221L77.5483 173.471L74.0594 173.75L70.5705 174.029L71.2692 182.779L74.7581 182.5ZM74.0594 173.75L77.5483 173.471C77.0702 167.484 76.1951 161.501 74.9242 155.522L71.5007 156.25L68.0772 156.978C69.2863 162.666 70.117 168.349 70.5705 174.029L74.0594 173.75ZM71.5007 156.25L74.9242 155.522L73.0642 146.772L69.6407 147.5L66.2172 148.228L68.0772 156.978L71.5007 156.25ZM69.6407 147.5L73.0642 146.772L71.2042 138.022L67.7807 138.75L64.3572 139.478L66.2172 148.228L69.6407 147.5ZM67.7807 138.75L71.2042 138.022C70.1124 132.886 70.5435 127.742 72.5627 122.51L69.2974 121.25L66.0321 119.99C63.5491 126.424 62.969 132.947 64.3572 139.478L67.7807 138.75ZM69.2974 121.25L72.5627 122.51L75.9394 113.76L72.6741 112.5L69.4088 111.24L66.0321 119.99L69.2974 121.25ZM72.6741 112.5L75.9394 113.76L79.3161 105.01L76.0508 103.75L72.7855 102.49L69.4088 111.24L72.6741 112.5ZM76.0508 103.75L79.3161 105.01C81.5458 99.2324 83.4921 94.7906 85.1548 91.6291L82.0571 90L78.9593 88.3709C77.1159 91.876 75.0581 96.601 72.7855 102.49L76.0508 103.75ZM82.0571 90L85.1548 91.6291L87.7843 86.6291L84.6866 85L81.5888 83.3709L78.9593 88.3709L82.0571 90ZM84.6866 85L87.7843 86.6291L90.4138 81.6291L87.3161 80L84.2184 78.3709L81.5888 83.3709L84.6866 85ZM87.3161 80L90.4138 81.6291C90.9212 80.6643 91.3439 79.6935 91.6062 78.7462C91.8592 77.832 92.0351 76.6846 91.7714 75.4935C91.4756 74.1571 90.6728 73.0059 89.4418 72.2885C88.3451 71.6494 87.1618 71.5 86.2092 71.5V75V78.5C86.5021 78.5 86.299 78.5589 85.9173 78.3365C85.7039 78.2121 85.4708 78.0189 85.2754 77.7474C85.0816 77.4781 84.9823 77.2116 84.9369 77.0065C84.8577 76.6487 84.9528 76.543 84.8598 76.8788C84.7761 77.1815 84.5875 77.669 84.2184 78.3709L87.3161 80ZM86.2092 75V71.5H82.4728V75V78.5H86.2092V75ZM82.4728 75V71.5H78.7364V75V78.5H82.4728V75ZM78.7364 75V71.5C78.4898 71.5 78.4226 71.4887 78.4681 71.4949C78.4887 71.4977 78.6299 71.5165 78.8332 71.581C78.9691 71.6242 79.5276 71.8042 80.0731 72.3281C80.7968 73.0232 81.3349 74.2013 81.0356 75.5355C80.8139 76.5241 80.2302 77.0841 80.0822 77.2227C79.7337 77.549 79.4469 77.6541 79.6133 77.5757C80.116 77.3388 81.6754 76.8232 84.6622 76.017L83.75 72.6379L82.8378 69.2589C79.9913 70.0273 77.7984 70.6928 76.6299 71.2433C76.3785 71.3617 75.804 71.639 75.2978 72.113C75.071 72.3253 74.441 72.953 74.2054 74.0032C73.8923 75.3988 74.4492 76.6323 75.2241 77.3766C75.8208 77.9498 76.4631 78.1729 76.7153 78.2529C77.0348 78.3543 77.3248 78.4039 77.5267 78.4313C77.9348 78.4867 78.3603 78.5 78.7364 78.5V75ZM83.75 72.6379L84.6622 76.017L93.4122 73.6549L92.5 70.2758L91.5878 66.8968L82.8378 69.2589L83.75 72.6379Z" fill="black"/>
<rect x="75" y="75" width="250" height="250" stroke="white" stroke-width="50" stroke-dasharray="10 10"/>
</svg>
