<svg width="400" height="400" viewBox="0 0 400 400" fill="none" xmlns="http://www.w3.org/2000/svg">
<rect x="2.5" y="2.5" width="395" height="395" stroke="black" stroke-width="5"/>
<path d="M75 141.621V141.621C103.868 184.768 166.722 186.416 197.81 144.841L200.217 141.621L200.914 140.616C231.06 97.1042 295.563 97.627 325 141.621V141.621" stroke="black" stroke-width="7"/>
<path d="M75 261.621V261.621C103.868 304.768 166.722 306.416 197.81 264.841L200.217 261.621L200.914 260.616C231.06 217.104 295.563 217.627 325 261.621V261.621" stroke="black" stroke-width="7"/>
<path d="M258.379 75V75C215.232 103.868 213.584 166.722 255.159 197.81L258.379 200.217L259.384 200.914C302.896 231.06 302.373 295.563 258.379 325V325" stroke="black" stroke-width="7"/>
<path d="M138.379 75V75C95.232 103.868 93.5844 166.722 135.159 197.81L138.379 200.217L139.384 200.914C182.896 231.06 182.373 295.563 138.379 325V325" stroke="black" stroke-width="7"/>
</svg>
