<svg width="400" height="400" viewBox="0 0 400 400" fill="none" xmlns="http://www.w3.org/2000/svg">
<rect x="2.5" y="2.5" width="395" height="395" stroke="black" stroke-width="5"/>
<path d="M113.379 75V75C70.232 103.868 68.5844 166.722 110.159 197.81L113.379 200.217L114.384 200.914C157.896 231.06 157.373 295.563 113.379 325V325" stroke="black" stroke-width="7"/>
<path d="M201.621 75V75C244.768 103.868 246.416 166.722 204.841 197.81L201.621 200.217L200.616 200.914C157.104 231.06 157.627 295.563 201.621 325V325" stroke="black" stroke-width="7"/>
<path d="M283.379 75V75C240.232 103.868 238.584 166.722 280.159 197.81L283.379 200.217L284.384 200.914C327.896 231.06 327.373 295.563 283.379 325V325" stroke="black" stroke-width="7"/>
<circle cx="195" cy="200" r="171.5" stroke="black" stroke-width="7"/>
</svg>
