<svg width="400" height="400" viewBox="0 0 400 400" fill="none" xmlns="http://www.w3.org/2000/svg">
<rect x="2.5" y="2.5" width="395" height="395" stroke="black" stroke-width="5"/>
<path d="M75 258.379V258.379C103.868 215.232 166.722 213.584 197.81 255.159L200.217 258.379L200.914 259.384C231.06 302.896 295.563 302.373 325 258.379V258.379" stroke="black" stroke-width="7"/>
<path d="M75 138.379V138.379C103.868 95.232 166.722 93.5844 197.81 135.159L200.217 138.379L200.914 139.384C231.06 182.896 295.563 182.373 325 138.379V138.379" stroke="black" stroke-width="7"/>
<path d="M75 141.621V141.621C103.868 184.768 166.722 186.416 197.81 144.841L200.217 141.621L200.914 140.616C231.06 97.1042 295.563 97.627 325 141.621V141.621" stroke="black" stroke-width="7"/>
<path d="M75 261.621V261.621C103.868 304.768 166.722 306.416 197.81 264.841L200.217 261.621L200.914 260.616C231.06 217.104 295.563 217.627 325 261.621V261.621" stroke="black" stroke-width="7"/>
</svg>
