<svg width="400" height="400" viewBox="0 0 400 400" fill="none" xmlns="http://www.w3.org/2000/svg">
<rect x="2.5" y="2.5" width="395" height="395" stroke="black" stroke-width="5"/>
<path d="M75 121.621V121.621C103.868 164.768 166.722 166.416 197.81 124.841L200.217 121.621L200.914 120.616C231.06 77.1042 295.563 77.627 325 121.621V121.621" stroke="black" stroke-width="7"/>
<path d="M75 201.621V201.621C103.868 244.768 166.722 246.416 197.81 204.841L200.217 201.621L200.914 200.616C231.06 157.104 295.563 157.627 325 201.621V201.621" stroke="black" stroke-width="7"/>
<path d="M75 281.621V281.621C103.868 324.768 166.722 326.416 197.81 284.841L200.217 281.621L200.914 280.616C231.06 237.104 295.563 237.627 325 281.621V281.621" stroke="black" stroke-width="7"/>
<path d="M278.379 78V78C235.232 106.868 233.584 169.722 275.159 200.81L278.379 203.217L279.384 203.914C322.896 234.06 322.373 298.563 278.379 328V328" stroke="black" stroke-width="7"/>
<path d="M198.379 78V78C155.232 106.868 153.584 169.722 195.159 200.81L198.379 203.217L199.384 203.914C242.896 234.06 242.373 298.563 198.379 328V328" stroke="black" stroke-width="7"/>
<path d="M118.379 78V78C75.232 106.868 73.5844 169.722 115.159 200.81L118.379 203.217L119.384 203.914C162.896 234.06 162.373 298.563 118.379 328V328" stroke="black" stroke-width="7"/>
</svg>
