<svg width="400" height="400" viewBox="0 0 400 400" fill="none" xmlns="http://www.w3.org/2000/svg" xmlns:xlink="http://www.w3.org/1999/xlink">
<rect x="2.5" y="2.5" width="395" height="395" stroke="black" stroke-width="5"/>
<path d="M220.074 169.871L220.635 171.599H287.411L234.857 209.781L233.389 210.849L233.949 212.576L254.023 274.356L201.47 236.174L200 235.106L198.53 236.174L145.976 274.356L166.051 212.576L166.611 210.849L165.143 209.781L112.589 171.599H179.365L179.926 169.871L200 108.09L220.074 169.871Z" fill="url(#pattern0_1556_3425)" stroke="black" stroke-width="5"/>
<defs>
<pattern id="pattern0_1556_3425" patternUnits="userSpaceOnUse" patternTransform="matrix(439.466 0 0 408.615 79.607 -12.7836)" preserveAspectRatio="none" viewBox="99.3398 1.07311 439.466 408.615" width="1" height="1">
<g id="pattern0_1556_3425_inner">
<path d="M100.938 325.69L100.709 2.69439" stroke="black" stroke-width="3" stroke-linecap="round"/>
<path d="M120.756 332.378L120.527 9.38189" stroke="black" stroke-width="3" stroke-linecap="round"/>
<path d="M140.574 339.065L140.345 16.0694" stroke="black" stroke-width="3" stroke-linecap="round"/>
<path d="M160.395 345.745L160.166 22.7491" stroke="black" stroke-width="3" stroke-linecap="round"/>
<path d="M180.209 352.432L179.98 29.4366" stroke="black" stroke-width="3" stroke-linecap="round"/>
<path d="M200.029 359.12L199.8 36.1241" stroke="black" stroke-width="3" stroke-linecap="round"/>
<path d="M219.848 365.807L219.619 42.8116" stroke="black" stroke-width="3" stroke-linecap="round"/>
<path d="M239.668 372.495L239.439 49.4991" stroke="black" stroke-width="3" stroke-linecap="round"/>
<path d="M259.486 379.182L259.257 56.1866" stroke="black" stroke-width="3" stroke-linecap="round"/>
<path d="M279.305 385.87L279.076 62.8741" stroke="black" stroke-width="3" stroke-linecap="round"/>
<path d="M299.119 392.557L298.89 69.5616" stroke="black" stroke-width="3" stroke-linecap="round"/>
<path d="M318.939 399.245L318.71 76.2491" stroke="black" stroke-width="3" stroke-linecap="round"/>
<path d="M338.758 405.932L338.529 82.9366" stroke="black" stroke-width="3" stroke-linecap="round"/>
</g>
</pattern></defs>
</svg>
