<svg width="400" height="400" viewBox="0 0 400 400" fill="none" xmlns="http://www.w3.org/2000/svg">
<path d="M100 200.007C142.501 200.006 260.501 200.004 300.001 200C300.001 233.636 300.001 300.005 300.001 300.005H100.001C100.001 300.005 100 224.136 100 200.007Z" fill="#0170C3"/>
<rect x="2.5" y="2.5" width="395" height="395" stroke="black" stroke-width="5"/>
<mask id="path-3-inside-1_1556_3501" fill="white">
<path d="M100 100H300V200V300H100V200V100Z"/>
</mask>
<path d="M100 200V203.5H300V200V196.5H100V200ZM100 100V93H93V100H100ZM300 100H307V93H300V100ZM300 300V307H307V300H300ZM100 300H93V307H100V300ZM100 100V107H300V100V93H100V100ZM300 300V293H100V300V307H300V300ZM100 300H107V200H100H93V300H100ZM100 200H107V100H100H93V200H100ZM300 100H293V200H300H307V100H300ZM300 200H293V300H300H307V200H300Z" fill="black" mask="url(#path-3-inside-1_1556_3501)"/>
</svg>
