<svg width="400" height="400" viewBox="0 0 400 400" fill="none" xmlns="http://www.w3.org/2000/svg" xmlns:xlink="http://www.w3.org/1999/xlink">
<path d="M100 200.007C142.501 200.006 260.501 200.004 300.001 200C300.001 233.636 300.001 300.005 300.001 300.005H100.001C100.001 300.005 100 224.136 100 200.007Z" fill="url(#pattern0_1556_3513)"/>
<rect x="2.5" y="2.5" width="395" height="395" stroke="black" stroke-width="5"/>
<mask id="path-39-inside-1_1556_3513" fill="white">
<path d="M149.5 149.5L200 100L250.5 149.5L300 200V300H100V200L149.5 149.5Z"/>
</mask>
<path d="M100 200V203.5H300V200V196.5H100V200ZM149.5 149.5L144.6 144.501L144.55 144.55L144.501 144.6L149.5 149.5ZM250.5 149.5L255.499 144.6L255.45 144.55L255.4 144.501L250.5 149.5ZM300 300V307H307V300H300ZM100 300H93V307H100V300ZM100 200L95.001 195.1L93 197.141V200H100ZM300 200H307V197.141L304.999 195.1L300 200ZM200 100L204.9 95.001L200 90.198L195.1 95.001L200 100ZM300 300V293H100V300V307H300V300ZM100 300H107V200H100H93V300H100ZM100 200L104.999 204.9L154.499 154.4L149.5 149.5L144.501 144.6L95.001 195.1L100 200ZM250.5 149.5L245.501 154.4L295.001 204.9L300 200L304.999 195.1L255.499 144.6L250.5 149.5ZM300 200H293V300H300H307V200H300ZM149.5 149.5L154.4 154.499L204.9 104.999L200 100L195.1 95.001L144.6 144.501L149.5 149.5ZM200 100L195.1 104.999L245.6 154.499L250.5 149.5L255.4 144.501L204.9 95.001L200 100Z" fill="black" mask="url(#path-39-inside-1_1556_3513)"/>
<defs>
<pattern id="pattern0_1556_3513" patternUnits="userSpaceOnUse" patternTransform="matrix(372.264 0 0 372.318 68.1658 119.525)" preserveAspectRatio="none" viewBox="37.3766 38.7578 372.264 372.318" width="1" height="1">
<g id="pattern0_1556_3513_inner">
<path d="M130.672 43.0919C128.095 47.3408 129.451 52.8741 133.7 55.4508C137.949 58.0275 143.482 56.6719 146.059 52.423C148.636 48.174 147.28 42.6407 143.031 40.064C138.782 37.4873 133.249 38.8429 130.672 43.0919Z" fill="#0170C3"/>
<path d="M161.406 61.7325C158.83 65.9814 160.185 71.5147 164.434 74.0915C168.683 76.6682 174.216 75.3125 176.793 71.0636C179.37 66.8146 178.014 61.2813 173.765 58.7046C169.516 56.1279 163.983 57.4835 161.406 61.7325Z" fill="#0170C3"/>
<path d="M112.033 73.8262C109.457 78.0752 110.812 83.6085 115.061 86.1852C119.31 88.7619 124.843 87.4063 127.42 83.1573C129.997 78.9084 128.641 73.3751 124.392 70.7984C120.143 68.2217 114.61 69.5773 112.033 73.8262Z" fill="#0170C3"/>
<path d="M173.504 111.107C170.927 115.356 172.283 120.89 176.532 123.466C180.781 126.043 186.314 124.688 188.891 120.439C191.468 116.19 190.112 110.656 185.863 108.08C181.614 105.503 176.081 106.859 173.504 111.107Z" fill="#0170C3"/>
<path d="M192.143 80.3731C189.566 84.6221 190.922 90.1554 195.171 92.7321C199.42 95.3088 204.953 93.9532 207.53 89.7042C210.106 85.4553 208.751 79.922 204.502 77.3452C200.253 74.7685 194.719 76.1241 192.143 80.3731Z" fill="#0170C3"/>
<path d="M93.3946 104.568C90.8179 108.817 92.1735 114.351 96.4225 116.927C100.671 119.504 106.205 118.148 108.781 113.9C111.358 109.651 110.003 104.117 105.754 101.541C101.505 98.9638 95.9713 100.319 93.3946 104.568Z" fill="#0170C3"/>
<path d="M154.865 141.85C152.289 146.099 153.644 151.632 157.893 154.209C162.142 156.785 167.675 155.43 170.252 151.181C172.829 146.932 171.473 141.399 167.224 138.822C162.975 136.245 157.442 137.601 154.865 141.85Z" fill="#0170C3"/>
<path d="M142.77 92.4669C140.193 96.7158 141.549 102.249 145.798 104.826C150.046 107.403 155.58 106.047 158.156 101.798C160.733 97.549 159.378 92.0157 155.129 89.439C150.88 86.8623 145.346 88.2179 142.77 92.4669Z" fill="#0170C3"/>
<path d="M124.131 123.209C121.554 127.458 122.91 132.991 127.159 135.568C131.408 138.145 136.941 136.789 139.518 132.54C142.095 128.291 140.739 122.758 136.49 120.181C132.241 117.604 126.708 118.96 124.131 123.209Z" fill="#0170C3"/>
<path d="M168.16 187.303C165.584 191.552 166.939 197.085 171.188 199.662C175.437 202.238 180.97 200.883 183.547 196.634C186.124 192.385 184.768 186.852 180.519 184.275C176.27 181.698 170.737 183.054 168.16 187.303Z" fill="#0170C3"/>
<path d="M198.895 205.943C196.318 210.192 197.674 215.726 201.923 218.302C206.171 220.879 211.705 219.523 214.281 215.275C216.858 211.026 215.503 205.492 211.254 202.916C207.005 200.339 201.471 201.694 198.895 205.943Z" fill="#0170C3"/>
<path d="M149.522 218.045C146.945 222.294 148.3 227.827 152.549 230.404C156.798 232.981 162.332 231.625 164.908 227.376C167.485 223.127 166.13 217.594 161.881 215.017C157.632 212.44 152.098 213.796 149.522 218.045Z" fill="#0170C3"/>
<path d="M210.992 255.326C208.416 259.575 209.771 265.108 214.02 267.685C218.269 270.262 223.802 268.906 226.379 264.657C228.956 260.408 227.6 254.875 223.351 252.298C219.102 249.722 213.569 251.077 210.992 255.326Z" fill="#0170C3"/>
<path d="M229.631 224.584C227.054 228.833 228.41 234.366 232.659 236.943C236.908 239.52 242.441 238.164 245.018 233.915C247.595 229.666 246.239 224.133 241.99 221.556C237.741 218.979 232.208 220.335 229.631 224.584Z" fill="#0170C3"/>
<path d="M130.883 248.779C128.306 253.028 129.662 258.562 133.911 261.138C138.16 263.715 143.693 262.359 146.27 258.11C148.846 253.862 147.491 248.328 143.242 245.751C138.993 243.175 133.46 244.53 130.883 248.779Z" fill="#0170C3"/>
<path d="M192.354 286.061C189.777 290.31 191.133 295.843 195.381 298.42C199.63 300.996 205.164 299.641 207.74 295.392C210.317 291.143 208.962 285.609 204.713 283.033C200.464 280.456 194.93 281.812 192.354 286.061Z" fill="#0170C3"/>
<path d="M180.258 236.686C177.681 240.935 179.037 246.468 183.286 249.045C187.535 251.621 193.068 250.266 195.645 246.017C198.221 241.768 196.866 236.234 192.617 233.658C188.368 231.081 182.835 232.437 180.258 236.686Z" fill="#0170C3"/>
<path d="M161.619 267.42C159.043 271.669 160.398 277.202 164.647 279.779C168.896 282.356 174.429 281 177.006 276.751C179.583 272.502 178.227 266.969 173.978 264.392C169.729 261.815 164.196 263.171 161.619 267.42Z" fill="#0170C3"/>
<path d="M75.9571 131.373C73.3804 135.622 74.736 141.155 78.985 143.732C83.234 146.309 88.7673 144.953 91.344 140.704C93.9207 136.455 92.5651 130.922 88.3161 128.345C84.0671 125.769 78.5338 127.124 75.9571 131.373Z" fill="#0170C3"/>
<path d="M106.693 150.014C104.117 154.263 105.472 159.796 109.721 162.373C113.97 164.949 119.504 163.594 122.08 159.345C124.657 155.096 123.301 149.563 119.052 146.986C114.803 144.409 109.27 145.765 106.693 150.014Z" fill="#0170C3"/>
<path d="M57.3204 162.107C54.7437 166.356 56.0993 171.89 60.3483 174.466C64.5972 177.043 70.1305 175.688 72.7073 171.439C75.284 167.19 73.9283 161.656 69.6794 159.08C65.4304 156.503 59.8971 157.859 57.3204 162.107Z" fill="#0170C3"/>
<path d="M118.789 199.389C116.212 203.638 117.568 209.171 121.817 211.748C126.066 214.324 131.599 212.969 134.176 208.72C136.753 204.471 135.397 198.938 131.148 196.361C126.899 193.784 121.366 195.14 118.789 199.389Z" fill="#0170C3"/>
<path d="M137.43 168.654C134.853 172.903 136.209 178.437 140.458 181.013C144.707 183.59 150.24 182.234 152.817 177.985C155.393 173.737 154.038 168.203 149.789 165.626C145.54 163.05 140.007 164.405 137.43 168.654Z" fill="#0170C3"/>
<path d="M38.6817 192.842C36.105 197.091 37.4607 202.624 41.7096 205.201C45.9586 207.778 51.4919 206.422 54.0686 202.173C56.6453 197.924 55.2897 192.391 51.0407 189.814C46.7918 187.237 41.2585 188.593 38.6817 192.842Z" fill="#0170C3"/>
<path d="M100.15 230.123C97.5738 234.372 98.9294 239.905 103.178 242.482C107.427 245.059 112.961 243.703 115.537 239.454C118.114 235.205 116.758 229.672 112.509 227.095C108.261 224.519 102.727 225.874 100.15 230.123Z" fill="#0170C3"/>
<path d="M88.0548 180.748C85.4781 184.997 86.8337 190.53 91.0827 193.107C95.3316 195.684 100.865 194.328 103.442 190.079C106.018 185.83 104.663 180.297 100.414 177.72C96.1648 175.144 90.6315 176.499 88.0548 180.748Z" fill="#0170C3"/>
<path d="M69.4181 211.482C66.8414 215.731 68.197 221.265 72.4459 223.841C76.6949 226.418 82.2282 225.063 84.8049 220.814C87.3816 216.565 86.026 211.031 81.777 208.455C77.5281 205.878 71.9948 207.234 69.4181 211.482Z" fill="#0170C3"/>
<path d="M222.885 99.0215C220.308 103.271 221.664 108.804 225.913 111.381C230.162 113.957 235.695 112.602 238.272 108.353C240.848 104.104 239.493 98.5704 235.244 95.9937C230.995 93.417 225.462 94.7726 222.885 99.0215Z" fill="#0170C3"/>
<path d="M253.619 117.662C251.043 121.911 252.398 127.444 256.647 130.021C260.896 132.598 266.429 131.242 269.006 126.993C271.583 122.744 270.227 117.211 265.978 114.634C261.729 112.058 256.196 113.413 253.619 117.662Z" fill="#0170C3"/>
<path d="M204.246 129.756C201.669 134.005 203.025 139.538 207.274 142.115C211.523 144.692 217.056 143.336 219.633 139.087C222.21 134.838 220.854 129.305 216.605 126.728C212.356 124.151 206.823 125.507 204.246 129.756Z" fill="#0170C3"/>
<path d="M265.717 167.037C263.14 171.286 264.496 176.819 268.745 179.396C272.994 181.973 278.527 180.617 281.104 176.368C283.68 172.119 282.325 166.586 278.076 164.009C273.827 161.433 268.294 162.788 265.717 167.037Z" fill="#0170C3"/>
<path d="M284.356 136.303C281.779 140.552 283.134 146.085 287.383 148.662C291.632 151.238 297.166 149.883 299.742 145.634C302.319 141.385 300.964 135.852 296.715 133.275C292.466 130.698 286.932 132.054 284.356 136.303Z" fill="#0170C3"/>
<path d="M185.608 160.498C183.031 164.747 184.386 170.28 188.635 172.857C192.884 175.434 198.418 174.078 200.994 169.829C203.571 165.58 202.215 160.047 197.966 157.47C193.718 154.894 188.184 156.249 185.608 160.498Z" fill="#0170C3"/>
<path d="M247.078 197.779C244.502 202.028 245.857 207.562 250.106 210.138C254.355 212.715 259.888 211.359 262.465 207.11C265.042 202.862 263.686 197.328 259.437 194.751C255.188 192.175 249.655 193.53 247.078 197.779Z" fill="#0170C3"/>
<path d="M234.983 148.397C232.406 152.646 233.761 158.179 238.01 160.756C242.259 163.332 247.793 161.977 250.369 157.728C252.946 153.479 251.59 147.945 247.341 145.369C243.093 142.792 237.559 144.148 234.983 148.397Z" fill="#0170C3"/>
<path d="M216.344 179.139C213.767 183.388 215.123 188.921 219.372 191.498C223.621 194.074 229.154 192.719 231.731 188.47C234.307 184.221 232.952 178.688 228.703 176.111C224.454 173.534 218.921 174.89 216.344 179.139Z" fill="#0170C3"/>
</g>
</pattern></defs>
</svg>
