<svg width="400" height="400" viewBox="0 0 400 400" fill="none" xmlns="http://www.w3.org/2000/svg">
<rect x="2.5" y="2.5" width="395" height="395" stroke="black" stroke-width="5"/>
<mask id="path-2-inside-1_1556_3047" fill="white">
<path d="M199.5 324.5C268.536 324.5 324.5 268.536 324.5 199.5L199.5 199.5L199.5 324.5Z"/>
</mask>
<path d="M199.5 324.5C268.536 324.5 324.5 268.536 324.5 199.5L199.5 199.5L199.5 324.5Z" fill="#0170C3" stroke="black" stroke-width="14" mask="url(#path-2-inside-1_1556_3047)"/>
<mask id="path-3-inside-2_1556_3047" fill="white">
<path d="M199.5 75.5C130.464 75.5 74.5 131.464 74.5 200.5L199.5 200.5L199.5 75.5Z"/>
</mask>
<path d="M199.5 75.5C130.464 75.5 74.5 131.464 74.5 200.5L199.5 200.5L199.5 75.5Z" fill="#0170C3" stroke="black" stroke-width="14" mask="url(#path-3-inside-2_1556_3047)"/>
<circle cx="200" cy="200" r="121.5" stroke="black" stroke-width="7"/>
<circle cx="50" cy="50" r="46.5" transform="matrix(-1 0 0 1 250 150)" fill="white" stroke="black" stroke-width="7"/>
</svg>
