<svg width="406" height="406" viewBox="0 0 406 406" fill="none" xmlns="http://www.w3.org/2000/svg">
<path d="M403 3H3V403H403V3Z" stroke="black" stroke-width="5"/>
<path d="M202.996 203.091L207.126 83.4708C207.126 83.4708 238.345 71.0357 253.477 76.8115C268.707 82.6245 283.268 113.909 283.268 113.909L202.996 203.091Z" fill="#0170C3" stroke="black" stroke-width="5"/>
<path d="M202.868 203.6L85.7824 178.761C85.7824 178.761 78.9571 145.858 87.2729 131.958C95.6422 117.969 128.98 109.062 128.98 109.062L202.868 203.6Z" fill="#0170C3" stroke="black" stroke-width="5"/>
<path d="M202.823 200.415L97.164 256.649C97.164 256.649 70.7858 235.83 68.2215 219.837C65.6408 203.742 85.4533 175.489 85.4533 175.489L202.823 200.415Z" stroke="black" stroke-width="5"/>
<path d="M203.12 201.687L158.326 312.681C158.326 312.681 124.738 313.689 112.493 303.086C100.17 292.414 97.1869 258.037 97.1869 258.037L203.12 201.687Z" stroke="black" stroke-width="5"/>
<path d="M203.151 202.502L129.424 108.213C129.424 108.213 145.346 78.6199 160.65 73.3175C176.054 67.981 207.317 82.5865 207.317 82.5865L203.151 202.502Z" stroke="black" stroke-width="5"/>
<path d="M202.946 202.132L282.252 112.485C282.252 112.485 314.247 122.758 322.245 136.843C330.294 151.019 321.619 184.417 321.619 184.417L202.946 202.132Z" stroke="black" stroke-width="5"/>
<path d="M202.944 202.733L321.465 186.029C321.465 186.029 339.132 214.613 336.071 230.519C332.991 246.527 304.711 266.299 304.711 266.299L202.944 202.733Z" fill="#0170C3" stroke="black" stroke-width="5"/>
<path d="M206.079 202.54L307.608 265.927C307.608 265.927 302.768 299.181 290.2 309.398C277.551 319.681 243.177 316.649 243.177 316.649L206.079 202.54Z" stroke="black" stroke-width="5"/>
<path d="M203.427 203.007L240.459 316.826C240.459 316.826 215.376 339.189 199.181 338.937C182.881 338.683 158.499 314.266 158.499 314.266L203.427 203.007Z" stroke="black" stroke-width="5"/>
</svg>
