<svg width="400" height="400" viewBox="0 0 400 400" fill="none" xmlns="http://www.w3.org/2000/svg">
<rect x="2.5" y="2.5" width="395" height="395" stroke="black" stroke-width="5"/>
<path d="M345 200C345 174.467 338.405 150.49 326.828 129.662L204.999 200L326.828 270.337C338.404 249.509 345 225.532 345 200ZM75.6748 274.665C100.646 316.152 145.779 344.104 197.5 344.979V204.33L75.6748 274.665ZM202.5 344.979C254.221 344.104 299.353 316.152 324.324 274.665L202.5 204.33V344.979ZM197.5 55.0205C145.779 55.8948 100.646 83.8471 75.6748 125.334L197.5 195.669V55.0205ZM202.5 195.669L324.324 125.334C299.353 83.8473 254.221 55.8948 202.5 55.0205V195.669ZM55 200C55 225.532 61.5949 249.51 73.1709 270.337L195 200L73.1709 129.662C61.5946 150.49 55 174.468 55 200ZM350 200C350 227.327 342.693 252.947 329.926 275.013C303.988 319.841 255.516 350 200 350C144.484 350 96.0117 319.841 70.0742 275.013C57.307 252.947 50 227.327 50 200C50 172.673 57.307 147.053 70.0742 124.987C96.0117 80.1591 144.484 50 200 50C255.516 50 303.988 80.1591 329.926 124.987C342.693 147.053 350 172.673 350 200Z" fill="black"/>
<circle cx="151" cy="287" r="16.5" stroke="black" stroke-width="7"/>
<circle cx="249" cy="107" r="16.5" stroke="black" stroke-width="7"/>
<path d="M266.32 302H231.68L249 272L266.32 302Z" stroke="black" stroke-width="7"/>
<path d="M315.32 210H280.68L298 180L315.32 210Z" stroke="black" stroke-width="7"/>
<rect x="88.5" y="183.5" width="33" height="33" stroke="black" stroke-width="7"/>
<path d="M133 89L169 125M169 89L133 125" stroke="black" stroke-width="7"/>
</svg>
