<svg width="406" height="406" viewBox="0 0 406 406" fill="none" xmlns="http://www.w3.org/2000/svg" xmlns:xlink="http://www.w3.org/1999/xlink">
<path d="M161.333 78H78V161.333H161.333V78Z" fill="#D9D9D9" stroke="white" stroke-width="10"/>
<path d="M244.665 78H161.332V161.333H244.665V78Z" fill="url(#pattern0_1556_1197)" stroke="white" stroke-width="10"/>
<path d="M328.001 78H244.668V161.333H328.001V78Z" fill="#D9D9D9" stroke="white" stroke-width="10"/>
<path d="M161.333 161.336H78V244.669H161.333V161.336Z" fill="#D9D9D9" stroke="white" stroke-width="10"/>
<path d="M244.665 161.336H161.332V244.669H244.665V161.336Z" fill="#D9D9D9" stroke="white" stroke-width="10"/>
<path d="M328.001 161.336H244.668V244.669H328.001V161.336Z" fill="#D9D9D9" stroke="white" stroke-width="10"/>
<path d="M161.333 244.664H78V327.997H161.333V244.664Z" fill="#D9D9D9" stroke="white" stroke-width="10"/>
<path d="M244.665 244.664H161.332V327.997H244.665V244.664Z" fill="#D9D9D9" stroke="white" stroke-width="10"/>
<path d="M328.001 244.664H244.668V327.997H328.001V244.664Z" fill="#0170C3" stroke="white" stroke-width="10"/>
<path d="M403 3H3V403H403V3Z" stroke="black" stroke-width="5"/>
<defs>
<pattern id="pattern0_1556_1197" patternUnits="userSpaceOnUse" patternTransform="matrix(118.736 0 0 246.196 141.124 -5.92366)" preserveAspectRatio="none" viewBox="-2.50684 -2.49219 118.736 246.196" width="1" height="1">
<use xlink:href="#pattern0_1556_1197_inner" transform="translate(-118.736 -246.196)"/>
<use xlink:href="#pattern0_1556_1197_inner" transform="translate(0 -246.196)"/>
<use xlink:href="#pattern0_1556_1197_inner" transform="translate(-118.736 0)"/>
<g id="pattern0_1556_1197_inner">
<path d="M0.816406 67.5781L118.736 -0.000977498" stroke="#0170C3" stroke-width="5" stroke-linecap="round"/>
<path d="M0.748535 82.4531L118.668 14.874" stroke="#0170C3" stroke-width="5" stroke-linecap="round"/>
<path d="M0.679688 97.3516L118.599 29.7725" stroke="#0170C3" stroke-width="5" stroke-linecap="round"/>
<path d="M0.612305 112.234L118.531 44.6553" stroke="#0170C3" stroke-width="5" stroke-linecap="round"/>
<path d="M0.546875 127.109L118.466 59.5303" stroke="#0170C3" stroke-width="5" stroke-linecap="round"/>
<path d="M0.479004 141.992L118.398 74.4131" stroke="#0170C3" stroke-width="5" stroke-linecap="round"/>
<path d="M0.410156 156.883L118.329 89.3037" stroke="#0170C3" stroke-width="5" stroke-linecap="round"/>
<path d="M0.34082 171.766L118.26 104.187" stroke="#0170C3" stroke-width="5" stroke-linecap="round"/>
<path d="M0.273438 186.648L118.193 119.069" stroke="#0170C3" stroke-width="5" stroke-linecap="round"/>
<path d="M0.206055 201.531L118.125 133.952" stroke="#0170C3" stroke-width="5" stroke-linecap="round"/>
<path d="M0.135742 216.43L118.055 148.851" stroke="#0170C3" stroke-width="5" stroke-linecap="round"/>
<path d="M0.0678711 231.312L117.987 163.733" stroke="#0170C3" stroke-width="5" stroke-linecap="round"/>
<path d="M0.000488281 246.195L117.92 178.616" stroke="#0170C3" stroke-width="5" stroke-linecap="round"/>
</g>
</pattern></defs>
</svg>
