<svg width="406" height="406" viewBox="0 0 406 406" fill="none" xmlns="http://www.w3.org/2000/svg" xmlns:xlink="http://www.w3.org/1999/xlink">
<path d="M244.667 328H328V244.667H244.667V328Z" fill="#D9D9D9" stroke="white" stroke-width="10"/>
<path d="M161.335 328H244.668V244.667H161.335V328Z" fill="#0170C3" stroke="white" stroke-width="10"/>
<path d="M77.9987 328H161.332V244.667H77.9987V328Z" fill="url(#pattern0_1556_1245)" stroke="white" stroke-width="10"/>
<path d="M244.667 244.664H328V161.331H244.667V244.664Z" fill="#D9D9D9" stroke="white" stroke-width="10"/>
<path d="M161.335 244.664H244.668V161.331H161.335V244.664Z" fill="#D9D9D9" stroke="white" stroke-width="10"/>
<path d="M77.9987 244.664H161.332V161.331H77.9987V244.664Z" fill="#D9D9D9" stroke="white" stroke-width="10"/>
<path d="M244.667 161.336H328V78.0026H244.667V161.336Z" fill="#D9D9D9" stroke="white" stroke-width="10"/>
<path d="M161.335 161.336H244.668V78.0026H161.335V161.336Z" fill="#D9D9D9" stroke="white" stroke-width="10"/>
<path d="M77.9987 161.336H161.332V78.0026H77.9987V161.336Z" fill="#D9D9D9" stroke="white" stroke-width="10"/>
<path d="M3 403H403V3H3V403Z" stroke="black" stroke-width="5"/>
<defs>
<pattern id="pattern0_1556_1245" patternUnits="userSpaceOnUse" patternTransform="matrix(-118.736 0 0 -246.196 181.54 411.924)" preserveAspectRatio="none" viewBox="-2.50684 -2.49219 118.736 246.196" width="1" height="1">
<use xlink:href="#pattern0_1556_1245_inner" transform="translate(-118.736 -246.196)"/>
<use xlink:href="#pattern0_1556_1245_inner" transform="translate(0 -246.196)"/>
<use xlink:href="#pattern0_1556_1245_inner" transform="translate(-118.736 0)"/>
<g id="pattern0_1556_1245_inner">
<path d="M0.816406 67.5781L118.736 -0.000977498" stroke="#0170C3" stroke-width="5" stroke-linecap="round"/>
<path d="M0.748535 82.4531L118.668 14.874" stroke="#0170C3" stroke-width="5" stroke-linecap="round"/>
<path d="M0.679688 97.3516L118.599 29.7725" stroke="#0170C3" stroke-width="5" stroke-linecap="round"/>
<path d="M0.612305 112.234L118.531 44.6553" stroke="#0170C3" stroke-width="5" stroke-linecap="round"/>
<path d="M0.546875 127.109L118.466 59.5303" stroke="#0170C3" stroke-width="5" stroke-linecap="round"/>
<path d="M0.479004 141.992L118.398 74.4131" stroke="#0170C3" stroke-width="5" stroke-linecap="round"/>
<path d="M0.410156 156.883L118.329 89.3037" stroke="#0170C3" stroke-width="5" stroke-linecap="round"/>
<path d="M0.34082 171.766L118.26 104.187" stroke="#0170C3" stroke-width="5" stroke-linecap="round"/>
<path d="M0.273438 186.648L118.193 119.069" stroke="#0170C3" stroke-width="5" stroke-linecap="round"/>
<path d="M0.206055 201.531L118.125 133.952" stroke="#0170C3" stroke-width="5" stroke-linecap="round"/>
<path d="M0.135742 216.43L118.055 148.851" stroke="#0170C3" stroke-width="5" stroke-linecap="round"/>
<path d="M0.0678711 231.312L117.987 163.733" stroke="#0170C3" stroke-width="5" stroke-linecap="round"/>
<path d="M0.000488281 246.195L117.92 178.616" stroke="#0170C3" stroke-width="5" stroke-linecap="round"/>
</g>
</pattern></defs>
</svg>
