<svg width="400" height="400" viewBox="0 0 400 400" fill="none" xmlns="http://www.w3.org/2000/svg">
<path d="M199.5 299V201.5H296" stroke="black" stroke-width="10"/>
<path d="M199.5 101V201H103" stroke="black" stroke-width="10"/>
<rect x="2.5" y="2.5" width="395" height="395" stroke="black" stroke-width="5"/>
<path d="M110.014 198.5C110.006 198.999 110 199.499 110 200C110 249.706 150.294 290 200 290C200.668 290 201.335 289.991 202 289.977V299.979C201.335 299.992 200.668 300 200 300C144.772 300 100 255.228 100 200C100 199.499 100.004 198.999 100.012 198.5H110.014ZM200 100C255.228 100 300 144.772 300 200C300 201.34 299.973 202.673 299.921 204H289.911C289.969 202.674 290 201.34 290 200C290 150.294 249.706 110 200 110C198.996 110 197.996 110.018 197 110.051V100.045C197.996 100.016 198.996 100 200 100Z" fill="black"/>
</svg>
