<svg width="400" height="400" viewBox="0 0 400 400" fill="none" xmlns="http://www.w3.org/2000/svg">
<path d="M299 200.5H201.5V104" stroke="black" stroke-width="10"/>
<path d="M101 200.5L201 200.5L201 297" stroke="black" stroke-width="10"/>
<rect x="2.5" y="397.5" width="395" height="395" transform="rotate(-90 2.5 397.5)" stroke="black" stroke-width="5"/>
<path d="M198.5 289.986C198.999 289.994 199.499 290 200 290C249.706 290 290 249.706 290 200C290 150.294 249.706 110 200 110C150.294 110 110 150.294 110 200C110 201.004 110.018 202.004 110.051 203H100.045C100.016 202.004 100 201.004 100 200C100 144.772 144.772 100 200 100C255.228 100 300 144.772 300 200C300 255.228 255.228 300 200 300C199.499 300 198.999 299.996 198.5 299.988V289.986Z" fill="black"/>
</svg>
