<svg width="400" height="400" viewBox="0 0 400 400" fill="none" xmlns="http://www.w3.org/2000/svg">
<mask id="path-1-inside-1_1556_731" fill="white">
<path d="M0 0H400V400H0V0Z"/>
</mask>
<path d="M0 0H400V400H0V0Z" stroke="black" stroke-width="10" mask="url(#path-1-inside-1_1556_731)"/>
<mask id="path-2-inside-2_1556_731" fill="white">
<path d="M110 110H290V290H200H110V110Z"/>
</mask>
<path d="M200 290L196.87 291.565L200 297.826L203.13 291.565L200 290ZM200 290L203.13 288.435L113.13 108.435L110 110L106.87 111.565L196.87 291.565L200 290ZM290 110L286.87 108.435L196.87 288.435L200 290L203.13 291.565L293.13 111.565L290 110ZM110 110V103H103V110H110ZM290 110H297V103H290V110ZM290 290V297H297V290H290ZM110 290H103V297H110V290ZM110 110V117H290V110V103H110V110ZM290 110H283V290H290H297V110H290ZM110 290H117V110H110H103V290H110ZM290 290V283H200V290V297H290V290ZM200 290V283H110V290V297H200V290Z" fill="black" mask="url(#path-2-inside-2_1556_731)"/>
</svg>
